<svg height="512pt" viewBox="0 0 512 512" width="512pt" xmlns="http://www.w3.org/2000/svg"><path d="m209.445312 512c-7.898437 0-14.984374-5.523438-16.664062-13.558594-7.769531-37.203125 1.851562-99.582031 3.941406-109.511718 1.941406-9.210938 10.984375-15.101563 20.191406-13.160157 9.207032 1.941407 15.097657 10.980469 13.15625 20.1875-2.441406 11.582031-9.886718 66.980469-3.925781 95.511719 1.925781 9.210938-3.984375 18.242188-13.195312 20.167969-1.175781.246093-2.347657.363281-3.503907.363281zm0 0" fill="#efd176"/><path d="m312.769531 512c-6.65625 0-12.976562-3.921875-15.71875-10.441406-17.785156-42.304688-18.867187-93.207032-2.519531-118.394532 5.125-7.890624 15.679688-10.136718 23.574219-5.011718 7.890625 5.121094 10.136719 15.675781 5.015625 23.570312-7.710938 11.875-10.238282 49.554688 5.347656 86.628906 3.648438 8.675782-.429688 18.664063-9.101562 22.3125-2.15625.90625-4.398438 1.335938-6.597657 1.335938zm0 0" fill="#efd176"/><path d="m98.796875 342.164062c-22.609375 0-44.160156-9.167968-61.371094-26.265624-6.675781-6.632813-6.710937-17.421876-.078125-24.097657 6.632813-6.675781 17.425782-6.710937 24.101563-.078125 11.851562 11.773438 26.710937 17.515625 41.839843 16.160156 17.941407-1.609374 35.136719-12.957031 48.414063-31.960937 5.394531-7.714844 16.015625-9.597656 23.730469-4.207031s9.597656 16.011718 4.207031 23.726562c-19.144531 27.394532-45.175781 43.867188-73.308594 46.386719-2.519531.226563-5.035156.335937-7.535156.335937zm0 0" fill="#efd176"/><path d="m214.265625 68.65625c23.972656 23.976562 28.082031 61.304688 28.492187 80.460938.148438 6.960937-5.542968 12.652343-12.503906 12.503906-19.15625-.410156-56.480468-4.519532-80.457031-28.496094s-28.085937-61.300781-28.492187-80.457031c-.152344-6.960938 5.539062-12.652344 12.5-12.503907 19.15625.410157 56.484374 4.519532 80.460937 28.492188zm0 0" fill="#8ee2cf"/><path d="m196.40625 122.769531c-1.917969 0-3.839844-.730469-5.300781-2.195312l-28.753907-28.757813c-2.929687-2.925781-2.929687-7.675781 0-10.605468 2.925782-2.929688 7.675782-2.929688 10.605469 0l28.753907 28.757812c2.929687 2.925781 2.929687 7.675781 0 10.605469-1.464844 1.464843-3.382813 2.195312-5.304688 2.195312zm0 0" fill="#6fce91"/><path d="m307.960938 68.65625c-23.976563 23.976562-28.085938 61.304688-28.496094 80.460938-.148438 6.960937 5.542968 12.652343 12.503906 12.503906 19.15625-.410156 56.484375-4.519532 80.460938-28.496094 23.972656-23.976562 28.082031-61.300781 28.492187-80.457031.148437-6.960938-5.542969-12.652344-12.503906-12.503907-19.15625.410157-56.480469 4.519532-80.457031 28.492188zm0 0" fill="#8ee2cf"/><path d="m325.816406 122.769531c-1.917968 0-3.839844-.730469-5.300781-2.195312-2.929687-2.929688-2.929687-7.679688 0-10.605469l28.753906-28.757812c2.929688-2.929688 7.675781-2.929688 10.605469 0 2.929688 2.929687 2.929688 7.679687 0 10.605468l-28.753906 28.757813c-1.464844 1.464843-3.386719 2.195312-5.304688 2.195312zm0 0" fill="#6fce91"/><path d="m306.699219 80.8125c0 33.90625-23.488281 63.207031-36.746094 77.039062-4.816406 5.027344-12.863281 5.027344-17.683594 0-13.253906-13.832031-36.742187-43.132812-36.742187-77.039062s23.488281-63.207031 36.742187-77.042969c4.820313-5.027343 12.867188-5.027343 17.683594 0 13.257813 13.835938 36.746094 43.136719 36.746094 77.042969zm0 0" fill="#8ee2cf"/><path d="m261.113281 108.644531c-4.144531 0-7.5-3.359375-7.5-7.5v-40.664062c0-4.144531 3.355469-7.5 7.5-7.5 4.140625 0 7.5 3.355469 7.5 7.5v40.664062c0 4.140625-3.359375 7.5-7.5 7.5zm0 0" fill="#6fce91"/><path d="m261.113281 130.140625c70.335938 0 120.613281 55.394531 127.355469 139.28125 7.007812 87.261719-25.816406 152.351563-127.355469 152.351563-101.542969 0-134.367187-65.089844-127.355469-152.351563 6.738282-83.886719 57.019532-139.28125 127.355469-139.28125zm0 0" fill="#f7ef87"/><g fill="#efd176"><path d="m219.066406 137.453125c-47.757812 17.628906-80.007812 65.980469-85.308594 131.96875-6.992187 87.019531 25.636719 151.980469 126.515626 152.34375-122.445313-74.917969-89.609376-210.078125-41.207032-284.3125zm0 0"/><path d="m273.476562 237.476562c-1.917968 0-3.835937-.730468-5.300781-2.195312l-7.0625-7.0625-7.0625 7.0625c-2.929687 2.929688-7.679687 2.929688-10.609375 0-2.925781-2.929688-2.925781-7.679688 0-10.605469l12.367188-12.367187c2.929687-2.929688 7.679687-2.929688 10.605468 0l12.367188 12.367187c2.929688 2.925781 2.929688 7.675781 0 10.605469-1.464844 1.464844-3.382812 2.195312-5.304688 2.195312zm0 0"/><path d="m344.175781 237.476562c-1.917969 0-3.839843-.730468-5.304687-2.195312l-7.0625-7.0625-7.0625 7.0625c-2.929688 2.929688-7.679688 2.929688-10.605469 0-2.929687-2.929688-2.929687-7.675781 0-10.605469l12.363281-12.367187c1.40625-1.40625 3.316406-2.199219 5.304688-2.199219 1.988281 0 3.894531.792969 5.300781 2.199219l12.367187 12.367187c2.929688 2.925781 2.929688 7.675781 0 10.605469-1.460937 1.464844-3.382812 2.195312-5.300781 2.195312zm0 0"/><path d="m202.78125 237.476562c-1.921875 0-3.839844-.730468-5.304688-2.195312l-7.0625-7.0625-7.0625 7.0625c-2.929687 2.929688-7.675781 2.929688-10.605468 0-2.929688-2.929688-2.929688-7.675781 0-10.605469l12.363281-12.367187c1.40625-1.40625 3.316406-2.199219 5.304687-2.199219 1.988282 0 3.898438.792969 5.304688 2.199219l12.363281 12.367187c2.929688 2.925781 2.929688 7.675781 0 10.605469-1.464843 1.464844-3.382812 2.195312-5.300781 2.195312zm0 0"/><path d="m308.828125 379.003906c-1.921875 0-3.839844-.734375-5.304687-2.199218l-7.0625-7.0625-7.0625 7.0625c-2.929688 2.929687-7.679688 2.929687-10.605469 0-2.929688-2.929688-2.929688-7.675782 0-10.605469l12.363281-12.367188c2.929688-2.929687 7.679688-2.929687 10.609375 0l12.367187 12.367188c2.925782 2.929687 2.925782 7.679687 0 10.605469-1.46875 1.464843-3.386718 2.199218-5.304687 2.199218zm0 0"/><path d="m238.128906 379.003906c-1.917968 0-3.839844-.734375-5.304687-2.199218l-7.0625-7.0625-7.0625 7.0625c-2.929688 2.929687-7.675781 2.929687-10.605469 0-2.929688-2.929688-2.929688-7.675782 0-10.605469l12.367188-12.367188c2.925781-2.929687 7.675781-2.929687 10.605468 0l12.363282 12.367188c2.929687 2.929687 2.929687 7.679687 0 10.605469-1.460938 1.464843-3.378907 2.199218-5.300782 2.199218zm0 0"/></g><path d="m199.113281 308.09375c0-13.3125-13.554687-24.109375-30.273437-24.109375-16.722656 0-30.273438 10.796875-30.273438 24.109375 0 13.316406 13.550782 24.109375 30.273438 24.109375 16.71875 0 30.273437-10.792969 30.273437-24.109375zm0 0" fill="#eda1ab"/><path d="m363.210938 308.09375c0-13.3125-13.554688-24.109375-30.273438-24.109375-16.722656 0-30.277344 10.796875-30.277344 24.109375 0 13.316406 13.554688 24.109375 30.277344 24.109375 16.71875 0 30.273438-10.792969 30.273438-24.109375zm0 0" fill="#eda1ab"/><path d="m173.898438 287.128906c-4.140626 0-7.5-3.359375-7.5-7.5v-12.996094c0-4.140624 3.359374-7.5 7.5-7.5 4.144531 0 7.5 3.359376 7.5 7.5v12.996094c0 4.140625-3.355469 7.5-7.5 7.5zm0 0" fill="#4e5660"/><path d="m275.296875 289.570312c0-15.085937-10.929687-16.5-24.410156-16.5s-24.410157 1.414063-24.410157 16.5c0 15.085938 10.929688 27.3125 24.410157 27.3125s24.410156-12.226562 24.410156-27.3125zm0 0" fill="#4e5660"/><path d="m327.875 287.128906c-4.140625 0-7.5-3.359375-7.5-7.5v-12.996094c0-4.140624 3.359375-7.5 7.5-7.5s7.5 3.359376 7.5 7.5v12.996094c0 4.140625-3.355469 7.5-7.5 7.5zm0 0" fill="#4e5660"/><path d="m317.589844 345.875-34.949219 6.160156 14.164063 57.765625c1.4375 5.863281 7.175781 9.605469 13.121093 8.558594l4.707031-.832031c5.945313-1.046875 10.058594-6.527344 9.402344-12.527344zm0 0" fill="#8eafe2"/><path d="m315.085938 356.140625-26.578126 4.6875c-5.164062.910156-10.339843-1.527344-12.929687-6.085937l-5.277344-9.289063c-2.582031-4.550781-3.519531-9.851563-2.644531-15.007813l1.78125-10.535156c.871094-5.171875 4.902344-9.230468 10.066406-10.140625l26.578125-4.683593c5.160157-.910157 10.339844 1.523437 12.929688 6.082031l5.273437 9.289062c2.585938 4.550781 3.519532 9.851563 2.648438 15.011719l-1.78125 10.535156c-.875 5.167969-4.90625 9.226563-10.066406 10.136719zm0 0" fill="#4e5660"/><path d="m346.621094 387.382812c-14.554688 0-31.9375-2.855468-52.550782-8.542968-9.074218-2.503906-14.398437-11.886719-11.894531-20.960938 2.503907-9.070312 11.878907-14.398437 20.960938-11.890625 15.035156 4.148438 51.265625 12.699219 62.902343 2.523438 5.945313-5.203125 7.359376-18.550781 4.320313-40.804688-1.269531-9.324219 5.253906-17.917969 14.582031-19.1875 9.3125-1.273437 17.914063 5.253907 19.1875 14.578125 2.101563 15.386719 2.429688 27.285156 1.042969 37.441406-1.964844 14.339844-7.582031 25.652344-16.699219 33.625-10.085937 8.824219-23.789062 13.21875-41.851562 13.21875zm0 0" fill="#efd176"/><path d="m47.902344 155.550781v43.417969c-3.433594-.21875-7.078125-.023438-10.859375.644531-20.457031 3.609375-37.042969 19.539063-37.042969 35.582031 0 16.042969 16.585938 26.125 37.042969 22.519532 20.460937-3.609375 37.046875-19.539063 37.046875-35.582032v-71.199218zm0 0" fill="#8ee2cf"/><path d="m95.316406 147.191406-47.414062 8.359375v-13.796875c0-10.523437 7.554687-19.523437 17.917968-21.351562l38.835938-6.847656c4.386719-.773438 8.40625 2.597656 8.40625 7.050781v5.4375c0 10.421875-7.484375 19.339843-17.746094 21.148437zm0 0" fill="#8eafe2"/><path d="m47.902344 167.824219 26.1875-4.613281v-12.277344l-26.1875 4.617187zm0 0" fill="#6fce91"/><path d="m446.839844 371.773438v43.417968c-3.433594-.21875-7.078125-.023437-10.859375.644532-20.457031 3.605468-37.042969 19.535156-37.042969 35.582031 0 16.042969 16.585938 26.125 37.042969 22.515625 20.460937-3.605469 37.046875-19.535156 37.046875-35.582032v-71.195312zm0 0" fill="#8eafe2"/><path d="m446.839844 384.046875 26.183594-4.617187v-12.273438l-26.183594 4.617188zm0 0" fill="#6a96d7"/><path d="m494.253906 363.414062-47.414062 8.359376v-13.796876c0-10.523437 7.554687-19.527343 17.917968-21.351562l38.835938-6.847656c4.386719-.773438 8.40625 2.597656 8.40625 7.050781v5.4375c0 10.421875-7.484375 19.339844-17.746094 21.148437zm0 0" fill="#8ee2cf"/></svg>