<svg height="512pt" viewBox="-30 0 512 512.00025" width="512pt" xmlns="http://www.w3.org/2000/svg"><path d="m24.152344 347.019531 4.082031 1.269531c18.390625 5.707032 38.078125 5.707032 56.46875 0 18.390625-5.710937 38.078125-5.710937 56.46875 0 18.390625 5.707032 38.078125 5.707032 56.46875 0 18.390625-5.710937 38.078125-5.710937 56.46875 0 18.390625 5.707032 38.078125 5.707032 56.46875 0 18.390625-5.710937 38.078125-5.710937 56.46875 0 18.390625 5.707032 38.082031 5.707032 56.46875 0l4.082031-1.269531c11.988282-3.722656 24.152344 5.238281 24.152344 17.792969v98.140625c0 27.089844-21.957031 49.046875-49.042969 49.046875h-353.660156c-27.085937 0-49.046875-21.957031-49.046875-49.046875v-98.140625c0-12.554688 12.164062-21.515625 24.152344-17.792969zm0 0" fill="#a3defe"/><path d="m65.59375 472.421875c-1.917969 0-3.839844-.730469-5.304688-2.195313-2.929687-2.929687-2.929687-7.679687 0-10.605468 13.574219-13.574219 35.664063-13.574219 49.234376 0 2.933593 2.925781 2.933593 7.675781.003906 10.605468-2.929688 2.929688-7.679688 2.929688-10.605469 0-7.730469-7.726562-20.300781-7.726562-28.027344 0-1.460937 1.460938-3.382812 2.195313-5.300781 2.195313zm0 0" fill="#7acefa"/><path d="m395.246094 401.71875c-1.917969 0-3.839844-.730469-5.304688-2.195312-8.320312-8.324219-21.863281-8.324219-30.183594 0-2.933593 2.929687-7.679687 2.929687-10.609374 0-2.929688-2.929688-2.929688-7.679688 0-10.609376 14.171874-14.167968 37.230468-14.167968 51.402343 0 2.925781 2.929688 2.925781 7.679688 0 10.609376-1.464843 1.464843-3.386719 2.195312-5.304687 2.195312zm0 0" fill="#7acefa"/><path d="m384.050781 419.878906c0 29.839844-59.671875 55.011719-149.695312 59.679688-141.15625 7.316406-156.199219-18.25-156.199219-59.679688 0-41.433594 15.042969-67 156.199219-59.683594 90.023437 4.671876 149.695312 29.84375 149.695312 59.683594zm0 0" fill="#e26e7e"/><path d="m230.304688 410.972656c-22.195313 0-42.375 2.644532-57.40625 6.957032-3.472657-21.15625-3.019532-42.628907-1.65625-58.640626-82.835938 3.027344-93.085938 26.40625-93.085938 60.585938 0 38.332031 12.890625 63.078125 126.582031 60.773438-7.605469-5.972657-13.621093-13.4375-18.355469-21.808594 12.785157 2.40625 27.824219 3.796875 43.925782 3.796875 46.460937 0 84.128906-11.566407 84.128906-25.832031 0-14.265626-37.667969-25.832032-84.132812-25.832032zm0 0" fill="#d9495d"/><path d="m253.5625 361.542969c1.125 21.59375-14.289062 32.6875-14.289062 58.335937 0 25.644532 15.414062 36.738282 14.289062 58.332032 79.203125-7.023438 130.488281-30.671876 130.488281-58.332032 0-27.664062-51.285156-51.3125-130.488281-58.335937zm0 0" fill="#fff"/><path d="m239.902344 411.144531c-.398438 2.726563-.628906 5.621094-.628906 8.734375 0 18.386719 7.921874 29.292969 11.992187 41.949219 36.324219-2.859375 63.171875-12.976563 63.171875-25.023437 0-13.269532-32.59375-24.195313-74.535156-25.660157zm0 0" fill="#f6e3a3"/><path d="m184.816406 448.980469c-7.167968 0-13.597656-5.007813-15.121094-12.300781-6.777343-32.4375.5625-72.28125 2.976563-83.722657 1.761719-8.355469 9.964844-13.707031 18.320313-11.941406 8.355468 1.761719 13.703124 9.964844 11.941406 18.320313-1.492188 7.082031-8.652344 43.792968-2.960938 71.015624 1.746094 8.359376-3.613281 16.554688-11.976562 18.300782-1.066406.222656-2.132813.328125-3.179688.328125zm0 0" fill="#efd176"/><path d="m288.34375 448.980469c-1.03125 0-2.082031-.101563-3.132812-.320313-8.367188-1.722656-13.75-9.898437-12.027344-18.265625 4.722656-22.949219-4.730469-51.34375-16.523438-63.464843-5.953125-6.121094-5.820312-15.910157.300782-21.867188 6.121093-5.957031 15.914062-5.820312 21.867187.300781 17.382813 17.859375 31.925781 55.921875 24.648437 91.269531-1.503906 7.3125-7.945312 12.347657-15.132812 12.347657zm0 0" fill="#efd176"/><path d="m411.101562 314.078125c-49.480468 0-90.714843-29.75-103.066406-39.664063-6.660156-5.347656-7.726562-15.082031-2.378906-21.742187s15.078125-7.726563 21.742188-2.378906c23.125 18.566406 60.328124 36.75 95.410156 32.089843 8.472656-1.125 16.242187 4.828126 17.363281 13.292969 1.125 8.46875-4.828125 16.242188-13.292969 17.367188-5.332031.710937-10.601562 1.035156-15.777344 1.035156zm0 0" fill="#efd176"/><path d="m110.15625 287.277344c-3.964844 0-7.949219-.347656-11.929688-1.058594-16.617187-2.957031-40.671874-13.53125-60.890624-47.101562-4.40625-7.316407-2.046876-16.820313 5.269531-21.226563 7.320312-4.40625 16.824219-2.046875 21.226562 5.269531 11.261719 18.703125 25.03125 29.980469 39.8125 32.609375 10.816407 1.925781 21.882813-1.117187 31.164063-8.566406 6.660156-5.347656 16.394531-4.28125 21.742187 2.378906 5.34375 6.660157 4.28125 16.394531-2.378906 21.738281-13.042969 10.472657-28.339844 15.957032-44.015625 15.957032zm0 0" fill="#efd176"/><path d="m188.589844 62.308594c21.757812 21.757812 25.484375 55.632812 25.855468 73.015625.136719 6.316406-5.027343 11.484375-11.34375 11.347656-17.386718-.371094-51.261718-4.101563-73.019531-25.859375-21.757812-21.757812-25.484375-55.628906-25.855469-73.015625-.136718-6.316406 5.027344-11.480469 11.34375-11.347656 17.386719.371093 51.261719 4.101562 73.019532 25.859375zm0 0" fill="#8ee2cf"/><path d="m172.382812 112.109375c-1.917968 0-3.835937-.734375-5.300781-2.199219l-26.097656-26.09375c-2.929687-2.929687-2.929687-7.679687 0-10.605468 2.929687-2.929688 7.679687-2.929688 10.605469 0l26.097656 26.09375c2.929688 2.929687 2.929688 7.679687 0 10.605468-1.464844 1.464844-3.382812 2.199219-5.304688 2.199219zm0 0" fill="#6fce91"/><path d="m273.617188 62.308594c-21.757813 21.757812-25.484376 55.632812-25.855469 73.015625-.136719 6.316406 5.03125 11.484375 11.347656 11.347656 17.382813-.371094 51.257813-4.101563 73.015625-25.859375s25.488281-55.628906 25.859375-73.015625c.132813-6.316406-5.03125-11.480469-11.347656-11.347656-17.386719.371093-51.257813 4.101562-73.019531 25.859375zm0 0" fill="#8ee2cf"/><path d="m289.824219 112.109375c-1.917969 0-3.839844-.734375-5.304688-2.199219-2.929687-2.929687-2.929687-7.675781 0-10.605468l26.09375-26.09375c2.933594-2.929688 7.679688-2.929688 10.609375 0 2.929688 2.929687 2.929688 7.675781 0 10.605468l-26.09375 26.09375c-1.464844 1.464844-3.386718 2.199219-5.304687 2.199219zm0 0" fill="#6fce91"/><path d="m272.472656 73.335938c0 30.773437-21.316406 57.359374-33.34375 69.917968-4.371094 4.5625-11.675781 4.5625-16.046875 0-12.03125-12.558594-33.347656-39.144531-33.347656-69.917968 0-30.769532 21.316406-57.359376 33.347656-69.914063 4.371094-4.5625 11.675781-4.5625 16.046875 0 12.027344 12.554687 33.34375 39.144531 33.34375 69.914063zm0 0" fill="#8ee2cf"/><path d="m231.105469 99.289062c-4.144531 0-7.5-3.355468-7.5-7.5v-36.902343c0-4.144531 3.355469-7.5 7.5-7.5 4.140625 0 7.5 3.355469 7.5 7.5v36.902343c0 4.144532-3.359375 7.5-7.5 7.5zm0 0" fill="#6fce91"/><path d="m231.105469 118.105469c63.828125 0 109.457031 50.269531 115.574219 126.398437 6.363281 79.191406-23.425782 138.257813-115.574219 138.257813-92.152344 0-121.941407-59.066407-115.578125-138.257813 6.117187-76.128906 51.746094-126.398437 115.578125-126.398437zm0 0" fill="#f7ef87"/><g fill="#efd176"><path d="m192.945312 124.738281c-43.339843 16-72.605468 59.878907-77.417968 119.765625-6.34375 78.96875 23.265625 137.921875 114.816406 138.25-111.121094-67.984375-81.324219-190.648437-37.398438-258.015625zm0 0"/><path d="m242.324219 222.5625c-1.917969 0-3.835938-.730469-5.300781-2.195312l-5.921876-5.921876-5.917968 5.921876c-2.929688 2.925781-7.675782 2.929687-10.605469 0-2.929687-2.929688-2.929687-7.679688 0-10.609376l11.222656-11.21875c1.40625-1.410156 3.3125-2.199218 5.300781-2.199218 1.992188 0 3.898438.789062 5.304688 2.199218l11.222656 11.21875c2.929688 2.929688 2.929688 7.679688 0 10.609376-1.464844 1.464843-3.382812 2.195312-5.304687 2.195312zm0 0"/><path d="m306.484375 222.5625c-1.921875 0-3.839844-.730469-5.304687-2.195312l-5.917969-5.921876-5.917969 5.921876c-2.929688 2.925781-7.679688 2.929687-10.605469 0-2.929687-2.929688-2.929687-7.679688-.003906-10.609376l11.222656-11.21875c1.40625-1.410156 3.316407-2.199218 5.304688-2.199218s3.898437.789062 5.304687 2.199218l11.222656 11.21875c2.929688 2.929688 2.929688 7.679688 0 10.609376-1.464843 1.464843-3.386718 2.195312-5.304687 2.195312zm0 0"/><path d="m178.167969 222.5625c-1.921875 0-3.839844-.730469-5.304688-2.195312l-5.917969-5.921876-5.917968 5.921876c-2.929688 2.925781-7.679688 2.929687-10.605469 0-2.929687-2.929688-2.929687-7.679688 0-10.609376l11.21875-11.21875c1.410156-1.410156 3.316406-2.199218 5.304687-2.199218 1.988282 0 3.898438.789062 5.304688 2.199218l11.222656 11.21875c2.929688 2.929688 2.929688 7.679688 0 10.609376-1.464844 1.464843-3.386718 2.195312-5.304687 2.195312zm0 0"/><path d="m251.960938 347.734375c-1.917969 0-3.839844-.730469-5.304688-2.195313-2.929688-2.929687-2.929688-7.679687 0-10.609374l11.226562-11.21875c2.925782-2.929688 7.675782-2.929688 10.605469 0l11.222657 11.222656c2.925781 2.925781 2.925781 7.675781 0 10.605468-2.933594 2.929688-7.679688 2.929688-10.609376 0l-5.917968-5.917968-5.917969 5.917968c-1.464844 1.464844-3.386719 2.195313-5.304687 2.195313zm0 0"/><path d="m210.246094 347.734375c-1.917969 0-3.839844-.730469-5.300782-2.195313l-5.921874-5.917968-5.917969 5.917968c-2.929688 2.929688-7.675781 2.929688-10.605469 0-2.929688-2.929687-2.929688-7.679687 0-10.609374l11.222656-11.21875c2.929688-2.929688 7.675782-2.929688 10.605469-.003907l11.222656 11.222657c2.929688 2.929687 2.929688 7.679687 0 10.609374-1.464843 1.464844-3.382812 2.195313-5.304687 2.195313zm0 0"/></g><path d="m193.925781 288.015625c0-12.070313-12.289062-21.855469-27.445312-21.855469s-27.441407 9.785156-27.441407 21.855469 12.285157 21.855469 27.441407 21.855469 27.445312-9.785156 27.445312-21.855469zm0 0" fill="#eda1ab"/><path d="m342.679688 288.015625c0-12.070313-12.285157-21.855469-27.445313-21.855469-15.15625 0-27.441406 9.785156-27.441406 21.855469s12.285156 21.855469 27.441406 21.855469c15.160156 0 27.445313-9.785156 27.445313-21.855469zm0 0" fill="#eda1ab"/><path d="m182.476562 273.710938c-4.140624 0-7.5-3.355469-7.5-7.5v-9.691407c0-4.140625 3.359376-7.5 7.5-7.5 4.140626 0 7.5 3.359375 7.5 7.5v9.691407c0 4.144531-3.359374 7.5-7.5 7.5zm0 0" fill="#4e5660"/><path d="m299.242188 273.710938c-4.144532 0-7.5-3.355469-7.5-7.5v-9.691407c0-4.140625 3.355468-7.5 7.5-7.5 4.144531 0 7.5 3.359375 7.5 7.5v9.691407c0 4.144531-3.355469 7.5-7.5 7.5zm0 0" fill="#4e5660"/><path d="m240.859375 281.15625c-8.066406 0-15.738281-3.496094-21.046875-9.585938-2.722656-3.121093-2.398438-7.859374.726562-10.582031 3.121094-2.722656 7.859376-2.398437 10.578126.726563 2.460937 2.820312 6.011718 4.4375 9.738281 4.4375 3.730469 0 7.28125-1.617188 9.738281-4.4375 2.722656-3.125 7.460938-3.449219 10.582031-.726563 3.125 2.71875 3.449219 7.457031.726563 10.582031-5.304688 6.089844-12.976563 9.585938-21.042969 9.585938zm0 0" fill="#4e5660"/><path d="m180.566406 152.296875h-25.015625c-10.507812 0-18.34375 9.691406-16.140625 19.96875l1.386719 6.460937c2.328125 10.859376 11.925781 18.617188 23.035156 18.617188h8.457031c11.105469 0 20.703126-7.757812 23.035157-18.617188l1.382812-6.460937c2.207031-10.277344-5.628906-19.96875-16.140625-19.96875zm0 0" fill="#4e5660"/><path d="m269.371094 165.359375c-.335938 0-.679688-.023437-1.019532-.070313-9.019531-1.226562-21.398437-2.640624-37.246093-2.640624-15.847657 0-28.230469 1.414062-37.246094 2.640624-4.082031.558594-7.882813-2.3125-8.445313-6.417968-.558593-4.101563 2.316407-7.882813 6.421876-8.441406 9.484374-1.292969 22.519531-2.78125 39.269531-2.78125 16.746093 0 29.785156 1.484374 39.269531 2.78125 4.105469.558593 6.980469 4.339843 6.417969 8.441406-.511719 3.761718-3.730469 6.488281-7.421875 6.488281zm0 0" fill="#e26e7e"/><path d="m172.289062 204.84375h-8.457031c-14.546875 0-27.320312-10.324219-30.367187-24.546875l-1.386719-6.460937c-1.527344-7.121094.222656-14.457032 4.800781-20.125 4.582032-5.664063 11.386719-8.914063 18.671875-8.914063h25.019531c7.285157 0 14.089844 3.25 18.667969 8.914063 4.582031 5.667968 6.332031 13.003906 4.804688 20.125l-1.386719 6.460937c-3.050781 14.222656-15.820312 24.546875-30.367188 24.546875zm-16.738281-45.046875c-2.734375 0-5.285156 1.21875-7.003906 3.34375s-2.375 4.878906-1.804687 7.550781l1.386718 6.460938c1.578125 7.355468 8.179688 12.691406 15.703125 12.691406h8.457031c7.519532 0 14.125-5.335938 15.699219-12.691406l1.386719-6.460938c.574219-2.671875-.082031-5.425781-1.800781-7.550781s-4.273438-3.34375-7.007813-3.34375zm0 0" fill="#e26e7e"/><path d="m281.640625 152.296875h25.015625c10.511719 0 18.34375 9.691406 16.140625 19.96875l-1.382813 6.460937c-2.332031 10.859376-11.929687 18.617188-23.035156 18.617188h-8.460937c-11.105469 0-20.703125-7.757812-23.03125-18.617188l-1.386719-6.460937c-2.203125-10.277344 5.628906-19.96875 16.140625-19.96875zm0 0" fill="#4e5660"/><path d="m298.378906 204.84375h-8.460937c-14.542969 0-27.316407-10.324219-30.367188-24.546875l-1.382812-6.460937c-1.527344-7.121094.222656-14.457032 4.800781-20.125 4.582031-5.664063 11.386719-8.914063 18.671875-8.914063h25.015625c7.289062 0 14.09375 3.25 18.671875 8.914063 4.578125 5.667968 6.332031 13.003906 4.804687 20.125l-1.386718 6.460937c-3.050782 14.222656-15.820313 24.546875-30.367188 24.546875zm-16.738281-45.046875c-2.734375 0-5.285156 1.21875-7.003906 3.34375s-2.375 4.878906-1.804688 7.550781l1.386719 6.460938c1.578125 7.355468 8.179688 12.691406 15.699219 12.691406h8.460937c7.519532 0 14.125-5.335938 15.699219-12.691406l1.386719-6.460938c.574218-2.671875-.085938-5.425781-1.800782-7.550781-1.722656-2.125-4.273437-3.34375-7.007812-3.34375zm0 0" fill="#e26e7e"/><path d="m414.5625 483.207031c-1.917969 0-3.839844-.734375-5.304688-2.199219-7.726562-7.726562-20.296874-7.726562-28.023437 0-2.929687 2.929688-7.675781 2.929688-10.605469 0-2.929687-2.929687-2.929687-7.675781 0-10.605468 13.574219-13.574219 35.664063-13.574219 49.234375 0 2.933594 2.929687 2.933594 7.675781.003907 10.605468-1.46875 1.464844-3.386719 2.199219-5.304688 2.199219zm0 0" fill="#7acefa"/><path d="m61.175781 398.453125c-1.917969 0-3.839843-.730469-5.304687-2.195313-6.339844-6.34375-16.660156-6.339843-23 0-2.929688 2.929688-7.675782 2.929688-10.605469 0-2.929687-2.929687-2.929687-7.679687 0-10.605468 5.90625-5.90625 13.753906-9.15625 22.105469-9.15625 8.351562 0 16.203125 3.25 22.105468 9.15625 2.929688 2.929687 2.929688 7.675781 0 10.605468-1.460937 1.464844-3.382812 2.195313-5.300781 2.195313zm0 0" fill="#7acefa"/></svg>