<svg height="512pt" viewBox="-38 0 512 512.00039" width="512pt" xmlns="http://www.w3.org/2000/svg"><path d="m174.1875 512c-.855469 0-1.722656-.066406-2.597656-.199219-9.167969-1.425781-15.445313-10.011719-14.023438-19.179687 6.996094-45.054688-5.320312-85.800782-10.226562-92.707032-5.78125-7.191406-4.675782-17.714843 2.492187-23.550781 7.195313-5.859375 17.777344-4.773437 23.636719 2.421875 12.546875 15.414063 25.199219 68.136719 17.300781 118.992188-1.289062 8.292968-8.441406 14.222656-16.582031 14.222656zm-26.78125-112.003906h.011719zm0 0" fill="#efd176"/><path d="m323.484375 465.726562c-.179687 0-.359375-.003906-.542969-.007812-9.273437-.296875-16.554687-8.050781-16.257812-17.324219.941406-29.882812-17.417969-48.652343-57.789063-59.074219-8.984375-2.316406-14.386719-11.480468-12.070312-20.464843 2.320312-8.984375 11.488281-14.390625 20.46875-12.070313 70.425781 18.175782 83.992187 60.425782 82.972656 92.671875-.285156 9.09375-7.75 16.269531-16.78125 16.269531zm0 0" fill="#efd176"/><path d="m364.066406 351.367188c-.226562 0-.449218-.003907-.675781-.011719-9.273437-.367188-16.488281-8.183594-16.121094-17.453125.691407-17.476563-5.867187-30.214844-20.632812-40.09375-11.648438-7.789063-28.570313-13.445313-47.648438-15.921875-9.199219-1.195313-15.691406-9.625-14.496093-18.828125 1.195312-9.199219 9.628906-15.691406 18.828124-14.496094 17.054688 2.21875 41.65625 7.714844 61.996094 21.316406 24.390625 16.316406 36.675782 40.296875 35.527344 69.351563-.359375 9.046875-7.804688 16.136719-16.777344 16.136719zm0 0" fill="#efd176"/><path d="m16.785156 392.035156c-2.953125 0-5.945312-.78125-8.660156-2.417968-7.945312-4.792969-10.5-15.121094-5.707031-23.066407 27.511719-45.605469 44.941406-56.9375 60.324219-66.9375 7.449218-4.847656 13.335937-8.675781 20.449218-16.785156 6.117188-6.976563 16.730469-7.671875 23.707032-1.558594 6.976562 6.117188 7.675781 16.734375 1.558593 23.707031-10.171875 11.601563-19.324219 17.554688-27.398437 22.804688-12.953125 8.421875-26.34375 17.128906-49.871094 56.125-3.152344 5.230469-8.707031 8.128906-14.402344 8.128906zm0 0" fill="#efd176"/><path d="m105.847656 74.867188c27.382813 19.175781 37.761719 54.714843 41.4375 73.242187 1.335938 6.734375-3.214844 13.234375-9.996094 14.28125-18.671874 2.882813-55.617187 5.285156-83-13.890625-27.382812-19.171875-37.761718-54.710938-41.441406-73.242188-1.335937-6.730468 3.214844-13.230468 10-14.28125 18.671875-2.882812 55.613282-5.28125 83 13.890626zm0 0" fill="#8ee2cf"/><path d="m96.484375 130.683594c-1.488281 0-2.988281-.441406-4.296875-1.355469l-32.84375-22.996094c-3.390625-2.375-4.21875-7.054687-1.839844-10.445312 2.375-3.394531 7.050782-4.21875 10.445313-1.84375l32.839843 22.996093c3.394532 2.375 4.21875 7.050782 1.84375 10.445313-1.460937 2.082031-3.785156 3.199219-6.148437 3.199219zm0 0" fill="#6fce91"/><path d="m196.820312 58.828125c-19.175781 27.382813-16.773437 64.328125-13.890624 82.996094 1.046874 6.785156 7.546874 11.335937 14.277343 10 18.53125-3.675781 54.070313-14.054688 73.242188-41.441407 19.175781-27.382812 16.773437-64.328124 13.890625-82.996093-1.046875-6.785157-7.546875-11.335938-14.277344-10-18.53125 3.675781-54.070312 14.058593-73.242188 41.441406zm0 0" fill="#8ee2cf"/><path d="m222.128906 108.527344c-1.484375 0-2.984375-.441406-4.292968-1.355469-3.394532-2.378906-4.21875-7.054687-1.84375-10.445313l22.996093-32.84375c2.378907-3.390624 7.054688-4.214843 10.445313-1.839843 3.394531 2.375 4.21875 7.050781 1.84375 10.445312l-22.996094 32.839844c-1.460938 2.085937-3.785156 3.199219-6.152344 3.199219zm0 0" fill="#6fce91"/><path d="m197.675781 70.84375c5.804688 32.921875-11.984375 65.390625-22.488281 81.09375-3.816406 5.703125-11.632812 7.082031-17.167969 3.027344-15.242187-11.164063-43.0625-35.589844-48.867187-68.511719-5.804688-32.921875 11.984375-65.390625 22.488281-81.09375 3.8125-5.707031 11.628906-7.082031 17.167969-3.027344 15.238281 11.164063 43.0625 35.589844 48.867187 68.511719zm0 0" fill="#8ee2cf"/><path d="m156.886719 105.890625c-3.570313 0-6.738281-2.558594-7.378907-6.199219l-6.960937-39.480468c-.71875-4.082032 2.003906-7.96875 6.082031-8.691407 4.082032-.71875 7.972656 2.007813 8.691406 6.085938l6.960938 39.484375c.71875 4.078125-2.003906 7.96875-6.085938 8.6875-.4375.074218-.878906.113281-1.308593.113281zm0 0" fill="#6fce91"/><path d="m161.859375 126.542969c68.292969-12.039063 126.59375 33.136719 147.5 113.429687 21.746094 83.527344 1.019531 152.34375-97.574219 169.726563-98.589844 17.382812-141.601562-40.195313-149.734375-126.117188-7.816406-82.605469 31.515625-144.996093 99.808594-157.039062zm0 0" fill="#f7ef87"/><g fill="#efd176"><path d="m122.285156 140.839844c-43.347656 25.296875-66.382812 77.761718-60.234375 142.742187 8.109375 85.683594 50.914063 143.171875 148.921875 126.253907-131.710937-51.777344-122.972656-188.632813-88.6875-268.996094zm0 0"/><path d="m168.136719 239.894531c-1.484375 0-2.984375-.4375-4.292969-1.355469-3.394531-2.375-4.21875-7.050781-1.84375-10.445312l9.890625-14.125c2.375-3.390625 7.050781-4.214844 10.445313-1.839844l14.121093 9.886719c3.394531 2.378906 4.21875 7.054687 1.84375 10.445313-2.375 3.394531-7.050781 4.21875-10.445312 1.84375l-7.980469-5.585938-5.585938 7.976562c-1.460937 2.085938-3.789062 3.199219-6.152343 3.199219zm0 0"/><path d="m236.78125 227.792969c-1.488281 0-2.988281-.441407-4.296875-1.359375-3.390625-2.375-4.214844-7.050782-1.839844-10.445313l9.886719-14.121093c1.140625-1.628907 2.882812-2.742188 4.84375-3.085938 1.957031-.347656 3.972656.101562 5.601562 1.242188l14.125 9.890624c3.390626 2.375 4.21875 7.050782 1.839844 10.445313-2.375 3.394531-7.050781 4.21875-10.445312 1.839844l-7.976563-5.585938-5.585937 7.980469c-1.460938 2.082031-3.789063 3.199219-6.152344 3.199219zm0 0"/><path d="m99.496094 252c-1.488282 0-2.988282-.441406-4.296875-1.359375-3.390625-2.375-4.21875-7.050781-1.839844-10.445313l9.886719-14.121093c2.375-3.394531 7.054687-4.21875 10.445312-1.84375l14.125 9.890625c3.390625 2.375 4.21875 7.050781 1.839844 10.445312-2.375 3.390625-7.050781 4.21875-10.445312 1.839844l-7.976563-5.585938-5.589844 7.980469c-1.457031 2.082031-3.785156 3.199219-6.148437 3.199219zm0 0"/><path d="m226.074219 367.765625c-1.488281 0-2.988281-.441406-4.296875-1.355469-3.390625-2.375-4.21875-7.054687-1.839844-10.445312l9.886719-14.125c1.140625-1.628906 2.882812-2.738282 4.839843-3.085938 1.960938-.34375 3.976563.101563 5.605469 1.242188l14.121094 9.890625c3.394531 2.375 4.21875 7.054687 1.84375 10.445312-2.375 3.394531-7.054687 4.21875-10.445313 1.84375l-7.980468-5.589843-5.585938 7.980468c-1.457031 2.082032-3.785156 3.199219-6.148437 3.199219zm0 0"/><path d="m157.429688 379.867188c-1.484376 0-2.984376-.4375-4.292969-1.355469-3.394531-2.375-4.21875-7.050781-1.84375-10.445313l9.890625-14.121094c2.375-3.394531 7.050781-4.21875 10.445312-1.84375l14.121094 9.890626c3.394531 2.375 4.21875 7.050781 1.84375 10.441406-2.378906 3.394531-7.054688 4.21875-10.445312 1.84375l-7.980469-5.585938-5.585938 7.980469c-1.460937 2.082031-3.789062 3.195313-6.152343 3.195313zm0 0"/></g><path d="m155.007812 311.585938c-2.273437-12.914063-17.265624-21.066407-33.484374-18.207032-16.214844 2.859375-27.515626 15.644532-25.238282 28.558594s17.269532 21.066406 33.484375 18.207031c16.214844-2.859375 27.515625-15.644531 25.238281-28.558593zm0 0" fill="#eda1ab"/><path d="m255.46875 293.855469c2.277344 12.914062 17.269531 21.066406 33.484375 18.207031s27.515625-15.644531 25.242187-28.558594c-2.277343-12.914062-17.269531-21.066406-33.484374-18.207031-16.21875 2.859375-27.519532 15.644531-25.242188 28.558594zm0 0" fill="#eda1ab"/><path d="m263.582031 275.886719c-3.570312 0-6.734375-2.558594-7.378906-6.199219l-.855469-4.855469c-.71875-4.082031 2.003906-7.96875 6.082032-8.691406 4.082031-.71875 7.96875 2.007813 8.6875 6.085937l.859374 4.855469c.71875 4.078125-2.003906 7.96875-6.085937 8.6875-.4375.078125-.875.117188-1.308594.117188zm0 0" fill="#4e5660"/><path d="m138.652344 297.914062c-3.570313 0-6.734375-2.558593-7.375-6.199218l-.859375-4.855469c-.71875-4.078125 2.003906-7.96875 6.085937-8.6875 4.078125-.71875 7.96875 2.003906 8.6875 6.082031l.855469 4.855469c.71875 4.082031-2.003906 7.96875-6.082031 8.691406-.441406.074219-.878906.113281-1.3125.113281zm0 0" fill="#4e5660"/><path d="m200.609375 290.292969c-3.570313 0-6.734375-2.5625-7.375-6.199219-.71875-4.082031 2.003906-7.96875 6.082031-8.691406 1.976563-.347656 3.742188-1.261719 4.835938-2.511719.40625-.457031 1.0625-1.363281.90625-2.246094-.261719-1.480469-3.128906-3.195312-7.023438-2.507812-4.082031.71875-7.96875-2.003907-8.6875-6.085938-.71875-4.078125 2.003906-7.96875 6.082032-8.6875 11.664062-2.054687 22.609374 4.527344 24.402343 14.675781.90625 5.15625-.699219 10.535157-4.414062 14.757813-3.355469 3.816406-8.148438 6.433594-13.496094 7.378906-.441406.078125-.878906.117188-1.3125.117188zm0 0" fill="#4e5660"/><path d="m204.445312 305.738281c-3.570312 0-6.734374-2.5625-7.375-6.203125-.71875-4.078125 2.003907-7.96875 6.082032-8.6875 1.445312-.253906 2.714844-.917968 3.496094-1.828125.152343-.179687.65625-.8125.566406-1.316406-.085938-.46875-.726563-1-1.597656-1.328125-3.882813-1.445312-5.859376-5.761719-4.414063-9.644531 1.445313-3.882813 5.765625-5.855469 9.648437-4.410157 5.953126 2.214844 10.113282 6.992188 11.132813 12.777344.84375 4.785156-.59375 9.773438-3.949219 13.6875-3.042968 3.546875-7.40625 5.976563-12.277344 6.835938-.441406.078125-.878906.117187-1.3125.117187zm0 0" fill="#4e5660"/><path d="m114.242188 172.660156-26.765626 4.71875c-11.246093 1.984375-17.796874 13.828125-13.5 24.40625l2.699219 6.652344c4.539063 11.179688 16.273438 17.671875 28.15625 15.574219l9.050781-1.59375c11.882813-2.097657 20.6875-12.207031 21.128907-24.265625l.265625-7.175782c.417968-11.410156-9.792969-20.300781-21.035156-18.316406zm0 0" fill="#4e5660"/><path d="m128.425781 183.796875c-3.175781 0-6.121093-2.03125-7.140625-5.214844-1.265625-3.945312.910156-8.167969 4.855469-9.429687 9.886719-3.167969 23.527344-7.207032 41.40625-10.359375 17.878906-3.152344 32.078125-4.023438 42.449219-4.429688 4.125-.171875 7.625 3.0625 7.789062 7.203125.160156 4.136719-3.0625 7.625-7.203125 7.785156-9.898437.386719-23.4375 1.214844-40.433593 4.210938-16.988282 2.996094-29.996094 6.851562-39.433594 9.875-.761719.242188-1.53125.359375-2.289063.359375zm0 0" fill="#e26e7e"/><path d="m100.460938 231.894531c-13.25 0-25.625-8.058593-30.734376-20.632812l-2.699218-6.652344c-2.90625-7.152344-2.429688-15.128906 1.308594-21.882813 3.734374-6.753906 10.238281-11.394531 17.835937-12.734374l26.769531-4.71875c7.601563-1.339844 15.296875.796874 21.117188 5.867187 5.820312 5.066406 8.996094 12.398437 8.714844 20.113281l-.265626 7.171875c-.566406 15.488281-12.058593 28.6875-27.324218 31.375l-9.046875 1.597657c-1.898438.335937-3.796875.496093-5.675781.496093zm15.082031-51.847656-26.765625 4.71875c-3.117188.546875-5.785156 2.453125-7.316406 5.222656-1.53125 2.773438-1.730469 6.042969-.539063 8.976563l2.703125 6.652344c3.1875 7.851562 11.558594 12.484374 19.90625 11.011718l9.046875-1.597656c8.347656-1.472656 14.628906-8.6875 14.941406-17.152344l.261719-7.175781c.117188-3.164063-1.183594-6.171875-3.574219-8.25-2.386719-2.078125-5.542969-2.957031-8.664062-2.40625zm-1.300781-7.386719h.007812zm0 0" fill="#e26e7e"/><path d="m222.378906 153.589844 26.765625-4.71875c11.246094-1.980469 21.453125 6.910156 21.035157 18.320312l-.265626 7.175782c-.441406 12.058593-9.246093 22.167968-21.128906 24.261718l-9.050781 1.597656c-11.882813 2.09375-23.617187-4.394531-28.15625-15.574218l-2.703125-6.652344c-4.296875-10.578125 2.257812-22.425781 13.503906-24.410156zm0 0" fill="#4e5660"/><path d="m235.363281 208.109375c-13.25 0-25.628906-8.058594-30.734375-20.636719l-2.699218-6.648437c-2.90625-7.152344-2.429688-15.128907 1.308593-21.882813 3.734375-6.753906 10.238281-11.394531 17.835938-12.734375l26.765625-4.71875c7.601562-1.34375 15.300781.796875 21.121094 5.863281 5.820312 5.070313 8.996093 12.402344 8.710937 20.113282l-.261719 7.175781c-.570312 15.488281-12.058594 28.683594-27.324218 31.375l-9.050782 1.597656c-1.894531.332031-3.792968.496094-5.671875.496094zm-11.683593-47.132813c-3.117188.550782-5.785157 2.453126-7.316407 5.226563-1.535156 2.769531-1.730469 6.042969-.539062 8.976563l2.703125 6.652343c3.1875 7.847657 11.558594 12.480469 19.902344 11.007813l9.050781-1.59375c8.34375-1.472656 14.628906-8.6875 14.9375-17.15625l.265625-7.171875c.113281-3.164063-1.1875-6.171875-3.574219-8.253907-2.386719-2.078124-5.546875-2.957031-8.664063-2.40625zm0 0" fill="#e26e7e"/><path d="m66.601562 198.761719c3.535157-4.800781 10.707032-4.800781 14.242188 0 7.628906 10.367187 18.65625 27.664062 18.65625 41.046875 0 14.238281-11.542969 25.777344-25.777344 25.777344-14.238281 0-25.78125-11.539063-25.78125-25.777344.003906-13.382813 11.03125-30.679688 18.660156-41.046875zm0 0" fill="#a3defe"/><path d="m375.894531 163.457031-19.308593 3.402344c-5.152344.910156-8.90625 5.386719-8.90625 10.617187v28.445313c-1.710938-.109375-3.523438-.007813-5.402344.320313-10.171875 1.796874-18.417969 9.714843-18.417969 17.691406 0 7.976562 8.246094 12.992187 18.417969 11.195312 10.171875-1.792968 18.417968-9.710937 18.417968-17.691406v-35.394531l10.554688-1.863281c5.105469-.898438 8.824219-5.332032 8.824219-10.515626v-2.703124c0-2.210938-2-3.890626-4.179688-3.503907zm0 0" fill="#8eafe2"/><path d="m430.683594 136.035156-18.425782 6.707032c-4.917968 1.789062-7.835937 6.847656-6.929687 12l4.941406 28.015624c-1.703125.191407-3.46875.601563-5.261719 1.253907-9.707031 3.53125-16.453124 12.765625-15.066406 20.621093 1.382813 7.855469 10.375 11.359376 20.082032 7.824219 9.707031-3.53125 16.449218-12.761719 15.066406-20.617187l-6.148438-34.863282 10.070313-3.664062c4.871093-1.773438 7.765625-6.785156 6.863281-11.886719l-.46875-2.664062c-.382812-2.179688-2.644531-3.480469-4.722656-2.726563zm0 0" fill="#8ee2cf"/></svg>