<svg height="511pt" viewBox="-19 1 511 511.9995" width="511pt" xmlns="http://www.w3.org/2000/svg"><path d="m322.617188 512h-170.910157c-26.660156 0-48.273437-21.613281-48.273437-48.273438v-46.171874h267.457031v46.171874c0 26.660157-21.613281 48.273438-48.273437 48.273438zm0 0" fill="#e1b89a"/><path d="m103.433594 417.554688v46.171874c0 26.660157 21.613281 48.273438 48.273437 48.273438h76.796875c-18.023437-15.613281-31.046875-51.789062-26.300781-94.445312zm0 0" fill="#d2996f"/><path d="m340.480469 307.964844c-6.726563 0-12.945313-4.355469-15.003907-11.125-2.527343-8.292969 2.148438-17.058594 10.4375-19.585938 37.59375-11.449218 54.75-16.671875 87.992188-49.042968 6.210938-6.046876 16.144531-5.917969 22.191406.292968 6.046875 6.207032 5.917969 16.144532-.292968 22.191406-37.058594 36.089844-58.84375 43.824219-100.746094 56.585938-1.523438.460938-3.0625.683594-4.578125.683594zm0 0" fill="#efd176"/><path d="m133.839844 307.964844c-1.511719 0-3.050782-.222656-4.574219-.683594-41.902344-12.761719-63.6875-20.496094-100.746094-56.585938-6.210937-6.046874-6.339843-15.980468-.292969-22.191406 6.046876-6.207031 15.980469-6.339844 22.1875-.292968 33.246094 32.371093 50.402344 37.597656 87.996094 49.046874 8.289063 2.523438 12.964844 11.292969 10.4375 19.582032-2.058594 6.765625-8.28125 11.125-15.007812 11.125zm0 0" fill="#efd176"/><path d="m194.019531 63.226562c22.078125 22.082032 25.863281 56.453126 26.238281 74.097657.136719 6.410156-5.101562 11.648437-11.511718 11.511719-17.644532-.375-52.015625-4.160157-74.097656-26.238282-22.078126-22.082031-25.863282-56.453125-26.238282-74.097656-.136718-6.410156 5.101563-11.652344 11.511719-11.511719 17.644531.375 52.015625 4.160157 74.097656 26.238281zm0 0" fill="#8ee2cf"/><path d="m177.574219 113.652344c-1.917969 0-3.839844-.730469-5.300781-2.195313l-26.484376-26.480469c-2.925781-2.929687-2.925781-7.679687 0-10.605468 2.929688-2.929688 7.679688-2.929688 10.609376 0l26.480468 26.476562c2.929688 2.929688 2.929688 7.679688 0 10.609375-1.464844 1.464844-3.386718 2.195313-5.304687 2.195313zm0 0" fill="#6fce91"/><path d="m280.304688 63.226562c-22.078126 22.082032-25.863282 56.453126-26.238282 74.097657-.136718 6.410156 5.101563 11.648437 11.511719 11.511719 17.644531-.375 52.015625-4.160157 74.097656-26.238282 22.078125-22.082031 25.863281-56.453125 26.238281-74.097656.136719-6.410156-5.101562-11.652344-11.511718-11.511719-17.644532.375-52.019532 4.160157-74.097656 26.238281zm0 0" fill="#8ee2cf"/><path d="m296.75 113.652344c-1.921875 0-3.839844-.730469-5.304688-2.195313-2.929687-2.929687-2.929687-7.679687 0-10.609375l26.480469-26.476562c2.929688-2.929688 7.679688-2.929688 10.605469 0 2.929688 2.925781 2.929688 7.675781 0 10.605468l-26.480469 26.480469c-1.464843 1.464844-3.382812 2.195313-5.300781 2.195313zm0 0" fill="#6fce91"/><path d="m279.144531 74.421875c0 31.222656-21.632812 58.207031-33.839843 70.945313-4.4375 4.632812-11.847657 4.632812-16.285157 0-12.207031-12.738282-33.839843-39.722657-33.839843-70.945313 0-31.226563 21.632812-58.207031 33.839843-70.949219 4.4375-4.628906 11.847657-4.628906 16.285157 0 12.207031 12.742188 33.839843 39.722656 33.839843 70.949219zm0 0" fill="#8ee2cf"/><path d="m237.160156 100.644531c-4.140625 0-7.5-3.359375-7.5-7.5v-37.449219c0-4.140624 3.359375-7.5 7.5-7.5 4.144532 0 7.5 3.359376 7.5 7.5v37.449219c0 4.140625-3.355468 7.5-7.5 7.5zm0 0" fill="#6fce91"/><path d="m237.160156 119.847656c64.777344 0 111.078125 51.015625 117.285156 128.265625 6.457032 80.359375-23.773437 140.300781-117.285156 140.300781-93.507812 0-123.738281-59.941406-117.28125-140.300781 6.207032-77.25 52.507813-128.265625 117.28125-128.265625zm0 0" fill="#f7ef87"/><g fill="#efd176"><path d="m198.441406 126.582031c-43.980468 16.234375-73.679687 60.761719-78.5625 121.53125-6.4375 80.136719 23.609375 139.960938 116.511719 140.292969-112.761719-68.988281-82.523437-193.460938-37.949219-261.824219zm0 0"/><path d="m248.550781 219.289062c-1.921875 0-3.839843-.734374-5.304687-2.199218l-6.085938-6.082032-6.082031 6.085938c-2.929687 2.929688-7.679687 2.929688-10.605469 0-2.929687-2.929688-2.929687-7.679688 0-10.609375l11.386719-11.386719c2.929687-2.929687 7.675781-2.929687 10.605469 0l11.390625 11.386719c2.925781 2.929687 2.925781 7.679687 0 10.609375-1.464844 1.460938-3.386719 2.195312-5.304688 2.195312zm0 0"/><path d="m313.65625 219.289062c-1.921875 0-3.839844-.734374-5.304688-2.199218l-6.082031-6.082032-6.085937 6.082032c-2.929688 2.929687-7.679688 2.929687-10.609375 0-2.925781-2.929688-2.925781-7.675782.003906-10.605469l11.386719-11.390625c1.40625-1.402344 3.316406-2.195312 5.304687-2.195312s3.894531.792968 5.304688 2.199218l11.386719 11.386719c2.929687 2.929687 2.929687 7.679687-.003907 10.605469-1.464843 1.464844-3.382812 2.199218-5.300781 2.199218zm0 0"/><path d="m183.445312 219.289062c-1.921874 0-3.839843-.734374-5.304687-2.199218l-6.082031-6.082032-6.085938 6.082032c-2.929687 2.929687-7.679687 2.929687-10.605468 0-2.929688-2.925782-2.929688-7.675782 0-10.605469l11.386718-11.386719c2.929688-2.929687 7.679688-2.929687 10.609375 0l11.386719 11.386719c2.929688 2.929687 2.929688 7.679687 0 10.605469-1.46875 1.464844-3.386719 2.199218-5.304688 2.199218zm0 0"/><path d="m281.101562 352.757812c-1.917968 0-3.839843-.730468-5.304687-2.195312l-6.082031-6.085938-6.085938 6.085938c-2.929687 2.929688-7.675781 2.929688-10.605468 0-2.929688-2.929688-2.929688-7.679688 0-10.605469l11.386718-11.390625c2.929688-2.929687 7.679688-2.929687 10.609375 0l11.386719 11.390625c2.929688 2.925781 2.929688 7.675781 0 10.605469-1.464844 1.464844-3.386719 2.195312-5.304688 2.195312zm0 0"/><path d="m215.996094 352.757812c-1.917969 0-3.839844-.730468-5.304688-2.195312l-6.082031-6.085938-6.085937 6.085938c-2.929688 2.929688-7.679688 2.929688-10.605469 0-2.929688-2.929688-2.929688-7.679688 0-10.605469l11.386719-11.390625c2.929687-2.929687 7.679687-2.929687 10.605468 0l11.386719 11.390625c2.929687 2.925781 2.929687 7.675781 0 10.605469-1.460937 1.464844-3.382813 2.195312-5.300781 2.195312zm0 0"/></g><path d="m189.535156 292.265625c0-12.246094-12.46875-22.175781-27.847656-22.175781-15.382812 0-27.851562 9.929687-27.851562 22.175781 0 12.25 12.46875 22.179687 27.851562 22.179687 15.378906 0 27.847656-9.929687 27.847656-22.179687zm0 0" fill="#eda1ab"/><path d="m340.488281 292.265625c0-12.246094-12.46875-22.175781-27.851562-22.175781-15.378907 0-27.847657 9.929687-27.847657 22.175781 0 12.25 12.46875 22.179687 27.847657 22.179687 15.382812 0 27.851562-9.929687 27.851562-22.179687zm0 0" fill="#eda1ab"/><path d="m259.613281 275.226562c0-13.875-10.050781-15.179687-22.453125-15.179687-12.398437 0-22.453125 1.304687-22.453125 15.179687s10.054688 25.125 22.453125 25.125c12.402344 0 22.453125-11.25 22.453125-25.125zm0 0" fill="#4e5660"/><path d="m191.171875 275.632812c-4.140625 0-7.5-3.355468-7.5-7.5 0-3.171874-2.582031-5.753906-5.757813-5.753906-3.171874 0-5.753906 2.582032-5.753906 5.753906 0 4.144532-3.355468 7.5-7.5 7.5-4.140625 0-7.5-3.355468-7.5-7.5 0-11.441406 9.3125-20.753906 20.753906-20.753906 11.445313 0 20.757813 9.3125 20.757813 20.753906 0 4.144532-3.359375 7.5-7.5 7.5zm0 0" fill="#4e5660"/><path d="m309.664062 275.632812c-4.144531 0-7.5-3.355468-7.5-7.5 0-3.171874-2.582031-5.753906-5.757812-5.753906-3.171875 0-5.753906 2.582032-5.753906 5.753906 0 4.144532-3.359375 7.5-7.5 7.5-4.144532 0-7.5-3.355468-7.5-7.5 0-11.441406 9.308594-20.753906 20.753906-20.753906s20.757812 9.3125 20.757812 20.753906c0 4.144532-3.359374 7.5-7.5 7.5zm0 0" fill="#4e5660"/><path d="m436.085938 241.632812c-1.386719 0-2.789063-.382812-4.042969-1.1875-3.488281-2.238281-4.5-6.878906-2.265625-10.363281 8.777344-13.679687 4.257812-27.707031-1.464844-45.464843-5.195312-16.113282-11.082031-34.378907-6.847656-55.242188.824218-4.058594 4.792968-6.679688 8.84375-5.855469 4.058594.824219 6.683594 4.78125 5.855468 8.84375-3.453124 17.011719 1.566407 32.589844 6.421876 47.652344 6.105468 18.941406 12.417968 38.527344-.183594 58.164063-1.429688 2.234374-3.847656 3.453124-6.316406 3.453124zm0 0" fill="#4e5660"/><path d="m473.824219 74.5c0 24.855469-20.152344 62.929688-45.007813 62.929688-24.855468 0-45.007812-38.074219-45.007812-62.929688 0-24.859375 20.152344-45.007812 45.007812-45.007812 24.855469 0 45.007813 20.148437 45.007813 45.007812zm0 0" fill="#a3defe"/><path d="m38.238281 241.632812c-2.46875 0-4.886719-1.21875-6.316406-3.453124-12.601563-19.636719-6.289063-39.222657-.183594-58.164063 4.851563-15.0625 9.875-30.640625 6.417969-47.652344-.824219-4.0625 1.796875-8.019531 5.859375-8.84375s8.019531 1.796875 8.84375 5.855469c4.234375 20.863281-1.652344 39.125-6.84375 55.242188-5.726563 17.757812-10.246094 31.785156-1.46875 45.464843 2.234375 3.484375 1.222656 8.125-2.265625 10.363281-1.253906.804688-2.65625 1.1875-4.042969 1.1875zm0 0" fill="#4e5660"/><path d="m.5 74.5c0 24.855469 20.148438 62.929688 45.007812 62.929688 24.855469 0 45.007813-38.074219 45.007813-62.929688 0-24.859375-20.152344-45.007812-45.007813-45.007812-24.859374 0-45.007812 20.148437-45.007812 45.007812zm0 0" fill="#e26e7e"/><path d="m67.652344 127.167969c-30.546875-3.996094-53.191406-65.175781-41.785156-93.171875-15.015626 7.292968-25.367188 22.6875-25.367188 40.503906 0 24.855469 20.148438 62.929688 45.007812 62.929688 8.050782 0 15.605469-4.011719 22.144532-10.261719zm0 0" fill="#d9495d"/><path d="m450.964844 127.167969c-30.550782-3.996094-53.191406-65.175781-41.789063-93.171875-15.015625 7.292968-25.367187 22.6875-25.367187 40.503906 0 24.855469 20.152344 62.929688 45.007812 62.929688 8.054688 0 15.605469-4.011719 22.148438-10.261719zm0 0" fill="#7acefa"/><path d="m211.769531 442.652344c14.023438 14.023437 36.761719 14.023437 50.785157 0 14.023437-14.023438 36.761718-14.023438 50.785156 0 14.023437 14.023437 36.761718 14.023437 50.785156 0l16.671875-16.671875c5.585937-5.582031 8.722656-13.15625 8.722656-21.050781 0-24.835938-20.136719-44.96875-44.972656-44.96875h-214.773437c-24.835938 0-44.96875 20.132812-44.96875 44.96875 0 7.894531 3.136718 15.46875 8.71875 21.050781l16.675781 16.671875c14.023437 14.023437 36.757812 14.023437 50.785156 0 14.023437-14.023438 36.761719-14.023438 50.785156 0zm0 0" fill="#fcf2d0"/><path d="m129.773438 359.960938c-24.835938 0-44.96875 20.132812-44.96875 44.96875 0 7.894531 3.136718 15.46875 8.71875 21.050781l16.675781 16.671875c14.023437 14.023437 36.761719 14.023437 50.785156 0 14.023437-14.023438 36.761719-14.023438 50.785156 0 8.269531 8.273437 19.574219 11.660156 30.335938 10.175781-26.851563-17.886719-35.285157-72.324219-21.726563-92.867187zm0 0" fill="#f6e3a3"/><path d="m405.082031 349.25c-3.570312 0-6.734375-2.558594-7.375-6.199219-.71875-4.078125 2.003907-7.96875 6.082031-8.6875l50.75-8.949219c4.078126-.71875 7.96875 2.003907 8.6875 6.082032.71875 4.082031-2.003906 7.96875-6.082031 8.6875l-50.75 8.949218c-.441406.078126-.878906.117188-1.3125.117188zm0 0" fill="#a3defe"/><path d="m463.035156 413.511719c-.433594 0-.871094-.035157-1.308594-.113281l-35.511718-6.261719c-4.078125-.71875-6.804688-4.609375-6.082032-8.6875.71875-4.082031 4.605469-6.804688 8.6875-6.085938l35.507813 6.261719c4.082031.71875 6.804687 4.609375 6.085937 8.6875-.644531 3.640625-3.808593 6.199219-7.378906 6.199219zm0 0" fill="#a3defe"/><path d="m11.289062 413.511719c-3.574218 0-6.738281-2.558594-7.378906-6.195313-.71875-4.082031 2.003906-7.972656 6.082032-8.691406l35.511718-6.257812c4.082032-.71875 7.96875 2.003906 8.6875 6.082031s-2.003906 7.96875-6.082031 8.6875l-35.511719 6.261719c-.4375.078124-.878906.113281-1.308594.113281zm0 0" fill="#a3defe"/><path d="m69.238281 349.25c-.429687 0-.871093-.039062-1.308593-.117188l-50.75-8.945312c-4.078126-.71875-6.804688-4.609375-6.082032-8.6875.71875-4.082031 4.613282-6.800781 8.6875-6.085938l50.746094 8.949219c4.082031.71875 6.804688 4.609375 6.085938 8.6875-.640626 3.636719-3.804688 6.199219-7.378907 6.199219zm0 0" fill="#a3defe"/><path d="m146.902344 408.609375c-1.917969 0-3.839844-.730469-5.300782-2.195313-2.929687-2.929687-2.929687-7.679687 0-10.609374l8.089844-8.089844c2.929688-2.929688 7.679688-2.929688 10.605469 0 2.929687 2.925781 2.929687 7.675781 0 10.605468l-8.089844 8.09375c-1.464843 1.464844-3.386719 2.195313-5.304687 2.195313zm0 0" fill="#8ee2cf"/><path d="m240.722656 422.671875c-1.917968 0-3.839844-.730469-5.304687-2.195313l-8.664063-8.664062c-2.929687-2.929688-2.929687-7.679688 0-10.605469 2.929688-2.929687 7.679688-2.929687 10.605469 0l8.664063 8.664063c2.929687 2.929687 2.929687 7.675781 0 10.605468-1.460938 1.464844-3.382813 2.195313-5.300782 2.195313zm0 0" fill="#a3defe"/><path d="m323.078125 405.484375c-1.917969 0-3.839844-.734375-5.304687-2.195313-2.929688-2.929687-2.929688-7.679687 0-10.609374l8.015624-8.015626c2.933594-2.929687 7.679688-2.929687 10.609376 0 2.929687 2.929688 2.929687 7.675782 0 10.605469l-8.019532 8.019531c-1.460937 1.460938-3.382812 2.195313-5.300781 2.195313zm0 0" fill="#eda1ab"/></svg>