<svg height="511pt" viewBox="-7 1 511 511.99975" width="511pt" xmlns="http://www.w3.org/2000/svg"><g fill="#efd176"><path d="m187.234375 396.523438c-7.277344-.464844-13.800781 3.5-16.980469 9.570312-32.195312 13.511719-30.324218 40.457031-19.144531 56.785156-7.53125 7.734375-16.769531 11.445313-26.253906 13.882813-9.574219 2.460937-15.339844 12.21875-12.878907 21.792969 2.078126 8.078124 9.347657 13.445312 17.324219 13.445312 1.472657 0 2.972657-.183594 4.46875-.566406 43.875-11.28125 66.839844-42.65625 70.199219-95.921875.625-9.863281-6.867188-18.367188-16.734375-18.988281zm0 0"/><path d="m343.859375 410.332031c-15.792969-15.089843-38.800781-21.246093-63.128906-16.894531-9.730469 1.742188-16.207031 11.042969-14.464844 20.773438 1.46875 8.21875 8.335937 14.089843 16.296875 14.675781 9.402344 13.265625 23.996094 27.828125 47.253906 30.179687 1.550782 9.101563 1.53125 20.058594-.140625 32.679688-1.296875 9.800781 5.59375 18.796875 15.394531 20.09375.796876.105468 1.589844.15625 2.371094.15625 8.839844 0 16.53125-6.546875 17.722656-15.550782 6.390626-48.242187-8.058593-73.457031-21.304687-86.113281zm0 0"/><path d="m487.765625 245.902344c-8.996094-4.101563-19.609375-.132813-23.710937 8.859375-6 13.15625-13.078126 24.042969-21.191407 32.625-14.066406-14.34375-34.933593-20.53125-54.230469-18.507813-24.707031 2.589844-36.882812 15.03125-43.5 30.21875-2.507812-1.480468-4.695312-2.980468-6.503906-4.433594-7.707031-6.1875-18.972656-4.957031-25.160156 2.753907-6.191406 7.707031-4.957031 18.972656 2.75 25.160156 16.546875 13.285156 43.519531 24.214844 72.667969 24.214844 8.453125 0 17.09375-.921875 25.710937-2.96875 24.65625-5.855469 58.902344-23.488281 82.03125-74.210938 4.097656-8.992187.132813-19.609375-8.863281-23.710937zm0 0"/><path d="m136.492188 283.679688c-30.648438-13.421876-70.9375-6.386719-100.253907 17.503906-29.15625 23.757812-41.3125 58.871094-33.351562 96.339844 1.789062 8.414062 9.21875 14.179687 17.492187 14.179687 1.230469 0 2.484375-.128906 3.738282-.394531 9.667968-2.054688 15.84375-11.558594 13.789062-21.226563-2.722656-12.8125-1.746094-23.613281 1.089844-32.550781 17.949218 7.019531 40.421875 6.441406 53.195312-2.101562 12.667969-8.476563 19.449219-26.40625 22.25-41.429688 2.691406.597656 5.269532 1.414062 7.691406 2.472656 9.054688 3.96875 19.609376-.160156 23.578126-9.214844 3.964843-9.058593-.164063-19.613281-9.21875-23.578124zm0 0"/></g><path d="m180.351562 72.117188c25.183594 25.183593 29.5 64.390624 29.929688 84.511718.15625 7.3125-5.820312 13.292969-13.132812 13.136719-20.121094-.433594-59.328126-4.746094-84.511719-29.929687-25.183594-25.183594-29.5-64.390626-29.929688-84.515626-.15625-7.3125 5.820313-13.289062 13.132813-13.132812 20.121094.429688 59.328125 4.746094 84.511718 29.929688zm0 0" fill="#8ee2cf"/><path d="m161.597656 128.578125c-1.921875 0-3.839844-.730469-5.304687-2.199219l-30.203125-30.203125c-2.929688-2.929687-2.929688-7.675781 0-10.605469 2.929687-2.929687 7.675781-2.929687 10.605468 0l30.203126 30.203126c2.929687 2.929687 2.929687 7.679687 0 10.605468-1.464844 1.46875-3.382813 2.199219-5.300782 2.199219zm0 0" fill="#6fce91"/><path d="m278.769531 72.117188c-25.183593 25.183593-29.5 64.390624-29.929687 84.511718-.15625 7.3125 5.824218 13.292969 13.132812 13.136719 20.125-.433594 59.332032-4.746094 84.515625-29.929687 25.183594-25.183594 29.496094-64.390626 29.929688-84.515626.152343-7.3125-5.824219-13.289062-13.136719-13.132812-20.121094.429688-59.328125 4.746094-84.511719 29.929688zm0 0" fill="#8ee2cf"/><path d="m297.527344 128.578125c-1.921875 0-3.839844-.730469-5.304688-2.199219-2.929687-2.925781-2.929687-7.675781 0-10.605468l30.203125-30.203126c2.929688-2.929687 7.679688-2.929687 10.605469 0 2.929688 2.929688 2.929688 7.679688 0 10.605469l-30.203125 30.203125c-1.464844 1.46875-3.382813 2.199219-5.300781 2.199219zm0 0" fill="#6fce91"/><path d="m277.445312 84.882812c0 35.617188-24.671874 66.390626-38.597656 80.925782-5.058594 5.277344-13.511718 5.277344-18.570312 0-13.925782-14.535156-38.597656-45.308594-38.597656-80.925782 0-35.613281 24.671874-66.390624 38.597656-80.921874 5.058594-5.28125 13.511718-5.28125 18.570312 0 13.925782 14.53125 38.597656 45.308593 38.597656 80.921874zm0 0" fill="#8ee2cf"/><path d="m229.5625 113.742188c-4.144531 0-7.5-3.359376-7.5-7.5v-42.714844c0-4.144532 3.355469-7.5 7.5-7.5 4.140625 0 7.5 3.355468 7.5 7.5v42.710937c0 4.144531-3.359375 7.503907-7.5 7.503907zm0 0" fill="#6fce91"/><path d="m229.5625 136.699219c73.878906 0 126.691406 58.183593 133.769531 146.296875 7.363281 91.660156-27.113281 160.027344-133.769531 160.027344-106.660156 0-141.136719-68.367188-133.773438-160.027344 7.078126-88.113282 59.890626-146.296875 133.773438-146.296875zm0 0" fill="#f7ef87"/><path d="m185.398438 144.378906c-50.164063 18.519532-84.039063 69.304688-89.609376 138.617188-7.34375 91.402344 26.929688 159.640625 132.894532 160.019531-128.617188-78.691406-94.128906-220.664063-43.285156-298.636719zm0 0" fill="#efd176"/><path d="m242.550781 256.421875c-1.917969 0-3.839843-.734375-5.304687-2.199219l-7.683594-7.683594-7.6875 7.683594c-2.929688 2.929688-7.679688 2.929688-10.605469 0-2.929687-2.929687-2.929687-7.675781 0-10.605468l12.988281-12.988282c2.929688-2.929687 7.679688-2.929687 10.605469 0l12.992188 12.988282c2.925781 2.929687 2.925781 7.679687 0 10.605468-1.464844 1.464844-3.386719 2.199219-5.304688 2.199219zm0 0" fill="#efd176"/><path d="m316.808594 256.421875c-1.917969 0-3.835938-.734375-5.300782-2.199219l-7.6875-7.683594-7.683593 7.683594c-2.929688 2.929688-7.679688 2.929688-10.609375 0-2.929688-2.929687-2.929688-7.675781 0-10.605468l12.988281-12.988282c2.929687-2.929687 7.679687-2.929687 10.605469 0l12.992187 12.988282c2.929688 2.929687 2.929688 7.679687 0 10.605468-1.464843 1.464844-3.382812 2.199219-5.304687 2.199219zm0 0" fill="#efd176"/><path d="m168.292969 256.421875c-1.921875 0-3.839844-.734375-5.304688-2.199219l-7.6875-7.683594-7.683593 7.683594c-2.929688 2.929688-7.679688 2.929688-10.605469 0-2.929688-2.929687-2.929688-7.675781 0-10.605468l12.988281-12.988282c2.929688-2.929687 7.675781-2.929687 10.605469 0l12.988281 12.988282c2.929688 2.929687 2.929688 7.679687 0 10.605468-1.464844 1.464844-3.382812 2.199219-5.300781 2.199219zm0 0" fill="#efd176"/><path d="m175.238281 333.359375c0-13.972656-14.222656-25.296875-31.765625-25.296875-17.542968 0-31.761718 11.324219-31.761718 25.296875 0 13.96875 14.21875 25.296875 31.761718 25.296875 17.542969 0 31.765625-11.328125 31.765625-25.296875zm0 0" fill="#eda1ab"/><path d="m347.414062 333.359375c0-13.972656-14.222656-25.296875-31.765624-25.296875-17.542969 0-31.765626 11.324219-31.765626 25.296875 0 13.96875 14.222657 25.296875 31.765626 25.296875 17.542968 0 31.765624-11.328125 31.765624-25.296875zm0 0" fill="#eda1ab"/><path d="m161.984375 315.625c-4.140625 0-7.5-3.359375-7.5-7.5v-11.21875c0-4.140625 3.359375-7.5 7.5-7.5 4.144531 0 7.5 3.359375 7.5 7.5v11.21875c0 4.140625-3.355469 7.5-7.5 7.5zm0 0" fill="#4e5660"/><path d="m229.5625 324.238281c-8.996094 0-17.550781-3.894531-23.472656-10.6875-2.71875-3.125-2.394532-7.859375.726562-10.582031 3.125-2.722656 7.859375-2.398438 10.582032.726562 3.070312 3.523438 7.503906 5.542969 12.164062 5.542969 4.65625 0 9.089844-2.019531 12.160156-5.542969 2.722656-3.121093 7.460938-3.449218 10.582032-.726562 3.125 2.722656 3.449218 7.457031.726562 10.582031-5.921875 6.792969-14.472656 10.6875-23.46875 10.6875zm0 0" fill="#4e5660"/><path d="m171.070312 176.273438h-28.957031c-12.164062 0-21.230469 11.21875-18.679687 23.113281l1.601562 7.476562c2.695313 12.570313 13.804688 21.550781 26.660156 21.550781h9.792969c12.855469 0 23.964844-8.980468 26.660157-21.550781l1.601562-7.476562c2.550781-11.894531-6.515625-23.113281-18.679688-23.113281zm0 0" fill="#4e5660"/><path d="m273.851562 190.210938c-.335937 0-.679687-.019532-1.023437-.066407-10.472656-1.429687-24.855469-3.070312-43.265625-3.070312s-32.792969 1.640625-43.269531 3.070312c-4.109375.554688-7.882813-2.316406-8.441407-6.417969-.5625-4.105468 2.3125-7.886718 6.417969-8.445312 10.941407-1.492188 25.980469-3.203125 45.292969-3.203125s34.351562 1.710937 45.292969 3.203125c4.105469.558594 6.976562 4.339844 6.417969 8.445312-.511719 3.757813-3.730469 6.484376-7.421876 6.484376zm0 0" fill="#e26e7e"/><path d="m161.484375 235.914062h-9.789063c-16.285156 0-30.582031-11.554687-33.996093-27.476562l-1.601563-7.480469c-1.691406-7.894531.246094-16.023437 5.324219-22.304687 5.074219-6.277344 12.617187-9.878906 20.691406-9.878906h28.953125c8.074219 0 15.617188 3.601562 20.691406 9.878906 5.078126 6.28125 7.015626 14.410156 5.324219 22.304687l-1.605469 7.480469c-3.410156 15.921875-17.707031 27.476562-33.992187 27.476562zm-19.371094-52.140624c-3.523437 0-6.8125 1.570312-9.027343 4.308593-2.214844 2.738281-3.058594 6.285157-2.320313 9.730469l1.601563 7.476562c1.941406 9.054688 10.070312 15.625 19.328124 15.625h9.792969c9.257813 0 17.382813-6.570312 19.324219-15.625l1.605469-7.476562c.738281-3.445312-.109375-6.992188-2.320313-9.730469-2.214844-2.738281-5.503906-4.308593-9.027344-4.308593zm0 0" fill="#e26e7e"/><path d="m288.054688 176.273438h28.957031c12.164062 0 21.230469 11.21875 18.679687 23.113281l-1.605468 7.476562c-2.695313 12.570313-13.804688 21.550781-26.660157 21.550781h-9.789062c-12.855469 0-23.964844-8.980468-26.660157-21.550781l-1.605468-7.476562c-2.550782-11.894531 6.519531-23.113281 18.683594-23.113281zm0 0" fill="#4e5660"/><path d="m307.425781 235.914062h-9.789062c-16.285157 0-30.582031-11.554687-33.996094-27.476562l-1.601563-7.480469c-1.691406-7.894531.246094-16.023437 5.320313-22.304687 5.078125-6.277344 12.621094-9.878906 20.691406-9.878906h28.957031c8.074219 0 15.617188 3.601562 20.691407 9.878906 5.074219 6.28125 7.015625 14.410156 5.324219 22.304687l-1.605469 7.480469c-3.410157 15.921875-17.707031 27.476562-33.992188 27.476562zm-19.371093-52.140624c-3.523438 0-6.8125 1.570312-9.027344 4.308593s-3.058594 6.285157-2.320313 9.730469l1.601563 7.476562c1.941406 9.054688 10.070312 15.625 19.328125 15.625h9.789062c9.257813 0 17.386719-6.570312 19.328125-15.625l1.605469-7.476562c.738281-3.445312-.109375-6.992188-2.324219-9.730469s-5.503906-4.308593-9.023437-4.308593zm0 0" fill="#e26e7e"/><path d="m229.5625 422.820312c-4.144531 0-7.5-3.359374-7.5-7.5v-54.511718c0-4.144532 3.355469-7.5 7.5-7.5 4.140625 0 7.5 3.355468 7.5 7.5v54.511718c0 4.140626-3.359375 7.5-7.5 7.5zm0 0" fill="#efd176"/><path d="m255.824219 379.726562h-52.523438c-4.144531 0-7.5-3.355468-7.5-7.5 0-4.140624 3.355469-7.5 7.5-7.5h52.523438c4.144531 0 7.5 3.359376 7.5 7.5 0 4.144532-3.355469 7.5-7.5 7.5zm0 0" fill="#efd176"/><path d="m246.4375 408.921875h-33.75c-4.144531 0-7.5-3.355469-7.5-7.5 0-4.140625 3.355469-7.5 7.5-7.5h33.75c4.140625 0 7.5 3.359375 7.5 7.5 0 4.144531-3.359375 7.5-7.5 7.5zm0 0" fill="#efd176"/><path d="m313.847656 315.851562c-4.140625 0-7.5-3.355468-7.5-7.5 0-3.761718-3.0625-6.824218-6.824218-6.824218-3.765626 0-6.828126 3.0625-6.828126 6.824218 0 4.144532-3.355468 7.5-7.5 7.5-4.140624 0-7.5-3.355468-7.5-7.5 0-12.035156 9.792969-21.824218 21.828126-21.824218 12.035156 0 21.824218 9.789062 21.824218 21.824218 0 4.144532-3.355468 7.5-7.5 7.5zm0 0" fill="#4e5660"/></svg>