<svg height="512pt" viewBox="0 0 512.00028 512" width="512pt" xmlns="http://www.w3.org/2000/svg"><path d="m34.0625 447.996094c-4.046875 0-7.378906-3.222656-7.492188-7.289063-.429687-15.195312 4.542969-28.777343 14.003907-38.238281 10.394531-10.402344 25.710937-15.625 44.351562-15.105469 30.972657.859375 44.832031-11.792969 47.839844-43.675781.390625-4.121094 4.042969-7.144531 8.171875-6.761719 4.125.390625 7.152344 4.046875 6.761719 8.171875-1.785157 18.9375-7.15625 32.714844-16.417969 42.121094-10.601562 10.765625-25.898438 15.71875-46.773438 15.140625-14.398437-.402344-25.917968 3.304687-33.328124 10.714844-6.605469 6.609375-9.933594 16.019531-9.617188 27.210937.117188 4.140625-3.144531 7.589844-7.285156 7.707032-.074219 0-.144532.003906-.214844.003906zm0 0" fill="#e26e7e"/><path d="m28.035156 462.84375-14.789062-16.195312c-4.765625-5.222657-1.0625-13.621094 6.007812-13.621094h29.574219c7.070313 0 10.773437 8.398437 6.007813 13.621094l-14.785157 16.195312c-3.226562 3.535156-8.792969 3.535156-12.015625 0zm0 0" fill="#e26e7e"/><path d="m170.554688 512c-6.039063 0-11.890626-3.21875-14.980469-8.898438-22.417969-41.207031-13.421875-90.90625 4.425781-119.648437 4.964844-7.992187 15.46875-10.453125 23.464844-5.484375 7.996094 4.964844 10.453125 15.46875 5.488281 23.464844-13.214844 21.28125-18.644531 57.445312-3.445313 85.378906 4.5 8.265625 1.445313 18.613281-6.824218 23.113281-2.585938 1.40625-5.375 2.074219-8.128906 2.074219zm0 0" fill="#efd176"/><path d="m286.511719 493.234375c-3.585938 0-7.203125-1.128906-10.28125-3.464844-7.5-5.683593-8.972657-16.375-3.285157-23.871093 5.617188-7.410157 7.5-16.464844 5.59375-26.914063-2.988281-16.410156-13.699218-29.601563-17.269531-31.847656-8.121093-4.75-10.839843-15.179688-6.089843-23.304688 4.753906-8.121093 15.207031-10.847656 23.328124-6.097656 12.570313 7.355469 28.46875 29.492187 33.304688 53.808594 4.074219 20.46875.023438 39.464843-11.710938 54.945312-3.347656 4.417969-8.441406 6.746094-13.589843 6.746094zm0 0" fill="#efd176"/><path d="m416.753906 362.613281c-57.820312 0-91.886718-37.589843-112.972656-67-5.484375-7.648437-3.730469-18.296875 3.921875-23.777343 7.648437-5.484376 18.292969-3.730469 23.777344 3.917968 29.273437 40.835938 58.332031 56.417969 97.164062 52.101563 9.363281-1.035157 17.78125 5.699219 18.820313 15.054687 1.039062 9.355469-5.703125 17.777344-15.054688 18.820313-5.398437.597656-10.621094.882812-15.65625.882812zm0 0" fill="#efd176"/><path d="m58.710938 338.632812c-7.402344 0-14.59375-1.109374-21.269532-3.539062-14.03125-5.117188-24.730468-15.480469-30.949218-29.96875-6.164063-14.355469-7.949219-32.929688-5.3125-55.210938 1.109374-9.34375 9.574218-16.023437 18.925781-14.917968 9.347656 1.105468 16.027343 9.578125 14.917969 18.925781-2.277344 19.25-1.683594 43.398437 14.089843 49.152344 18.691407 6.8125 52.097657-9.558594 63.394531-26.75 5.167969-7.863281 15.734376-10.050781 23.601563-4.882813 7.863281 5.167969 10.050781 15.734375 4.882813 23.601563-15.445313 23.503906-50.769532 43.589843-82.28125 43.589843zm0 0" fill="#efd176"/><path d="m175.34375 68.65625c23.976562 23.976562 28.082031 61.304688 28.492188 80.460938.148437 6.960937-5.542969 12.652343-12.503907 12.503906-19.15625-.410156-56.480469-4.519532-80.457031-28.496094-23.976562-23.972656-28.085938-61.300781-28.496094-80.457031-.148437-6.960938 5.542969-12.652344 12.503906-12.503907 19.15625.410157 56.484376 4.519532 80.460938 28.492188zm0 0" fill="#8ee2cf"/><path d="m157.484375 122.769531c-1.917969 0-3.839844-.730469-5.300781-2.195312l-28.757813-28.757813c-2.925781-2.925781-2.925781-7.675781 0-10.605468 2.929688-2.929688 7.679688-2.929688 10.609375 0l28.753906 28.757812c2.929688 2.925781 2.929688 7.675781 0 10.605469-1.464843 1.464843-3.382812 2.195312-5.304687 2.195312zm0 0" fill="#6fce91"/><path d="m269.039062 68.65625c-23.976562 23.976562-28.085937 61.304688-28.496093 80.460938-.148438 6.960937 5.542969 12.652343 12.503906 12.503906 19.15625-.410156 56.484375-4.519532 80.460937-28.496094 23.972657-23.976562 28.082032-61.300781 28.492188-80.457031.148438-6.960938-5.542969-12.652344-12.503906-12.503907-19.15625.410157-56.480469 4.519532-80.457032 28.492188zm0 0" fill="#8ee2cf"/><path d="m286.894531 122.769531c-1.917969 0-3.839843-.730469-5.300781-2.195312-2.929688-2.929688-2.929688-7.679688 0-10.605469l28.753906-28.757812c2.929688-2.929688 7.675782-2.929688 10.605469 0 2.929687 2.929687 2.929687 7.679687 0 10.605468l-28.753906 28.757813c-1.464844 1.464843-3.386719 2.195312-5.304688 2.195312zm0 0" fill="#6fce91"/><path d="m267.777344 80.8125c0 33.90625-23.488282 63.207031-36.746094 77.039062-4.816406 5.027344-12.863281 5.027344-17.683594 0-13.253906-13.832031-36.742187-43.132812-36.742187-77.039062s23.488281-63.207031 36.742187-77.042969c4.820313-5.027343 12.867188-5.027343 17.683594 0 13.257812 13.835938 36.746094 43.136719 36.746094 77.042969zm0 0" fill="#8ee2cf"/><path d="m222.191406 108.644531c-4.144531 0-7.5-3.355469-7.5-7.5v-40.664062c0-4.144531 3.355469-7.5 7.5-7.5 4.140625 0 7.5 3.355469 7.5 7.5v40.664062c0 4.144531-3.359375 7.5-7.5 7.5zm0 0" fill="#6fce91"/><path d="m222.191406 130.140625c70.335938 0 120.613282 55.398437 127.355469 139.28125 7.007813 87.261719-25.816406 152.351563-127.355469 152.351563-101.542968 0-134.367187-65.089844-127.355468-152.351563 6.738281-83.882813 57.015624-139.28125 127.355468-139.28125zm0 0" fill="#f7ef87"/><path d="m180.144531 137.453125c-47.757812 17.628906-80.007812 65.980469-85.308593 131.96875-6.992188 87.019531 25.636718 151.980469 126.515624 152.34375-122.441406-74.914063-89.609374-210.078125-41.207031-284.3125zm0 0" fill="#efd176"/><path d="m291.671875 151.460938c10.785156-6.015626 22.589844-15.625 33.964844-30.28125 4.75-6.121094 14.488281-3.851563 15.960937 3.757812 4.988282 25.765625-.417968 49.808594-16.027344 66.53125-14.027343 15.03125-39.164062 9.042969-45.445312-10.535156-3.636719-11.324219 1.160156-23.683594 11.546875-29.472656zm0 0" fill="#e26e7e"/><path d="m152.710938 151.460938c-10.785157-6.015626-22.59375-15.625-33.964844-30.28125-4.75-6.121094-14.488282-3.851563-15.960938 3.757812-4.992187 25.765625.417969 49.808594 16.023438 66.53125 14.027344 15.03125 39.167968 9.042969 45.449218-10.535156 3.632813-11.324219-1.160156-23.683594-11.546874-29.472656zm0 0" fill="#e26e7e"/><g fill="#efd176"><path d="m234.554688 237.476562c-1.917969 0-3.835938-.730468-5.300782-2.195312l-7.0625-7.0625-7.0625 7.0625c-2.929687 2.929688-7.679687 2.929688-10.609375 0-2.925781-2.929688-2.925781-7.679688 0-10.605469l12.367188-12.367187c2.929687-2.929688 7.679687-2.929688 10.605469 0l12.367187 12.367187c2.929687 2.929688 2.929687 7.675781 0 10.605469-1.464844 1.464844-3.382813 2.195312-5.304687 2.195312zm0 0"/><path d="m305.253906 237.476562c-1.917968 0-3.839844-.730468-5.304687-2.195312l-7.0625-7.0625-7.0625 7.0625c-2.929688 2.929688-7.679688 2.929688-10.605469 0-2.929688-2.929688-2.929688-7.679688 0-10.605469l12.363281-12.367187c2.929688-2.929688 7.679688-2.929688 10.605469 0l12.367188 12.367187c2.929687 2.929688 2.929687 7.675781 0 10.605469-1.460938 1.464844-3.382813 2.195312-5.300782 2.195312zm0 0"/><path d="m163.859375 237.476562c-1.921875 0-3.839844-.730468-5.304687-2.195312l-7.0625-7.0625-7.0625 7.0625c-2.929688 2.929688-7.675782 2.929688-10.605469 0-2.929688-2.929688-2.929688-7.675781 0-10.605469l12.363281-12.367187c1.40625-1.40625 3.316406-2.195313 5.304688-2.195313 1.988281 0 3.894531.789063 5.300781 2.195313l12.367187 12.367187c2.929688 2.929688 2.929688 7.675781 0 10.605469-1.460937 1.464844-3.382812 2.195312-5.300781 2.195312zm0 0"/><path d="m269.90625 382.410156c-1.921875 0-3.839844-.730468-5.304688-2.195312l-7.0625-7.0625-7.0625 7.0625c-2.929687 2.929687-7.679687 2.929687-10.609374 0-2.929688-2.929688-2.929688-7.679688 0-10.605469l12.367187-12.367187c2.929687-2.929688 7.679687-2.929688 10.605469 0l12.367187 12.367187c2.929688 2.929687 2.929688 7.675781 0 10.605469-1.464843 1.464844-3.382812 2.195312-5.300781 2.195312zm0 0"/><path d="m199.207031 382.410156c-1.917969 0-3.839843-.730468-5.300781-2.195312l-7.066406-7.0625-7.0625 7.0625c-2.929688 2.929687-7.675782 2.929687-10.605469 0-2.929687-2.929688-2.929687-7.679688 0-10.605469l12.367187-12.367187c2.925782-2.929688 7.675782-2.929688 10.605469 0l12.363281 12.367187c2.929688 2.929687 2.929688 7.675781 0 10.605469-1.460937 1.464844-3.382812 2.195312-5.300781 2.195312zm0 0"/></g><path d="m170.472656 317.367188c0-13.300782-13.539062-24.082032-30.242187-24.082032-16.699219 0-30.238281 10.78125-30.238281 24.082032 0 13.300781 13.539062 24.082031 30.238281 24.082031 16.703125 0 30.242187-10.78125 30.242187-24.082031zm0 0" fill="#eda1ab"/><path d="m334.390625 317.367188c0-13.300782-13.539063-24.082032-30.242187-24.082032-16.703126 0-30.242188 10.78125-30.242188 24.082032 0 13.300781 13.539062 24.082031 30.242188 24.082031 16.703124 0 30.242187-10.78125 30.242187-24.082031zm0 0" fill="#eda1ab"/><path d="m157.855469 300.84375c-4.140625 0-7.5-3.359375-7.5-7.5v-10.679688c0-4.140624 3.359375-7.5 7.5-7.5 4.144531 0 7.5 3.359376 7.5 7.5v10.679688c0 4.140625-3.355469 7.5-7.5 7.5zm0 0" fill="#4e5660"/><path d="m286.523438 300.84375c-4.140626 0-7.5-3.359375-7.5-7.5v-10.679688c0-4.140624 3.359374-7.5 7.5-7.5 4.140624 0 7.5 3.359376 7.5 7.5v10.679688c0 4.140625-3.355469 7.5-7.5 7.5zm0 0" fill="#4e5660"/><path d="m261.921875 295.386719c0-17.183594-17.789063-18.796875-39.730469-18.796875-21.945312 0-39.734375 1.613281-39.734375 18.796875 0 17.183593 17.789063 31.113281 39.734375 31.113281 21.941406 0 39.730469-13.929688 39.730469-31.113281zm0 0" fill="#fff"/><path d="m200.738281 321.570312c4.46875 2.25 9.546875 3.816407 15 4.515626v-49.433594c-5.453125.121094-10.53125.449218-15 1.222656zm0 0" fill="#c6c6c6"/><path d="m228.640625 326.085938c5.457031-.699219 10.535156-2.265626 15-4.515626v-43.695312c-4.464844-.773438-9.542969-1.101562-15-1.222656zm0 0" fill="#c6c6c6"/><path d="m165.675781 277.152344c-.433593 0-.871093-.039063-1.3125-.113282l-12.746093-2.25c-4.082032-.71875-6.804688-4.609374-6.085938-8.6875.71875-4.082031 4.617188-6.804687 8.6875-6.085937l12.75 2.25c4.078125.71875 6.800781 4.609375 6.082031 8.6875-.640625 3.640625-3.804687 6.199219-7.375 6.199219zm0 0" fill="#4e5660"/><path d="m278.707031 277.152344c-3.574219 0-6.738281-2.558594-7.378906-6.199219-.71875-4.078125 2.003906-7.96875 6.082031-8.6875l12.75-2.25c4.082032-.714844 7.96875 2.003906 8.6875 6.085937.71875 4.078126-2.003906 7.96875-6.085937 8.6875l-12.746094 2.246094c-.441406.078125-.878906.117188-1.308594.117188zm0 0" fill="#4e5660"/><path d="m500.054688 173.375c-8.257813-1.882812-16.476563 3.296875-18.351563 11.558594l-10.089844 44.425781c-1.960937 8.625-8.890625 14.925781-17.394531 16.214844v-76.292969c0-8.257812-6.347656-15.363281-14.597656-15.753906-8.804688-.414063-16.074219 6.605468-16.074219 15.320312v76.726563c-8.503906-1.292969-15.433594-7.589844-17.394531-16.214844l-9.996094-44.003906c-1.828125-8.050781-9.59375-13.578125-17.722656-12.128907-8.679688 1.546876-14.214844 10-12.285156 18.5l10.09375 44.425782c4.457031 19.628906 19.421874 34.359375 38.226562 38.886718 5.289062 1.273438 9.078125 5.921876 9.078125 11.363282v164.382812c0 8.257813 6.34375 15.363282 14.59375 15.75 8.808594.414063 16.078125-6.601562 16.078125-15.316406v-164.816406c0-5.441406 3.785156-10.089844 9.078125-11.363282 18.804687-4.527343 33.769531-19.257812 38.226563-38.882812l10.09375-44.429688c1.875-8.257812-3.300782-16.476562-11.5625-18.351562zm0 0" fill="#e26e7e"/></svg>