<svg height="511pt" viewBox="0 0 511.99968 511" width="511pt" xmlns="http://www.w3.org/2000/svg"><path d="m321.492188 506.921875c-8.09375 0-15.355469-5.65625-17.078126-13.894531-7.964843-38.117188 1.894532-102.050782 4.039063-112.226563 1.988281-9.4375 11.257813-15.476562 20.691406-13.488281 9.4375 1.988281 15.476563 11.253906 13.484375 20.691406-2.5 11.871094-10.132812 68.644532-4.023437 97.882813 1.972656 9.441406-4.082031 18.691406-13.523438 20.664062-1.203125.25-2.40625.371094-3.589843.371094zm0 0" fill="#efd176"/><path d="m415.902344 506.921875c-8.09375 0-15.355469-5.65625-17.074219-13.894531-7.96875-38.121094 1.890625-102.054688 4.039063-112.230469 1.988281-9.4375 11.25-15.476563 20.6875-13.484375 9.4375 1.988281 15.476562 11.253906 13.484374 20.691406-2.5 11.867188-10.132812 68.640625-4.023437 97.878906 1.972656 9.441407-4.082031 18.695313-13.523437 20.667969-1.203126.25-2.40625.371094-3.589844.371094zm0 0" fill="#efd176"/><path d="m190.761719 429.445312c-.160157 0-.320313 0-.484375 0-9.644532-.035156-17.4375-7.882812-17.402344-17.527343.035156-9.625 7.847656-17.402344 17.464844-17.402344.15625-.003906.320312 0 .480468 0 36.855469 0 42.601563-17.617187 50.722657-71.742187.953125-6.375 1.945312-12.96875 3.085937-19.695313 1.609375-9.507813 10.632813-15.910156 20.136719-14.296875 9.507813 1.609375 15.910156 10.628906 14.296875 20.136719-1.085938 6.398437-2.046875 12.824219-2.980469 19.035156-3.777343 25.191406-7.347656 48.988281-18.375 67.621094-13.480469 22.789062-35.382812 33.871093-66.945312 33.871093zm0 0" fill="#efd176"/><path d="m272.265625 78.320312c28.464844 19.929688 39.253906 56.871094 43.074219 76.132813 1.390625 7-3.339844 13.753906-10.394532 14.84375-19.40625 2.996094-57.808593 5.492187-86.273437-14.4375-28.460937-19.933594-39.25-56.871094-43.074219-76.132813-1.386718-7 3.34375-13.757812 10.394532-14.84375 19.40625-2.996093 57.808593-5.492187 86.273437 14.4375zm0 0" fill="#8ee2cf"/><path d="m262.53125 136.042969c-1.484375 0-2.984375-.441407-4.292969-1.359375l-34.136719-23.902344c-3.394531-2.375-4.21875-7.050781-1.84375-10.445312 2.375-3.394532 7.050782-4.214844 10.445313-1.839844l34.136719 23.902344c3.394531 2.375 4.21875 7.050781 1.84375 10.445312-1.460938 2.082031-3.785156 3.199219-6.152344 3.199219zm0 0" fill="#6fce91"/><path d="m366.828125 61.648438c-19.929687 28.460937-17.433594 66.863281-14.4375 86.269531 1.085937 7.054687 7.84375 11.785156 14.84375 10.394531 19.257813-3.820312 56.199219-14.609375 76.128906-43.074219 19.933594-28.464843 17.4375-66.867187 14.441407-86.273437-1.089844-7.050782-7.84375-11.78125-14.84375-10.394532-19.261719 3.824219-56.203126 14.613282-76.132813 43.078126zm0 0" fill="#8ee2cf"/><path d="m393.140625 113.011719c-1.488281 0-2.988281-.4375-4.296875-1.355469-3.394531-2.375-4.21875-7.050781-1.839844-10.445312l23.902344-34.136719c2.375-3.394531 7.050781-4.21875 10.445312-1.84375 3.390626 2.375 4.214844 7.050781 1.839844 10.445312l-23.902344 34.136719c-1.460937 2.085938-3.785156 3.199219-6.148437 3.199219zm0 0" fill="#6fce91"/><path d="m367.71875 74.136719c6.035156 34.222656-12.457031 67.972656-23.375 84.292969-3.96875 5.933593-12.089844 7.363281-17.847656 3.148437-15.839844-11.605469-44.761719-36.996094-50.792969-71.214844-6.035156-34.222656 12.457031-67.972656 23.375-84.292969 3.964844-5.929687 12.089844-7.363281 17.84375-3.148437 15.84375 11.605469 44.761719 36.996094 50.796875 71.214844zm0 0" fill="#8ee2cf"/><path d="m325.320312 110.273438c-3.570312 0-6.734374-2.5625-7.378906-6.199219l-7.234375-41.042969c-.71875-4.078125 2.003907-7.96875 6.082031-8.6875 4.082032-.71875 7.972657 2.003906 8.6875 6.082031l7.238282 41.042969c.71875 4.078125-2.003906 7.96875-6.082032 8.6875-.441406.078125-.878906.117188-1.3125.117188zm0 0" fill="#6fce91"/><path d="m330.488281 132.035156c70.988281-12.515625 131.589844 34.445313 153.320313 117.90625 22.601562 86.820313 1.058594 158.351563-101.421875 176.421875-102.480469 18.070313-147.191407-41.78125-155.644531-131.097656-8.125-85.859375 32.761718-150.714844 103.746093-163.230469zm0 0" fill="#f7ef87"/><g fill="#efd176"><path d="m289.355469 146.898438c-45.0625 26.289062-69.003907 80.824218-62.613281 148.371093 8.429687 89.066407 52.921874 148.824219 154.796874 131.234375-136.90625-53.816406-127.824218-196.074218-92.183593-279.605468zm0 0"/><path d="m335.769531 242.496094c-1.488281 0-2.988281-.441406-4.296875-1.355469-3.390625-2.378906-4.214844-7.054687-1.839844-10.445313l10.277344-14.683593c2.375-3.390625 7.054688-4.214844 10.445313-1.839844l14.679687 10.277344c3.394532 2.378906 4.21875 7.054687 1.84375 10.445312-2.375 3.394531-7.054687 4.21875-10.445312 1.84375l-8.535156-5.980469-5.980469 8.539063c-1.457031 2.082031-3.785157 3.199219-6.148438 3.199219zm0 0"/><path d="m407.121094 229.914062c-1.488282 0-2.988282-.441406-4.296875-1.355468-3.390625-2.378906-4.21875-7.054688-1.839844-10.445313l10.277344-14.683593c2.378906-3.390626 7.054687-4.214844 10.445312-1.839844l14.679688 10.277344c3.394531 2.378906 4.21875 7.054687 1.84375 10.445312-2.375 3.394531-7.054688 4.21875-10.445313 1.84375l-8.539062-5.976562-5.976563 8.535156c-1.457031 2.085937-3.785156 3.199218-6.148437 3.199218zm0 0"/><path d="m264.417969 255.078125c-1.484375 0-2.984375-.441406-4.296875-1.359375-3.390625-2.375-4.214844-7.050781-1.839844-10.441406l10.277344-14.683594c2.378906-3.390625 7.054687-4.21875 10.445312-1.839844l14.683594 10.277344c3.390625 2.375 4.214844 7.050781 1.839844 10.445312-2.375 3.394532-7.050782 4.21875-10.445313 1.84375l-8.535156-5.980468-5.980469 8.539062c-1.457031 2.082032-3.785156 3.199219-6.148437 3.199219zm0 0"/><path d="m397.234375 382.480469c-1.484375 0-2.984375-.441407-4.292969-1.359375-3.394531-2.375-4.21875-7.050782-1.84375-10.445313l10.28125-14.679687c2.375-3.394532 7.054688-4.21875 10.445313-1.84375l14.679687 10.28125c3.394532 2.375 4.21875 7.050781 1.84375 10.445312-2.375 3.394532-7.054687 4.21875-10.445312 1.839844l-8.539063-5.976562-5.976562 8.539062c-1.460938 2.082031-3.785157 3.199219-6.152344 3.199219zm0 0"/><path d="m325.886719 395.058594c-1.488281 0-2.988281-.4375-4.296875-1.355469-3.394532-2.375-4.21875-7.050781-1.84375-10.445313l10.28125-14.679687c2.375-3.394531 7.054687-4.21875 10.445312-1.84375l14.679688 10.28125c3.394531 2.375 4.21875 7.050781 1.84375 10.445313-2.378906 3.394531-7.054688 4.214843-10.445313 1.839843l-8.539062-5.976562-5.976563 8.535156c-1.460937 2.085937-3.785156 3.199219-6.148437 3.199219zm0 0"/></g><path d="m304.683594 337.953125c-2.367188-13.425781-17.949219-21.898437-34.804688-18.925781-16.855468 2.972656-28.601562 16.261718-26.234375 29.683594 2.363281 13.425781 17.949219 21.898437 34.804688 18.925781 16.855469-2.972657 28.601562-16.261719 26.234375-29.683594zm0 0" fill="#eda1ab"/><path d="m409.109375 319.511719c2.367187 13.421875 17.949219 21.894531 34.804687 18.925781 16.855469-2.972656 28.601563-16.261719 26.238282-29.683594-2.367188-13.425781-17.949219-21.898437-34.804688-18.925781-16.855468 2.96875-28.601562 16.261719-26.238281 29.683594zm0 0" fill="#eda1ab"/><path d="m287.683594 323.441406c-3.570313 0-6.734375-2.5625-7.375-6.199218l-1.902344-10.777344c-.71875-4.082032 2.003906-7.96875 6.085938-8.6875 4.082031-.71875 7.96875 2.003906 8.6875 6.082031l1.898437 10.777344c.722656 4.078125-2.003906 7.96875-6.082031 8.691406-.441406.074219-.878906.113281-1.3125.113281zm0 0" fill="#4e5660"/><path d="m417.542969 300.542969c-3.570313 0-6.738281-2.5625-7.378907-6.199219l-1.898437-10.777344c-.71875-4.078125 2.003906-7.96875 6.082031-8.691406 4.082032-.714844 7.96875 2.007812 8.6875 6.085938l1.902344 10.777343c.71875 4.078125-2.003906 7.96875-6.085938 8.6875-.441406.078125-.878906.117188-1.308593.117188zm0 0" fill="#4e5660"/><path d="m342.894531 316.71875c-2.28125 0-4.53125-1.03125-6.003906-2.996094-2.488281-3.3125-1.820313-8.011718 1.492187-10.5 3.808594-2.859375 8.308594-4.808594 13.019532-5.640625 4.710937-.832031 9.609375-.539062 14.164062.84375 3.964844 1.207031 6.199219 5.394531 4.996094 9.359375-1.203125 3.960938-5.398438 6.199219-9.355469 4.996094-2.34375-.714844-4.765625-.855469-7.199219-.425781-2.433593.425781-4.660156 1.390625-6.617187 2.859375-1.347656 1.015625-2.929687 1.503906-4.496094 1.503906zm0 0" fill="#4e5660"/><path d="m292.667969 293.707031h-20.433594c-4.140625 0-7.5-3.355469-7.5-7.5 0-4.140625 3.359375-7.5 7.5-7.5h20.433594c4.140625 0 7.5 3.359375 7.5 7.5 0 4.144531-3.359375 7.5-7.5 7.5zm0 0" fill="#4e5660"/><path d="m401.597656 268.003906c-3.066406 0-5.941406-1.890625-7.050781-4.933594-1.414063-3.894531.589844-8.199218 4.484375-9.613281l19.199219-6.992187c3.890625-1.417969 8.199219.589844 9.613281 4.484375 1.417969 3.890625-.589844 8.195312-4.480469 9.613281l-19.203125 6.988281c-.84375.308594-1.710937.453125-2.5625.453125zm0 0" fill="#4e5660"/><path d="m188.683594 430.980469c-3.710938 0-7.417969-1.414063-10.25-4.246094l-44.363282-44.363281c-5.664062-5.664063-5.664062-14.84375 0-20.503906 5.660157-5.664063 14.84375-5.664063 20.503907 0l44.363281 44.363281c5.664062 5.660156 5.664062 14.839843 0 20.503906-2.832031 2.832031-6.542969 4.246094-10.253906 4.246094zm0 0" fill="#e1b89a"/><path d="m169.050781 356.488281c0 22.289063-18.070312 40.359375-40.359375 40.359375-22.289062 0-40.359375-18.070312-40.359375-40.359375 0-22.289062 18.070313-40.359375 40.359375-40.359375 22.289063 0 40.359375 18.070313 40.359375 40.359375zm0 0" fill="#7acefa"/><path d="m115.652344 318.289062c-6.746094 2.292969-12.964844 6.402344-17.878906 12.253907-.828126.988281-1.59375 2.003906-2.308594 3.042969l56.128906 56.128906c2.917969-2.011719 5.625-4.4375 8.011719-7.285156 3.304687-3.9375 5.714843-8.320313 7.28125-12.90625zm0 0" fill="#a3defe"/><path d="m128.609375 404.351562c-11.222656 0-21.980469-3.902343-30.679687-11.203124-9.792969-8.214844-15.800782-19.753907-16.914063-32.488282-1.117187-12.738281 2.796875-25.144531 11.011719-34.9375 16.964844-20.214844 47.210937-22.859375 67.425781-5.898437 20.214844 16.964843 22.863281 47.210937 5.898437 67.425781-8.214843 9.792969-19.753906 15.800781-32.492187 16.914062-1.421875.125-2.839844.1875-4.25.1875zm.109375-80.710937c-9.386719 0-18.707031 3.988281-25.199219 11.726563-5.640625 6.722656-8.328125 15.242187-7.5625 23.984374.765625 8.742188 4.886719 16.664063 11.613281 22.308594 6.722657 5.640625 15.242188 8.328125 23.984376 7.5625 8.742187-.765625 16.664062-4.890625 22.308593-11.613281 11.644531-13.878906 9.828125-34.648437-4.050781-46.292969-6.144531-5.15625-13.640625-7.675781-21.09375-7.675781zm0 0" fill="#6a96d7"/><path d="m436.648438 363.425781c-16.054688 0-32.894532-4.449219-48.734376-13.140625-8.457031-4.640625-11.546874-15.257812-6.90625-23.710937 4.636719-8.457031 15.257813-11.546875 23.710938-6.910157 16.234375 8.910157 33.3125 11.234376 46.855469 6.378907 11.785156-4.222657 20.785156-13.925781 26.742187-28.832031 3.578125-8.957032 13.742188-13.3125 22.695313-9.734376 8.957031 3.582032 13.316406 13.742188 9.734375 22.699219-12.246094 30.636719-32.523438 43.417969-47.382813 48.746094-8.410156 3.015625-17.433593 4.503906-26.714843 4.503906zm0 0" fill="#efd176"/><path d="m217.878906 493.316406c0-10.59375-20.964844-19.183594-46.828125-19.183594s-46.828125 8.589844-46.828125 19.183594 20.964844 19.183594 46.828125 19.183594 46.828125-8.589844 46.828125-19.183594zm0 0" fill="#e1b89a"/><path d="m93.65625 448.769531c0-10.59375-20.964844-19.183593-46.828125-19.183593s-46.828125 8.589843-46.828125 19.183593 20.964844 19.183594 46.828125 19.183594 46.828125-8.589844 46.828125-19.183594zm0 0" fill="#e1b89a"/></svg>