<svg height="512pt" viewBox="-21 0 512 512" width="512pt" xmlns="http://www.w3.org/2000/svg"><path d="m166.707031 512c-7.898437 0-14.984375-5.523438-16.664062-13.558594-7.773438-37.203125 1.847656-99.582031 3.941406-109.511718 1.941406-9.210938 10.980469-15.101563 20.191406-13.160157 9.207031 1.941407 15.097657 10.980469 13.15625 20.191407-2.441406 11.578124-9.886719 66.976562-3.925781 95.511718 1.925781 9.210938-3.984375 18.238282-13.195312 20.164063-1.175782.246093-2.347657.363281-3.503907.363281zm0 0" fill="#efd176"/><path d="m270.042969 512c-1.15625 0-2.328125-.117188-3.503907-.363281-9.210937-1.925781-15.121093-10.953125-13.195312-20.167969 5.960938-28.53125-1.484375-83.929688-3.929688-95.507812-1.941406-9.210938 3.949219-18.25 13.160157-20.191407 9.207031-1.945312 18.25 3.949219 20.1875 13.160157 2.097656 9.929687 11.714843 72.3125 3.941406 109.511718-1.679687 8.035156-8.765625 13.558594-16.660156 13.558594zm0 0" fill="#efd176"/><path d="m106.160156 334.414062c-2.707031 0-5.457031-.648437-8.015625-2.015624-48.761719-26.050782-64.113281-48.714844-95.558593-106.832032-4.476563-8.277344-1.398438-18.621094 6.878906-23.097656s18.617187-1.398438 23.097656 6.878906c33.875 62.621094 46.488281 74.210938 81.644531 92.992188 8.300781 4.433594 11.433594 14.757812 7 23.058594-3.070312 5.742187-8.957031 9.015624-15.046875 9.015624zm0 0" fill="#efd176"/><path d="m163.757812 368.632812c-1.621093 2.171876-3.785156 3.984376-6.410156 5.21875-50.054687 23.480469-77.394531 22.21875-142.777344 12.632813-9.3125-1.367187-15.753906-10.019531-14.386718-19.332031 1.363281-9.3125 10.019531-15.753906 19.332031-14.390625 70.445313 10.332031 87.273437 7.160156 123.359375-9.769531 8.519531-3.996094 18.667969-.328126 22.664062 8.191406 2.765626 5.894531 1.863282 12.574218-1.78125 17.449218zm0 0" fill="#efd176"/><path d="m171.527344 68.65625c23.976562 23.976562 28.085937 61.304688 28.492187 80.460938.152344 6.960937-5.539062 12.652343-12.5 12.503906-19.15625-.410156-56.484375-4.519532-80.460937-28.496094-23.976563-23.976562-28.082032-61.300781-28.492188-80.457031-.148437-6.960938 5.542969-12.652344 12.503906-12.503907 19.152344.410157 56.480469 4.519532 80.457032 28.492188zm0 0" fill="#8ee2cf"/><path d="m153.671875 122.769531c-1.921875 0-3.839844-.730469-5.304687-2.195312l-28.753907-28.757813c-2.929687-2.925781-2.929687-7.675781 0-10.605468 2.929688-2.929688 7.675781-2.929688 10.605469 0l28.753906 28.757812c2.929688 2.925781 2.929688 7.675781 0 10.605469-1.464844 1.464843-3.382812 2.195312-5.300781 2.195312zm0 0" fill="#6fce91"/><path d="m265.222656 68.65625c-23.976562 23.976562-28.085937 61.304688-28.496094 80.460938-.148437 6.960937 5.542969 12.652343 12.503907 12.503906 19.15625-.410156 56.484375-4.519532 80.460937-28.496094 23.976563-23.976562 28.082032-61.300781 28.492188-80.457031.148437-6.960938-5.542969-12.652344-12.503906-12.503907-19.152344.410157-56.480469 4.519532-80.457032 28.492188zm0 0" fill="#8ee2cf"/><path d="m283.078125 122.769531c-1.917969 0-3.835937-.730469-5.300781-2.195312-2.929688-2.929688-2.929688-7.679688 0-10.605469l28.753906-28.757812c2.929688-2.929688 7.679688-2.929688 10.605469 0 2.929687 2.929687 2.929687 7.679687 0 10.605468l-28.753907 28.757813c-1.464843 1.464843-3.382812 2.195312-5.304687 2.195312zm0 0" fill="#6fce91"/><path d="m263.960938 80.8125c0 33.90625-23.488282 63.207031-36.746094 77.039062-4.816406 5.027344-12.863282 5.027344-17.679688 0-13.257812-13.832031-36.746094-43.132812-36.746094-77.039062s23.488282-63.207031 36.746094-77.042969c4.816406-5.027343 12.863282-5.027343 17.679688 0 13.257812 13.835938 36.746094 43.136719 36.746094 77.042969zm0 0" fill="#8ee2cf"/><path d="m218.375 108.644531c-4.140625 0-7.5-3.359375-7.5-7.5v-40.664062c0-4.144531 3.359375-7.5 7.5-7.5s7.5 3.355469 7.5 7.5v40.664062c0 4.140625-3.359375 7.5-7.5 7.5zm0 0" fill="#6fce91"/><path d="m218.375 130.140625c70.335938 0 120.617188 55.394531 127.355469 139.28125 7.011719 87.261719-25.8125 152.351563-127.355469 152.351563s-134.367188-65.089844-127.355469-152.351563c6.738281-83.886719 57.019531-139.28125 127.355469-139.28125zm0 0" fill="#f7ef87"/><g fill="#efd176"><path d="m176.328125 137.453125c-47.757813 17.628906-80.007813 65.980469-85.308594 131.96875-6.992187 87.019531 25.636719 151.980469 126.519531 152.34375-122.445312-74.914063-89.613281-210.078125-41.210937-284.3125zm0 0"/><path d="m230.742188 244.480469c-1.921876 0-3.839844-.734375-5.304688-2.199219l-7.0625-7.0625-7.0625 7.0625c-2.929688 2.929688-7.679688 2.929688-10.605469 0-2.929687-2.925781-2.929687-7.675781 0-10.605469l12.363281-12.367187c2.929688-2.925782 7.679688-2.925782 10.609376 0l12.363281 12.367187c2.929687 2.929688 2.929687 7.679688 0 10.605469-1.464844 1.464844-3.382813 2.199219-5.300781 2.199219zm0 0"/><path d="m301.4375 244.480469c-1.917969 0-3.839844-.734375-5.300781-2.199219l-7.0625-7.0625-7.066407 7.0625c-2.925781 2.929688-7.675781 2.929688-10.605468 0-2.929688-2.925781-2.929688-7.675781 0-10.605469l12.367187-12.367187c2.929688-2.925782 7.679688-2.925782 10.605469 0l12.367188 12.367187c2.929687 2.929688 2.929687 7.679688 0 10.605469-1.464844 1.464844-3.382813 2.199219-5.304688 2.199219zm0 0"/><path d="m160.042969 244.480469c-1.917969 0-3.839844-.734375-5.300781-2.199219l-7.066407-7.0625-7.0625 7.0625c-2.929687 2.929688-7.675781 2.929688-10.605469 0-2.929687-2.925781-2.929687-7.675781 0-10.605469l12.367188-12.367187c2.929688-2.925782 7.675781-2.925782 10.605469 0l12.367187 12.367187c2.929688 2.929688 2.929688 7.679688 0 10.605469-1.464844 1.464844-3.386718 2.199219-5.304687 2.199219zm0 0"/><path d="m266.089844 382.410156c-1.917969 0-3.839844-.730468-5.304688-2.195312l-7.0625-7.0625-7.0625 7.0625c-2.929687 2.929687-7.675781 2.929687-10.605468 0-2.929688-2.929688-2.929688-7.679688 0-10.609375l12.367187-12.363281c2.925781-2.929688 7.675781-2.929688 10.605469 0l12.363281 12.363281c2.929687 2.929687 2.929687 7.679687 0 10.609375-1.460937 1.464844-3.382813 2.195312-5.300781 2.195312zm0 0"/><path d="m195.390625 382.410156c-1.917969 0-3.839844-.730468-5.300781-2.195312l-7.0625-7.0625-7.066406 7.0625c-2.925782 2.929687-7.675782 2.929687-10.605469 0-2.929688-2.929688-2.929688-7.679688 0-10.609375l12.367187-12.363281c2.929688-2.929688 7.679688-2.929688 10.605469 0l12.367187 12.363281c2.929688 2.929687 2.929688 7.679687 0 10.609375-1.464843 1.464844-3.382812 2.195312-5.304687 2.195312zm0 0"/></g><path d="m163.777344 318.800781c0-14.042969-14.292969-25.425781-31.925782-25.425781-17.628906 0-31.925781 11.382812-31.925781 25.425781 0 14.039063 14.296875 25.421875 31.925781 25.421875 17.632813 0 31.925782-11.382812 31.925782-25.421875zm0 0" fill="#eda1ab"/><path d="m336.824219 318.800781c0-14.042969-14.296875-25.425781-31.925781-25.425781-17.632813 0-31.925782 11.382812-31.925782 25.425781 0 14.039063 14.292969 25.421875 31.925782 25.421875 17.628906 0 31.925781-11.382812 31.925781-25.421875zm0 0" fill="#eda1ab"/><path d="m330.828125 273.15625c0 17.761719-14.394531 32.15625-32.15625 32.15625-17.757813 0-32.15625-14.394531-32.15625-32.15625 0-17.757812 14.398437-32.152344 32.15625-32.152344 17.761719 0 32.15625 14.394532 32.15625 32.152344zm0 0" fill="#fff"/><path d="m298.671875 291.253906c-4.140625 0-7.5-3.359375-7.5-7.5v-21.214844c0-4.144531 3.359375-7.5 7.5-7.5 4.144531 0 7.5 3.355469 7.5 7.5v21.214844c0 4.140625-3.355469 7.5-7.5 7.5zm0 0" fill="#4e5660"/><path d="m170.234375 273.15625c0 17.761719-14.398437 32.15625-32.15625 32.15625-17.761719 0-32.15625-14.394531-32.15625-32.15625 0-17.757812 14.394531-32.152344 32.15625-32.152344 17.757813 0 32.15625 14.394532 32.15625 32.152344zm0 0" fill="#fff"/><path d="m138.078125 291.253906c-4.144531 0-7.5-3.359375-7.5-7.5v-21.214844c0-4.144531 3.355469-7.5 7.5-7.5 4.140625 0 7.5 3.355469 7.5 7.5v21.214844c0 4.140625-3.359375 7.5-7.5 7.5zm0 0" fill="#4e5660"/><path d="m218.375 313.164062c-15.03125 0-29.328125-6.511718-39.222656-17.867187-2.722656-3.121094-2.398438-7.859375.726562-10.582031 3.121094-2.722656 7.859375-2.398438 10.582032.726562 7.042968 8.085938 17.21875 12.71875 27.914062 12.71875s20.867188-4.632812 27.914062-12.71875c2.71875-3.125 7.457032-3.449218 10.582032-.726562 3.121094 2.722656 3.445312 7.460937.726562 10.582031-9.894531 11.355469-24.191406 17.867187-39.222656 17.867187zm0 0" fill="#4e5660"/><path d="m162.6875 167.816406h-27.566406c-11.582032 0-20.210938 10.679688-17.785156 22.003906l1.527343 7.121094c2.566407 11.964844 13.140625 20.515625 25.382813 20.515625h9.320312c12.238282 0 22.8125-8.550781 25.378906-20.515625l1.527344-7.121094c2.429688-11.324218-6.203125-22.003906-17.785156-22.003906zm0 0" fill="#4e5660"/><path d="m260.542969 181.449219c-.339844 0-.679688-.023438-1.023438-.070313-9.960937-1.359375-23.636719-2.917968-41.144531-2.917968s-31.183594 1.558593-41.144531 2.917968c-4.105469.5625-7.882813-2.3125-8.441407-6.417968-.5625-4.105469 2.3125-7.886719 6.417969-8.445313 10.425781-1.421875 24.757813-3.050781 43.167969-3.050781s32.742188 1.628906 43.171875 3.050781c4.101563.5625 6.976563 4.339844 6.417969 8.445313-.515625 3.761718-3.730469 6.488281-7.421875 6.488281zm0 0" fill="#e26e7e"/><path d="m153.566406 224.957031h-9.320312c-15.671875 0-29.429688-11.121093-32.714844-26.445312l-1.527344-7.117188c-1.636718-7.625.238282-15.472656 5.136719-21.539062 4.902344-6.0625 12.183594-9.539063 19.980469-9.539063h27.566406c7.796875 0 15.078125 3.480469 19.980469 9.542969 4.902343 6.0625 6.773437 13.910156 5.140625 21.535156l-1.527344 7.117188c-3.285156 15.324219-17.042969 26.445312-32.714844 26.445312zm-18.445312-49.640625c-3.242188 0-6.273438 1.449219-8.3125 3.972656-2.039063 2.523438-2.820313 5.789063-2.140625 8.960938l1.527343 7.117188c1.8125 8.457031 9.402344 14.589843 18.050782 14.589843h9.320312c8.644532 0 16.234375-6.132812 18.046875-14.585937l1.527344-7.121094c.679687-3.171875-.101563-6.4375-2.140625-8.960938-2.039062-2.523437-5.066406-3.96875-8.3125-3.96875h-27.566406zm0 0" fill="#e26e7e"/><path d="m274.0625 167.816406h27.566406c11.582032 0 20.210938 10.679688 17.785156 22.003906l-1.527343 7.121094c-2.566407 11.964844-13.140625 20.515625-25.382813 20.515625h-9.320312c-12.238282 0-22.816406-8.550781-25.378906-20.515625l-1.527344-7.121094c-2.429688-11.324218 6.203125-22.003906 17.785156-22.003906zm0 0" fill="#4e5660"/><path d="m292.503906 224.957031h-9.320312c-15.671875 0-29.429688-11.121093-32.714844-26.445312l-1.527344-7.117188c-1.632812-7.625.238282-15.472656 5.140625-21.539062 4.902344-6.0625 12.183594-9.539063 19.976563-9.539063h27.570312c7.792969 0 15.078125 3.480469 19.976563 9.542969 4.902343 6.0625 6.773437 13.910156 5.140625 21.535156l-1.527344 7.117188c-3.285156 15.324219-17.042969 26.445312-32.714844 26.445312zm-18.441406-49.640625c-3.246094 0-6.273438 1.449219-8.3125 3.972656-2.039062 2.523438-2.820312 5.789063-2.140625 8.960938l1.527344 7.117188c1.8125 8.457031 9.402343 14.589843 18.046875 14.589843h9.320312c8.648438 0 16.238282-6.132812 18.050782-14.585937l1.527343-7.121094c.679688-3.171875-.101562-6.4375-2.140625-8.960938-2.039062-2.523437-5.066406-3.96875-8.3125-3.96875h-27.566406zm0 0" fill="#e26e7e"/><path d="m432.558594 292.558594c-1.917969 0-3.835938-.734375-5.300782-2.199219-6.1875-6.1875-9.597656-14.414063-9.597656-23.167969 0-8.75 3.410156-16.976562 9.597656-23.164062 6.925782-6.925782 6.925782-18.195313 0-25.121094-2.929687-2.929688-2.929687-7.679688 0-10.605469 2.929688-2.929687 7.675782-2.929687 10.605469 0 12.773438 12.773438 12.773438 33.558594 0 46.332031-3.355469 3.355469-5.203125 7.816407-5.203125 12.5625 0 4.742188 1.847656 9.203126 5.203125 12.558594 2.929688 2.929688 2.929688 7.675782 0 10.605469-1.464843 1.464844-3.382812 2.199219-5.304687 2.199219zm0 0" fill="#e1b89a"/><path d="m383.199219 292.558594c-1.917969 0-3.835938-.734375-5.300781-2.199219-6.1875-6.1875-9.597657-14.414063-9.597657-23.167969 0-8.75 3.410157-16.976562 9.597657-23.164062 6.925781-6.925782 6.925781-18.195313 0-25.121094-2.929688-2.929688-2.929688-7.679688 0-10.605469 2.929687-2.929687 7.675781-2.929687 10.605468 0 12.773438 12.773438 12.773438 33.558594 0 46.332031-3.355468 3.355469-5.203125 7.816407-5.203125 12.5625 0 4.742188 1.847657 9.203126 5.203125 12.558594 2.929688 2.929688 2.929688 7.675782 0 10.605469-1.464844 1.464844-3.382812 2.199219-5.304687 2.199219zm0 0" fill="#e1b89a"/><path d="m414.871094 498.753906h-68.21875c-11.023438 0-20.359375-8.117187-21.894532-19.03125l-18.777343-133.734375h149.5625l-18.777344 133.734375c-1.53125 10.914063-10.871094 19.03125-21.894531 19.03125zm0 0" fill="#fcf2d0"/><path d="m348.363281 345.988281h-42.382812l18.777343 133.734375c1.535157 10.914063 10.871094 19.03125 21.894532 19.03125h35.210937c-30.023437-39.578125-35.441406-110.761718-33.5-152.765625zm0 0" fill="#f6e3a3"/><path d="m456.765625 310.351562h-152.003906c-7.476563 0-13.535157 6.0625-13.535157 13.539063v8.558594c0 7.476562 6.058594 13.539062 13.535157 13.539062h152.003906c7.476563 0 13.535156-6.0625 13.535156-13.539062v-8.558594c0-7.476563-6.058593-13.539063-13.535156-13.539063zm0 0" fill="#e1b89a"/><path d="m359.96875 310.351562h-55.207031c-7.476563 0-13.539063 6.0625-13.539063 13.539063v8.5625c0 7.476563 6.0625 13.535156 13.539063 13.535156h61.214843c-7.890624-6.667969-9.769531-21.792969-6.007812-35.636719zm0 0" fill="#d2996f"/><path d="m447.351562 445.179688 6.96875-49.621094c.558594-3.996094-2.542968-7.566406-6.582031-7.566406h-133.953125c-4.035156 0-7.140625 3.570312-6.578125 7.566406l6.964844 49.621094c.566406 4.03125 4.011719 7.023437 8.082031 7.023437h117.019532c4.066406 0 7.511718-2.992187 8.078124-7.023437zm0 0" fill="#e1b89a"/><path d="m344.175781 387.992188h-30.390625c-4.035156 0-7.140625 3.570312-6.578125 7.566406l6.964844 49.621094c.566406 4.03125 4.011719 7.023437 8.082031 7.023437h27.105469c-7.058594-14.625-8.792969-46.402344-5.183594-64.210937zm0 0" fill="#d2996f"/><path d="m348.363281 422.371094c0 11.765625 3.929688 22.363281 10.207031 29.832031h44.382813c6.28125-7.46875 10.207031-18.066406 10.207031-29.832031 0-14.410156-5.890625-27.074219-14.785156-34.378906h-35.222656c-8.898438 7.304687-14.789063 19.96875-14.789063 34.378906zm0 0" fill="#6fce91"/><path d="m442.015625 418.726562c-7.011719 0-13.574219-4.371093-16.035156-11.359374-3.117188-8.855469 1.535156-18.5625 10.390625-21.679688 3.765625-1.328125 7.640625-3.683594 8.472656-4.242188 7.792969-5.234374 18.355469-3.15625 23.589844 4.640626 5.234375 7.792968 3.15625 18.355468-4.636719 23.589843-.769531.515625-7.765625 5.136719-16.136719 8.082031-1.867187.65625-3.773437.96875-5.644531.96875zm0 0" fill="#efd176"/><path d="m11.570312 323.3125c-3.738281 0-6.972656-2.792969-7.433593-6.597656-1.300781-10.6875-1.25-31.265625.089843-37.964844.8125-4.058594 4.761719-6.691406 8.824219-5.882812 4.0625.8125 6.695313 4.765624 5.882813 8.824218-.855469 4.289063-1.144532 23.035156.09375 33.214844.5 4.109375-2.429688 7.847656-6.542969 8.347656-.308594.039063-.613281.058594-.914063.058594zm0 0" fill="#c6c6c6"/><path d="m35.835938 340.113281c-3.460938 0-6.570313-2.40625-7.324219-5.925781-.976563-4.546875-1.414063-17.675781-1.414063-20.535156 0-4.140625 3.359375-7.5 7.5-7.5 4.144532 0 7.5 3.359375 7.5 7.5 0 3.78125.554688 14.9375 1.078125 17.390625.871094 4.050781-1.710937 8.035156-5.757812 8.90625-.53125.113281-1.0625.164062-1.582031.164062zm0 0" fill="#c6c6c6"/></svg>