<svg height="512pt" viewBox="0 0 512 512" width="512pt" xmlns="http://www.w3.org/2000/svg"><path d="m170.574219 512c-7.898438 0-14.980469-5.519531-16.660157-13.558594-7.773437-37.195312 1.84375-99.582031 3.9375-109.511718 1.941407-9.207032 10.984376-15.101563 20.191407-13.160157 9.207031 1.941407 15.097656 10.980469 13.160156 20.191407-2.441406 11.582031-9.890625 66.980468-3.929687 95.511718 1.925781 9.210938-3.980469 18.242188-13.195313 20.164063-1.175781.246093-2.347656.363281-3.503906.363281zm0 0" fill="#efd176"/><path d="m273.910156 512c-1.15625 0-2.328125-.117188-3.503906-.363281-9.214844-1.925781-15.121094-10.953125-13.195312-20.167969 5.960937-28.527344-1.488282-83.929688-3.929688-95.511719-1.9375-9.207031 3.953125-18.246093 13.160156-20.1875 9.214844-1.945312 18.25 3.953125 20.191406 13.160157 2.09375 9.929687 11.710938 72.3125 3.9375 109.511718-1.675781 8.035156-8.765624 13.558594-16.660156 13.558594zm0 0" fill="#efd176"/><path d="m399.089844 353.527344c-13.855469 0-27.367188-3.164063-40.460938-9.5-24.726562-11.957032-42.894531-33.0625-54.410156-47.894532-5.769531-7.4375-4.417969-18.140624 3.015625-23.910156 7.433594-5.769531 18.136719-4.421875 23.910156 3.011719 33.71875 43.449219 64.058594 54.027344 101.457031 35.375 8.417969-4.203125 18.65625-.78125 22.855469 7.640625s.78125 18.652344-7.644531 22.855469c-16.59375 8.277343-32.878906 12.421875-48.722656 12.421875zm0 0" fill="#efd176"/><path d="m69.148438 348.558594c-14.871094 0-28.707032-4.675782-39.476563-12.191406-26.878906-18.753907-42.328125-59.265626-16.246094-107.492188 4.472657-8.277344 14.816407-11.363281 23.09375-6.882812 8.277344 4.476562 11.359375 14.816406 6.882813 23.09375-17.183594 31.78125-7.632813 53.980468 5.769531 63.332031 18.933594 13.207031 41.21875 3.453125 54.90625-12.070313 6.222656-7.058594 16.992187-7.738281 24.050781-1.511718 7.058594 6.226562 7.734375 16.992187 1.511719 24.054687-18.742187 21.253906-40.546875 29.667969-60.492187 29.667969zm0 0" fill="#efd176"/><path d="m175.394531 68.65625c23.976563 23.976562 28.082031 61.304688 28.492188 80.460938.148437 6.960937-5.539063 12.652343-12.5 12.503906-19.160157-.410156-56.484375-4.519532-80.460938-28.496094-23.976562-23.976562-28.082031-61.300781-28.492187-80.457031-.148438-6.960938 5.542968-12.652344 12.503906-12.503907 19.15625.410157 56.480469 4.519532 80.457031 28.492188zm0 0" fill="#8ee2cf"/><path d="m157.535156 122.769531c-1.917968 0-3.835937-.730469-5.300781-2.195312l-28.757813-28.757813c-2.925781-2.925781-2.925781-7.675781 0-10.605468 2.929688-2.929688 7.679688-2.929688 10.609376 0l28.753906 28.757812c2.929687 2.925781 2.929687 7.675781 0 10.605469-1.464844 1.464843-3.382813 2.195312-5.304688 2.195312zm0 0" fill="#6fce91"/><path d="m269.089844 68.65625c-23.976563 23.976562-28.082032 61.304688-28.492188 80.460938-.152344 6.960937 5.539063 12.652343 12.5 12.503906 19.160156-.410156 56.484375-4.519532 80.460938-28.496094 23.976562-23.976562 28.082031-61.300781 28.492187-80.457031.148438-6.960938-5.542969-12.652344-12.503906-12.503907-19.15625.410157-56.480469 4.519532-80.457031 28.492188zm0 0" fill="#8ee2cf"/><path d="m286.945312 122.769531c-1.917968 0-3.835937-.730469-5.300781-2.195312-2.929687-2.929688-2.929687-7.679688 0-10.605469l28.753907-28.757812c2.929687-2.929688 7.675781-2.929688 10.609374 0 2.925782 2.929687 2.925782 7.679687 0 10.605468l-28.757812 28.757813c-1.464844 1.464843-3.382812 2.195312-5.304688 2.195312zm0 0" fill="#6fce91"/><path d="m267.828125 80.8125c0 33.90625-23.488281 63.207031-36.746094 77.039062-4.816406 5.027344-12.863281 5.027344-17.679687 0-13.257813-13.832031-36.746094-43.132812-36.746094-77.039062s23.488281-63.207031 36.746094-77.042969c4.816406-5.027343 12.863281-5.027343 17.679687 0 13.257813 13.835938 36.746094 43.136719 36.746094 77.042969zm0 0" fill="#8ee2cf"/><path d="m222.242188 108.644531c-4.144532 0-7.5-3.359375-7.5-7.5v-40.664062c0-4.144531 3.355468-7.5 7.5-7.5 4.144531 0 7.5 3.355469 7.5 7.5v40.664062c0 4.140625-3.355469 7.5-7.5 7.5zm0 0" fill="#6fce91"/><path d="m222.242188 130.140625c70.335937 0 120.617187 55.394531 127.355468 139.28125 7.011719 87.261719-25.8125 152.351563-127.355468 152.351563-101.542969 0-134.367188-65.089844-127.355469-152.351563 6.738281-83.886719 57.019531-139.28125 127.355469-139.28125zm0 0" fill="#f7ef87"/><g fill="#efd176"><path d="m180.195312 137.453125c-47.757812 17.628906-80.007812 65.980469-85.308593 131.96875-6.992188 87.019531 25.636719 151.980469 126.519531 152.34375-122.445312-74.914063-89.613281-210.078125-41.210938-284.3125zm0 0"/><path d="m234.605469 244.480469c-1.917969 0-3.835938-.734375-5.300781-2.199219l-7.0625-7.0625-7.0625 7.0625c-2.929688 2.929688-7.679688 2.929688-10.609376 0-2.925781-2.925781-2.925781-7.675781.003907-10.605469l12.363281-12.367187c1.40625-1.40625 3.316406-2.195313 5.304688-2.195313 1.988281 0 3.894531.789063 5.304687 2.195313l12.363281 12.367187c2.929688 2.929688 2.929688 7.679688 0 10.605469-1.464844 1.464844-3.382812 2.199219-5.304687 2.199219zm0 0"/><path d="m305.304688 244.480469c-1.917969 0-3.835938-.734375-5.300782-2.199219l-7.0625-7.0625-7.0625 7.0625c-2.929687 2.929688-7.679687 2.933594-10.605468 0-2.929688-2.925781-2.929688-7.675781-.003907-10.605469l12.367188-12.367187c1.40625-1.40625 3.3125-2.195313 5.304687-2.195313 1.988282 0 3.894532.789063 5.300782 2.195313l12.367187 12.367187c2.929687 2.929688 2.929687 7.675781 0 10.605469-1.464844 1.464844-3.382813 2.199219-5.304687 2.199219zm0 0"/><path d="m163.910156 244.480469c-1.921875 0-3.839844-.734375-5.304687-2.199219l-7.058594-7.0625-7.066406 7.0625c-2.925781 2.929688-7.675781 2.929688-10.605469 0-2.929688-2.925781-2.929688-7.675781 0-10.605469l12.367188-12.367187c1.40625-1.40625 3.3125-2.195313 5.304687-2.195313 1.988281 0 3.894531.789063 5.300781 2.195313l12.367188 12.367187c2.929687 2.929688 2.929687 7.679688 0 10.605469-1.464844 1.464844-3.386719 2.199219-5.304688 2.199219zm0 0"/><path d="m269.957031 382.410156c-1.921875 0-3.839843-.730468-5.304687-2.195312l-7.0625-7.0625-7.0625 7.0625c-2.929688 2.929687-7.675782 2.929687-10.605469 0-2.929687-2.929688-2.929687-7.679688 0-10.609375l12.363281-12.363281c1.410156-1.40625 3.316406-2.199219 5.304688-2.199219 1.988281 0 3.898437.792969 5.304687 2.199219l12.367188 12.363281c2.925781 2.929687 2.925781 7.679687-.003907 10.609375-1.460937 1.464844-3.382812 2.195312-5.300781 2.195312zm0 0"/><path d="m199.257812 382.410156c-1.917968 0-3.835937-.730468-5.304687-2.195312l-7.058594-7.0625-7.066406 7.0625c-2.925781 2.929687-7.675781 2.929687-10.605469 0-2.929687-2.929688-2.929687-7.679688 0-10.609375l12.367188-12.363281c1.40625-1.40625 3.3125-2.199219 5.304687-2.199219 1.988281 0 3.894531.792969 5.300781 2.199219l12.367188 12.363281c2.929688 2.929687 2.929688 7.679687 0 10.609375-1.464844 1.464844-3.382812 2.195312-5.304688 2.195312zm0 0"/></g><path d="m166.554688 167.816406h-27.566407c-11.582031 0-20.210937 10.679688-17.785156 22.003906l1.527344 7.121094c2.566406 11.964844 13.140625 20.515625 25.382812 20.515625h9.320313c12.238281 0 22.8125-8.550781 25.378906-20.515625l1.527344-7.121094c2.429687-11.324218-6.203125-22.003906-17.785156-22.003906zm0 0" fill="#4e5660"/><path d="m264.410156 181.449219c-.339844 0-.679687-.023438-1.023437-.070313-9.960938-1.359375-23.636719-2.917968-41.144531-2.917968-17.507813 0-31.183594 1.558593-41.144532 2.917968-4.101562.5625-7.882812-2.3125-8.445312-6.417968-.558594-4.105469 2.316406-7.886719 6.417968-8.445313 10.433594-1.421875 24.761719-3.050781 43.171876-3.050781 18.410156 0 32.742187 1.628906 43.171874 3.050781 4.105469.5625 6.976563 4.339844 6.417969 8.445313-.515625 3.761718-3.730469 6.488281-7.421875 6.488281zm0 0" fill="#e26e7e"/><path d="m157.433594 224.957031h-9.320313c-15.671875 0-29.429687-11.121093-32.714843-26.445312l-1.527344-7.117188c-1.636719-7.625.238281-15.472656 5.140625-21.535156 4.898437-6.0625 12.183593-9.542969 19.976562-9.542969h27.566407c7.796874 0 15.078124 3.476563 19.980468 9.539063 4.898438 6.066406 6.773438 13.914062 5.140625 21.535156l-1.527343 7.121094c-3.289063 15.324219-17.046876 26.445312-32.714844 26.445312zm-18.445313-49.640625c-3.242187 0-6.273437 1.449219-8.3125 3.972656-2.039062 2.523438-2.820312 5.789063-2.140625 8.960938l1.527344 7.117188c1.8125 8.453124 9.402344 14.589843 18.046875 14.589843h9.324219c8.644531 0 16.234375-6.136719 18.046875-14.589843l1.527343-7.121094c.679688-3.171875-.101562-6.4375-2.140624-8.960938-2.039063-2.519531-5.066407-3.96875-8.3125-3.96875zm0 0" fill="#e26e7e"/><path d="m277.929688 167.816406h27.566406c11.578125 0 20.210937 10.679688 17.785156 22.003906l-1.527344 7.121094c-2.566406 11.964844-13.144531 20.515625-25.382812 20.515625h-9.320313c-12.238281 0-22.816406-8.550781-25.378906-20.515625l-1.527344-7.121094c-2.429687-11.324218 6.203125-22.003906 17.785157-22.003906zm0 0" fill="#4e5660"/><path d="m296.371094 224.957031h-9.320313c-15.667969 0-29.429687-11.121093-32.714843-26.441406l-1.523438-7.121094c-1.636719-7.625.238281-15.472656 5.136719-21.535156 4.902343-6.0625 12.183593-9.542969 19.980469-9.542969h27.566406c7.796875 0 15.078125 3.480469 19.976562 9.542969 4.902344 6.0625 6.773438 13.910156 5.140625 21.535156l-1.527343 7.121094c-3.285157 15.320313-17.042969 26.441406-32.714844 26.441406zm-18.441406-49.640625c-3.246094 0-6.273438 1.449219-8.316407 3.972656-2.039062 2.523438-2.816406 5.789063-2.136719 8.957032l1.527344 7.121094c1.8125 8.453124 9.402344 14.589843 18.046875 14.589843h9.320313c8.644531 0 16.234375-6.136719 18.050781-14.589843l1.523437-7.121094c.679688-3.171875-.097656-6.4375-2.136718-8.957032-2.039063-2.523437-5.070313-3.972656-8.316406-3.972656zm0 0" fill="#e26e7e"/><path d="m227.832031 355.28125c-7.046875 0-12.757812-5.710938-12.757812-12.757812v-31.488282h25.519531v31.488282c0 7.046874-5.710938 12.757812-12.761719 12.757812zm0 0" fill="#fff"/><path d="m180.75 316.78125c0-13.300781-13.539062-24.082031-30.242188-24.082031-16.699218 0-30.238281 10.78125-30.238281 24.082031s13.539063 24.082031 30.238281 24.082031c16.703126 0 30.242188-10.78125 30.242188-24.082031zm0 0" fill="#eda1ab"/><path d="m344.664062 316.78125c0-13.300781-13.539062-24.082031-30.238281-24.082031-16.703125 0-30.242187 10.78125-30.242187 24.082031s13.539062 24.082031 30.242187 24.082031c16.699219 0 30.238281-10.78125 30.238281-24.082031zm0 0" fill="#eda1ab"/><path d="m256.847656 298.277344c0-15.066406-10.914062-16.484375-24.382812-16.484375-13.464844 0-24.382813 1.417969-24.382813 16.484375s10.917969 27.28125 24.382813 27.28125c13.46875 0 24.382812-12.214844 24.382812-27.28125zm0 0" fill="#4e5660"/><path d="m182.527344 298.074219c-4.144532 0-7.5-3.359375-7.5-7.5 0-3.800781-3.09375-6.894531-6.894532-6.894531-3.800781 0-6.894531 3.09375-6.894531 6.894531 0 4.140625-3.355469 7.5-7.5 7.5-4.140625 0-7.5-3.359375-7.5-7.5 0-12.070313 9.820313-21.894531 21.894531-21.894531 12.070313 0 21.894532 9.824218 21.894532 21.894531 0 4.140625-3.355469 7.5-7.5 7.5zm0 0" fill="#4e5660"/><path d="m311.195312 298.074219c-4.144531 0-7.5-3.359375-7.5-7.5 0-3.800781-3.09375-6.894531-6.894531-6.894531-3.804687 0-6.894531 3.09375-6.894531 6.894531 0 4.140625-3.355469 7.5-7.5 7.5s-7.5-3.359375-7.5-7.5c0-12.070313 9.820312-21.894531 21.894531-21.894531 12.070313 0 21.894531 9.824218 21.894531 21.894531 0 4.140625-3.359374 7.5-7.5 7.5zm0 0" fill="#4e5660"/><path d="m481.835938 281.214844h-83.519532c-16.660156 0-30.164062-13.503906-30.164062-30.164063v-107.65625c0-31.777343 25.757812-57.535156 57.535156-57.535156h28.777344c31.777344 0 57.535156 25.757813 57.535156 57.535156v107.65625c0 16.660157-13.507812 30.164063-30.164062 30.164063zm0 0" fill="#e26e7e"/><path d="m408.449219 88.488281c-23.355469 7.324219-40.296875 29.136719-40.296875 54.90625v107.65625c0 16.660157 13.503906 30.167969 30.164062 30.167969h29.339844c-29.9375-38.753906-34.75-146.222656-19.207031-192.730469zm0 0" fill="#d9495d"/><path d="m454.464844 85.855469h-28.777344c-31.777344 0-57.535156 25.761719-57.535156 57.539062v7.375c26.871094-11.578125 46.027344 3.71875 71.921875 3.71875s45.050781-15.292969 71.925781-3.71875v-7.375c0-31.777343-25.761719-57.539062-57.535156-57.539062zm0 0" fill="#f7ef87"/><path d="m399.941406 147.433594c.65625-23.054688 3.546875-44.101563 8.507813-58.945313-23.355469 7.324219-40.296875 29.136719-40.296875 54.90625v7.375c11.65625-5.019531 21.859375-4.984375 31.789062-3.335937zm0 0" fill="#efd176"/><path d="m420.671875 288.714844c-4.140625 0-7.5-3.355469-7.5-7.5v-76.203125c0-4.144531 3.359375-7.5 7.5-7.5 4.144531 0 7.5 3.355469 7.5 7.5v76.203125c0 4.144531-3.355469 7.5-7.5 7.5zm0 0" fill="#d9495d"/><path d="m459.476562 288.714844c-4.140624 0-7.5-3.355469-7.5-7.5v-76.203125c0-4.144531 3.359376-7.5 7.5-7.5 4.144532 0 7.5 3.355469 7.5 7.5v76.203125c0 4.144531-3.355468 7.5-7.5 7.5zm0 0" fill="#d9495d"/><path d="m474.371094 281.214844h-68.59375v75.386718c0 14.796876 11.996094 26.792969 26.792968 26.792969h15.007813c14.796875 0 26.792969-11.996093 26.792969-26.792969zm0 0" fill="#e1b89a"/><path d="m405.777344 281.214844h68.597656v24.882812h-68.597656zm0 0" fill="#d2996f"/></svg>