<svg height="511pt" viewBox="-73 1 511 511.9995" width="511pt" xmlns="http://www.w3.org/2000/svg"><path d="m17.808594 381.8125c-9.558594 0-17.308594-7.75-17.308594-17.308594 0-9.554687 7.746094-17.304687 17.308594-17.304687 39.625 0 51.53125-10.046875 71.902344-44.605469 4.851562-8.234375 15.460937-10.976562 23.695312-6.121094 8.234375 4.855469 10.976562 15.460938 6.125 23.695313-24.621094 41.769531-46.121094 61.644531-101.722656 61.644531zm0 0" fill="#efd176"/><path d="m184.003906 512c-8.019531 0-15.21875-5.609375-16.921875-13.769531-7.894531-37.785157 1.875-101.136719 4-111.222657 1.972657-9.351562 11.152344-15.339843 20.503907-13.363281 9.355468 1.972657 15.335937 11.152344 13.367187 20.503907-2.480469 11.761718-10.046875 68.023437-3.992187 97 1.957031 9.355468-4.042969 18.527343-13.398438 20.480468-1.195312.25-2.386719.371094-3.558594.371094zm0 0" fill="#efd176"/><path d="m297.589844 508.453125c-4.519532 0-9.035156-1.761719-12.429688-5.261719-36.734375-37.90625-36.734375-75.886718-36.734375-112.613281 0-9.558594 7.746094-17.304687 17.304688-17.304687 9.558593 0 17.308593 7.746093 17.308593 17.304687 0 33.90625 0 60.683594 26.980469 88.523437 6.648438 6.863282 6.476563 17.820313-.386719 24.472657-3.359374 3.257812-7.703124 4.878906-12.042968 4.878906zm0 0" fill="#efd176"/><path d="m169.691406 69.730469c24.351563 24.347656 28.523438 62.257812 28.9375 81.714843.152344 7.070313-5.628906 12.847657-12.695312 12.699219-19.457032-.417969-57.367188-4.589843-81.71875-28.9375-24.347656-24.351562-28.519532-62.261719-28.9375-81.714843-.148438-7.070313 5.628906-12.851563 12.699218-12.699219 19.457032.414062 57.367188 4.585937 81.714844 28.9375zm0 0" fill="#8ee2cf"/><path d="m151.558594 124.570312c-1.921875 0-3.839844-.734374-5.304688-2.199218l-29.203125-29.203125c-2.929687-2.929688-2.929687-7.675781 0-10.605469 2.929688-2.929688 7.675781-2.929688 10.605469 0l29.203125 29.203125c2.929687 2.929687 2.929687 7.679687 0 10.605469-1.464844 1.464844-3.382813 2.199218-5.300781 2.199218zm0 0" fill="#6fce91"/><path d="m264.851562 69.730469c-24.351562 24.347656-28.523437 62.257812-28.9375 81.714843-.152343 7.070313 5.628907 12.847657 12.699219 12.699219 19.453125-.417969 57.363281-4.589843 81.714844-28.9375 24.347656-24.351562 28.519531-62.261719 28.9375-81.714843.148437-7.070313-5.628906-12.851563-12.699219-12.699219-19.457031.414062-57.367187 4.585937-81.714844 28.9375zm0 0" fill="#8ee2cf"/><path d="m282.988281 124.570312c-1.921875 0-3.839843-.734374-5.304687-2.199218-2.929688-2.929688-2.929688-7.675782 0-10.605469l29.203125-29.203125c2.929687-2.929688 7.675781-2.929688 10.605469 0 2.929687 2.929688 2.929687 7.675781 0 10.605469l-29.203126 29.203125c-1.464843 1.464844-3.382812 2.199218-5.300781 2.199218zm0 0" fill="#6fce91"/><path d="m263.570312 82.074219c0 34.433593-23.855468 64.191406-37.320312 78.242187-4.890625 5.105469-13.066406 5.105469-17.957031 0-13.464844-14.050781-37.320313-43.808594-37.320313-78.242187 0-34.4375 23.855469-64.195313 37.320313-78.246094 4.890625-5.105469 13.066406-5.105469 17.957031 0 13.464844 14.050781 37.320312 43.808594 37.320312 78.246094zm0 0" fill="#8ee2cf"/><path d="m217.273438 110.222656c-4.144532 0-7.5-3.359375-7.5-7.5v-41.300781c0-4.140625 3.355468-7.5 7.5-7.5 4.140624 0 7.5 3.359375 7.5 7.5v41.300781c0 4.140625-3.359376 7.5-7.5 7.5zm0 0" fill="#6fce91"/><path d="m217.273438 132.171875c71.433593 0 122.496093 56.257813 129.339843 141.457031 7.121094 88.621094-26.214843 154.726563-129.339843 154.726563-103.128907 0-136.464844-66.105469-129.34375-154.726563 6.84375-85.199218 57.90625-141.457031 129.34375-141.457031zm0 0" fill="#f7ef87"/><g fill="#efd176"><path d="m174.570312 139.597656c-48.503906 17.90625-81.257812 67.011719-86.640624 134.03125-7.101563 88.375 26.035156 154.351563 128.492187 154.71875-124.355469-76.085937-91.011719-213.359375-41.851563-288.75zm0 0"/><path d="m218.054688 241.066406c-1.917969 0-3.839844-.730468-5.304688-2.195312l-7.253906-7.257813-7.253906 7.257813c-2.929688 2.925781-7.679688 2.925781-10.609376 0-2.929687-2.929688-2.929687-7.679688 0-10.609375l12.558594-12.558594c2.929688-2.925781 7.679688-2.925781 10.609375 0l12.558594 12.558594c2.929687 2.929687 2.929687 7.679687 0 10.609375-1.464844 1.464844-3.386719 2.195312-5.304687 2.195312zm0 0"/><path d="m289.855469 241.066406c-1.917969 0-3.835938-.730468-5.300781-2.195312l-7.257813-7.257813-7.253906 7.257813c-2.929688 2.925781-7.679688 2.925781-10.609375 0-2.929688-2.929688-2.929688-7.679688 0-10.609375l12.558594-12.558594c2.929687-2.925781 7.679687-2.925781 10.609374 0l12.558594 12.558594c2.929688 2.929687 2.929688 7.679687 0 10.609375-1.464844 1.464844-3.382812 2.195312-5.304687 2.195312zm0 0"/><path d="m146.253906 241.066406c-1.917968 0-3.839844-.730468-5.300781-2.195312l-7.257813-7.257813-7.253906 7.257813c-2.929687 2.925781-7.679687 2.925781-10.605468 0-2.929688-2.929688-2.929688-7.679688 0-10.609375l12.558593-12.558594c2.929688-2.925781 7.675781-2.929687 10.605469 0l12.558594 12.558594c2.929687 2.929687 2.929687 7.679687 0 10.609375-1.464844 1.464844-3.386719 2.195312-5.304688 2.195312zm0 0"/><path d="m253.957031 388.261719c-1.917969 0-3.839843-.730469-5.304687-2.195313l-7.253906-7.257812-7.257813 7.257812c-2.929687 2.925782-7.675781 2.925782-10.605469 0-2.929687-2.929687-2.929687-7.679687 0-10.609375l12.558594-12.558593c2.929688-2.929688 7.679688-2.929688 10.605469 0l12.558593 12.558593c2.929688 2.929688 2.929688 7.679688 0 10.609375-1.460937 1.464844-3.382812 2.195313-5.300781 2.195313zm0 0"/><path d="m182.15625 388.261719c-1.921875 0-3.839844-.730469-5.304688-2.195313l-7.253906-7.257812-7.257812 7.257812c-2.925782 2.925782-7.675782 2.925782-10.605469 0-2.925781-2.929687-2.925781-7.679687 0-10.609375l12.558594-12.558593c2.929687-2.929688 7.679687-2.929688 10.609375 0l12.558594 12.558593c2.929687 2.929688 2.929687 7.679688 0 10.609375-1.46875 1.464844-3.386719 2.195313-5.304688 2.195313zm0 0"/></g><path d="m152.972656 332.046875c0-13.507813-13.75-24.457031-30.714844-24.457031-16.960937 0-30.710937 10.949218-30.710937 24.457031s13.75 24.460937 30.710937 24.460937c16.964844 0 30.714844-10.953124 30.714844-24.460937zm0 0" fill="#eda1ab"/><path d="m319.445312 332.046875c0-13.507813-13.75-24.457031-30.710937-24.457031-16.964844 0-30.714844 10.949218-30.714844 24.457031s13.75 24.460937 30.714844 24.460937c16.960937 0 30.710937-10.953124 30.710937-24.460937zm0 0" fill="#eda1ab"/><path d="m147.976562 316.390625c-1.917968 0-3.839843-.730469-5.304687-2.195313l-20.25-20.25c-2.929687-2.929687-2.929687-7.679687 0-10.609374 2.929687-2.925782 7.679687-2.925782 10.609375 0l20.25 20.25c2.925781 2.929687 2.925781 7.679687 0 10.609374-1.464844 1.464844-3.382812 2.195313-5.304688 2.195313zm0 0" fill="#4e5660"/><path d="m127.726562 316.390625c-1.917968 0-3.839843-.730469-5.304687-2.195313-2.925781-2.929687-2.925781-7.679687 0-10.605468l20.253906-20.25c2.929688-2.929688 7.675781-2.929688 10.605469 0 2.929688 2.925781 2.929688 7.675781 0 10.605468l-20.25 20.25c-1.464844 1.464844-3.386719 2.195313-5.304688 2.195313zm0 0" fill="#4e5660"/><path d="m263.015625 316.390625c-1.917969 0-3.835937-.730469-5.304687-2.195313-2.925782-2.929687-2.925782-7.679687 0-10.605468l20.25-20.25c2.933593-2.929688 7.679687-2.929688 10.609374 0 2.929688 2.925781 2.929688 7.675781 0 10.605468l-20.25 20.25c-1.464843 1.464844-3.382812 2.195313-5.304687 2.195313zm0 0" fill="#4e5660"/><path d="m283.265625 316.390625c-1.917969 0-3.835937-.730469-5.304687-2.195313l-20.25-20.25c-2.925782-2.929687-2.925782-7.679687 0-10.609374 2.933593-2.925782 7.679687-2.925782 10.609374 0l20.25 20.25c2.929688 2.929687 2.929688 7.679687 0 10.609374-1.464843 1.464844-3.382812 2.195313-5.304687 2.195313zm0 0" fill="#4e5660"/><path d="m220.714844 443.433594c7.675781-2.609375 15.894531-3.199219 23.863281-1.71875l6.335937 1.179687c7.210938 1.34375 12.828126-6.128906 9.558594-12.699219-10.859375-21.832031-21.8125-87.550781-21.8125-113.945312 0-15.519531-14.847656-28.101562-33.164062-28.101562-18.3125 0-33.164063 12.582031-33.164063 28.101562 0 26.394531-10.949219 92.113281-21.808593 113.945312-3.269532 6.570313 2.347656 14.042969 9.558593 12.699219l6.335938-1.179687c7.96875-1.480469 16.1875-.890625 23.863281 1.71875 9.867188 3.355468 20.566406 3.355468 30.433594 0zm0 0" fill="#8eafe2"/><path d="m172.332031 316.25c0 26.394531-10.953125 92.113281-21.8125 113.945312-3.265625 6.570313 2.351563 14.042969 9.5625 12.699219l6.335938-1.179687c3.683593-.683594 7.417969-.90625 11.128906-.710938 14.324219-29.492187 16.53125-118.074218 16.804687-151.226562-12.832031 3.878906-22.019531 14.265625-22.019531 26.472656zm0 0" fill="#e26e7e"/><path d="m238.660156 316.25c0 26.394531 10.953125 92.113281 21.8125 113.945312 3.265625 6.570313-2.347656 14.042969-9.5625 12.699219l-6.332031-1.179687c-3.683594-.683594-7.421875-.90625-11.132813-.710938-14.324218-29.492187-16.53125-118.074218-16.804687-151.226562 12.832031 3.878906 22.019531 14.265625 22.019531 26.472656zm0 0" fill="#8ee2cf"/><path d="m292.9375 411.777344c-7.132812 0-13.8125-4.445313-16.320312-11.554688-3.179688-9.011718 1.546874-18.898437 10.5625-22.078125 23.554687-8.3125 50.125-27.121093 42.921874-69.519531-1.601562-9.421875 4.738282-18.359375 14.160157-19.960938 9.425781-1.605468 18.363281 4.738282 19.960937 14.164063 8.515625 50.117187-15.980468 90.472656-65.527344 107.957031-1.90625.671875-3.847656.992188-5.757812.992188zm0 0" fill="#efd176"/><path d="m135.101562 407.382812c0-11.414062-8.421874-20.667968-18.804687-20.667968s-18.804687 9.253906-18.804687 20.667968c0 11.414063 8.421874 20.667969 18.804687 20.667969s18.804687-9.253906 18.804687-20.667969zm0 0" fill="#e26e7e"/><path d="m314.921875 441.148438c-8.070313-8.070313-20.566406-8.660157-27.910156-1.316407-7.34375 7.339844-6.753907 19.835938 1.320312 27.910157 8.070313 8.070312 20.566407 8.660156 27.910157 1.316406 7.339843-7.34375 6.75-19.839844-1.320313-27.910156zm0 0" fill="#8ee2cf"/></svg>