<svg height="512pt" viewBox="-23 0 512 512" width="512pt" xmlns="http://www.w3.org/2000/svg"><path d="m178.054688 512c-7.894532 0-14.980469-5.519531-16.660157-13.558594-7.773437-37.195312 1.847657-99.582031 3.9375-109.511718 1.941407-9.207032 10.984375-15.101563 20.191407-13.160157 9.207031 1.941407 15.097656 10.980469 13.160156 20.191407-2.441406 11.582031-9.890625 66.980468-3.929688 95.511718 1.925782 9.210938-3.980468 18.242188-13.191406 20.164063-1.175781.246093-2.351562.363281-3.507812.363281zm0 0" fill="#efd176"/><path d="m277.4375 507.515625c-1.929688 0-3.890625-.328125-5.808594-1.027344-8.847656-3.207031-13.417968-12.980469-10.210937-21.828125 10.578125-29.167968 4.105469-76.304687.660156-84.835937-4.035156-8.394531-.578125-18.5 7.792969-22.648438 8.429687-4.179687 18.65625-.730469 22.835937 7.703125 7.054688 14.230469 14.832031 72.570313.75 111.402344-2.511719 6.925781-9.050781 11.234375-16.019531 11.234375zm-15.3125-107.597656.046875.09375c-.015625-.03125-.03125-.0625-.046875-.09375zm0 0" fill="#efd176"/><path d="m343.058594 395.722656c-9.410156 0-17.042969-7.628906-17.042969-17.042968 0-9.410157 7.632813-17.039063 17.042969-17.039063 25.40625 0 38.351562-10.9375 39.628906-21.097656 2.078125-16.527344-21.273438-30.261719-43.847656-36.027344-9.117188-2.332031-14.621094-11.609375-12.292969-20.730469 2.332031-9.117187 11.613281-14.621094 20.730469-12.289062 56.097656 14.332031 72.351562 48.441406 69.226562 73.300781-1.855468 14.773437-10.308594 27.992187-23.796875 37.222656-13.09375 8.964844-30.261719 13.703125-49.648437 13.703125zm0 0" fill="#efd176"/><path d="m116.386719 395.722656c-19.386719 0-36.554688-4.738281-49.648438-13.703125-13.488281-9.230469-21.9375-22.453125-23.792969-37.222656-3.125-24.859375 13.128907-58.972656 69.226563-73.304687 9.117187-2.328126 18.398437 3.175781 20.726563 12.292968 2.332031 9.117188-3.175782 18.398438-12.292969 20.730469-22.574219 5.765625-45.925781 19.5-43.847657 36.027344 1.277344 10.160156 14.226563 21.09375 39.628907 21.09375 9.414062 0 17.042969 7.628906 17.042969 17.042969 0 9.414062-7.628907 17.042968-17.042969 17.042968zm0 0" fill="#efd176"/><path d="m182.875 68.65625c23.976562 23.976562 28.085938 61.304688 28.496094 80.460938.148437 6.960937-5.542969 12.652343-12.503906 12.503906-19.15625-.410156-56.484376-4.519532-80.460938-28.496094s-28.082031-61.300781-28.492188-80.457031c-.148437-6.960938 5.542969-12.652344 12.503907-12.503907 19.15625.410157 56.480469 4.519532 80.457031 28.492188zm0 0" fill="#8ee2cf"/><path d="m165.019531 122.769531c-1.921875 0-3.839843-.730469-5.304687-2.195312l-28.753906-28.757813c-2.929688-2.925781-2.929688-7.675781 0-10.605468 2.929687-2.929688 7.675781-2.929688 10.605468 0l28.753906 28.757812c2.929688 2.925781 2.929688 7.675781 0 10.605469-1.460937 1.464843-3.382812 2.195312-5.300781 2.195312zm0 0" fill="#6fce91"/><path d="m276.570312 68.65625c-23.976562 23.976562-28.082031 61.304688-28.492187 80.460938-.148437 6.960937 5.542969 12.652343 12.503906 12.503906 19.15625-.410156 56.480469-4.519532 80.457031-28.496094 23.976563-23.976562 28.085938-61.300781 28.492188-80.457031.148438-6.960938-5.539062-12.652344-12.5-12.503907-19.15625.410157-56.484375 4.519532-80.460938 28.492188zm0 0" fill="#8ee2cf"/><path d="m294.425781 122.769531c-1.917969 0-3.835937-.730469-5.300781-2.195312-2.929688-2.929688-2.929688-7.679688 0-10.605469l28.753906-28.757812c2.929688-2.929688 7.675782-2.929688 10.605469 0 2.929687 2.929687 2.929687 7.679687 0 10.605468l-28.753906 28.757813c-1.464844 1.464843-3.382813 2.195312-5.304688 2.195312zm0 0" fill="#6fce91"/><path d="m275.308594 80.8125c0 33.90625-23.488282 63.207031-36.742188 77.039062-4.820312 5.027344-12.867187 5.027344-17.683594 0-13.257812-13.832031-36.746093-43.132812-36.746093-77.039062s23.488281-63.207031 36.746093-77.042969c4.816407-5.027343 12.863282-5.027343 17.683594 0 13.253906 13.835938 36.742188 43.136719 36.742188 77.042969zm0 0" fill="#8ee2cf"/><path d="m229.722656 108.644531c-4.140625 0-7.5-3.359375-7.5-7.5v-40.664062c0-4.144531 3.359375-7.5 7.5-7.5 4.144532 0 7.5 3.355469 7.5 7.5v40.664062c0 4.140625-3.355468 7.5-7.5 7.5zm0 0" fill="#6fce91"/><path d="m229.722656 130.140625c70.339844 0 120.617188 55.394531 127.355469 139.28125 7.011719 87.261719-25.8125 152.351563-127.355469 152.351563-101.542968 0-134.363281-65.089844-127.355468-152.351563 6.742187-83.886719 57.019531-139.28125 127.355468-139.28125zm0 0" fill="#f7ef87"/><g fill="#efd176"><path d="m187.675781 137.453125c-47.757812 17.628906-80.007812 65.980469-85.308593 131.96875-6.992188 87.019531 25.636718 151.980469 126.519531 152.34375-122.445313-74.914063-89.613281-210.078125-41.210938-284.3125zm0 0"/><path d="m242.089844 244.480469c-1.921875 0-3.839844-.730469-5.304688-2.195313l-7.0625-7.0625-7.0625 7.0625c-2.929687 2.929688-7.675781 2.929688-10.605468 0-2.929688-2.929687-2.929688-7.679687 0-10.605468l12.367187-12.367188c1.40625-1.40625 3.3125-2.199219 5.300781-2.199219 1.988282 0 3.898438.792969 5.304688 2.199219l12.363281 12.367188c2.929687 2.925781 2.929687 7.675781 0 10.605468-1.464844 1.460938-3.382813 2.195313-5.300781 2.195313zm0 0"/><path d="m312.785156 244.480469c-1.917968 0-3.835937-.730469-5.300781-2.195313l-7.066406-7.0625-7.0625 7.0625c-2.929688 2.929688-7.675781 2.929688-10.605469 0-2.929688-2.929687-2.929688-7.679687 0-10.605468l12.367188-12.367188c2.929687-2.929688 7.679687-2.929688 10.605468 0l12.367188 12.367188c2.929687 2.925781 2.929687 7.675781 0 10.605468-1.464844 1.460938-3.382813 2.195313-5.304688 2.195313zm0 0"/><path d="m171.390625 244.480469c-1.917969 0-3.839844-.730469-5.300781-2.195313l-7.066406-7.0625-7.058594 7.0625c-2.929688 2.929688-7.679688 2.929688-10.605469 0-2.933594-2.929687-2.933594-7.679687-.003906-10.605468l12.367187-12.367188c1.40625-1.40625 3.3125-2.199219 5.304688-2.199219 1.988281 0 3.894531.792969 5.300781 2.199219l12.367187 12.367188c2.929688 2.925781 2.929688 7.675781 0 10.605468-1.464843 1.460938-3.382812 2.195313-5.304687 2.195313zm0 0"/><path d="m277.4375 382.410156c-1.921875 0-3.839844-.730468-5.304688-2.195312l-7.058593-7.0625-7.066407 7.0625c-2.929687 2.929687-7.675781 2.929687-10.605468 0-2.929688-2.929688-2.929688-7.679688 0-10.609375l12.367187-12.363281c1.40625-1.40625 3.3125-2.199219 5.304688-2.199219 1.988281 0 3.894531.792969 5.300781 2.199219l12.367188 12.363281c2.929687 2.929687 2.929687 7.679687 0 10.609375-1.464844 1.464844-3.386719 2.195312-5.304688 2.195312zm0 0"/><path d="m206.742188 382.410156c-1.921876 0-3.839844-.730468-5.304688-2.195312l-7.0625-7.0625-7.0625 7.0625c-2.929688 2.929687-7.679688 2.929687-10.609375 0-2.925781-2.929688-2.925781-7.679688.003906-10.609375l12.363281-12.363281c1.40625-1.40625 3.316407-2.199219 5.304688-2.199219s3.894531.792969 5.304688 2.199219l12.363281 12.363281c2.929687 2.929687 2.929687 7.679687 0 10.609375-1.464844 1.464844-3.382813 2.195312-5.300781 2.195312zm0 0"/></g><path d="m178.007812 317.367188c0-13.300782-13.539062-24.082032-30.242187-24.082032s-30.242187 10.78125-30.242187 24.082032c0 13.300781 13.539062 24.082031 30.242187 24.082031s30.242187-10.78125 30.242187-24.082031zm0 0" fill="#eda1ab"/><path d="m341.921875 317.367188c0-13.300782-13.539063-24.082032-30.242187-24.082032-16.699219 0-30.238282 10.78125-30.238282 24.082032 0 13.300781 13.539063 24.082031 30.238282 24.082031 16.703124 0 30.242187-10.78125 30.242187-24.082031zm0 0" fill="#eda1ab"/><path d="m165.390625 300.84375c-4.144531 0-7.5-3.359375-7.5-7.5v-10.679688c0-4.140624 3.355469-7.5 7.5-7.5 4.140625 0 7.5 3.359376 7.5 7.5v10.679688c0 4.140625-3.359375 7.5-7.5 7.5zm0 0" fill="#4e5660"/><path d="m294.054688 300.84375c-4.140626 0-7.5-3.359375-7.5-7.5v-10.679688c0-4.140624 3.359374-7.5 7.5-7.5 4.144531 0 7.5 3.359376 7.5 7.5v10.679688c0 4.140625-3.355469 7.5-7.5 7.5zm0 0" fill="#4e5660"/><path d="m246.6875 309.046875c-2.09375 0-4.175781-.871094-5.65625-2.574219-2.855469-3.277344-6.976562-5.15625-11.308594-5.15625-4.332031 0-8.449218 1.878906-11.304687 5.15625-2.722657 3.121094-7.460938 3.449219-10.582031.726563-3.125-2.722657-3.449219-7.460938-.726563-10.582031 5.703125-6.546876 13.945313-10.300782 22.613281-10.300782 8.667969 0 16.910156 3.753906 22.613282 10.300782 2.722656 3.121093 2.398437 7.859374-.726563 10.582031-1.417969 1.238281-3.171875 1.847656-4.921875 1.847656zm0 0" fill="#4e5660"/><path d="m177.574219 284.933594c-.644531 0-1.296875-.082032-1.945313-.257813l-24.792968-6.640625c-4-1.074218-6.375-5.1875-5.300782-9.1875 1.070313-4 5.183594-6.375 9.183594-5.304687l24.792969 6.644531c4 1.070312 6.375 5.183594 5.304687 9.183594-.902344 3.351562-3.929687 5.5625-7.242187 5.5625zm0 0" fill="#4e5660"/><path d="m281.871094 284.933594c-3.308594 0-6.339844-2.210938-7.238282-5.5625-1.070312-4 1.304688-8.109375 5.304688-9.183594l24.789062-6.644531c4.003907-1.070313 8.113282 1.304687 9.1875 5.304687 1.070313 4-1.304687 8.113282-5.304687 9.1875l-24.789063 6.640625c-.652343.175781-1.304687.257813-1.949218.257813zm0 0" fill="#4e5660"/><path d="m174.035156 167.816406h-27.566406c-11.582031 0-20.210938 10.679688-17.785156 22.003906l1.527344 7.121094c2.566406 11.964844 13.144531 20.515625 25.382812 20.515625h9.320312c12.238282 0 22.816407-8.550781 25.378907-20.515625l1.527343-7.121094c2.429688-11.324218-6.203124-22.003906-17.785156-22.003906zm0 0" fill="#4e5660"/><path d="m271.890625 181.449219c-.339844 0-.679687-.023438-1.023437-.070313-9.960938-1.359375-23.636719-2.917968-41.144532-2.917968-17.507812 0-31.183594 1.558593-41.144531 2.917968-4.097656.5625-7.882813-2.3125-8.445313-6.417968-.558593-4.105469 2.316407-7.886719 6.417969-8.445313 10.433594-1.421875 24.761719-3.050781 43.171875-3.050781s32.742188 1.628906 43.171875 3.050781c4.105469.5625 6.976563 4.339844 6.417969 8.445313-.511719 3.761718-3.730469 6.488281-7.421875 6.488281zm0 0" fill="#e26e7e"/><path d="m164.914062 224.957031h-9.320312c-15.671875 0-29.429688-11.121093-32.714844-26.445312l-1.527344-7.117188c-1.636718-7.625.238282-15.472656 5.140626-21.535156 4.898437-6.0625 12.183593-9.542969 19.976562-9.542969h27.570312c7.792969 0 15.074219 3.480469 19.976563 9.542969s6.773437 13.910156 5.140625 21.535156l-1.527344 7.121094c-3.285156 15.320313-17.042968 26.441406-32.714844 26.441406zm-18.445312-49.640625c-3.242188 0-6.273438 1.449219-8.3125 3.972656-2.039062 2.523438-2.820312 5.789063-2.140625 8.960938l1.527344 7.117188c1.8125 8.453124 9.402343 14.589843 18.046875 14.589843h9.324218c8.644532 0 16.234376-6.136719 18.046876-14.589843l1.527343-7.121094c.679688-3.167969-.101562-6.433594-2.140625-8.957032-2.039062-2.523437-5.066406-3.972656-8.3125-3.972656zm0 0" fill="#e26e7e"/><path d="m285.410156 167.816406h27.566406c11.582032 0 20.214844 10.679688 17.785157 22.003906l-1.527344 7.121094c-2.566406 11.964844-13.140625 20.515625-25.378906 20.515625h-9.324219c-12.238281 0-22.8125-8.550781-25.378906-20.515625l-1.527344-7.121094c-2.429688-11.324218 6.203125-22.003906 17.785156-22.003906zm0 0" fill="#4e5660"/><path d="m303.855469 224.957031h-9.320313c-15.671875 0-29.429687-11.121093-32.714844-26.441406l-1.527343-7.121094c-1.636719-7.625.238281-15.472656 5.136719-21.535156 4.902343-6.0625 12.183593-9.542969 19.980468-9.542969h27.566406c7.796876 0 15.078126 3.480469 19.980469 9.542969 4.898438 6.0625 6.773438 13.910156 5.136719 21.535156l-1.523438 7.121094c-3.289062 15.320313-17.046874 26.441406-32.714843 26.441406zm-18.445313-49.640625c-3.246094 0-6.273437 1.449219-8.3125 3.972656-2.039062 2.523438-2.820312 5.789063-2.140625 8.957032l1.527344 7.121094c1.8125 8.453124 9.402344 14.589843 18.046875 14.589843h9.320312c8.644532 0 16.234376-6.136719 18.050782-14.589843l1.523437-7.121094c.683594-3.171875-.097656-6.4375-2.136719-8.957032-2.039062-2.523437-5.070312-3.972656-8.316406-3.972656zm0 0" fill="#e26e7e"/><path d="m214.9375 492.847656c-1.917969 0-3.839844-.730468-5.304688-2.195312-2.929687-2.929688-2.929687-7.675782 0-10.605469l4.878907-4.882813c2.929687-2.929687 7.679687-2.929687 10.609375 0 2.929687 2.929688 2.929687 7.679688 0 10.605469l-4.878906 4.882813c-1.464844 1.464844-3.382813 2.195312-5.304688 2.195312zm0 0" fill="#c6c6c6"/><path d="m138.714844 492.890625c-1.917969 0-3.839844-.730469-5.300782-2.195313l-10.445312-10.441406c-2.929688-2.929687-2.929688-7.679687 0-10.605468 2.929688-2.929688 7.679688-2.929688 10.605469 0l10.441406 10.441406c2.933594 2.929687 2.933594 7.675781.003906 10.605468-1.464843 1.464844-3.386719 2.195313-5.304687 2.195313zm0 0" fill="#c6c6c6"/><path d="m81.089844 207.40625c-.207032-1.636719.355468-3.261719 1.484375-4.464844 4.921875-5.234375 7.941406-12.285156 7.941406-20.039062 0-5.738282-1.65625-11.082032-4.507813-15.597656-.9375-1.484376-1.164062-3.316407-.644531-4.992188 1.121094-3.613281 1.5625-7.527344 1.167969-11.59375-1.332031-13.792969-12.472656-24.910156-26.265625-26.21875-14.734375-1.398438-27.484375 8.136719-31.101563 21.4375-.621093 2.296875-2.527343 4.066406-4.871093 4.46875-14.1875 2.429688-24.886719 15.058594-24.2656252 30.074219.5468752 13.296875 10.2578122 24.71875 23.2890622 27.417969 3.246094.671874 6.40625.769531 9.425782.40625 2.0625-.246094 4.113281.546874 5.484374 2.109374l31.75 36.074219c1.382813 1.570313 3.957032.421875 3.71875-1.652343l-.523437-4.46875c-.179687-1.5625 1.339844-2.777344 2.824219-2.257813l6.117187 2.152344c1.496094.523437 3.019531-.707031 2.820313-2.277344zm0 0" fill="#c6c6c6"/><path d="m23.320312 207.898438c3.246094.671874 6.402344.769531 9.425782.40625 2.0625-.246094 4.109375.546874 5.480468 2.109374l31.753907 36.074219c1.378906 1.570313 3.957031.421875 3.714843-1.652343l-.519531-4.46875c-.183593-1.5625 1.335938-2.777344 2.820313-2.257813l6.121094 2.152344c1.492187.523437 3.015624-.707031 2.820312-2.277344l-.675781-5.367187c-43.507813-17.679688-56.796875-75.734376-41.300781-104.429688-6.6875 3.804688-11.730469 10.160156-13.792969 17.75-.625 2.296875-2.53125 4.066406-4.875 4.46875-14.183594 2.429688-24.886719 15.058594-24.2656252 30.074219.5468752 13.296875 10.2617182 24.71875 23.2929682 27.417969zm0 0" fill="#9aa3b1"/><path d="m442.035156 126.039062c-1.609375-.347656-2.859375-1.558593-3.269531-3.152343-3.230469-12.644531-14.699219-21.996094-28.355469-21.996094-16.164062 0-29.269531 13.105469-29.269531 29.269531v.027344c0 1.550781-.859375 2.953125-2.210937 3.714844-8.925782 5.011718-14.960938 14.5625-14.960938 25.53125 0 11.246094 6.347656 21.007812 15.65625 25.90625 1.753906.921875 2.722656 2.859375 2.476562 4.828125l-3.027343 24.074219c-.207031 1.632812 1.4375 2.871093 2.953125 2.222656l4.046875-1.734375c1.371093-.589844 2.910156.382812 2.96875 1.875l.242187 6.207031c.074219 1.921875 2.457032 2.765625 3.726563 1.324219l34.28125-38.953125c1.097656-1.246094 2.753906-1.804688 4.398437-1.570313 3.207032.460938 6.574219.40625 10.042969-.300781 12.78125-2.613281 22.429687-13.625 23.304687-26.644531 1.007813-14.925781-9.183593-27.652344-23.003906-30.628907zm0 0" fill="#c6c6c6"/><path d="m379.074219 214.242188c-.207031 1.632812 1.4375 2.875 2.953125 2.226562l4.046875-1.738281c1.371093-.585938 2.910156.382812 2.96875 1.875l.242187 6.207031c.074219 1.921875 2.457032 2.765625 3.726563 1.324219l29.617187-33.652344c-29.753906-19.75-31.804687-67.035156-21.589844-88.050781-11.566406 3.910156-19.898437 14.84375-19.898437 27.726562v.027344c0 1.550781-.859375 2.953125-2.210937 3.714844-8.925782 5.011718-14.960938 14.5625-14.960938 25.53125 0 11.246094 6.347656 21.007812 15.65625 25.90625 1.753906.921875 2.722656 2.859375 2.476562 4.828125zm0 0" fill="#9aa3b1"/></svg>