<svg height="511pt" viewBox="0 -11 511.99906 511" width="511pt" xmlns="http://www.w3.org/2000/svg"><path d="m17.722656 366.605469c-3.332031 0-6.699218-.9375-9.695312-2.894531-8.195313-5.367188-10.492188-16.355469-5.128906-24.554688 12.144531-18.5625 29.167968-31.703125 49.230468-37.996094 22.238282-6.976562 47.144532-5.46875 74.023438 4.476563 9.1875 3.398437 13.878906 13.601562 10.480468 22.789062-3.402343 9.183594-13.601562 13.875-22.789062 10.476563-35.507812-13.136719-64.367188-6.148438-81.261719 19.675781-3.40625 5.203125-9.078125 8.027344-14.859375 8.027344zm0 0" fill="#efd176"/><path d="m117.695312 488.585938c-5.785156 0-11.453124-2.828126-14.859374-8.03125-5.363282-8.195313-3.066407-19.1875 5.132812-24.550782 25.386719-16.613281 60.671875-62.867187 67.402344-73.1875 5.34375-8.203125 16.335937-10.523437 24.542968-5.171875 8.203126 5.347657 10.519532 16.335938 5.171876 24.542969-5.765626 8.847656-44.597657 61.839844-77.695313 83.496094-2.996094 1.964844-6.363281 2.902344-9.695313 2.902344zm0 0" fill="#efd176"/><path d="m158.734375 228.675781c-.644531 0-1.292969-.035156-1.949219-.105469-31.613281-3.457031-60.980468-19.199218-78.5625-42.109374-17.316406-22.566407-23.769531-52.039063-18.660156-85.238282 1.488281-9.683594 10.546875-16.328125 20.226562-14.832031 9.683594 1.488281 16.320313 10.546875 14.832032 20.226563-3.652344 23.738281.296875 43.335937 11.742187 58.246093 17.492188 22.796875 45.96875 27.535157 54.28125 28.445313 9.738281 1.0625 16.765625 9.820312 15.703125 19.558594-.996094 9.082031-8.679687 15.808593-17.613281 15.808593zm0 0" fill="#efd176"/><path d="m358.929688 84.609375c0 35.292969-24.445313 65.785156-38.242188 80.1875-5.015625 5.230469-13.390625 5.230469-18.40625 0-13.796875-14.402344-38.242188-44.894531-38.242188-80.1875 0-35.289063 24.445313-65.785156 38.242188-80.183594 5.015625-5.234375 13.390625-5.234375 18.40625 0 13.796875 14.398438 38.242188 44.894531 38.242188 80.183594zm0 0" fill="#8ee2cf"/><path d="m311.484375 113.273438c-4.144531 0-7.5-3.355469-7.5-7.5v-42.324219c0-4.144531 3.355469-7.5 7.5-7.5 4.140625 0 7.5 3.355469 7.5 7.5v42.324219c0 4.144531-3.359375 7.5-7.5 7.5zm0 0" fill="#6fce91"/><path d="m427.886719 153.566406c-35.289063 0-65.785157 24.449219-80.183594 38.246094-5.234375 5.015625-5.234375 13.390625 0 18.40625 14.398437 13.796875 44.894531 38.242188 80.183594 38.242188 35.292969 0 65.789062-24.445313 80.1875-38.242188 5.234375-5.015625 5.234375-13.390625 0-18.40625-14.398438-13.796875-44.894531-38.246094-80.1875-38.246094zm0 0" fill="#8ee2cf"/><path d="m449.050781 208.515625h-42.324219c-4.140624 0-7.5-3.355469-7.5-7.5 0-4.140625 3.359376-7.5 7.5-7.5h42.324219c4.140625 0 7.5 3.359375 7.5 7.5 0 4.144531-3.359375 7.5-7.5 7.5zm0 0" fill="#6fce91"/><path d="m418.015625 161.585938c-24.957031 24.953124-63.804687 29.230468-83.746094 29.65625-7.242187.152343-13.167969-5.769532-13.011719-13.015626.425782-19.9375 4.703126-58.789062 29.65625-83.742187 24.957032-24.957031 63.804688-29.230469 83.746094-29.65625 7.242188-.15625 13.167969 5.765625 13.011719 13.011719-.425781 19.9375-4.703125 58.789062-29.65625 83.746094zm0 0" fill="#8ee2cf"/><path d="m369.5 150.5c-1.917969 0-3.839844-.734375-5.300781-2.199219-2.929688-2.929687-2.929688-7.675781 0-10.605469l29.925781-29.929687c2.929688-2.925781 7.679688-2.925781 10.605469 0 2.929687 2.929687 2.929687 7.679687 0 10.609375l-29.925781 29.925781c-1.464844 1.464844-3.382813 2.199219-5.304688 2.199219zm0 0" fill="#6fce91"/><path d="m348.160156 164.339844c51.765625 51.765625 48 129.539062-8.777344 196.238281-59.0625 69.382813-131.125 93.128906-205.855468 18.394531-74.734375-74.730468-50.988282-146.792968 18.394531-205.855468 66.699219-56.777344 144.472656-60.542969 196.238281-8.777344zm0 0" fill="#f7ef87"/><g fill="#efd176"><path d="m311.835938 138.773438c-48.125-22.171876-107.445313-10.320313-159.914063 34.34375-69.1875 58.894531-92.984375 130.722656-19.003906 205.230468-34.984375-145.25 88.660156-220.558594 178.917969-239.574218zm0 0"/><path d="m283.785156 254.417969c-4.144531 0-7.5-3.359375-7.5-7.5v-10.703125h-10.703125c-4.144531 0-7.5-3.355469-7.5-7.5 0-4.140625 3.355469-7.5 7.5-7.5h18.203125c4.140625 0 7.5 3.359375 7.5 7.5v18.203125c0 4.140625-3.359375 7.5-7.5 7.5zm0 0"/><path d="m335.8125 306.449219c-4.140625 0-7.5-3.359375-7.5-7.5v-10.703125h-10.699219c-4.144531 0-7.5-3.355469-7.5-7.5 0-4.140625 3.355469-7.5 7.5-7.5h18.199219c4.144531 0 7.5 3.359375 7.5 7.5v18.203125c0 4.140625-3.355469 7.5-7.5 7.5zm0 0"/><path d="m231.75 202.386719c-4.140625 0-7.5-3.359375-7.5-7.5v-10.703125h-10.699219c-4.144531 0-7.5-3.355469-7.5-7.5 0-4.140625 3.355469-7.5 7.5-7.5h18.199219c4.144531 0 7.5 3.359375 7.5 7.5v18.203125c0 4.140625-3.355469 7.5-7.5 7.5zm0 0"/><path d="m203.132812 387.101562c-4.140624 0-7.5-3.359374-7.5-7.5v-10.703124h-10.703124c-4.140626 0-7.5-3.355469-7.5-7.5 0-4.140626 3.359374-7.5 7.5-7.5h18.203124c4.140626 0 7.5 3.359374 7.5 7.5v18.203124c0 4.140626-3.359374 7.5-7.5 7.5zm0 0"/><path d="m151.101562 335.066406c-4.140624 0-7.5-3.355468-7.5-7.5v-10.699218h-10.703124c-4.140626 0-7.5-3.359376-7.5-7.5 0-4.144532 3.359374-7.5 7.5-7.5h18.203124c4.140626 0 7.5 3.355468 7.5 7.5v18.199218c0 4.144532-3.359374 7.5-7.5 7.5zm0 0"/></g><path d="m172.304688 264.070312c9.785156-9.789062 7.757812-27.691406-4.535157-39.980468-12.289062-12.292969-30.191406-14.320313-39.976562-4.53125-9.789063 9.785156-7.761719 27.6875 4.53125 39.976562 12.292969 12.292969 30.191406 14.320313 39.980469 4.535156zm0 0" fill="#eda1ab"/><path d="m248.429688 340.199219c-9.789063 9.789062-7.761719 27.691406 4.53125 39.980469 12.292968 12.292968 30.191406 14.320312 39.980468 4.535156 9.789063-9.789063 7.757813-27.691406-4.535156-39.980469-12.289062-12.292969-30.191406-14.320313-39.976562-4.535156zm0 0" fill="#eda1ab"/><path d="m240.195312 315.9375c13.484376-13.484375 4.980469-24.515625-7.066406-36.566406-12.050781-12.046875-23.082031-20.550782-36.566406-7.066406-13.484375 13.484374-14.644531 34.179687-2.597656 46.230468 12.050781 12.046875 32.746094 10.886719 46.230468-2.597656zm0 0" fill="#4e5660"/><path d="m192.898438 253.59375c-1.917969 0-3.839844-.734375-5.304688-2.195312-2.925781-2.929688-2.929688-7.679688 0-10.609376 2.917969-2.917968 2.917969-7.664062 0-10.578124-2.914062-2.917969-7.660156-2.921876-10.578125 0-2.929687 2.925781-7.679687 2.925781-10.605469 0-2.929687-2.933594-2.929687-7.679688 0-10.609376 8.765625-8.765624 23.027344-8.765624 31.792969 0 8.761719 8.765626 8.765625 23.027344 0 31.792969-1.464844 1.464844-3.386719 2.199219-5.304687 2.199219zm0 0" fill="#4e5660"/><path d="m287.59375 348.289062c-1.917969 0-3.839844-.734374-5.300781-2.195312-2.929688-2.929688-2.929688-7.679688 0-10.609375 2.914062-2.917969 2.914062-7.660156 0-10.578125-2.917969-2.917969-7.664063-2.917969-10.582031 0-2.929688 2.925781-7.679688 2.925781-10.605469 0-2.929688-2.929688-2.929688-7.679688 0-10.609375 8.765625-8.761719 23.027343-8.765625 31.792969 0 8.765624 8.765625 8.765624 23.03125 0 31.796875-1.464844 1.460938-3.386719 2.195312-5.304688 2.195312zm0 0" fill="#4e5660"/><path d="m265.5 418.628906c-22.546875 0-40.105469-6.816406-52.417969-14.085937-26.648437-15.726563-37.707031-37.890625-38.882812-40.367188-4.195313-8.851562-.417969-19.429687 8.433593-23.625 8.855469-4.195312 19.429688-.417969 23.625 8.433594.246094.519531 26.410157 51.253906 91.492188 28.125 9.230469-3.28125 19.371094 1.546875 22.648438 10.777344 3.28125 9.230469-1.542969 19.371093-10.773438 22.648437-16.339844 5.804688-31.070312 8.09375-44.125 8.09375zm0 0" fill="#efd176"/><path d="m353.535156 405.273438c-12.746094-13.527344-7.960937-32.222657-16.886718-49.144532-2.703126-5.125.714843-11.386718 6.492187-11.847656 30.75-2.453125 46.027344 5.363281 56.699219 16.03125 13.523437 13.527344 12.535156 36.070312-2.96875 48.277344-12.988282 10.222656-31.996094 8.710937-43.335938-3.316406zm0 0" fill="#a3defe"/><path d="m131.230469 130.558594c1.214843 18.550781 18.160156 27.785156 24.46875 45.84375 1.910156 5.472656 8.820312 7.238281 13.09375 3.320312 22.746093-20.832031 27.433593-37.34375 26.894531-52.421875-.6875-19.117187-17.863281-33.753906-37.359375-30.71875-16.335937 2.539063-28.179687 17.484375-27.097656 33.976563zm0 0" fill="#a3defe"/><path d="m56.425781 266.789062h-35.292969c-4.140624 0-7.5-3.355468-7.5-7.5 0-4.144531 3.359376-7.5 7.5-7.5h35.292969c4.140625 0 7.5 3.355469 7.5 7.5 0 4.144532-3.359375 7.5-7.5 7.5zm0 0" fill="#a3defe"/><path d="m61.253906 228.660156c-1.917968 0-3.839844-.734375-5.304687-2.199218l-25.167969-25.167969c-2.929688-2.933594-2.929688-7.679688 0-10.609375 2.929688-2.929688 7.675781-2.925782 10.605469 0l25.167969 25.171875c2.929687 2.929687 2.929687 7.679687 0 10.605469-1.460938 1.464843-3.382813 2.199218-5.300782 2.199218zm0 0" fill="#8eafe2"/></svg>