<svg height="512pt" viewBox="-31 0 512 512.00025" width="512pt" xmlns="http://www.w3.org/2000/svg"><path d="m423.421875 381.191406-72.023437 12.703125c-17.621094 3.105469-34.425782-8.660156-37.53125-26.28125l-26.777344-151.84375c-3.105469-17.621093 8.660156-34.425781 26.28125-37.53125l72.027344-12.699219c17.621093-3.109374 34.425781 8.65625 37.53125 26.277344l26.773437 151.84375c3.109375 17.621094-8.660156 34.425782-26.28125 37.53125zm0 0" fill="#a3defe"/><path d="m419.785156 338.925781-79.421875 14.003907c-3.269531.578124-6.386719-1.605469-6.960937-4.871094l-21.265625-120.59375c-.574219-3.269532 1.605469-6.386719 4.875-6.960938l79.421875-14.003906c3.265625-.578125 6.382812 1.605469 6.960937 4.875l21.261719 120.589844c.578125 3.269531-1.605469 6.386718-4.871094 6.960937zm0 0" fill="#8eafe2"/><path d="m391.820312 267.746094c0 14.101562-11.433593 25.53125-25.53125 25.53125-14.101562 0-25.535156-11.429688-25.535156-25.53125 0-14.101563 11.433594-25.53125 25.535156-25.53125 14.097657 0 25.53125 11.429687 25.53125 25.53125zm0 0" fill="#8ee2cf"/><path d="m359.757812 324.667969c-3.570312 0-6.734374-2.5625-7.378906-6.199219-.71875-4.078125 2.007813-7.96875 6.085938-8.6875l29.550781-5.210938c4.085937-.722656 7.96875 2.003907 8.691406 6.082032.71875 4.078125-2.007812 7.96875-6.085937 8.6875l-29.550782 5.210937c-.441406.078125-.878906.117188-1.3125.117188zm0 0" fill="#fff"/><path d="m342.902344 201.863281c-3.570313 0-6.734375-2.5625-7.375-6.199219-.71875-4.078124 2.003906-7.96875 6.082031-8.6875l20.246094-3.570312c4.082031-.71875 7.96875 2.003906 8.6875 6.085938.71875 4.078124-2.007813 7.96875-6.085938 8.6875l-20.242187 3.566406c-.441406.078125-.878906.117187-1.3125.117187zm0 0" fill="#4e5660"/><path d="m354.894531 379.320312c-3.570312 0-6.734375-2.558593-7.375-6.195312-.722656-4.078125 2.003907-7.972656 6.082031-8.691406l2.722657-.476563c4.078125-.722656 7.96875 2.003907 8.6875 6.082031.71875 4.078126-2.003907 7.96875-6.082031 8.6875l-2.722657.480469c-.4375.078125-.878906.113281-1.3125.113281zm0 0" fill="#4e5660"/><path d="m409.847656 369.632812c-3.570312 0-6.734375-2.558593-7.375-6.199218-.71875-4.078125 2.003906-7.96875 6.082032-8.6875l2.722656-.480469c4.082031-.722656 7.96875 2.003906 8.6875 6.082031.722656 4.078125-2.003906 7.96875-6.082032 8.691406l-2.722656.476563c-.441406.078125-.878906.117187-1.3125.117187zm0 0" fill="#4e5660"/><path d="m154.625 503.570312c-3.460938 0-6.953125-1.046874-9.976562-3.226562-7.648438-5.515625-9.378907-16.191406-3.859376-23.839844 12.945313-17.953125 14.753907-58.214844 11.902344-81.074218-1.167968-9.359376 5.472656-17.890626 14.832032-19.058594 9.355468-1.164063 17.894531 5.472656 19.0625 14.832031 2.949218 23.648437 2.964843 76.082031-18.09375 105.28125-3.339844 4.625-8.566407 7.085937-13.867188 7.085937zm0 0" fill="#efd176"/><path d="m276.800781 512c-1.15625 0-2.332031-.117188-3.507812-.363281-9.234375-1.929688-15.15625-10.980469-13.226563-20.210938 5.203125-24.886719-5.335937-71.203125-9.304687-88.636719-.5625-2.476562-1.019531-4.492187-1.328125-5.949218-1.945313-9.230469 3.960937-18.289063 13.1875-20.234375 9.230468-1.945313 18.289062 3.957031 20.234375 13.1875.28125 1.328125.699219 3.164062 1.210937 5.417969 4.835938 21.25 16.160156 71.015624 9.433594 103.203124-1.679688 8.050782-8.78125 13.585938-16.699219 13.585938zm0 0" fill="#efd176"/><path d="m74.488281 343.726562c-1.339843 0-2.605469-.050781-3.789062-.140624-29.464844-2.246094-55.578125-29.710938-69.851563-73.46875-2.925781-8.96875 1.972656-18.609376 10.941406-21.535157s18.609376 1.972657 21.53125 10.941407c9.542969 29.253906 25.230469 48.878906 39.972657 50.003906 11.324219.871094 23.785156-10.398438 34.132812-30.902344 4.246094-8.421875 14.519531-11.804688 22.941407-7.554688 8.417968 4.25 11.800781 14.523438 7.550781 22.941407-21.320313 42.253906-47.566407 49.714843-63.429688 49.714843zm0 0" fill="#efd176"/><path d="m171.371094 68.8125c24.03125 24.027344 28.148437 61.4375 28.558594 80.636719.148437 6.976562-5.554688 12.679687-12.53125 12.53125-19.199219-.410157-56.609376-4.527344-80.640626-28.558594-24.027343-24.027344-28.144531-61.4375-28.554687-80.636719-.148437-6.976562 5.554687-12.679687 12.53125-12.53125 19.199219.410156 56.609375 4.527344 80.636719 28.558594zm0 0" fill="#8ee2cf"/><path d="m153.472656 123.027344c-1.917968 0-3.835937-.734375-5.300781-2.195313l-28.816406-28.820312c-2.929688-2.929688-2.929688-7.675781 0-10.605469 2.925781-2.929688 7.675781-2.929688 10.605469 0l28.816406 28.816406c2.929687 2.929688 2.929687 7.679688 0 10.609375-1.464844 1.460938-3.382813 2.195313-5.304688 2.195313zm0 0" fill="#6fce91"/><path d="m265.277344 68.8125c-24.03125 24.027344-28.148438 61.4375-28.558594 80.636719-.148438 6.976562 5.554688 12.679687 12.53125 12.53125 19.199219-.410157 56.609375-4.527344 80.636719-28.558594 24.03125-24.027344 28.148437-61.4375 28.558593-80.636719.148438-6.976562-5.554687-12.679687-12.53125-12.53125-19.199218.410156-56.609374 4.527344-80.636718 28.558594zm0 0" fill="#8ee2cf"/><path d="m283.171875 123.027344c-1.917969 0-3.839844-.734375-5.300781-2.195313-2.929688-2.933593-2.929688-7.679687 0-10.609375l28.816406-28.816406c2.929688-2.929688 7.679688-2.929688 10.605469 0 2.929687 2.929688 2.929687 7.675781 0 10.605469l-28.816407 28.820312c-1.464843 1.460938-3.386718 2.195313-5.304687 2.195313zm0 0" fill="#6fce91"/><path d="m264.011719 80.992188c0 33.980468-23.542969 63.347656-36.828125 77.210937-4.828125 5.039063-12.894532 5.039063-17.722656 0-13.285157-13.863281-36.824219-43.230469-36.824219-77.210937 0-33.984376 23.539062-63.347657 36.824219-77.214844 4.828124-5.035156 12.894531-5.035156 17.722656 0 13.285156 13.867187 36.828125 43.230468 36.828125 77.214844zm0 0" fill="#8ee2cf"/><path d="m218.324219 108.871094c-4.144531 0-7.5-3.359375-7.5-7.5v-40.757813c0-4.144531 3.355469-7.5 7.5-7.5 4.140625 0 7.5 3.355469 7.5 7.5v40.757813c0 4.140625-3.359375 7.5-7.5 7.5zm0 0" fill="#6fce91"/><path d="m218.324219 130.429688c70.492187 0 120.882812 55.519531 127.636719 139.59375 7.027343 87.453124-25.871094 152.6875-127.636719 152.6875-101.769531 0-134.664063-65.234376-127.640625-152.6875 6.757812-84.074219 57.148437-139.59375 127.640625-139.59375zm0 0" fill="#f7ef87"/><g fill="#efd176"><path d="m176.183594 137.757812c-47.863282 17.671876-80.183594 66.128907-85.5 132.265626-7.007813 87.210937 25.695312 152.316406 126.800781 152.679687-122.714844-75.082031-89.808594-210.546875-41.300781-284.945313zm0 0"/><path d="m242.972656 245.007812c-1.917968 0-3.839844-.730468-5.300781-2.195312l-7.089844-7.089844-7.089843 7.089844c-2.929688 2.929688-7.679688 2.929688-10.609376 0-2.929687-2.929688-2.929687-7.679688 0-10.605469l12.394532-12.394531c1.40625-1.40625 3.3125-2.195312 5.304687-2.195312 1.988281 0 3.894531.789062 5.300781 2.195312l12.394532 12.394531c2.929687 2.929688 2.929687 7.675781 0 10.605469-1.464844 1.460938-3.382813 2.195312-5.304688 2.195312zm0 0"/><path d="m313.828125 245.007812c-1.917969 0-3.839844-.730468-5.300781-2.195312l-7.089844-7.089844-7.09375 7.089844c-2.925781 2.929688-7.675781 2.929688-10.605469 0-2.925781-2.929688-2.925781-7.679688 0-10.605469l12.394531-12.394531c1.40625-1.40625 3.3125-2.195312 5.304688-2.195312 1.988281 0 3.894531.789062 5.300781 2.195312l12.394531 12.394531c2.929688 2.929688 2.929688 7.675781 0 10.605469-1.464843 1.460938-3.386718 2.195312-5.304687 2.195312zm0 0"/><path d="m172.117188 245.007812c-1.917969 0-3.835938-.730468-5.300782-2.195312l-7.089844-7.089844-7.089843 7.089844c-2.929688 2.929688-7.679688 2.929688-10.605469 0-2.929688-2.929688-2.929688-7.679688 0-10.605469l12.390625-12.394531c1.40625-1.40625 3.316406-2.195312 5.304687-2.195312 1.988282 0 3.894532.789062 5.300782 2.195312l12.394531 12.394531c2.929687 2.929688 2.929687 7.675781 0 10.605469-1.464844 1.460938-3.382813 2.195312-5.304687 2.195312zm0 0"/><path d="m278.402344 383.246094c-1.921875 0-3.839844-.734375-5.304688-2.199219l-7.089844-7.089844-7.089843 7.089844c-2.929688 2.929687-7.679688 2.929687-10.605469.003906-2.929688-2.929687-2.929688-7.679687 0-10.609375l12.390625-12.390625c1.40625-1.410156 3.316406-2.199219 5.304687-2.199219 1.988282 0 3.894532.789063 5.300782 2.199219l12.394531 12.390625c2.929687 2.929688 2.929687 7.679688 0 10.609375-1.464844 1.460938-3.382813 2.195313-5.300781 2.195313zm0 0"/><path d="m207.546875 383.246094c-1.921875 0-3.839844-.734375-5.304687-2.195313l-7.089844-7.09375-7.089844 7.089844c-2.929688 2.929687-7.679688 2.929687-10.605469.003906-2.929687-2.929687-2.929687-7.679687 0-10.609375l12.390625-12.390625c1.40625-1.410156 3.316406-2.199219 5.304688-2.199219 1.988281 0 3.898437.789063 5.304687 2.195313l12.390625 12.394531c2.929688 2.929688 2.929688 7.679688 0 10.605469-1.464844 1.464844-3.382812 2.199219-5.300781 2.199219zm0 0"/></g><path d="m178.746094 314.660156c0-13.332031-13.566406-24.136718-30.304688-24.136718-16.742187 0-30.308594 10.804687-30.308594 24.136718 0 13.328125 13.566407 24.132813 30.308594 24.132813 16.738282 0 30.304688-10.804688 30.304688-24.132813zm0 0" fill="#eda1ab"/><path d="m343.027344 314.660156c0-13.332031-13.570313-24.136718-30.308594-24.136718s-30.308594 10.804687-30.308594 24.136718c0 13.328125 13.570313 24.132813 30.308594 24.132813s30.308594-10.804688 30.308594-24.132813zm0 0" fill="#eda1ab"/><path d="m166.105469 298.082031c-4.144531 0-7.5-3.359375-7.5-7.5v-10.703125c0-4.144531 3.355469-7.5 7.5-7.5 4.140625 0 7.5 3.355469 7.5 7.5v10.703125c0 4.140625-3.359375 7.5-7.5 7.5zm0 0" fill="#4e5660"/><path d="m295.054688 298.082031c-4.140626 0-7.5-3.359375-7.5-7.5v-10.703125c0-4.144531 3.359374-7.5 7.5-7.5 4.144531 0 7.5 3.355469 7.5 7.5v10.703125c0 4.140625-3.355469 7.5-7.5 7.5zm0 0" fill="#4e5660"/><path d="m230.582031 306.300781c-8.683593 0-16.9375-3.761719-22.65625-10.316406-2.71875-3.121094-2.394531-7.859375.726563-10.582031 3.125-2.722656 7.859375-2.394532 10.582031.726562 2.867187 3.289063 7 5.171875 11.347656 5.171875 4.34375 0 8.480469-1.882812 11.34375-5.171875 2.722657-3.121094 7.460938-3.449218 10.582031-.726562 3.121094 2.722656 3.449219 7.460937.726563 10.582031-5.714844 6.554687-13.972656 10.316406-22.652344 10.316406zm0 0" fill="#4e5660"/><path d="m174.769531 168.191406h-27.628906c-11.605469 0-20.257813 10.703125-17.824219 22.050782l1.53125 7.136718c2.570313 11.996094 13.171875 20.5625 25.4375 20.5625h9.339844c12.269531 0 22.867188-8.566406 25.441406-20.5625l1.527344-7.136718c2.433594-11.347657-6.21875-22.050782-17.824219-22.050782zm0 0" fill="#4e5660"/><path d="m188.320312 181.835938c-3.695312 0-6.910156-2.726563-7.421874-6.488282-.5625-4.105468 2.3125-7.882812 6.417968-8.445312 10.457032-1.421875 24.820313-3.058594 43.261719-3.058594s32.808594 1.636719 43.265625 3.058594c4.105469.5625 6.976562 4.34375 6.417969 8.445312-.558594 4.105469-4.335938 6.976563-8.445313 6.417969-9.984375-1.359375-23.699218-2.921875-41.238281-2.921875s-31.25 1.5625-41.238281 2.921875c-.339844.046875-.683594.070313-1.019532.070313zm0 0" fill="#e26e7e"/><path d="m165.625 225.441406h-9.339844c-15.699218 0-29.480468-11.140625-32.773437-26.488281l-1.527344-7.136719c-1.636719-7.636718.238281-15.496094 5.148437-21.570312 4.90625-6.070313 12.199219-9.554688 20.011719-9.554688h27.625c7.808594 0 15.101563 3.480469 20.011719 9.554688 4.910156 6.074218 6.785156 13.933594 5.148438 21.570312l-1.53125 7.136719c-3.292969 15.347656-17.074219 26.488281-32.773438 26.488281zm-18.484375-49.75c-3.253906 0-6.296875 1.453125-8.34375 3.984375s-2.832031 5.808594-2.144531 8.996094l1.527344 7.132813c1.820312 8.480468 9.433593 14.636718 18.105468 14.636718h9.339844c8.671875 0 16.289062-6.15625 18.105469-14.636718l1.53125-7.132813c.683593-3.1875-.101563-6.464844-2.144531-8.996094-2.046876-2.53125-5.089844-3.984375-8.347657-3.984375zm0 0" fill="#e26e7e"/><path d="m286.390625 168.191406h27.628906c11.605469 0 20.257813 10.703125 17.824219 22.050782l-1.53125 7.136718c-2.570312 11.996094-13.167969 20.5625-25.4375 20.5625h-9.339844c-12.265625 0-22.867187-8.566406-25.441406-20.5625l-1.527344-7.136718c-2.433594-11.347657 6.21875-22.050782 17.824219-22.050782zm0 0" fill="#4e5660"/><path d="m304.875 225.441406h-9.339844c-15.699218 0-29.480468-11.140625-32.773437-26.488281l-1.527344-7.136719c-1.640625-7.636718.238281-15.496094 5.144531-21.570312 4.910156-6.070313 12.203125-9.554688 20.011719-9.554688h27.628906c7.808594 0 15.101563 3.480469 20.007813 9.554688 4.910156 6.070312 6.785156 13.933594 5.148437 21.570312l-1.527343 7.136719c-3.292969 15.347656-17.074219 26.488281-32.773438 26.488281zm-18.484375-49.75c-3.257813 0-6.296875 1.453125-8.34375 3.984375s-2.832031 5.808594-2.148437 8.996094l1.53125 7.132813c1.816406 8.480468 9.429687 14.636718 18.101562 14.636718h9.34375c8.671875 0 16.285156-6.15625 18.101562-14.636718l1.53125-7.132813c.683594-3.1875-.101562-6.464844-2.144531-8.996094-2.046875-2.53125-5.089843-3.984375-8.347656-3.984375zm0 0" fill="#e26e7e"/></svg>