<svg height="512pt" viewBox="-36 0 511 512" width="512pt" xmlns="http://www.w3.org/2000/svg"><path d="m152.914062 246.582031s-61.382812-18.210937-104.664062-30.976562c-46.820312-13.816407-64.585938 49.175781-28.707031 66.632812-12.914063 6.699219-14.699219 45.789063 20.8125 46.882813-15.070313 17.226562 2.152343 43.84375 27.269531 36.277344 25.117188-7.570313 57.910156-19.007813 76.65625-25.683594zm0 0" fill="#a3defe"/><path d="m67.625 365.398438c25.117188-7.570313 57.910156-19.007813 76.65625-25.683594l8.632812-93.132813s-31.492187-9.34375-65.269531-19.335937c5.667969 85.882812-27.339843 112.164062-52.703125 119.40625 1.851563 12.96875 15.398438 23.953125 32.683594 18.746094zm0 0" fill="#7acefa"/><path d="m48.671875 263.804688c-3.214844 0-6.414063-.792969-9.242187-2.296876-3.65625-1.945312-5.046876-6.484374-3.105469-10.144531 1.945312-3.65625 6.484375-5.046875 10.144531-3.101562 1.359375.722656 3.042969.71875 4.402344 0 3.65625-1.945313 8.199218-.558594 10.144531 3.101562 1.945313 3.65625.554687 8.199219-3.101563 10.144531-2.828124 1.503907-6.027343 2.296876-9.242187 2.296876zm0 0" fill="#7acefa"/><path d="m67.128906 302.65625c-3.214844 0-6.414062-.792969-9.242187-2.296875-3.65625-1.945313-5.046875-6.488281-3.105469-10.144531 1.945312-3.65625 6.484375-5.042969 10.144531-3.101563 1.359375.722657 3.042969.722657 4.402344 0 3.660156-1.945312 8.199219-.558593 10.144531 3.101563 1.945313 3.65625.554688 8.199218-3.101562 10.144531-2.832032 1.503906-6.027344 2.296875-9.242188 2.296875zm0 0" fill="#7acefa"/><path d="m287.773438 246.582031s61.382812-18.210937 104.664062-30.976562c46.820312-13.816407 64.585938 49.175781 28.703125 66.632812 12.917969 6.699219 14.699219 45.789063-20.808594 46.882813 15.066407 17.226562-2.15625 43.84375-27.273437 36.277344-25.117188-7.570313-57.90625-19.007813-76.652344-25.683594zm0 0" fill="#a3defe"/><path d="m373.0625 365.398438c-25.117188-7.570313-57.910156-19.007813-76.65625-25.683594l-8.632812-93.132813s31.492187-9.34375 65.265624-19.335937c-5.664062 85.882812 27.34375 112.164062 52.707032 119.40625-1.855469 12.96875-15.398438 23.953125-32.683594 18.746094zm0 0" fill="#7acefa"/><path d="m392.015625 263.804688c-3.21875 0-6.414063-.792969-9.242187-2.296876-3.660157-1.945312-5.046876-6.488281-3.101563-10.144531 1.945313-3.660156 6.484375-5.046875 10.144531-3.101562 1.355469.722656 3.039063.722656 4.402344 0 3.660156-1.945313 8.195312-.554688 10.140625 3.101562s.554687 8.199219-3.101563 10.144531c-2.832031 1.503907-6.027343 2.296876-9.242187 2.296876zm0 0" fill="#7acefa"/><path d="m373.558594 302.65625c-3.214844 0-6.410156-.792969-9.242188-2.296875-3.65625-1.945313-5.046875-6.488281-3.101562-10.144531 1.941406-3.65625 6.484375-5.046875 10.140625-3.101563 1.363281.722657 3.046875.722657 4.402343 0 3.660157-1.945312 8.199219-.558593 10.144532 3.101563 1.945312 3.65625.558594 8.195312-3.101563 10.140625-2.828125 1.507812-6.023437 2.300781-9.242187 2.300781zm0 0" fill="#7acefa"/><path d="m185.835938 509.1875c-4.863282 0-9.652344-2.25-12.722657-6.488281-26.582031-36.699219-24.457031-79.496094-10.558593-105.628907 4.070312-7.648437 13.570312-10.550781 21.222656-6.484374 7.648437 4.070312 10.554687 13.570312 6.484375 21.222656-6.957031 13.078125-13.042969 43.0625 8.269531 72.484375 5.082031 7.015625 3.515625 16.828125-3.503906 21.910156-2.78125 2.015625-6.003906 2.984375-9.191406 2.984375zm0 0" fill="#efd176"/><path d="m262.3125 512c-1.988281 0-4.007812-.378906-5.960938-1.183594-8.015624-3.296875-11.839843-12.464844-8.542968-20.480468 11.308594-27.5 5.804687-68.4375 1.605468-80.875-2.773437-8.210938 1.636719-17.113282 9.847657-19.886719 8.203125-2.773438 17.113281 1.632812 19.886719 9.847656 5.644531 16.722656 12.902343 65.839844-2.316407 102.851563-2.492187 6.0625-8.347656 9.726562-14.519531 9.726562zm0 0" fill="#efd176"/><path d="m32.082031 399.183594c-7.808593 0-14.570312-5.816406-15.554687-13.761719-1.0625-8.601563 5.042968-16.4375 13.644531-17.503906 37.671875-4.664063 53.167969-24.628907 74.609375-52.257813 4.929688-6.351562 10.027344-12.921875 15.675781-19.628906 5.578125-6.628906 15.476563-7.480469 22.109375-1.902344 6.628906 5.582032 7.480469 15.480469 1.902344 22.109375-5.246094 6.234375-10.152344 12.550781-14.894531 18.664063-23.105469 29.773437-44.933594 57.894531-95.542969 64.164062-.65625.078125-1.308594.117188-1.949219.117188zm0 0" fill="#efd176"/><path d="m419.070312 384.894531c-.644531 0-1.292968-.039062-1.945312-.121093-59.414062-7.355469-95.957031-28.386719-122.199219-70.316407-4.597656-7.34375-2.371093-17.027343 4.976563-21.625 7.347656-4.601562 17.027344-2.367187 21.625 4.976563 21.238281 33.9375 49.121094 49.589844 99.453125 55.820312 8.601562 1.0625 14.707031 8.898438 13.644531 17.5-.984375 7.945313-7.75 13.765625-15.554688 13.765625zm0 0" fill="#efd176"/><path d="m177.207031 106.296875c22.074219 22.074219 25.859375 56.445313 26.234375 74.085937.136719 6.410157-5.101562 11.648438-11.511718 11.511719-17.640626-.375-52.011719-4.160156-74.085938-26.234375-22.078125-22.078125-25.863281-56.449218-26.238281-74.089844-.136719-6.410156 5.101562-11.648437 11.511719-11.511718 17.640624.375 52.011718 4.160156 74.089843 26.238281zm0 0" fill="#8ee2cf"/><path d="m160.761719 156.714844c-1.917969 0-3.839844-.730469-5.300781-2.195313l-26.480469-26.476562c-2.929688-2.929688-2.929688-7.679688 0-10.605469 2.929687-2.929688 7.679687-2.929688 10.605469 0l26.480468 26.476562c2.929688 2.929688 2.929688 7.675782 0 10.605469-1.464844 1.464844-3.386718 2.195313-5.304687 2.195313zm0 0" fill="#6fce91"/><path d="m263.480469 106.296875c-22.078125 22.074219-25.859375 56.445313-26.234375 74.085937-.140625 6.410157 5.101562 11.648438 11.511718 11.511719 17.640626-.375 52.007813-4.160156 74.085938-26.234375 22.078125-22.078125 25.859375-56.449218 26.238281-74.089844.136719-6.410156-5.105469-11.648437-11.515625-11.511718-17.636718.375-52.007812 4.160156-74.085937 26.238281zm0 0" fill="#8ee2cf"/><path d="m279.925781 156.714844c-1.921875 0-3.839843-.730469-5.304687-2.195313-2.929688-2.929687-2.929688-7.675781 0-10.605469l26.476562-26.476562c2.929688-2.929688 7.679688-2.929688 10.609375 0 2.925781 2.929688 2.925781 7.675781 0 10.605469l-26.480469 26.476562c-1.464843 1.464844-3.382812 2.195313-5.300781 2.195313zm0 0" fill="#6fce91"/><path d="m262.320312 117.488281c0 31.222657-21.628906 58.199219-33.835937 70.9375-4.4375 4.628907-11.847656 4.628907-16.28125 0-12.207031-12.738281-33.835937-39.714843-33.835937-70.9375 0-31.222656 21.628906-58.203125 33.835937-70.941406 4.433594-4.628906 11.84375-4.628906 16.28125 0 12.207031 12.738281 33.835937 39.71875 33.835937 70.941406zm0 0" fill="#8ee2cf"/><path d="m220.34375 143.710938c-4.144531 0-7.5-3.359376-7.5-7.5v-37.445313c0-4.144531 3.355469-7.5 7.5-7.5 4.140625 0 7.5 3.355469 7.5 7.5v37.445313c0 4.140624-3.359375 7.5-7.5 7.5zm0 0" fill="#6fce91"/><path d="m220.34375 162.910156c64.765625 0 111.0625 51.007813 117.269531 128.25 6.457031 80.351563-23.769531 140.285156-117.269531 140.285156s-123.726562-59.933593-117.269531-140.285156c6.203125-77.242187 52.5-128.25 117.269531-128.25zm0 0" fill="#f7ef87"/><g fill="#efd176"><path d="m181.625 169.640625c-43.976562 16.234375-73.667969 60.757813-78.550781 121.519531-6.4375 80.128906 23.605469 139.945313 116.496093 140.277344-112.746093-68.980469-82.511718-193.441406-37.945312-261.796875zm0 0"/><path d="m231.730469 262.339844c-1.917969 0-3.839844-.730469-5.304688-2.195313l-6.082031-6.082031-6.085938 6.082031c-2.925781 2.925781-7.675781 2.929688-10.605468 0-2.929688-2.929687-2.929688-7.679687 0-10.609375l11.386718-11.386718c2.929688-2.925782 7.679688-2.925782 10.605469 0l11.386719 11.386718c2.933594 2.929688 2.933594 7.679688.003906 10.609375-1.464844 1.460938-3.386718 2.195313-5.304687 2.195313zm0 0"/><path d="m296.828125 262.339844c-1.917969 0-3.839844-.730469-5.304687-2.195313l-6.082032-6.082031-6.085937 6.082031c-2.925781 2.929688-7.675781 2.925781-10.605469 0-2.929688-2.929687-2.929688-7.679687.003906-10.609375l11.386719-11.386718c2.925781-2.925782 7.675781-2.925782 10.605469 0l11.386718 11.386718c2.929688 2.929688 2.929688 7.679688 0 10.609375-1.464843 1.460938-3.386718 2.195313-5.304687 2.195313zm0 0"/><path d="m166.632812 262.339844c-1.921874 0-3.839843-.730469-5.304687-2.195313l-6.082031-6.082031-6.082032 6.082031c-2.929687 2.925781-7.679687 2.929688-10.609374 0-2.929688-2.929687-2.929688-7.679687 0-10.609375l11.386718-11.386718c2.929688-2.925782 7.675782-2.925782 10.605469 0l11.386719 11.386718c2.929687 2.929688 2.929687 7.679688 0 10.609375-1.464844 1.460938-3.382813 2.195313-5.300782 2.195313zm0 0"/><path d="m264.277344 395.796875c-1.917969 0-3.835938-.734375-5.300782-2.199219l-6.082031-6.082031-6.085937 6.085937c-2.929688 2.925782-7.675782 2.925782-10.605469 0-2.929687-2.929687-2.929687-7.679687 0-10.609374l11.386719-11.386719c1.40625-1.40625 3.3125-2.195313 5.304687-2.195313 1.988281 0 3.898438.789063 5.304688 2.195313l11.386719 11.386719c2.925781 2.929687 2.925781 7.679687-.003907 10.609374-1.464843 1.460938-3.382812 2.195313-5.304687 2.195313zm0 0"/><path d="m199.179688 395.796875c-1.917969 0-3.839844-.734375-5.300782-2.199219l-6.085937-6.082031-6.082031 6.085937c-2.929688 2.925782-7.679688 2.925782-10.605469 0-2.929688-2.929687-2.929688-7.679687 0-10.609374l11.386719-11.386719c1.40625-1.40625 3.3125-2.195313 5.300781-2.195313s3.898437.789063 5.304687 2.195313l11.386719 11.386719c2.929687 2.929687 2.929687 7.679687 0 10.609374-1.464844 1.460938-3.386719 2.195313-5.304687 2.195313zm0 0"/></g><path d="m172.722656 335.308594c0-12.246094-12.46875-22.171875-27.847656-22.171875s-27.84375 9.925781-27.84375 22.171875c0 12.25 12.464844 22.175781 27.84375 22.175781s27.847656-9.925781 27.847656-22.175781zm0 0" fill="#eda1ab"/><path d="m323.65625 335.308594c0-12.246094-12.46875-22.171875-27.847656-22.171875s-27.84375 9.925781-27.84375 22.171875c0 12.25 12.464844 22.175781 27.84375 22.175781s27.847656-9.925781 27.847656-22.175781zm0 0" fill="#eda1ab"/><path d="m161.105469 320.402344c-7.675781 0-14.972657-3.324219-20.023438-9.117188-2.722656-3.121094-2.394531-7.859375.726563-10.582031 3.125-2.71875 7.863281-2.394531 10.582031.726563 2.199219 2.523437 5.375 3.972656 8.714844 3.972656 3.335937 0 6.511719-1.445313 8.710937-3.96875 2.722656-3.125 7.457032-3.449219 10.582032-.730469 3.125 2.722656 3.449218 7.460937.726562 10.582031-5.046875 5.792969-12.347656 9.117188-20.019531 9.117188zm0 0" fill="#4e5660"/><path d="m279.582031 320.402344c-7.675781 0-14.972656-3.324219-20.023437-9.117188-2.71875-3.121094-2.394532-7.859375.726562-10.582031s7.859375-2.394531 10.582032.726563c2.199218 2.523437 5.378906 3.972656 8.714843 3.972656 3.339844 0 6.511719-1.445313 8.714844-3.96875 2.71875-3.125 7.457031-3.449219 10.578125-.730469 3.125 2.722656 3.449219 7.460937.730469 10.582031-5.050781 5.792969-12.347657 9.117188-20.023438 9.117188zm0 0" fill="#4e5660"/><path d="m231.453125 325.96875c0-6.542969-4.976563-11.847656-11.109375-11.847656-6.136719 0-11.109375 5.304687-11.109375 11.847656s4.972656 11.847656 11.109375 11.847656c6.132812 0 11.109375-5.304687 11.109375-11.847656zm0 0" fill="#4e5660"/><path d="m220.34375 90.953125c-21.242188 0-41.417969-3.773437-56.808594-10.621094-25.308594-11.261719-29.085937-26.671875-29.085937-34.855469 0-8.1875 3.777343-23.597656 29.085937-34.859374 15.390625-6.84375 35.566406-10.617188 56.808594-10.617188s41.414062 3.773438 56.804688 10.617188c25.3125 11.261718 29.089843 26.671874 29.089843 34.859374 0 8.183594-3.777343 23.59375-29.089843 34.855469-15.390626 6.847657-35.5625 10.621094-56.804688 10.621094zm0-64.800781c-41.121094 0-59.746094 14.824218-59.746094 19.324218s18.625 19.324219 59.746094 19.324219 59.742188-14.824219 59.742188-19.324219-18.621094-19.324218-59.742188-19.324218zm0 0" fill="#f7ef87"/><path d="m220.34375 26.152344c41.121094 0 59.742188 14.824218 59.742188 19.324218 10.410156-28.65625-38.539063-34.515624-59.742188-34.515624s-70.15625 5.859374-59.746094 34.515624c0-4.5 18.625-19.324218 59.746094-19.324218zm0 0" fill="#efd176"/></svg>