<svg height="512pt" viewBox="-28 0 512 512.00025" width="512pt" xmlns="http://www.w3.org/2000/svg"><path d="m131.695312 490.230469c-8.816406 0-16.101562-7.003907-16.378906-15.878907-1.121094-35.6875 23.695313-87.207031 51.070313-106.007812 7.460937-5.128906 17.667969-3.234375 22.796875 4.230469 5.128906 7.464843 3.234375 17.671875-4.230469 22.800781-16.800781 11.539062-37.695313 51.410156-36.863281 77.945312.285156 9.050782-6.820313 16.621094-15.871094 16.902344-.175781.007813-.351562.007813-.523438.007813zm0 0" fill="#efd176"/><path d="m261.519531 512c-2.023437 0-4.085937-.378906-6.082031-1.175781-8.410156-3.363281-12.496094-12.90625-9.132812-21.3125 9.519531-23.804688 2.988281-72.488281-2.648438-84.953125-3.730469-8.253906-.0625-17.964844 8.1875-21.695313 8.253906-3.730469 17.964844-.0625 21.695312 8.1875 8.644532 19.128907 16.625 77.101563 3.210938 110.640625-2.566406 6.40625-8.722656 10.308594-15.230469 10.308594zm0 0" fill="#efd176"/><path d="m392.125 396.167969c-8.636719 0-15.878906-1.695313-21.21875-3.554688-27.640625-9.609375-47.816406-37.257812-52.65625-72.148437-1.246094-8.96875 5.019531-17.25 13.988281-18.492188 8.972657-1.253906 17.25 5.019532 18.492188 13.988282 3.09375 22.285156 15.238281 40.21875 30.945312 45.679687 9.957031 3.460937 26.152344 3.441406 46.777344-16.300781 6.542969-6.261719 16.921875-6.035156 23.179687.503906 6.265626 6.542969 6.039063 16.921875-.503906 23.183594-22.28125 21.332031-43.027344 27.140625-59.003906 27.140625zm0 0" fill="#efd176"/><path d="m131.507812 302.597656c-1.789062 0-3.609374-.296875-5.390624-.917968-53.785157-18.71875-78.6875-49.351563-103.527344-95.9375-4.257813-7.992188-1.234375-17.921876 6.753906-22.183594 7.992188-4.257813 17.925781-1.234375 22.183594 6.753906 25.121094 47.109375 45.863281 66.648438 85.367187 80.398438 8.554688 2.976562 13.074219 12.324218 10.097657 20.875-2.359376 6.769531-8.703126 11.011718-15.484376 11.011718zm0 0" fill="#efd176"/><path d="m225.277344 75.191406c18.714844 26.722656 16.367187 62.78125 13.558594 81-1.023438 6.621094-7.367188 11.0625-13.9375 9.761719-18.085938-3.589844-52.769532-13.71875-71.480469-40.445313-18.714844-26.726562-16.371094-62.78125-13.558594-81.003906 1.023437-6.621094 7.367187-11.0625 13.9375-9.757812 18.085937 3.589844 52.769531 13.71875 71.480469 40.445312zm0 0" fill="#8ee2cf"/><path d="m200.574219 123.875c-2.363281 0-4.691407-1.113281-6.148438-3.199219l-22.441406-32.050781c-2.378906-3.394531-1.554687-8.070312 1.839844-10.445312s8.070312-1.550782 10.445312 1.84375l22.441407 32.050781c2.378906 3.394531 1.554687 8.070312-1.839844 10.445312-1.308594.917969-2.808594 1.355469-4.296875 1.355469zm0 0" fill="#6fce91"/><path d="m314.0625 90.84375c-26.726562 18.714844-36.855469 53.398438-40.445312 71.480469-1.300782 6.570312 3.140624 12.917969 9.761718 13.9375 18.21875 2.8125 54.277344 5.15625 81-13.554688 26.726563-18.714843 36.855469-53.398437 40.445313-71.480469 1.300781-6.574218-3.140625-12.917968-9.761719-13.9375-18.21875-2.8125-54.273438-5.15625-81 13.554688zm0 0" fill="#8ee2cf"/><path d="m323.203125 145.5c-2.367187 0-4.691406-1.117188-6.152344-3.199219-2.375-3.394531-1.550781-8.070312 1.84375-10.445312l32.050781-22.441407c3.394532-2.378906 8.070313-1.554687 10.445313 1.839844 2.375 3.394532 1.550781 8.070313-1.84375 10.445313l-32.050781 22.441406c-1.308594.917969-2.808594 1.359375-4.292969 1.359375zm0 0" fill="#6fce91"/><path d="m310.835938 102.152344c-5.664063 32.128906-32.820313 55.96875-47.691407 66.863281-5.402343 3.957031-13.03125 2.613281-16.753906-2.957031-10.25-15.324219-27.613281-47.011719-21.949219-79.140625 5.667969-32.128907 32.820313-55.96875 47.691406-66.863281 5.40625-3.960938 13.03125-2.617188 16.753907 2.953124 10.253906 15.328126 27.613281 47.011719 21.949219 79.144532zm0 0" fill="#8ee2cf"/><path d="m264.25 121.300781c-.433594 0-.871094-.035156-1.308594-.113281-4.082031-.71875-6.804687-4.609375-6.085937-8.6875l6.796875-38.535156c.71875-4.078125 4.605468-6.800782 8.6875-6.082032 4.078125.71875 6.804687 4.609376 6.082031 8.6875l-6.792969 38.535157c-.640625 3.636719-3.808594 6.195312-7.378906 6.195312zm0 0" fill="#6fce91"/><path d="m259.394531 141.277344c66.652344 11.753906 105.039063 72.644531 97.410157 153.261718-7.9375 83.855469-49.914063 140.050782-146.136719 123.082032-96.21875-16.964844-116.445313-84.125-95.222657-165.640625 20.402344-78.363281 77.300782-122.453125 143.949219-110.703125zm0 0" fill="#f7ef87"/><g fill="#efd176"><path d="m218.332031 141.179688c-48.199219 8.730468-86.835937 49.15625-102.886719 110.800781-21.164062 81.289062-1.097656 148.296875 94.433594 165.496093-103.511718-91.449218-49.8125-214.039062 8.453125-276.296874zm0 0"/><path d="m254.441406 245.449219c-2.363281 0-4.691406-1.117188-6.152344-3.199219l-5.347656-7.640625-7.640625 5.351563c-3.394531 2.375-8.070312 1.550781-10.445312-1.84375-2.375-3.394532-1.550781-8.070313 1.84375-10.445313l13.78125-9.652344c3.394531-2.375 8.070312-1.550781 10.445312 1.84375l9.652344 13.78125c2.375 3.394531 1.550781 8.070313-1.84375 10.445313-1.308594.917968-2.808594 1.359375-4.292969 1.359375zm0 0"/><path d="m321.429688 257.261719c-2.363282 0-4.6875-1.117188-6.148438-3.199219l-5.351562-7.640625-7.636719 5.351563c-3.394531 2.375-8.070313 1.550781-10.445313-1.84375-2.378906-3.390626-1.554687-8.070313 1.839844-10.445313l13.785156-9.652344c1.625-1.140625 3.644532-1.589843 5.601563-1.242187 1.960937.347656 3.703125 1.457031 4.84375 3.085937l9.648437 13.785157c2.378906 3.390624 1.550782 8.066406-1.839844 10.441406-1.308593.917968-2.808593 1.359375-4.296874 1.359375zm0 0"/><path d="m187.449219 233.636719c-2.363281 0-4.691407-1.117188-6.152344-3.199219l-5.347656-7.640625-7.640625 5.351563c-3.398438 2.375-8.070313 1.550781-10.445313-1.84375-2.375-3.394532-1.550781-8.070313 1.839844-10.445313l13.785156-9.648437c3.394531-2.378907 8.070313-1.554688 10.445313 1.839843l9.652344 13.785157c2.375 3.390624 1.550781 8.066406-1.84375 10.441406-1.308594.917968-2.808594 1.359375-4.292969 1.359375zm0 0"/><path d="m263.71875 388.691406c-2.363281 0-4.6875-1.117187-6.148438-3.199218l-5.351562-7.640626-7.640625 5.347657c-3.394531 2.378906-8.066406 1.550781-10.445313-1.839844-2.375-3.394531-1.550781-8.070313 1.84375-10.445313l13.785157-9.652343c3.394531-2.378907 8.070312-1.550781 10.445312 1.84375l9.648438 13.78125c2.378906 3.394531 1.550781 8.070312-1.839844 10.445312-1.308594.917969-2.808594 1.359375-4.296875 1.359375zm0 0"/><path d="m196.726562 376.878906c-2.363281 0-4.6875-1.117187-6.148437-3.199218l-5.351563-7.640626-7.636718 5.351563c-3.394532 2.375-8.070313 1.550781-10.445313-1.84375-2.378906-3.394531-1.554687-8.070313 1.839844-10.445313l13.785156-9.648437c3.394531-2.378906 8.066407-1.554687 10.445313 1.839844l9.648437 13.785156c2.378907 3.390625 1.554688 8.066406-1.839843 10.441406-1.308594.917969-2.808594 1.359375-4.296876 1.359375zm0 0"/></g><path d="m230.199219 345.644531c7.910156 1.394531 15.449219-3.886719 16.84375-11.792969l7.175781-40.699218-28.636719-5.050782-7.175781 40.703126c-1.394531 7.90625 3.886719 15.445312 11.792969 16.839843zm0 0" fill="#fff"/><path d="m181.183594 298.335938c2.222656-12.601563-8.808594-25.078126-24.632813-27.871094-15.824219-2.789063-30.457031 5.167968-32.679687 17.769531-2.21875 12.605469 8.808594 25.082031 24.632812 27.871094 15.828125 2.789062 30.457032-5.164063 32.679688-17.769531zm0 0" fill="#eda1ab"/><path d="m279.171875 315.652344c-2.222656 12.601562 8.804687 25.082031 24.632813 27.871094 15.824218 2.789062 30.457031-5.164063 32.675781-17.769532 2.222656-12.601562-8.804688-25.082031-24.632813-27.871094-15.824218-2.789062-30.457031 5.167969-32.675781 17.769532zm0 0" fill="#eda1ab"/><path d="m162.066406 274.699219c-.433594 0-.871094-.039063-1.3125-.117188-4.078125-.71875-6.800781-4.609375-6.082031-8.6875l2.167969-12.300781c.71875-4.078125 4.605468-6.804688 8.6875-6.082031 4.082031.71875 6.804687 4.609375 6.085937 8.6875l-2.171875 12.300781c-.640625 3.640625-3.804687 6.199219-7.375 6.199219zm0 0" fill="#4e5660"/><path d="m256.371094 293.53125c2.519531-14.277344-7.589844-17.445312-20.347656-19.695312-12.761719-2.25-23.339844-2.730469-25.859376 11.546874-2.515624 14.277344 5.785157 27.675782 18.546876 29.925782 12.757812 2.25 25.144531-7.5 27.660156-21.777344zm0 0" fill="#4e5660"/><path d="m307.808594 300.398438c-.433594 0-.871094-.039063-1.3125-.117188-4.078125-.71875-6.800782-4.609375-6.082032-8.6875l2.167969-12.300781c.722657-4.078125 4.609375-6.800781 8.6875-6.082031 4.082031.71875 6.804688 4.609374 6.085938 8.6875l-2.171875 12.300781c-.640625 3.636719-3.804688 6.199219-7.375 6.199219zm0 0" fill="#4e5660"/><path d="m98.554688 85.292969c4.636718-44.324219-6.835938-80.421875-31.984376-84.859375-25.148437-4.433594-48.273437 25.566406-59.082031 68.800781-4.269531 17.089844-.828125 33.019531 12.800781 43.214844 5.382813 4.027343 7.757813 10.941406 6.207032 17.480469l-25.855469 109c-3.125 13.183593 5.488281 26.277343 18.828125 28.632812 13.34375 2.351562 25.914062-7.007812 27.484375-20.464844l12.988281-111.269531c.777344-6.675781 5.375-12.359375 11.808594-14.304687 16.292969-4.921876 24.976562-18.710938 26.804688-36.230469zm0 0" fill="#a3defe"/><path d="m211.230469 442.921875c31.222656-17.898437 115.242187-4.632813 139.78125-90.109375 2.089843-7.285156-4.378907-14.160156-11.792969-12.621094-46.386719 9.644532-81.472656 10.667969-115.710938 4.628906-34.238281-6.035156-66.859374-18.996093-107.148437-43.921874-6.445313-3.988282-14.871094.265624-15.398437 7.820312-6.175782 88.714844 77.3125 104.988281 100.527343 132.488281 2.425781 2.871094 6.480469 3.585938 9.742188 1.714844zm0 0" fill="#fcf2d0"/><path d="m167.804688 328.105469c-16.136719-6.882813-32.984376-15.785157-51.445313-27.207031-6.445313-3.988282-14.875.265624-15.398437 7.820312-6.175782 88.714844 77.3125 104.988281 100.527343 132.488281 2.425781 2.871094 6.480469 3.585938 9.742188 1.714844 2.453125-1.402344 5.226562-2.617187 8.273437-3.699219-52.996094-28.929687-53.289062-78.074218-51.699218-111.117187zm0 0" fill="#f6e3a3"/><path d="m184.144531 334.46875-7.628906 43.246094c14.105469 5.910156 27.550781 10.085937 39.054687 12.117187 11.507813 2.027344 25.566407 2.703125 40.84375 1.96875l7.625-43.246093c-14.03125-.140626-27.347656-1.40625-40.53125-3.734376-13.183593-2.324218-26.128906-5.6875-39.363281-10.351562zm0 0" fill="#e26e7e"/><path d="m176.515625 377.714844c-25.34375-10.621094-52.832031-26.871094-75.113281-46.480469 5.503906 46.984375 39.894531 69.328125 68.03125 86.648437zm0 0" fill="#e26e7e"/><path d="m174.519531 389.054688c-1.71875-4.636719-3.046875-9.316407-4.066406-13.984376-23.605469-10.585937-48.53125-25.777343-69.050781-43.835937 5.503906 46.984375 39.894531 69.328125 68.03125 86.648437zm0 0" fill="#d9495d"/><path d="m256.414062 391.800781c27.445313-1.3125 58.832032-7.175781 86.480469-17.984375-21.238281 42.269532-61.199219 51.503906-93.5625 58.152344zm0 0" fill="#e26e7e"/><path d="m49.375 97.941406c12.242188 2.160156 24.722656-5.398437 26.355469-19.851562 3.078125-27.246094-1.320313-50.550782-13.558594-52.707032-12.242187-2.160156-24.34375 18.234376-30.769531 44.890626-3.410156 14.140624 5.734375 25.511718 17.972656 27.667968zm0 0" fill="#7acefa"/></svg>