<svg height="512pt" viewBox="-88 0 512 512.00025" width="512pt" xmlns="http://www.w3.org/2000/svg"><path d="m85.390625 498.347656c-3.398437 0-6.835937-.988281-9.863281-3.042968-8.019532-5.453126-10.101563-16.378907-4.648438-24.40625 33.761719-49.648438 53.652344-60.058594 69.636719-68.421876 4.304687-2.25 8.023437-4.199218 11.554687-6.796874 7.8125-5.75 18.808594-4.078126 24.5625 3.738281 5.75 7.8125 4.078126 18.808593-3.738281 24.558593-5.6875 4.1875-10.976562 6.957032-16.089843 9.632813-13.15625 6.882813-28.066407 14.683594-56.871094 57.046875-3.398438 4.996094-8.921875 7.691406-14.542969 7.691406zm0 0" fill="#efd176"/><path d="m177.824219 512c-1.769531 0-3.570313-.269531-5.347657-.835938-9.242187-2.953124-14.34375-12.835937-11.390624-22.078124 12.027343-37.671876 52.441406-75.84375 69.261718-90.507813 7.3125-6.375 18.410156-5.617187 24.785156 1.695313s5.617188 18.410156-1.695312 24.785156c-23.464844 20.460937-51.257812 50.832031-58.882812 74.710937-2.386719 7.46875-9.292969 12.230469-16.730469 12.230469zm0 0" fill="#efd176"/><path d="m41.898438 379.328125c-1.910157 0-3.851563-.3125-5.757813-.972656-9.167969-3.179688-14.019531-13.1875-10.839844-22.355469 10.097657-29.101562 17.460938-48.335938 40.609375-75.902344 6.242188-7.429687 17.320313-8.394531 24.75-2.152344 7.429688 6.238282 8.394532 17.320313 2.15625 24.746094-19.261718 22.9375-25.015625 38.003906-34.324218 64.824219-2.515626 7.257813-9.320313 11.8125-16.59375 11.8125zm0 0" fill="#efd176"/><path d="m144.410156 70.777344c24.714844 24.71875 28.949219 63.199218 29.375 82.945312.152344 7.175782-5.714844 13.042969-12.890625 12.890625-19.75-.421875-58.226562-4.65625-82.945312-29.375-24.714844-24.714843-28.953125-63.195312-29.375-82.941406-.152344-7.175781 5.714843-13.042969 12.890625-12.890625 19.75.421875 58.226562 4.65625 82.945312 29.371094zm0 0" fill="#8ee2cf"/><path d="m126 126.332031c-1.917969 0-3.839844-.734375-5.304688-2.199219l-29.640624-29.640624c-2.929688-2.929688-2.929688-7.679688 0-10.609376 2.929687-2.925781 7.675781-2.925781 10.605468 0l29.644532 29.644532c2.929687 2.929687 2.929687 7.679687 0 10.605468-1.464844 1.464844-3.382813 2.199219-5.304688 2.199219zm0 0" fill="#6fce91"/><path d="m241 70.777344c-24.71875 24.71875-28.953125 63.199218-29.375 82.945312-.152344 7.175782 5.714844 13.042969 12.890625 12.890625 19.746094-.421875 58.226563-4.65625 82.945313-29.375 24.714843-24.714843 28.949218-63.195312 29.371093-82.941406.15625-7.175781-5.710937-13.042969-12.886719-12.890625-19.75.421875-58.230468 4.65625-82.945312 29.371094zm0 0" fill="#8ee2cf"/><path d="m259.40625 126.332031c-1.917969 0-3.835938-.734375-5.300781-2.199219-2.929688-2.929687-2.929688-7.675781 0-10.605468l29.640625-29.644532c2.929687-2.925781 7.679687-2.925781 10.609375 0 2.925781 2.929688 2.925781 7.679688 0 10.609376l-29.644531 29.640624c-1.464844 1.464844-3.382813 2.199219-5.304688 2.199219zm0 0" fill="#6fce91"/><path d="m239.699219 83.308594c0 34.953125-24.214844 65.15625-37.878907 79.421875-4.96875 5.183593-13.265624 5.183593-18.230468 0-13.664063-14.265625-37.878906-44.46875-37.878906-79.421875s24.214843-65.160156 37.878906-79.421875c4.964844-5.183594 13.261718-5.183594 18.226562 0 13.667969 14.261719 37.882813 44.464843 37.882813 79.421875zm0 0" fill="#8ee2cf"/><path d="m192.703125 111.769531c-4.140625 0-7.5-3.355469-7.5-7.5v-41.921875c0-4.144531 3.359375-7.5 7.5-7.5 4.144531 0 7.5 3.355469 7.5 7.5v41.921875c0 4.140625-3.355469 7.5-7.5 7.5zm0 0" fill="#6fce91"/><path d="m192.703125 134.160156c72.511719 0 124.34375 57.105469 131.289063 143.585938 7.230468 89.953125-26.609376 157.054687-131.289063 157.054687-104.675781 0-138.515625-67.101562-131.289063-157.054687 6.949219-86.480469 58.78125-143.585938 131.289063-143.585938zm0 0" fill="#f7ef87"/><g fill="#efd176"><path d="m149.359375 141.699219c-49.234375 18.175781-82.476563 68.015625-87.945313 136.046875-7.207031 89.703125 26.429688 156.671875 130.425782 157.046875-126.226563-77.230469-92.375-216.566407-42.480469-293.09375zm0 0"/><path d="m205.453125 244.582031c-1.921875 0-3.839844-.734375-5.304687-2.195312l-7.445313-7.445313-7.441406 7.445313c-2.929688 2.925781-7.679688 2.925781-10.609375 0-2.925782-2.929688-2.925782-7.679688 0-10.609375l12.75-12.746094c2.929687-2.929688 7.675781-2.929688 10.605468 0l12.75 12.746094c2.929688 2.929687 2.929688 7.679687 0 10.609375-1.464843 1.460937-3.386718 2.195312-5.304687 2.195312zm0 0"/><path d="m278.332031 244.582031c-1.917969 0-3.839843-.734375-5.304687-2.199219l-7.441406-7.441406-7.445313 7.445313c-2.929687 2.925781-7.675781 2.925781-10.605469 0-2.929687-2.929688-2.929687-7.679688 0-10.609375l12.746094-12.746094c1.410156-1.40625 3.316406-2.195312 5.304688-2.195312 1.988281 0 3.898437.789062 5.304687 2.195312l12.746094 12.746094c2.929687 2.929687 2.929687 7.679687 0 10.609375-1.464844 1.460937-3.382813 2.195312-5.304688 2.195312zm0 0"/><path d="m132.570312 244.582031c-1.917968 0-3.839843-.734375-5.300781-2.195312l-7.445312-7.445313-7.445313 7.445313c-2.929687 2.925781-7.675781 2.925781-10.605468 0-2.929688-2.929688-2.929688-7.679688 0-10.609375l12.746093-12.746094c2.929688-2.929688 7.679688-2.929688 10.605469 0l12.75 12.746094c2.929688 2.929687 2.929688 7.679687 0 10.609375-1.464844 1.460937-3.386719 2.195312-5.304688 2.195312zm0 0"/><path d="m241.894531 393.992188c-1.921875 0-3.839843-.734376-5.304687-2.199219l-7.445313-7.441407-7.441406 7.441407c-2.929687 2.929687-7.679687 2.929687-10.609375 0-2.925781-2.929688-2.925781-7.675781 0-10.605469l12.75-12.746094c2.929688-2.929687 7.675781-2.929687 10.605469 0l12.746093 12.746094c2.929688 2.929688 2.929688 7.679688 0 10.605469-1.464843 1.464843-3.382812 2.199219-5.300781 2.199219zm0 0"/><path d="m169.011719 393.992188c-1.917969 0-3.839844-.734376-5.300781-2.199219l-7.445313-7.441407-7.445313 7.441407c-2.929687 2.929687-7.675781 2.929687-10.605468 0-2.929688-2.929688-2.929688-7.675781 0-10.605469l12.746094-12.746094c2.929687-2.929687 7.679687-2.929687 10.605468 0l12.75 12.746094c2.929688 2.929688 2.929688 7.679688 0 10.605469-1.464844 1.464843-3.386718 2.199219-5.304687 2.199219zm0 0"/></g><path d="m128.652344 327.171875c0-13.710937-13.957032-24.828125-31.175782-24.828125s-31.175781 11.117188-31.175781 24.828125 13.957031 24.824219 31.175781 24.824219 31.175782-11.113282 31.175782-24.824219zm0 0" fill="#eda1ab"/><path d="m297.628906 327.171875c0-13.710937-13.957031-24.828125-31.175781-24.828125-17.214844 0-31.175781 11.117188-31.175781 24.828125s13.960937 24.824219 31.175781 24.824219c17.21875 0 31.175781-11.113282 31.175781-24.824219zm0 0" fill="#eda1ab"/><path d="m115.644531 309.902344c-4.140625 0-7.5-3.355469-7.5-7.5v-11.007813c0-4.140625 3.359375-7.5 7.5-7.5 4.144531 0 7.5 3.359375 7.5 7.5v11.007813c0 4.144531-3.359375 7.5-7.5 7.5zm0 0" fill="#4e5660"/><path d="m248.285156 309.902344c-4.140625 0-7.5-3.355469-7.5-7.5v-11.007813c0-4.140625 3.359375-7.5 7.5-7.5 4.144532 0 7.5 3.359375 7.5 7.5v11.007813c0 4.144531-3.355468 7.5-7.5 7.5zm0 0" fill="#4e5660"/><path d="m181.964844 318.359375c-8.867188 0-17.304688-3.84375-23.140625-10.539063-2.71875-3.125-2.394531-7.859374.730469-10.582031 3.121093-2.722656 7.859374-2.398437 10.578124.726563 2.988282 3.425781 7.300782 5.394531 11.832032 5.394531s8.84375-1.96875 11.832031-5.394531c2.71875-3.125 7.457031-3.449219 10.578125-.726563 3.125 2.722657 3.449219 7.457031.730469 10.582031-5.835938 6.699219-14.269531 10.539063-23.140625 10.539063zm0 0" fill="#4e5660"/><path d="m185.246094 454.652344h-148.132813c-9.726562 0-17.613281-7.886719-17.613281-17.613282v-89.210937c0-9.726563 7.886719-17.613281 17.613281-17.613281h148.132813c9.726562 0 17.613281 7.886718 17.613281 17.613281v89.210937c0 9.730469-7.886719 17.613282-17.613281 17.613282zm0 0" fill="#8eafe2"/><path d="m37.113281 330.214844c-9.726562 0-17.613281 7.886718-17.613281 17.613281v89.210937c0 9.730469 7.886719 17.613282 17.613281 17.613282h78.625c-35.402343-20.40625-40.929687-90.597656-38.523437-124.4375zm0 0" fill="#6a96d7"/><path d="m96.234375 330.214844h29.890625v124.4375h-29.890625zm0 0" fill="#a3defe"/><path d="m96.234375 454.652344h19.503906c-7.910156-4.558594-14.332031-11.601563-19.503906-20.175782zm0 0" fill="#7acefa"/><path d="m173.339844 363.074219h-17.695313c-4.144531 0-7.5-3.359375-7.5-7.5 0-4.144531 3.355469-7.5 7.5-7.5h17.695313c4.140625 0 7.5 3.355469 7.5 7.5 0 4.140625-3.359375 7.5-7.5 7.5zm0 0" fill="#fff"/><path d="m23.660156 405.382812c-2.195312 0-4.429687-.417968-6.589844-1.292968-3.082031-1.246094-5.667968-2.449219-7.902343-3.664063-8.519531-4.640625-11.664063-15.308593-7.023438-23.828125 4.640625-8.519531 15.308594-11.667968 23.828125-7.027344.714844.390626 2.039063 1.046876 4.292969 1.957032 8.992187 3.644531 13.328125 13.890625 9.679687 22.878906-2.765624 6.832031-9.34375 10.976562-16.285156 10.976562zm0 0" fill="#efd176"/><path d="m191.820312 408.355469c-8.351562 0-15.757812-5.980469-17.273437-14.492188-1.703125-9.550781 4.664063-18.675781 14.214844-20.375 27.941406-4.976562 82.570312-21.441406 110.09375-51.601562 6.539062-7.167969 17.648437-7.675781 24.816406-1.136719 7.167969 6.542969 7.675781 17.652344 1.136719 24.820312-41.707032 45.699219-120.984375 60.921876-129.886719 62.507813-1.042969.183594-2.078125.277344-3.101563.277344zm0 0" fill="#efd176"/></svg>