<svg height="512pt" viewBox="0 0 512 512.0005" width="512pt" xmlns="http://www.w3.org/2000/svg"><path d="m488.148438 124.265625 17.496093-11.539063c8.472657-5.589843 8.472657-18.019531 0-23.609374l-17.496093-11.539063c-4.828126-3.183594-7.226563-8.984375-6.066407-14.644531l4.210938-20.53125c2.042969-9.945313-6.75-18.734375-16.691407-16.695313l-20.535156 4.210938c-5.660156 1.164062-11.460937-1.238281-14.644531-6.066407l-11.539063-17.496093c-5.589843-8.472657-18.019531-8.472657-23.609374 0l-11.539063 17.496093c-3.183594 4.828126-8.984375 7.230469-14.644531 6.066407l-20.535156-4.210938c-9.941407-2.042969-18.730469 6.75-16.691407 16.691407l4.210938 20.53125c1.164062 5.664062-1.238281 11.464843-6.066407 14.648437l-17.496093 11.539063c-8.472657 5.589843-8.472657 18.019531 0 23.609374l17.496093 11.539063c4.828126 3.183594 7.230469 8.984375 6.066407 14.644531l-4.210938 20.535156c-2.039062 9.941407 6.75 18.730469 16.691407 16.691407l20.535156-4.210938c5.660156-1.164062 11.460937 1.238281 14.644531 6.066407l11.539063 17.496093c5.589843 8.472657 18.019531 8.472657 23.609374 0l11.539063-17.496093c3.183594-4.828126 8.984375-7.230469 14.644531-6.066407l20.535156 4.210938c9.941407 2.039062 18.730469-6.75 16.691407-16.691407l-4.210938-20.535156c-1.164062-5.660156 1.238281-11.460937 6.066407-14.644531zm0 0" fill="#e26e7e"/><path d="m471.039062 100.921875c0 33.117187-26.84375 59.960937-59.960937 59.960937s-59.960937-26.84375-59.960937-59.960937c0-33.113281 26.84375-59.960937 59.960937-59.960937s59.960937 26.847656 59.960937 59.960937zm0 0" fill="#f7ef87"/><path d="m352.753906 317.160156c-3.855468 0-7.722656-1.371094-10.808594-4.15625-6.617187-5.972656-7.136718-16.175781-1.167968-22.792968 9.570312-10.597657 10.589844-27.292969 2.425781-39.691407-11.460937-17.402343-37.652344-21.199219-70.058594-10.167969-8.4375 2.878907-17.605469-1.636718-20.480469-10.074218-2.871093-8.433594 1.640626-17.601563 10.074219-20.476563 47.203125-16.074219 87.359375-7.488281 107.417969 22.964844 16.121094 24.480469 13.839844 57.730469-5.417969 79.070313-3.1875 3.53125-7.578125 5.324218-11.984375 5.324218zm0 0" fill="#efd176"/><path d="m418.765625 510.347656c-2.53125 0-5.09375-.59375-7.488281-1.851562-16.632813-8.730469-46.0625-13.957032-69.710938-18.160156-32.984375-5.855469-46.636718-8.640626-53.285156-18.84375-4.867188-7.464844-2.761719-17.464844 4.707031-22.332032 6.488281-4.226562 14.882813-3.191406 20.167969 2.054688 5.222656 2.226562 21.78125 5.167968 34.054688 7.347656 25.84375 4.589844 58.003906 10.300781 79.066406 21.359375 7.894531 4.144531 10.933594 13.898437 6.789062 21.789063-2.886718 5.496093-8.496094 8.636718-14.300781 8.636718zm0 0" fill="#efd176"/><path d="m457.09375 465.25c-7.660156 0-14.457031-5.472656-15.863281-13.277344-3.476563-19.292968-13.226563-28.546875-20.792969-32.914062-13.855469-7.992188-34.023438-7.59375-58.320312 1.15625-8.386719 3.019531-17.632813-1.328125-20.652344-9.714844-3.019532-8.382812 1.332031-17.628906 9.714844-20.648438 23.375-8.417968 57.164062-15.03125 85.386718 1.253907 19.0625 11 31.996094 30.582031 36.425782 55.140625 1.582031 8.769531-4.246094 17.164062-13.015626 18.746094-.96875.171874-1.933593.257812-2.882812.257812zm0 0" fill="#efd176"/><path d="m118.292969 512c-7.226563 0-14.832031-.613281-22.816407-1.84375-8.808593-1.355469-14.851562-9.59375-13.496093-18.402344s9.597656-14.851562 18.40625-13.496094c23.035156 3.542969 40.808593.667969 52.832031-8.558593 13.9375-10.695313 18.59375-28.773438 20.046875-42.050781.96875-8.859376 8.945313-15.253907 17.796875-14.289063 8.859375.96875 15.253906 8.9375 14.285156 17.796875-3.0625 28.007812-14.292968 50.1875-32.480468 64.144531-14.480469 11.113281-32.773438 16.699219-54.574219 16.699219zm0 0" fill="#efd176"/><path d="m76.523438 251.546875c32.109374 0 59.855468 22.242187 72.957031 34.796875 4.757812 4.558594 4.757812 12.183594 0 16.742188-13.101563 12.554687-40.847657 34.796874-72.957031 34.796874-32.105469 0-59.851563-22.242187-72.953126-34.796874-4.761718-4.558594-4.761718-12.179688 0-16.742188 13.101563-12.554688 40.84375-34.796875 72.953126-34.796875zm0 0" fill="#8ee2cf"/><path d="m95.777344 302.214844h-38.507813c-4.140625 0-7.5-3.355469-7.5-7.5 0-4.140625 3.359375-7.5 7.5-7.5h38.507813c4.144531 0 7.5 3.359375 7.5 7.5 0 4.144531-3.355469 7.5-7.5 7.5zm0 0" fill="#6fce91"/><path d="m139.261719 188.808594c0 32.109375 22.246093 59.851562 34.796875 72.953125 4.5625 4.761719 12.183594 4.761719 16.746094 0 12.550781-13.101563 34.796874-40.84375 34.796874-72.953125s-22.246093-59.851563-34.796874-72.953125c-4.5625-4.761719-12.183594-4.761719-16.746094 0-12.550782 13.101562-34.796875 40.84375-34.796875 72.953125zm0 0" fill="#8ee2cf"/><path d="m182.429688 215.5625c-4.140626 0-7.5-3.355469-7.5-7.5l.003906-38.507812c0-4.140626 3.355468-7.5 7.5-7.5 4.140625 0 7.5 3.359374 7.5 7.5l-.003906 38.507812c0 4.140625-3.359376 7.5-7.5 7.5zm0 0" fill="#6fce91"/><path d="m146.554688 197.792969c22.707031 22.703125 26.59375 58.046875 26.984374 76.191406.140626 6.589844-5.25 11.980469-11.839843 11.839844-18.140625-.390625-53.488281-4.28125-76.191407-26.984375-22.703124-22.703125-26.59375-58.050782-26.984374-76.191406-.140626-6.589844 5.25-11.980469 11.839843-11.839844 18.144531.390625 53.488281 4.277344 76.191407 26.984375zm0 0" fill="#8ee2cf"/><path d="m129.648438 249.429688c-1.921876 0-3.839844-.730469-5.304688-2.195313l-27.230469-27.230469c-2.925781-2.929687-2.925781-7.675781 0-10.605468 2.929688-2.929688 7.679688-2.929688 10.609375 0l27.226563 27.226562c2.929687 2.929688 2.929687 7.679688 0 10.609375-1.464844 1.464844-3.382813 2.195313-5.300781 2.195313zm0 0" fill="#6fce91"/><path d="m149.0625 261.347656c47.097656-47.097656 117.855469-43.671875 178.539062 7.984375 63.125 53.734375 84.726563 119.296875 16.738282 187.289063-67.992188 67.992187-133.558594 46.386718-187.289063-16.734375-51.660156-60.683594-55.085937-131.441407-7.988281-178.539063zm0 0" fill="#f7ef87"/><g fill="#efd176"><path d="m125.804688 294.398438c-20.171876 43.78125-9.394532 97.75 31.242187 145.488281 53.585937 62.945312 118.933594 84.597656 186.722656 17.289062-132.148437 31.828125-200.667969-80.664062-217.964843-162.777343zm0 0"/><path d="m207.632812 343.976562c-4.140624 0-7.5-3.355468-7.5-7.5v-16.558593c0-4.144531 3.359376-7.5 7.5-7.5h16.558594c4.144532 0 7.5 3.355469 7.5 7.5 0 4.140625-3.355468 7.5-7.5 7.5h-9.058594v9.058593c0 4.144532-3.359374 7.5-7.5 7.5zm0 0"/><path d="m254.972656 296.636719c-4.144531 0-7.5-3.355469-7.5-7.5v-16.558594c0-4.144531 3.355469-7.5 7.5-7.5h16.558594c4.140625 0 7.5 3.355469 7.5 7.5 0 4.140625-3.359375 7.5-7.5 7.5h-9.058594v9.058594c0 4.144531-3.359375 7.5-7.5 7.5zm0 0"/><path d="m160.292969 391.316406c-4.140625 0-7.5-3.359375-7.5-7.5v-16.5625c0-4.140625 3.359375-7.5 7.5-7.5h16.5625c4.140625 0 7.5 3.359375 7.5 7.5 0 4.144532-3.359375 7.5-7.5 7.5h-9.0625v9.0625c0 4.140625-3.355469 7.5-7.5 7.5zm0 0"/><path d="m328.347656 417.355469c-4.140625 0-7.5-3.359375-7.5-7.5v-16.5625c0-4.140625 3.359375-7.5 7.5-7.5h16.5625c4.140625 0 7.5 3.359375 7.5 7.5 0 4.144531-3.359375 7.5-7.5 7.5h-9.0625v9.0625c0 4.140625-3.355468 7.5-7.5 7.5zm0 0"/><path d="m281.011719 464.691406c-4.144531 0-7.5-3.355468-7.5-7.5v-16.558594c0-4.144531 3.355469-7.5 7.5-7.5h16.558593c4.140626 0 7.5 3.355469 7.5 7.5 0 4.140626-3.359374 7.5-7.5 7.5h-9.058593v9.058594c0 4.144532-3.359375 7.5-7.5 7.5zm0 0"/></g><path d="m239.792969 421.339844c-8.902344-8.902344-25.191407-7.058594-36.371094 4.125-11.183594 11.183594-13.03125 27.46875-4.125 36.375s25.191406 7.058594 36.375-4.125 13.027344-27.46875 4.121094-36.375zm0 0" fill="#eda1ab"/><path d="m309.0625 352.082031c8.90625 8.90625 25.191406 7.0625 36.375-4.121093 11.183594-11.183594 13.027344-27.46875 4.125-36.375-8.90625-8.90625-25.191406-7.058594-36.375 4.125-11.183594 11.179687-13.03125 27.46875-4.125 36.371093zm0 0" fill="#eda1ab"/><path d="m215.265625 421.203125c-1.917969 0-3.839844-.730469-5.304687-2.195313l-7.148438-7.148437c-2.929688-2.933594-2.929688-7.679687 0-10.609375 2.929688-2.925781 7.675781-2.925781 10.605469 0l7.152343 7.152344c2.925782 2.929687 2.925782 7.675781 0 10.605468-1.464843 1.464844-3.386718 2.195313-5.304687 2.195313zm0 0" fill="#4e5660"/><path d="m301.421875 335.050781c-1.921875 0-3.839844-.734375-5.304687-2.199219l-7.148438-7.148437c-2.929688-2.929687-2.929688-7.675781 0-10.605469 2.925781-2.929687 7.675781-2.929687 10.605469 0l7.148437 7.148438c2.929688 2.929687 2.929688 7.679687 0 10.605468-1.464844 1.464844-3.382812 2.199219-5.300781 2.199219zm0 0" fill="#4e5660"/><path d="m248.769531 389.851562c-.65625 0-1.316406-.023437-1.980469-.066406-4.132812-.285156-7.253906-3.867187-6.96875-7.996094.285157-4.132812 3.871094-7.242187 7.996094-6.96875 3.996094.269532 7.894532-1.1875 10.714844-4.003906 2.820312-2.820312 4.277344-6.726562 4.003906-10.714844-.285156-4.132812 2.835938-7.714843 6.96875-7.996093 4.125-.265625 7.710938 2.835937 7.996094 6.96875.570312 8.316406-2.476562 16.460937-8.363281 22.347656-5.417969 5.414063-12.75 8.429687-20.367188 8.429687zm0 0" fill="#4e5660"/><path d="m200.753906 387.613281-18.457031 18.460938c-7.757813 7.753906-6.386719 20.683593 2.824219 26.640625l5.789062 3.746094c9.730469 6.292968 22.539063 4.9375 30.734375-3.257813l6.238281-6.242187c8.195313-8.195313 9.554688-21 3.257813-30.734376l-3.742187-5.789062c-5.957032-9.207031-18.886719-10.578125-26.644532-2.824219zm0 0" fill="#4e5660"/><path d="m213.914062 390.160156c-1.582031 0-3.179687-.5-4.535156-1.53125-3.296875-2.503906-3.9375-7.210937-1.433594-10.507812 6.042969-7.949219 14.558594-18.652344 26.898438-30.992188s23.042969-20.855468 30.992188-26.898437c3.296874-2.507813 8.003906-1.863281 10.507812 1.433593 2.507812 3.296876 1.867188 8.003907-1.429688 10.507813-7.570312 5.757813-17.761718 13.863281-29.464843 25.5625-11.703125 11.703125-19.804688 21.894531-25.558594 29.464844-1.476563 1.9375-3.714844 2.960937-5.976563 2.960937zm0 0" fill="#e26e7e"/><path d="m204.207031 447.855469c-6.023437.003906-12.070312-1.671875-17.371093-5.097657l-5.789063-3.746093c-6.300781-4.074219-10.367187-10.691407-11.160156-18.152344-.789063-7.460937 1.800781-14.785156 7.105469-20.089844l18.457031-18.460937c5.308593-5.304688 12.628906-7.894532 20.089843-7.101563 7.460938.789063 14.078126 4.855469 18.152344 11.15625l3.746094 5.789063c8.160156 12.617187 6.375 29.484375-4.25 40.109375l-6.242188 6.242187c-6.160156 6.164063-14.425781 9.351563-22.738281 9.351563zm8.714844-57.789063c-2.566406 0-5.023437 1.011719-6.863281 2.851563l-18.457032 18.457031c-2.089843 2.085938-3.105468 4.96875-2.796874 7.902344.3125 2.933594 1.914062 5.535156 4.390624 7.140625l5.789063 3.746093c6.71875 4.34375 15.699219 3.390626 21.355469-2.265624l6.242187-6.242188c5.65625-5.65625 6.609375-14.640625 2.265625-21.355469l-3.746094-5.789062c-1.605468-2.476563-4.207031-4.078125-7.140624-4.390625-.347657-.035156-.695313-.054688-1.039063-.054688zm-12.167969-2.453125h.011719zm0 0" fill="#e26e7e"/><path d="m275.328125 313.039062 18.460937-18.460937c7.753907-7.753906 20.683594-6.382813 26.640626 2.824219l3.746093 5.792968c6.296875 9.730469 4.9375 22.535157-3.257812 30.730469l-6.242188 6.242188c-8.195312 8.195312-21 9.550781-30.730469 3.257812l-5.792968-3.746093c-9.207032-5.957032-10.578125-18.886719-2.824219-26.640626zm0 0" fill="#4e5660"/><path d="m297.238281 354.824219c-6.023437 0-12.070312-1.671875-17.367187-5.101563l-5.792969-3.742187c-6.300781-4.078125-10.367187-10.695313-11.15625-18.15625-.789063-7.460938 1.796875-14.78125 7.105469-20.089844l18.457031-18.457031c5.304687-5.304688 12.628906-7.894532 20.089844-7.105469 7.460937.792969 14.078125 4.859375 18.152343 11.160156l3.746094 5.789063c8.160156 12.617187 6.371094 29.484375-4.253906 40.109375l-6.238281 6.238281c-6.164063 6.164062-14.425781 9.355469-22.742188 9.355469zm-16.605469-36.480469c-2.085937 2.085938-3.105468 4.964844-2.792968 7.898438.308594 2.9375 1.910156 5.539062 4.386718 7.140624l5.792969 3.746094c6.71875 4.347656 15.699219 3.394532 21.355469-2.265625l6.238281-6.238281c5.660157-5.660156 6.613281-14.640625 2.265625-21.359375l-3.746094-5.785156c-1.601562-2.480469-4.203124-4.078125-7.140624-4.390625-2.929688-.316406-5.8125.707031-7.898438 2.792968zm0 0" fill="#e26e7e"/></svg>