<svg height="512pt" viewBox="-50 0 512 512.00004" width="512pt" xmlns="http://www.w3.org/2000/svg"><path d="m107.335938 472.988281c-2.839844 0-5.722657-.714843-8.371094-2.21875-8.160156-4.632812-11.015625-15.003906-6.382813-23.160156 27.605469-48.605469 45.347657-68.074219 65.027344-83.722656 7.339844-5.84375 18.027344-4.625 23.867187 2.71875 5.839844 7.34375 4.621094 18.027343-2.722656 23.867187-24.683594 19.632813-40.871094 46.167969-56.628906 73.914063-3.128906 5.507812-8.875 8.601562-14.789062 8.601562zm0 0" fill="#efd176"/><path d="m247.960938 512c-8.085938 0-15.253907-5.796875-16.707032-14.03125-8.113281-45.882812 6.441406-93.050781 15.273438-111.582031 4.035156-8.46875 14.171875-12.0625 22.640625-8.027344 8.46875 4.039063 12.0625 14.175781 8.027343 22.644531-5.796874 12.167969-19.347656 52.25-12.488281 91.050782 1.632813 9.234374-4.53125 18.046874-13.769531 19.683593-1 .175781-1.996094.261719-2.976562.261719zm0 0" fill="#efd176"/><path d="m92.410156 293.464844c-10.089844 0-19.964844-1.429688-29.191406-4.335938-25.980469-8.191406-47.234375-27.769531-61.464844-56.621094-4.148437-8.414062-.691406-18.601562 7.722656-22.75 8.414063-4.148437 18.597657-.691406 22.746094 7.722657 10.175782 20.628906 24.039063 33.835937 41.207032 39.246093 26.25 8.269532 51.191406-3.652343 58.207031-7.503906 8.226562-4.515625 18.550781-1.507812 23.066406 6.71875 4.511719 8.222656 1.503906 18.546875-6.71875 23.0625-17.359375 9.527344-36.828125 14.460938-55.574219 14.460938zm0 0" fill="#efd176"/><path d="m225.078125 59.476562c19.386719 27.6875 16.957031 65.039063 14.042969 83.917969-1.058594 6.859375-7.628906 11.460938-14.4375 10.109375-18.734375-3.71875-54.667969-14.210937-74.054688-41.898437-19.382812-27.6875-16.957031-65.039063-14.042968-83.917969 1.058593-6.859375 7.632812-11.460938 14.4375-10.109375 18.738281 3.71875 54.667968 14.214844 74.054687 41.898437zm0 0" fill="#8ee2cf"/><path d="m199.488281 109.644531c-2.367187 0-4.691406-1.113281-6.152343-3.199219l-23.25-33.203124c-2.375-3.394532-1.550782-8.070313 1.84375-10.445313 3.390624-2.375 8.066406-1.550781 10.445312 1.839844l23.25 33.207031c2.375 3.390625 1.550781 8.066406-1.84375 10.445312-1.308594.914063-2.808594 1.355469-4.292969 1.355469zm0 0" fill="#6fce91"/><path d="m317.054688 75.695312c-27.683594 19.386719-38.179688 55.316407-41.894532 74.050782-1.351562 6.808594 3.25 13.382812 10.109375 14.441406 18.875 2.914062 56.230469 5.339844 83.914063-14.046875 27.6875-19.382813 38.183594-55.316406 41.898437-74.050781 1.351563-6.808594-3.25-13.378906-10.109375-14.4375-18.875-2.914063-56.230468-5.34375-83.917968 14.042968zm0 0" fill="#8ee2cf"/><path d="m326.523438 132.046875c-2.363282 0-4.691407-1.117187-6.148438-3.199219-2.375-3.394531-1.550781-8.070312 1.839844-10.445312l33.207031-23.25c3.394531-2.378906 8.070313-1.554688 10.445313 1.839844 2.375 3.394531 1.550781 8.070312-1.84375 10.445312l-33.203126 23.25c-1.308593.917969-2.808593 1.359375-4.296874 1.359375zm0 0" fill="#6fce91"/><path d="m313.714844 87.40625c-5.871094 33.285156-34 57.984375-49.40625 69.269531-5.601563 4.101563-13.5 2.710938-17.359375-3.058593-10.617188-15.878907-28.605469-48.707032-22.734375-81.988282 5.867187-33.289062 33.996094-57.984375 49.40625-69.269531 5.597656-4.101563 13.5-2.710937 17.355468 3.058594 10.621094 15.878906 28.605469 48.703125 22.738282 81.988281zm0 0" fill="#8ee2cf"/><path d="m265.453125 106.980469c-.433594 0-.871094-.039063-1.3125-.117188-4.078125-.71875-6.800781-4.609375-6.082031-8.6875l7.039062-39.917969c.71875-4.078124 4.605469-6.808593 8.6875-6.085937 4.082032.71875 6.804688 4.609375 6.085938 8.6875l-7.039063 39.921875c-.644531 3.636719-3.808593 6.199219-7.378906 6.199219zm0 0" fill="#6fce91"/><path d="m260.425781 127.941406c69.046875 12.175782 108.816407 75.257813 100.910157 158.773438-8.222657 86.875-51.710938 145.089844-151.390626 127.515625-99.683593-17.578125-120.636718-87.15625-98.652343-171.601563 21.136719-81.183594 80.085937-126.859375 149.132812-114.6875zm0 0" fill="#f7ef87"/><g fill="#efd176"><path d="m217.882812 127.84375c-49.933593 9.039062-89.960937 50.921875-106.589843 114.785156-21.925781 84.210938-1.136719 153.632813 97.832031 171.445313-107.234375-94.734375-51.605469-221.738281 8.757812-286.230469zm0 0"/><path d="m254.078125 242.464844c-2.363281 0-4.691406-1.113282-6.152344-3.199219l-5.695312-8.136719-8.136719 5.695313c-3.394531 2.378906-8.070312 1.554687-10.445312-1.839844s-1.550782-8.070313 1.84375-10.445313l14.277343-9.996093c3.394531-2.378907 8.070313-1.554688 10.445313 1.839843l10 14.277344c2.375 3.394532 1.550781 8.070313-1.84375 10.445313-1.308594.917969-2.808594 1.359375-4.292969 1.359375zm0 0"/><path d="m323.476562 254.703125c-2.363281 0-4.6875-1.117187-6.148437-3.199219l-5.695313-8.136718-8.136718 5.695312c-3.394532 2.378906-8.070313 1.554688-10.445313-1.839844-2.375-3.394531-1.550781-8.070312 1.839844-10.445312l14.28125-10c1.628906-1.140625 3.644531-1.589844 5.605469-1.242188 1.960937.347656 3.699218 1.457032 4.839844 3.085938l10 14.277344c2.375 3.394531 1.550781 8.070312-1.84375 10.445312-1.308594.917969-2.808594 1.359375-4.296876 1.359375zm0 0"/><path d="m184.675781 230.226562c-2.363281 0-4.691406-1.113281-6.148437-3.199218l-5.699219-8.132813-8.136719 5.695313c-3.390625 2.375-8.070312 1.550781-10.445312-1.84375-2.375-3.394532-1.550782-8.070313 1.84375-10.445313l14.28125-9.996093c3.390625-2.378907 8.066406-1.550782 10.441406 1.839843l10 14.28125c2.375 3.390625 1.550781 8.066407-1.839844 10.445313-1.3125.914062-2.8125 1.355468-4.296875 1.355468zm0 0"/><path d="m264.902344 383.984375c-2.363282 0-4.691406-1.113281-6.148438-3.199219l-5.699218-8.136718-8.132813 5.699218c-3.394531 2.375-8.070313 1.550782-10.445313-1.84375-2.378906-3.390625-1.554687-8.066406 1.839844-10.445312l14.28125-9.996094c1.628906-1.140625 3.644532-1.59375 5.605469-1.242188 1.957031.34375 3.699219 1.453126 4.839844 3.082032l9.996093 14.28125c2.378907 3.390625 1.550782 8.066406-1.839843 10.445312-1.3125.917969-2.8125 1.355469-4.296875 1.355469zm0 0"/><path d="m195.5 371.746094c-2.363281 0-4.691406-1.113282-6.148438-3.195313l-5.699218-8.136719-8.136719 5.695313c-3.390625 2.375-8.066406 1.554687-10.441406-1.839844-2.378907-3.394531-1.554688-8.070312 1.839843-10.445312l14.28125-10c1.628907-1.140625 3.640626-1.589844 5.601563-1.242188 1.960937.34375 3.703125 1.453125 4.839844 3.085938l10 14.277343c2.375 3.394532 1.550781 8.070313-1.84375 10.445313-1.304688.917969-2.804688 1.355469-4.292969 1.355469zm0 0"/></g><path d="m177.261719 302.773438c2.300781-13.058594-9.125-25.984376-25.519531-28.875-16.394532-2.890626-31.550782 5.351562-33.851563 18.40625-2.304687 13.058593 9.121094 25.984374 25.515625 28.875 16.394531 2.890624 31.550781-5.351563 33.855469-18.40625zm0 0" fill="#eda1ab"/><path d="m278.773438 320.710938c-2.300782 13.054687 9.125 25.984374 25.519531 28.875 16.394531 2.890624 31.550781-5.351563 33.851562-18.410157 2.300781-13.054687-9.121093-25.984375-25.519531-28.875-16.394531-2.886719-31.550781 5.351563-33.851562 18.410157zm0 0" fill="#eda1ab"/><path d="m176.371094 287.050781c-2.363282 0-4.691406-1.113281-6.148438-3.199219l-16.125-23.023437c-2.375-3.390625-1.550781-8.070313 1.84375-10.445313 3.394532-2.375 8.070313-1.550781 10.445313 1.84375l16.121093 23.023438c2.378907 3.394531 1.550782 8.070312-1.839843 10.445312-1.308594.914063-2.808594 1.355469-4.296875 1.355469zm0 0" fill="#4e5660"/><path d="m156.796875 283.601562c-2.363281 0-4.6875-1.117187-6.148437-3.199218-2.375-3.394532-1.550782-8.070313 1.84375-10.445313l23.023437-16.121093c3.390625-2.375 8.070313-1.554688 10.445313 1.839843s1.550781 8.070313-1.84375 10.445313l-23.023438 16.121094c-1.308594.917968-2.808594 1.359374-4.296875 1.359374zm0 0" fill="#4e5660"/><path d="m287.566406 306.65625c-2.363281 0-4.691406-1.113281-6.148437-3.195312-2.375-3.394532-1.550781-8.070313 1.839843-10.445313l23.027344-16.125c3.390625-2.375 8.070313-1.550781 10.445313 1.84375 2.375 3.390625 1.550781 8.066406-1.84375 10.445313l-23.023438 16.121093c-1.308593.917969-2.808593 1.355469-4.296875 1.355469zm0 0" fill="#4e5660"/><path d="m307.140625 310.109375c-2.363281 0-4.691406-1.117187-6.148437-3.199219l-16.121094-23.023437c-2.378906-3.394531-1.550782-8.070313 1.839844-10.445313 3.394531-2.378906 8.070312-1.550781 10.445312 1.839844l16.121094 23.027344c2.378906 3.390625 1.550781 8.066406-1.839844 10.445312-1.308594.914063-2.808594 1.355469-4.296875 1.355469zm0 0" fill="#4e5660"/><path d="m243.066406 298.355469c1.5-8.515625-2.789062-16.390625-9.582031-17.589844-6.789063-1.195313-13.515625 4.738281-15.015625 13.253906-1.5 8.519531 2.789062 16.390625 9.582031 17.589844 6.789063 1.195313 13.511719-4.738281 15.015625-13.253906zm0 0" fill="#4e5660"/><path d="m261.4375 116.089844-15.757812-22.511719c-6.625-9.457031-20.277344-10.398437-28.136719-1.941406l-4.941407 5.316406c-8.304687 8.9375-9.238281 22.460937-2.238281 32.457031l5.328125 7.609375c6.996094 9.996094 20.023438 13.742188 31.265625 8.996094l6.683594-2.824219c10.636719-4.492187 14.417969-17.644531 7.796875-27.101562zm0 0" fill="#4e5660"/><path d="m312.382812 206.988281c-2.722656 0-5.34375-1.484375-6.675781-4.066406-4.585937-8.910156-11.132812-20.972656-21.140625-35.261719-10.007812-14.292968-19.101562-24.570312-25.902344-31.929687-2.8125-3.039063-2.628906-7.785157.414063-10.597657 3.039063-2.8125 7.785156-2.625 10.597656.414063 7.125 7.707031 16.65625 18.480469 27.179688 33.507813 10.523437 15.03125 17.386719 27.667968 22.1875 37 1.898437 3.683593.449219 8.203124-3.234375 10.101562-1.097656.566406-2.273438.832031-3.425782.832031zm0 0" fill="#e26e7e"/><path d="m237 155.523438c-10.660156 0-21.078125-5.097657-27.453125-14.203126l-5.328125-7.609374c-8.964844-12.804688-7.75-30.410157 2.890625-41.859376l4.9375-5.316406c5.296875-5.699218 12.789063-8.664062 20.542969-8.125 7.761718.535156 14.769531 4.496094 19.234375 10.867188l15.757812 22.511718c4.464844 6.371094 5.789063 14.3125 3.636719 21.785157-2.148438 7.476562-7.492188 13.5-14.660156 16.527343l-6.683594 2.824219c-4.164062 1.757813-8.539062 2.597657-12.875 2.597657zm-6.1875-62.175782c-2.949219 0-5.75 1.214844-7.777344 3.394532l-4.9375 5.316406c-5.859375 6.308594-6.527344 16-1.59375 23.050781l5.332032 7.609375c4.933593 7.050781 14.273437 9.734375 22.199218 6.386719l6.6875-2.824219c2.972656-1.253906 5.1875-3.753906 6.082032-6.851562.890624-3.101563.339843-6.394532-1.507813-9.039063l-15.761719-22.507813c-1.851562-2.644531-4.757812-4.285156-7.976562-4.507812-.25-.019531-.5-.027344-.746094-.027344zm0 0" fill="#e26e7e"/><path d="m325.117188 207.027344 15.761718 22.511718c6.621094 9.457032 2.835938 22.609376-7.800781 27.101563l-6.6875 2.824219c-11.238281 4.75-24.265625 1-31.261719-8.992188l-5.328125-7.613281c-7-9.992187-6.066406-23.515625 2.238281-32.453125l4.941407-5.320312c7.859375-8.457032 21.515625-7.511719 28.136719 1.941406zm0 0" fill="#4e5660"/><path d="m316.4375 268.976562c-10.660156 0-21.074219-5.097656-27.453125-14.203124l-5.328125-7.613282c-8.96875-12.800781-7.75-30.40625 2.890625-41.859375l4.941406-5.316406c5.292969-5.699219 12.773438-8.664063 20.539063-8.125 7.761718.535156 14.769531 4.496094 19.234375 10.871094l15.757812 22.507812c4.464844 6.371094 5.789063 14.3125 3.640625 21.789063-2.152344 7.476562-7.496094 13.496094-14.660156 16.523437l-6.6875 2.824219c-4.164062 1.757812-8.539062 2.601562-12.875 2.601562zm-6.183594-62.179687c-2.949218 0-5.75 1.214844-7.777344 3.394531l-4.941406 5.320313c-5.859375 6.304687-6.527344 15.996093-1.589844 23.046875l5.328126 7.609375c4.9375 7.050781 14.273437 9.738281 22.203124 6.390625l6.6875-2.824219c2.972657-1.257813 5.1875-3.753906 6.078126-6.855469.894531-3.101562.34375-6.394531-1.507813-9.039062l-15.761719-22.507813c-1.851562-2.644531-4.757812-4.285156-7.976562-4.507812-.25-.019531-.496094-.027344-.742188-.027344zm0 0" fill="#e26e7e"/><path d="m268.976562 272.757812c0 60.621094-49.140624 109.761719-109.757812 109.761719-60.621094 0-109.761719-49.140625-109.761719-109.761719 0-60.617187 49.140625-109.757812 109.761719-109.757812 60.617188 0 109.757812 49.140625 109.757812 109.757812zm0 0" fill="#8eafe2"/><path d="m140.15625 380.851562c20.855469 3.675782 41.367188 1.199219 59.683594-6.121093-133.921875-28.3125-113.898438-157.136719-79.777344-204.519531-34.828125 13.332031-61.988281 44.089843-68.9375 83.488281-10.527344 59.695312 29.335938 116.625 89.03125 127.152343zm0 0" fill="#6a96d7"/><path d="m208.289062 241.1875c12.085938 26.644531 18.015626 75.085938 1.644532 128.910156-18.683594 9.75-40.296875 14.210938-62.546875 11.773438 16.910156-32.171875 20.691406-89.023438 11.832031-109.113282 7.335938-10.027343 26.894531-22.429687 49.070312-31.570312zm0 0" fill="#fcf2d0"/><path d="m156.121094 359.515625c-2.367188 8.132813-5.273438 15.765625-8.734375 22.355469 18.339843 2.007812 36.246093-.679688 52.4375-7.144532-16.941407-3.582031-31.410157-8.78125-43.703125-15.210937zm0 0" fill="#f6e3a3"/><path d="m159.222656 272.746094c8.863282 20.09375 5.078125 76.957031-11.835937 109.125-20.910157-2.246094-41.394531-10.511719-58.714844-25.042969-44.558594-37.390625-51.929687-102.640625-18.027344-148.886719 19.40625 30.730469 66.75 62.4375 88.578125 64.804688zm0 0" fill="#a3defe"/><path d="m88.671875 356.828125c17.316406 14.53125 37.804687 22.796875 58.710937 25.042969 3.464844-6.582032 6.367188-14.210938 8.734376-22.339844-53.054688-27.742188-65.519532-78.566406-60.132813-122.898438-10.132813-9.011718-19.15625-18.898437-25.34375-28.691406-33.898437 46.246094-26.527344 111.496094 18.03125 148.886719zm0 0" fill="#7acefa"/><path d="m162.03125 331.027344c-29.117188-2.855469-74.035156-21.941406-112.464844-63.027344.898438-21.054688 7.84375-42.003906 21.078125-60.058594 19.40625 30.734375 66.75 62.4375 88.578125 64.804688 5.015625 11.367187 5.976563 34.507812 2.808594 58.28125zm0 0" fill="#f7ef87"/><path d="m95.984375 236.632812c-10.128906-9.011718-19.15625-18.898437-25.339844-28.691406-13.234375 18.050782-20.179687 39-21.078125 60.058594 18.941406 20.25 39.453125 35.144531 58.878906 45.398438-12.792968-24.039063-15.535156-51.460938-12.460937-76.765626zm0 0" fill="#efd176"/><path d="m107.351562 246.046875c17.035157-23.789063 56.019532-53.144531 110.816407-65.878906 17.789062 11.304687 32.457031 27.792969 41.472656 48.28125-36.316406 1.441406-87.445313 26.589843-100.410156 44.308593-12.351563-1.339843-32.871094-12.078124-51.878907-26.710937zm0 0" fill="#a3defe"/><path d="m278.863281 387.515625c-30.207031 0-60.199219-8.289063-86.804687-24.527344-8.007813-4.886719-10.539063-15.339843-5.652344-23.347656s15.34375-10.539063 23.347656-5.652344c34.066406 20.789063 75.085938 25.226563 112.546875 12.175781 8.855469-3.085937 18.539063 1.59375 21.628907 10.453126 3.085937 8.855468-1.59375 18.539062-10.453126 21.628906-17.804687 6.203125-36.25 9.269531-54.613281 9.269531zm0 0" fill="#efd176"/></svg>