<svg height="512pt" viewBox="0 0 512.00025 512" width="512pt" xmlns="http://www.w3.org/2000/svg"><path d="m403.046875 348.257812c-7.800781 0-15.261719-.8125-22.4375-2.429687-20.277344-4.574219-37.757813-15.492187-53.4375-33.375-6.046875-6.894531-5.359375-17.382813 1.539063-23.429687 6.894531-6.042969 17.382812-5.355469 23.425781 1.539062 16.585937 18.921875 40.90625 35.5 95.492187 14.996094 8.585938-3.21875 18.15625 1.125 21.378906 9.707031 3.222657 8.585937-1.125 18.15625-9.707031 21.378906-20.664062 7.757813-39.257812 11.613281-56.253906 11.613281zm0 0" fill="#efd176"/><path d="m143.847656 320.578125c-2.226562 0-4.492187-.449219-6.664062-1.402344l-4.015625-1.761719c-43.550781-19.074218-67.539063-29.582031-100.113281-95.628906-4.054688-8.222656-.675782-18.175781 7.546874-22.230468 8.226563-4.058594 18.179688-.679688 22.234376 7.542968 27.210937 55.179688 42.582031 61.914063 83.652343 79.898438l4.042969 1.773437c8.394531 3.6875 12.214844 13.480469 8.527344 21.875-2.730469 6.226563-8.820313 9.933594-15.210938 9.933594zm0 0" fill="#efd176"/><path d="m234.722656 74.042969c18.949219 27.058593 16.574219 63.566406 13.726563 82.015625-1.035157 6.703125-7.457031 11.199218-14.113281 9.878906-18.308594-3.632812-53.425782-13.890625-72.375-40.949219-18.945313-27.058593-16.574219-63.566406-13.726563-82.015625 1.035156-6.703125 7.460937-11.203125 14.113281-9.882812 18.3125 3.636718 53.429688 13.890625 72.375 40.953125zm0 0" fill="#8ee2cf"/><path d="m209.710938 123.242188c-2.363282 0-4.691407-1.113282-6.148438-3.199219l-22.726562-32.453125c-2.375-3.390625-1.550782-8.066406 1.84375-10.445313 3.390624-2.375 8.070312-1.550781 10.445312 1.84375l22.722656 32.453125c2.378906 3.390625 1.554688 8.066406-1.839844 10.445313-1.308593.914062-2.8125 1.355469-4.296874 1.355469zm0 0" fill="#6fce91"/><path d="m324.621094 89.890625c-27.0625 18.949219-37.316406 54.066406-40.953125 72.375-1.320313 6.65625 3.179687 13.078125 9.882812 14.113281 18.449219 2.847656 54.957031 5.222656 82.015625-13.726562 27.058594-18.945313 37.316406-54.0625 40.949219-72.375 1.320313-6.652344-3.175781-13.078125-9.878906-14.109375-18.449219-2.851563-54.957031-5.222657-82.015625 13.722656zm0 0" fill="#8ee2cf"/><path d="m333.875 145.136719c-2.367188 0-4.691406-1.117188-6.152344-3.199219-2.375-3.394531-1.550781-8.070312 1.84375-10.445312l32.453125-22.722657c3.390625-2.378906 8.070313-1.554687 10.445313 1.839844s1.550781 8.070313-1.84375 10.445313l-32.453125 22.722656c-1.308594.917968-2.808594 1.359375-4.292969 1.359375zm0 0" fill="#6fce91"/><path d="m321.351562 101.339844c-5.734374 32.53125-33.226562 56.667968-48.289062 67.699218-5.46875 4.007813-13.191406 2.648438-16.964844-2.992187-10.375-15.515625-27.957031-47.601563-22.21875-80.132813 5.734375-32.53125 33.226563-56.667968 48.289063-67.699218 5.46875-4.007813 13.191406-2.648438 16.964843 2.992187 10.375 15.515625 27.957032 47.601563 22.21875 80.132813zm0 0" fill="#8ee2cf"/><path d="m274.183594 120.636719c-.433594 0-.871094-.035157-1.308594-.113281-4.082031-.71875-6.804688-4.609376-6.085938-8.6875l6.882813-39.019532c.71875-4.078125 4.605469-6.800781 8.6875-6.082031 4.078125.71875 6.804687 4.609375 6.082031 8.6875l-6.878906 39.015625c-.644531 3.636719-3.808594 6.199219-7.378906 6.199219zm0 0" fill="#6fce91"/><path d="m269.269531 140.957031c67.484375 11.898438 106.351563 73.554688 98.625 155.179688-8.035156 84.90625-50.539062 141.800781-147.960937 124.625-97.425782-17.179688-117.90625-85.179688-96.417969-167.714844 20.660156-79.347656 78.269531-123.988281 145.753906-112.089844zm0 0" fill="#f7ef87"/><g fill="#efd176"><path d="m227.691406 140.859375c-48.804687 8.835937-87.925781 49.769531-104.175781 112.183594-21.429687 82.308593-1.113281 150.15625 95.613281 167.566406-104.800781-92.589844-50.433594-216.714844 8.5625-279.75zm0 0"/><path d="m258.25 241.335938c-2.363281 0-4.691406-1.113282-6.148438-3.199219l-5.472656-7.8125-7.8125 5.472656c-3.394531 2.375-8.066406 1.550781-10.445312-1.84375-2.375-3.390625-1.550782-8.066406 1.84375-10.445313l13.957031-9.773437c1.628906-1.140625 3.640625-1.585937 5.601563-1.242187 1.960937.347656 3.703124 1.457031 4.84375 3.085937l9.769531 13.957031c2.375 3.394532 1.550781 8.066406-1.839844 10.445313-1.3125.917969-2.8125 1.355469-4.296875 1.355469zm0 0"/><path d="m326.082031 253.296875c-2.363281 0-4.691406-1.113281-6.152343-3.199219l-5.46875-7.8125-7.8125 5.472656c-3.394532 2.375-8.070313 1.550782-10.445313-1.84375-2.375-3.394531-1.554687-8.070312 1.839844-10.445312l13.957031-9.773438c3.390625-2.375 8.070312-1.550781 10.445312 1.84375l9.773438 13.953126c2.375 3.394531 1.550781 8.070312-1.84375 10.445312-1.308594.917969-2.808594 1.359375-4.292969 1.359375zm0 0"/><path d="m190.421875 229.378906c-2.367187 0-4.691406-1.117187-6.152344-3.199218l-5.46875-7.816407-7.816406 5.472657c-3.394531 2.375-8.066406 1.550781-10.441406-1.84375-2.378907-3.394532-1.550781-8.070313 1.839843-10.445313l13.957032-9.769531c3.394531-2.378906 8.070312-1.550782 10.445312 1.839844l9.769532 13.957031c2.378906 3.394531 1.550781 8.070312-1.839844 10.445312-1.308594.917969-2.808594 1.359375-4.292969 1.359375zm0 0"/><path d="m267.875 385.859375c-2.363281 0-4.691406-1.117187-6.148438-3.199219l-5.472656-7.8125-7.8125 5.46875c-3.394531 2.378906-8.070312 1.550782-10.445312-1.839844-2.375-3.394531-1.550782-8.070312 1.84375-10.445312l13.957031-9.773438c1.628906-1.140624 3.640625-1.585937 5.601563-1.242187 1.960937.347656 3.699218 1.457031 4.84375 3.085937l9.769531 13.957032c2.375 3.390625 1.550781 8.070312-1.84375 10.445312-1.308594.914063-2.808594 1.355469-4.292969 1.355469zm0 0"/><path d="m200.046875 373.898438c-2.367187 0-4.691406-1.117188-6.152344-3.199219l-5.46875-7.8125-7.8125 5.46875c-3.398437 2.378906-8.070312 1.550781-10.445312-1.839844-2.375-3.394531-1.550781-8.070313 1.839843-10.445313l13.957032-9.773437c1.632812-1.140625 3.644531-1.585937 5.605468-1.242187 1.957032.347656 3.699219 1.457031 4.839844 3.085937l9.773438 13.957031c2.375 3.390625 1.550781 8.066406-1.84375 10.445313-1.308594.914062-2.808594 1.355469-4.292969 1.355469zm0 0"/></g><path d="m183.179688 300.867188c2.25-12.761719-8.917969-25.394532-24.941407-28.21875-16.023437-2.828126-30.839843 5.230468-33.089843 17.988281-2.246094 12.761719 8.917968 25.394531 24.941406 28.222656 16.027344 2.824219 30.839844-5.230469 33.089844-17.992187zm0 0" fill="#eda1ab"/><path d="m282.390625 318.394531c-2.25 12.761719 8.917969 25.394531 24.941406 28.222657 16.023438 2.824218 30.839844-5.230469 33.085938-17.992188 2.25-12.761719-8.914063-25.394531-24.9375-28.21875-16.027344-2.828125-30.839844 5.230469-33.089844 17.988281zm0 0" fill="#eda1ab"/><path d="m189.3125 283.535156c-.429688 0-.867188-.035156-1.308594-.113281-4.078125-.71875-6.804687-4.609375-6.082031-8.6875.300781-1.71875-.082031-3.445313-1.082031-4.875-1-1.425781-2.496094-2.378906-4.210938-2.683594-3.539062-.613281-6.933594 1.75-7.558594 5.292969-.71875 4.078125-4.613281 6.804688-8.6875 6.082031-4.078124-.71875-6.804687-4.609375-6.082031-8.6875 2.0625-11.6875 13.257813-19.523437 24.933594-17.460937 5.660156 1 10.597656 4.144531 13.894531 8.851562 3.296875 4.710938 4.5625 10.421875 3.5625 16.085938-.640625 3.636718-3.804687 6.195312-7.378906 6.195312zm0 0" fill="#4e5660"/><path d="m312.761719 305.304688c-.433594 0-.871094-.039063-1.308594-.117188-4.082031-.71875-6.804687-4.605469-6.085937-8.6875.304687-1.714844-.082032-3.445312-1.078126-4.875-1-1.425781-2.496093-2.378906-4.210937-2.683594-1.714844-.300781-3.449219.082032-4.875 1.082032-1.429687 1-2.382813 2.496093-2.683594 4.210937-.71875 4.078125-4.597656 6.808594-8.6875 6.082031-4.078125-.71875-6.804687-4.605468-6.082031-8.6875 2.058594-11.6875 13.230469-19.527344 24.933594-17.457031 5.660156.996094 10.59375 4.140625 13.890625 8.851563 3.296875 4.707031 4.566406 10.417968 3.566406 16.082031-.644531 3.636719-3.808594 6.199219-7.378906 6.199219zm0 0" fill="#4e5660"/><path d="m255.351562 310.582031c2.570313-14.570312-5.445312-26.835937-17.625-28.984375-12.175781-2.144531-23.90625 6.636719-26.476562 21.210938-2.566406 14.570312 5.222656 28.125 17.398438 30.273437 12.179687 2.144531 24.136718-7.925781 26.703124-22.5zm0 0" fill="#4e5660"/><path d="m428.902344 421.277344c-3.636719-2.621094-5.695313-6.914063-5.355469-11.382813.148437-1.933593.226563-3.890625.226563-5.867187 0-43.226563-35.042969-78.265625-78.269532-78.265625-18.535156 0-35.554687 6.453125-48.960937 17.226562-3.132813 2.519531-7.234375 3.445313-11.148438 2.511719-5.828125-1.390625-11.902343-2.132812-18.15625-2.132812-16.042969 0-30.953125 4.835937-43.363281 13.121093-4.90625 3.277344-11.398438 2.835938-15.773438-1.121093-13.882812-12.570313-32.289062-20.234376-52.492187-20.234376-38.789063 0-70.96875 28.226563-77.164063 65.257813-.71875 4.277344-3.464843 7.933594-7.421874 9.71875-27.773438 12.523437-49.507813 36.066406-59.632813 65.058594-6.292969 18.023437 7.375 36.832031 26.46875 36.832031h404.878906c19.109375 0 32.765625-18.828125 26.457031-36.871094-7.632812-21.839844-21.859374-40.582031-40.292968-53.851562zm0 0" fill="#a3defe"/><path d="m428.902344 421.277344c-3.636719-2.621094-5.695313-6.914063-5.355469-11.382813.148437-1.933593.226563-3.890625.226563-5.867187 0-43.226563-35.042969-78.265625-78.269532-78.265625-18.535156 0-35.554687 6.453125-48.960937 17.226562-3.132813 2.519531-7.234375 3.445313-11.148438 2.511719-5.828125-1.390625-11.902343-2.132812-18.15625-2.132812-16.042969 0-30.953125 4.835937-43.363281 13.121093-4.90625 3.277344-11.398438 2.835938-15.773438-1.121093-13.882812-12.570313-32.289062-20.234376-52.492187-20.234376-38.789063 0-70.96875 28.226563-77.164063 65.257813-.71875 4.277344-3.464843 7.933594-7.421874 9.71875-27.773438 12.523437-49.507813 36.066406-59.632813 65.058594-6.292969 18.023437 7.375 36.832031 26.46875 36.832031h404.878906c19.109375 0 32.765625-18.828125 26.457031-36.871094-7.632812-21.839844-21.859374-40.582031-40.292968-53.851562zm0 0" fill="#a3defe"/><path d="m194.511719 423.683594c-18.789063-19.96875-23.714844-59.496094-7.375-81.921875-9.644531-4.257813-20.308594-6.628907-31.527344-6.628907-38.792969 0-70.96875 28.226563-77.167969 65.253907-.714844 4.28125-3.460937 7.9375-7.417968 9.722656-27.773438 12.523437-49.511719 36.066406-59.632813 65.058594-6.292969 18.023437 7.375 36.832031 26.46875 36.832031h185.398437c-32.582031-16.492188-37.335937-53.890625-26.945312-76.71875 1.769531-3.882812 1.121094-8.488281-1.800781-11.597656zm0 0" fill="#7acefa"/><path d="m100.375 90.785156c0 20.671875-16.761719 37.433594-37.4375 37.433594s-37.433594-16.761719-37.433594-37.433594c0-20.675781 16.757813-37.4375 37.433594-37.4375s37.4375 16.761719 37.4375 37.4375zm0 0" fill="#a3defe"/><path d="m94.136719 111.472656c-42.636719 6.175782-57.457031-36.160156-45.199219-55.40625-13.738281 5.542969-23.433594 18.996094-23.433594 34.71875 0 20.675782 16.757813 37.433594 37.433594 37.433594 13.023438 0 24.492188-6.652344 31.199219-16.746094zm0 0" fill="#7acefa"/><path d="m512 205.863281c0 23.332031-18.914062 42.242188-42.246094 42.242188-23.328125 0-42.242187-18.910157-42.242187-42.242188s18.914062-42.246093 42.242187-42.246093c23.332032 0 42.246094 18.914062 42.246094 42.246093zm0 0" fill="#a3defe"/><path d="m504.960938 229.210938c-48.113282 6.96875-64.835938-40.808594-51.007813-62.527344-15.5 6.257812-26.445313 21.433594-26.445313 39.179687 0 23.328125 18.914063 42.242188 42.246094 42.242188 14.699219 0 27.640625-7.507813 35.207032-18.894531zm0 0" fill="#7acefa"/><path d="m448.011719 44.378906c0 24.507813-19.871094 44.378906-44.378907 44.378906-24.507812 0-44.378906-19.871093-44.378906-44.378906 0-24.511718 19.871094-44.378906 44.378906-44.378906 24.507813 0 44.378907 19.867188 44.378907 44.378906zm0 0" fill="#a3defe"/><path d="m440.617188 68.902344c-50.542969 7.324218-68.113282-42.867188-53.582032-65.679688-16.285156 6.574219-27.78125 22.515625-27.78125 41.15625 0 24.507813 19.871094 44.378906 44.378906 44.378906 15.441407 0 29.035157-7.890624 36.984376-19.855468zm0 0" fill="#7acefa"/><path d="m19.152344 242.171875-11.8125-11.8125c-9.785156-9.789063-9.785156-25.65625 0-35.441406l25.742187-25.742188c9.789063-9.789062 25.65625-9.789062 35.441407 0l11.8125 11.808594c9.789062 9.789063 9.789062 25.65625 0 35.445313l-25.742188 25.742187c-9.785156 9.785156-25.652344 9.785156-35.441406 0zm0 0" fill="#eda1ab"/><path d="m37.605469 165.613281c-1.601563.996094-3.128907 2.167969-4.523438 3.558594l-25.742187 25.746094c-9.785156 9.785156-9.785156 25.652343 0 35.441406l11.8125 11.8125c9.785156 9.785156 25.65625 9.785156 35.441406 0l6.378906-6.378906c-23.015625-14.90625-27.820312-49.640625-23.367187-70.179688zm0 0" fill="#e26e7e"/><path d="m372.75 390.171875c-4.144531 0-7.5-3.355469-7.5-7.5 0-6.648437-5.40625-12.054687-12.054688-12.054687-6.648437 0-12.054687 5.40625-12.054687 12.054687 0 4.144531-3.355469 7.5-7.5 7.5s-7.5-3.355469-7.5-7.5c0-14.917969 12.136719-27.054687 27.054687-27.054687 14.917969 0 27.054688 12.136718 27.054688 27.054687 0 4.144531-3.355469 7.5-7.5 7.5zm0 0" fill="#7acefa"/><path d="m109.636719 483.394531c-1.921875 0-3.839844-.730469-5.304688-2.195312-10.546875-10.550781-10.546875-27.714844 0-38.261719s27.710938-10.546875 38.261719 0c2.929688 2.929688 2.929688 7.675781 0 10.605469-2.929688 2.929687-7.679688 2.929687-10.609375 0-4.695313-4.699219-12.347656-4.699219-17.046875 0s-4.699219 12.347656 0 17.046875c2.929688 2.929687 2.929688 7.679687 0 10.609375-1.464844 1.464843-3.382812 2.195312-5.300781 2.195312zm0 0" fill="#a3defe"/><path d="m234.589844 417.734375c-4.144532 0-7.5-3.355469-7.5-7.5 0-6.644531-5.410156-12.054687-12.054688-12.054687-6.648437 0-12.058594 5.410156-12.058594 12.054687 0 4.144531-3.355468 7.5-7.5 7.5-4.140624 0-7.5-3.355469-7.5-7.5 0-14.917969 12.140626-27.054687 27.058594-27.054687 14.917969 0 27.054688 12.136718 27.054688 27.054687 0 4.144531-3.359375 7.5-7.5 7.5zm0 0" fill="#7acefa"/><path d="m333.390625 484.335938c-1.917969 0-3.839844-.730469-5.304687-2.195313-2.929688-2.929687-2.929688-7.679687 0-10.605469 4.699218-4.703125 4.699218-12.351562 0-17.050781-4.699219-4.699219-12.351563-4.699219-17.046876 0-2.929687 2.929687-7.679687 2.929687-10.609374 0-2.925782-2.929687-2.925782-7.675781 0-10.605469 10.550781-10.550781 27.714843-10.546875 38.265624 0 10.546876 10.546875 10.546876 27.710938 0 38.261719-1.464843 1.464844-3.386718 2.195313-5.304687 2.195313zm0 0" fill="#7acefa"/></svg>