<svg height="512pt" viewBox="-41 0 512 512.00075" width="512pt" xmlns="http://www.w3.org/2000/svg"><path d="m252.113281 512c-8.558593 0-16.144531-6.125-17.695312-14.839844-1.742188-9.785156 4.773437-19.132812 14.558593-20.875 7.863282-1.402344 13.78125-6.1875 15.832032-12.800781 3.035156-9.800781-2.453125-22.542969-15.066406-34.957031-7.082032-6.972656-7.171876-18.367188-.195313-25.449219 6.96875-7.082031 18.363281-7.171875 25.445313-.199219 22.535156 22.1875 31.351562 48.160156 24.191406 71.261719-6.023438 19.425781-22.839844 33.824219-43.890625 37.578125-1.070313.1875-2.132813.28125-3.179688.28125zm0 0" fill="#efd176"/><path d="m152.394531 512c-8.554687 0-16.140625-6.125-17.695312-14.839844-1.742188-9.785156 4.777343-19.132812 14.558593-20.875 7.863282-1.402344 13.78125-6.1875 15.832032-12.800781 3.039062-9.800781-2.453125-22.542969-15.066406-34.957031-7.082032-6.972656-7.167969-18.367188-.195313-25.449219 6.96875-7.082031 18.363281-7.171875 25.445313-.199219 22.535156 22.1875 31.355468 48.160156 24.191406 71.261719-6.023438 19.425781-22.839844 33.824219-43.890625 37.578125-1.066407.1875-2.128907.28125-3.179688.28125zm0 0" fill="#efd176"/><path d="m350.371094 471.453125c-8.339844 0-15.824219-5.832031-17.597656-14.320313-3.097657-14.832031-5.375-28.4375-7.582032-41.59375-5.339844-31.886718-10.386718-62.003906-26.449218-107.910156-3.28125-9.382812 1.664062-19.648437 11.046874-22.929687 9.378907-3.277344 19.644532 1.664062 22.925782 11.042969 17.078125 48.8125 22.617187 81.875 27.972656 113.847656 2.148438 12.8125 4.367188 26.054687 7.316406 40.183594 2.03125 9.730468-4.207031 19.261718-13.933594 21.292968-1.242187.261719-2.480468.386719-3.699218.386719zm0 0" fill="#efd176"/><path d="m79.515625 471.453125c-1.21875 0-2.457031-.125-3.695313-.386719-9.730468-2.03125-15.96875-11.566406-13.9375-21.292968 2.949219-14.128907 5.171876-27.375 7.316407-40.183594 5.355469-31.972656 10.894531-65.035156 27.972656-113.847656 3.28125-9.382813 13.546875-14.328126 22.925781-11.042969 9.382813 3.28125 14.328125 13.546875 11.046875 22.929687-16.0625 45.90625-21.109375 76.023438-26.449219 107.910156-2.207031 13.15625-4.484374 26.761719-7.582031 41.59375-1.773437 8.488282-9.257812 14.320313-17.597656 14.320313zm0 0" fill="#efd176"/><path d="m165.472656 72.503906c25.316406 25.320313 29.65625 64.738282 30.089844 84.96875.15625 7.347656-5.855469 13.359375-13.207031 13.203125-20.226563-.433593-59.644531-4.773437-84.964844-30.089843-25.316406-25.320313-29.65625-64.738282-30.089844-84.96875-.15625-7.347657 5.855469-13.359376 13.203125-13.203126 20.230469.433594 59.648438 4.773438 84.96875 30.089844zm0 0" fill="#8ee2cf"/><path d="m146.613281 129.226562c-1.917969 0-3.839843-.730468-5.300781-2.195312l-30.367188-30.363281c-2.929687-2.929688-2.929687-7.679688 0-10.609375 2.929688-2.925782 7.679688-2.925782 10.605469 0l30.367188 30.367187c2.929687 2.929688 2.929687 7.675781 0 10.605469-1.464844 1.464844-3.382813 2.195312-5.304688 2.195312zm0 0" fill="#6fce91"/><path d="m264.414062 72.503906c-25.316406 25.320313-29.65625 64.738282-30.089843 84.96875-.15625 7.347656 5.855469 13.359375 13.207031 13.203125 20.226562-.433593 59.644531-4.773437 84.964844-30.089843 25.316406-25.320313 29.65625-64.738282 30.089844-84.96875.15625-7.347657-5.855469-13.359376-13.207032-13.203126-20.226562.433594-59.644531 4.773438-84.964844 30.089844zm0 0" fill="#8ee2cf"/><path d="m283.273438 129.226562c-1.921876 0-3.839844-.730468-5.304688-2.195312-2.929688-2.929688-2.929688-7.675781 0-10.605469l30.367188-30.367187c2.925781-2.925782 7.675781-2.925782 10.605468 0 2.929688 2.929687 2.929688 7.679687 0 10.609375l-30.367187 30.363281c-1.460938 1.464844-3.382813 2.195312-5.300781 2.195312zm0 0" fill="#6fce91"/><path d="m263.082031 85.339844c0 35.804687-24.800781 66.746094-38.800781 81.355468-5.085938 5.308594-13.585938 5.308594-18.675781 0-13.996094-14.609374-38.800781-45.550781-38.800781-81.359374 0-35.804688 24.804687-66.746094 38.800781-81.355469 5.089843-5.308594 13.589843-5.308594 18.675781 0 13.996094 14.613281 38.800781 45.550781 38.800781 81.359375zm0 0" fill="#8ee2cf"/><path d="m214.945312 114.3125c-4.144531 0-7.5-3.359375-7.5-7.5v-42.945312c0-4.140626 3.355469-7.5 7.5-7.5 4.140626 0 7.5 3.359374 7.5 7.5v42.941406c0 4.144531-3.359374 7.503906-7.5 7.503906zm0 0" fill="#6fce91"/><path d="m214.945312 137.433594c74.273438 0 127.371094 58.496094 134.488282 147.082031 7.402344 92.148437-27.261719 160.882813-134.488282 160.882813-107.230468 0-141.894531-68.734376-134.492187-160.882813 7.117187-88.585937 60.214844-147.082031 134.492187-147.082031zm0 0" fill="#f7ef87"/><g fill="#efd176"><path d="m170.542969 145.152344c-50.433594 18.617187-84.488281 69.675781-90.089844 139.363281-7.382813 91.890625 27.078125 160.492187 133.605469 160.875-129.304688-79.113281-94.628906-221.847656-43.515625-300.238281zm0 0"/><path d="m228.003906 254.15625c-1.921875 0-3.839844-.734375-5.304687-2.195312l-7.753907-7.757813-7.757812 7.757813c-2.929688 2.925781-7.675781 2.929687-10.605469-.003907-2.929687-2.925781-2.929687-7.675781 0-10.605469l13.058594-13.058593c2.929687-2.925781 7.679687-2.925781 10.605469 0l13.058594 13.058593c2.929687 2.929688 2.929687 7.679688 0 10.605469-1.464844 1.464844-3.382813 2.199219-5.300782 2.199219zm0 0"/><path d="m276.542969 254.15625c-1.917969 0-3.839844-.734375-5.304688-2.199219-2.929687-2.925781-2.929687-7.675781 0-10.605469l13.058594-13.058593c2.929687-2.925781 7.675781-2.925781 10.605469 0l13.058594 13.058593c2.929687 2.929688 2.929687 7.679688 0 10.605469-2.929688 2.933594-7.675782 2.929688-10.605469.003907l-7.753907-7.757813-7.757812 7.757813c-1.460938 1.460937-3.382812 2.195312-5.300781 2.195312zm0 0"/><path d="m153.34375 254.15625c-1.917969 0-3.835938-.734375-5.300781-2.195312l-7.757813-7.757813-7.753906 7.757813c-2.929688 2.925781-7.679688 2.929687-10.605469-.003907-2.929687-2.925781-2.929687-7.675781 0-10.605469l13.058594-13.058593c2.929687-2.925781 7.675781-2.925781 10.605469 0l13.058594 13.058593c2.929687 2.929688 2.929687 7.679688 0 10.605469-1.464844 1.464844-3.386719 2.199219-5.304688 2.199219zm0 0"/><path d="m239.214844 403.410156c-1.917969 0-3.839844-.730468-5.304688-2.195312-2.929687-2.929688-2.929687-7.675782 0-10.605469l13.058594-13.058594c1.40625-1.40625 3.316406-2.195312 5.304688-2.195312 1.988281 0 3.894531.789062 5.300781 2.195312l13.058593 13.058594c2.929688 2.929687 2.929688 7.675781 0 10.605469-2.925781 2.929687-7.675781 2.929687-10.605468 0l-7.753906-7.753906-7.753907 7.753906c-1.46875 1.464844-3.386719 2.195312-5.304687 2.195312zm0 0"/><path d="m190.671875 403.410156c-1.917969 0-3.835937-.730468-5.300781-2.195312l-7.753906-7.753906-7.757813 7.753906c-2.929687 2.929687-7.675781 2.929687-10.605469 0-2.929687-2.929688-2.929687-7.675782 0-10.605469l13.058594-13.058594c1.40625-1.40625 3.316406-2.195312 5.304688-2.195312 1.988281 0 3.894531.789062 5.300781 2.195312l13.058593 13.058594c2.929688 2.929687 2.929688 7.679687 0 10.605469-1.464843 1.464844-3.386718 2.195312-5.304687 2.195312zm0 0"/></g><path d="m131.910156 301.519531c-1.746094 0-3.5-.605469-4.921875-1.84375-3.125-2.722656-3.449219-7.460937-.730469-10.582031 5.234376-6.007812 12.796876-9.449219 20.75-9.449219 7.949219 0 15.511719 3.445313 20.746094 9.449219 2.71875 3.121094 2.394532 7.859375-.726562 10.582031-3.121094 2.71875-7.859375 2.394531-10.582032-.726562-2.382812-2.734375-5.824218-4.304688-9.4375-4.304688-3.613281 0-7.054687 1.566407-9.4375 4.304688-1.484374 1.699219-3.566406 2.570312-5.660156 2.570312zm0 0" fill="#4e5660"/><path d="m297.976562 301.519531c-2.09375 0-4.175781-.871093-5.65625-2.570312-2.386718-2.734375-5.824218-4.304688-9.441406-4.304688-3.613281 0-7.054687 1.566407-9.4375 4.304688-2.722656 3.121093-7.460937 3.445312-10.578125.726562-3.125-2.722656-3.449219-7.460937-.730469-10.582031 5.234376-6.003906 12.796876-9.449219 20.75-9.449219 7.949219 0 15.511719 3.441407 20.746094 9.449219 2.71875 3.121094 2.394532 7.859375-.726562 10.582031-1.421875 1.238281-3.179688 1.84375-4.925782 1.84375zm0 0" fill="#4e5660"/><path d="m214.945312 340.195312c15.296876 0 28.921876 10.386719 37.492188-7.332031 8.691406-17.96875-10.777344-44.636719-37.492188-44.636719-26.71875 0-46.1875 26.667969-37.496093 44.636719 8.570312 17.714844 22.195312 7.332031 37.496093 7.332031zm0 0" fill="#4e5660"/><path d="m156.136719 177.21875h-29.109375c-12.230469 0-21.347656 11.277344-18.78125 23.234375l1.609375 7.519531c2.710937 12.636719 13.878906 21.667969 26.804687 21.667969h9.84375c12.921875 0 24.089844-9.03125 26.800782-21.667969l1.613281-7.519531c2.566406-11.957031-6.550781-23.234375-18.78125-23.234375zm0 0" fill="#4e5660"/><path d="m259.472656 191.191406c-.339844 0-.679687-.023437-1.023437-.066406-10.53125-1.4375-24.996094-3.085938-43.503907-3.085938-18.511718 0-32.972656 1.648438-43.507812 3.085938-4.113281.554688-7.882812-2.316406-8.441406-6.421875-.558594-4.101563 2.3125-7.882813 6.417968-8.441406 11-1.5 26.121094-3.222657 45.53125-3.222657 19.410157 0 34.53125 1.722657 45.53125 3.222657 4.105469.558593 6.980469 4.339843 6.417969 8.441406-.515625 3.761719-3.730469 6.488281-7.421875 6.488281zm0 0" fill="#e26e7e"/><path d="m146.503906 237.136719h-9.84375c-16.351562 0-30.707031-11.605469-34.136718-27.59375l-1.609376-7.515625c-1.699218-7.925782.246094-16.085938 5.34375-22.390625 5.09375-6.304688 12.664063-9.917969 20.769532-9.917969h29.109375c8.105469 0 15.675781 3.613281 20.773437 9.917969 5.09375 6.304687 7.042969 14.464843 5.34375 22.390625l-1.613281 7.515625c-3.429687 15.988281-17.785156 27.59375-34.136719 27.59375zm-19.476562-52.417969c-3.554688 0-6.871094 1.585938-9.105469 4.347656-2.234375 2.765625-3.085937 6.339844-2.34375 9.816406l1.613281 7.519532c1.953125 9.117187 10.144532 15.734375 19.46875 15.734375h9.84375c9.328125 0 17.515625-6.617188 19.46875-15.734375l1.613282-7.519532c.746093-3.476562-.109376-7.054687-2.34375-9.816406-2.234376-2.761718-5.550782-4.347656-9.105469-4.347656zm0 0" fill="#e26e7e"/><path d="m273.75 177.21875h29.109375c12.230469 0 21.347656 11.277344 18.78125 23.234375l-1.609375 7.519531c-2.710938 12.636719-13.882812 21.667969-26.804688 21.667969h-9.84375c-12.925781 0-24.09375-9.03125-26.800781-21.667969l-1.613281-7.519531c-2.566406-11.957031 6.550781-23.234375 18.78125-23.234375zm0 0" fill="#4e5660"/><path d="m293.226562 237.136719h-9.84375c-16.351562 0-30.707031-11.605469-34.136718-27.59375l-1.609375-7.515625c-1.699219-7.925782.246093-16.085938 5.339843-22.390625 5.097657-6.304688 12.667969-9.917969 20.773438-9.917969h29.109375c8.105469 0 15.675781 3.613281 20.773437 9.917969 5.09375 6.304687 7.042969 14.464843 5.339844 22.390625l-1.609375 7.515625c-3.429687 15.988281-17.785156 27.59375-34.136719 27.59375zm-19.476562-52.417969c-3.554688 0-6.871094 1.585938-9.105469 4.347656-2.234375 2.765625-3.089843 6.339844-2.34375 9.816406l1.613281 7.519532c1.953126 9.117187 10.140626 15.734375 19.46875 15.734375h9.84375c9.324219 0 17.515626-6.617188 19.46875-15.734375l1.613282-7.519532c.742187-3.476562-.109375-7.054687-2.34375-9.816406-2.234375-2.761718-5.550782-4.347656-9.105469-4.347656zm0 0" fill="#e26e7e"/><path d="m340.957031 366.855469c-14.183593-15.046875-8.859375-35.839844-18.78125-54.660157-3.007812-5.699218.792969-12.664062 7.21875-13.175781 34.195313-2.730469 51.191407 5.964844 63.058594 17.828125 15.042969 15.042969 13.941406 40.117188-3.300781 53.691406-14.445313 11.371094-35.585938 9.691407-48.195313-3.683593zm0 0" fill="#a3defe"/><path d="m358.113281 449.128906c.613281-20.667968 19.082031-31.605468 25.367188-51.929687 1.90625-6.160157 9.519531-8.394531 14.425781-4.214844 26.109375 22.253906 31.980469 40.417969 31.980469 57.199219 0 21.273437-18.507813 38.222656-40.300781 35.628906-18.253907-2.171875-32.015626-18.308594-31.472657-36.683594zm0 0" fill="#7acefa"/><path d="m88.929688 366.855469c14.183593-15.046875 8.859374-35.839844 18.78125-54.660157 3.007812-5.699218-.792969-12.664062-7.21875-13.175781-34.195313-2.730469-51.191407 5.964844-63.058594 17.828125-15.042969 15.042969-13.941406 40.117188 3.300781 53.691406 14.445313 11.371094 35.589844 9.691407 48.195313-3.683593zm0 0" fill="#a3defe"/><path d="m71.773438 449.128906c-.613282-20.667968-19.078126-31.605468-25.367188-51.929687-1.90625-6.160157-9.519531-8.394531-14.425781-4.214844-26.113281 22.253906-31.980469 40.417969-31.980469 57.199219 0 21.273437 18.507812 38.222656 40.300781 35.628906 18.253907-2.171875 32.015625-18.308594 31.472657-36.683594zm0 0" fill="#7acefa"/></svg>