<svg height="512pt" viewBox="-53 0 512 512.00054" width="512pt" xmlns="http://www.w3.org/2000/svg"><path d="m17.546875 364.550781c-5.882813 0-11.628906-2.957031-14.941406-8.335937-5.074219-8.242188-2.511719-19.039063 5.734375-24.117188 29.859375-18.394531 65.339844-29.976562 108.46875-35.410156 9.613281-1.214844 18.371094 5.597656 19.582031 15.203125 1.210937 9.601563-5.597656 18.371094-15.203125 19.582031-38.054688 4.792969-68.953125 14.761719-94.460938 30.472656-2.867187 1.765626-6.042968 2.605469-9.179687 2.605469zm0 0" fill="#efd176"/><path d="m158.492188 512c-8.125 0-15.414063-5.679688-17.140626-13.945312-7.996093-38.265626 1.898438-102.433594 4.050782-112.648438 2-9.472656 11.296875-15.527344 20.769531-13.539062 9.472656 2 15.53125 11.296874 13.535156 20.769531-2.511719 11.914062-10.171875 68.898437-4.039062 98.246093 1.980469 9.476563-4.097657 18.761719-13.574219 20.742188-1.207031.253906-2.414062.375-3.601562.375zm0 0" fill="#efd176"/><path d="m265.101562 512c-6.039062 0-11.914062-3.121094-15.167968-8.71875-20.835938-35.824219-19.585938-99.695312-16.339844-115.082031 1.996094-9.472657 11.292969-15.527344 20.765625-13.539063 9.472656 2 15.53125 11.296875 13.535156 20.769532-2.285156 10.84375-2.296875 65.054687 12.34375 90.226562 4.867188 8.367188 2.027344 19.097656-6.339843 23.964844-2.773438 1.613281-5.804688 2.378906-8.796876 2.378906zm0 0" fill="#efd176"/><path d="m212.828125 61.375c20.007813 28.570312 17.5 67.117188 14.496094 86.597656-1.09375 7.078125-7.875 11.824219-14.898438 10.433594-19.335937-3.839844-56.414062-14.667969-76.417969-43.238281-20.003906-28.570313-17.5-67.117188-14.492187-86.59375 1.09375-7.078125 7.875-11.828125 14.898437-10.433594 19.332032 3.835937 56.410157 14.664063 76.414063 43.234375zm0 0" fill="#8ee2cf"/><path d="m186.421875 112.90625c-2.363281 0-4.691406-1.117188-6.152344-3.199219l-23.992187-34.265625c-2.375-3.394531-1.550782-8.070312 1.84375-10.445312 3.390625-2.375 8.070312-1.550782 10.445312 1.84375l23.992188 34.265625c2.375 3.390625 1.550781 8.066406-1.84375 10.441406-1.308594.917969-2.808594 1.359375-4.292969 1.359375zm0 0" fill="#6fce91"/><path d="m307.742188 78.113281c-28.566407 20.003907-39.398438 57.082031-43.234376 76.414063-1.394531 7.027344 3.355469 13.808594 10.433594 14.898437 19.480469 3.007813 58.023438 5.515625 86.59375-14.492187 28.570313-20.003906 39.398438-57.082032 43.238282-76.414063 1.390624-7.027343-3.355469-13.808593-10.433594-14.898437-19.480469-3.007813-58.023438-5.511719-86.597656 14.492187zm0 0" fill="#8ee2cf"/><path d="m317.515625 136.019531c-2.367187 0-4.691406-1.113281-6.152344-3.199219-2.375-3.390624-1.550781-8.066406 1.84375-10.445312l34.265625-23.992188c3.390625-2.375 8.066406-1.550781 10.441406 1.84375 2.378907 3.394532 1.554688 8.070313-1.839843 10.445313l-34.265625 23.992187c-1.308594.917969-2.808594 1.355469-4.292969 1.355469zm0 0" fill="#6fce91"/><path d="m304.296875 90.199219c-6.058594 34.347656-35.085937 59.832031-50.984375 71.480469-5.777344 4.230468-13.929688 2.792968-17.914062-3.160157-10.957032-16.382812-29.515626-50.257812-23.460938-84.605469 6.058594-34.347656 35.085938-59.832031 50.984375-71.480468 5.777344-4.234375 13.929687-2.796875 17.914063 3.15625 10.953124 16.386718 29.515624 50.261718 23.460937 84.609375zm0 0" fill="#8ee2cf"/><path d="m254.492188 110.152344c-.433594 0-.871094-.035156-1.308594-.113282-4.082032-.71875-6.804688-4.609374-6.085938-8.6875l7.265625-41.195312c.71875-4.078125 4.613281-6.804688 8.6875-6.082031 4.078125.71875 6.800781 4.609375 6.082031 8.6875l-7.261718 41.195312c-.640625 3.636719-3.808594 6.195313-7.378906 6.195313zm0 0" fill="#6fce91"/><path d="m368.308594 162.097656c-4.214844-18.113281-20.914063-31.433594-40.539063-30.378906-20.210937 1.085938-36.507812 17.722656-37.203125 37.945312-.613281 17.710938 10.472656 32.914063 26.125 38.503907-.09375 1.175781-.15625 2.363281-.15625 3.566406 0 25.898437 21.894532 46.683594 48.179688 44.855469 22.707031-1.578125 40.859375-20.359375 41.722656-43.101563.796875-20.960937-12.765625-38.871093-31.632812-44.707031-3.175782-.984375-5.742188-3.441406-6.496094-6.683594zm0 0" fill="#eda1ab"/><path d="m397.648438 185c-3.734376-5.039062-8.5-9.269531-13.984376-12.378906-12.472656 4.519531-19.910156 14.550781-22.917968 23.824218-1.277344 3.9375.878906 8.171876 4.820312 9.445313.769532.25 1.546875.371094 2.3125.371094 3.164063 0 6.105469-2.019531 7.132813-5.1875.804687-2.476563 5.597656-14.867188 21.210937-15.84375.492188-.03125.964844-.109375 1.425782-.230469zm0 0" fill="#e26e7e"/><path d="m382.367188 251.542969c-3.226563-2.964844-4.394532-6.585938-4.808594-8.757813-.765625-4.015625.003906-8.148437 1.960937-10.523437 2.632813-3.199219 2.171875-7.925781-1.027343-10.558594-3.199219-2.628906-7.925782-2.171875-10.554688 1.03125-4.816406 5.851563-6.726562 14.394531-5.113281 22.859375.742187 3.882812 2.195312 7.523438 4.234375 10.765625 5.460937-.671875 10.625-2.339844 15.308594-4.816406zm0 0" fill="#e26e7e"/><path d="m311.292969 186.824219c-1.667969 0-3.34375-.554688-4.738281-1.691407-3.207032-2.617187-3.6875-7.34375-1.066407-10.550781 9.078125-11.125 22.0625-16.453125 36.558594-14.984375 4.117187.414063 7.125 4.09375 6.707031 8.214844-.414062 4.121094-4.082031 7.136719-8.214844 6.707031-9.589843-.972656-17.472656 2.246094-23.429687 9.546875-1.484375 1.816406-3.640625 2.757813-5.816406 2.757813zm0 0" fill="#e26e7e"/><path d="m249.304688 132.027344c71.25 12.5625 112.289062 77.660156 104.132812 163.839844-8.484375 89.648437-53.363281 149.722656-156.222656 131.585937-102.863282-18.140625-124.488282-89.9375-101.800782-177.082031 21.8125-83.773438 82.640626-130.90625 153.890626-118.34375zm0 0" fill="#f7ef87"/><g fill="#efd176"><path d="m205.40625 131.921875c-51.527344 9.332031-92.832031 52.550781-109.992188 118.449219-22.625 86.902344-1.175781 158.539062 100.953126 176.921875-110.65625-97.757813-53.253907-228.816407 9.039062-295.371094zm0 0"/><path d="m232.105469 240.195312c-2.363281 0-4.691407-1.117187-6.152344-3.199218l-5.957031-8.511719-8.511719 5.960937c-3.390625 2.375-8.066406 1.550782-10.445313-1.84375-2.375-3.394531-1.550781-8.070312 1.84375-10.445312l14.652344-10.257812c3.394532-2.378907 8.070313-1.554688 10.445313 1.839843l10.261719 14.652344c2.375 3.394531 1.550781 8.070313-1.84375 10.445313-1.308594.917968-2.808594 1.359374-4.292969 1.359374zm0 0"/><path d="m303.324219 252.753906c-2.363281 0-4.691407-1.117187-6.148438-3.199218l-5.960937-8.511719-8.507813 5.960937c-3.394531 2.375-8.070312 1.550782-10.445312-1.84375-2.375-3.394531-1.550781-8.070312 1.839843-10.445312l14.65625-10.261719c1.628907-1.140625 3.644532-1.585937 5.601563-1.242187 1.960937.347656 3.703125 1.457031 4.84375 3.085937l10.257813 14.652344c2.378906 3.394531 1.550781 8.070312-1.839844 10.445312-1.308594.917969-2.8125 1.359375-4.296875 1.359375zm0 0"/><path d="m160.886719 227.636719c-2.363281 0-4.691407-1.113281-6.152344-3.199219l-5.957031-8.507812-8.511719 5.957031c-3.390625 2.375-8.066406 1.550781-10.445313-1.84375-2.375-3.390625-1.550781-8.070313 1.84375-10.445313l14.652344-10.257812c3.394532-2.378906 8.070313-1.550782 10.445313 1.839844l10.261719 14.65625c2.375 3.390624 1.550781 8.066406-1.84375 10.445312-1.308594.914062-2.808594 1.355469-4.292969 1.355469zm0 0"/><path d="m241.984375 393.898438c-2.363281 0-4.691406-1.113282-6.148437-3.199219l-6.019532-8.589844-8.589844 6.015625c-3.390624 2.375-8.070312 1.550781-10.445312-1.84375s-1.550781-8.070312 1.839844-10.445312l14.738281-10.316407c3.390625-2.378906 8.070313-1.550781 10.445313 1.84375l10.316406 14.734375c2.375 3.394532 1.550781 8.066406-1.84375 10.445313-1.304688.914062-2.808594 1.355469-4.292969 1.355469zm0 0"/><path d="m170.367188 381.269531c-2.363282 0-4.691407-1.113281-6.148438-3.199219l-6.015625-8.589843-8.59375 6.015625c-3.390625 2.375-8.070313 1.550781-10.445313-1.84375-2.375-3.390625-1.550781-8.066406 1.84375-10.445313l14.734376-10.316406c3.394531-2.375 8.070312-1.550781 10.445312 1.84375l10.316406 14.734375c2.378906 3.390625 1.550782 8.070312-1.839844 10.445312-1.308593.917969-2.808593 1.355469-4.296874 1.355469zm0 0"/></g><path d="m238.148438 309.609375v29.976563c0 9.042968-7.332032 16.371093-16.371094 16.371093-9.042969 0-16.371094-7.328125-16.371094-16.371093v-29.976563zm0 0" fill="#fff"/><path d="m207.648438 314.425781c14.675781 2.589844 26.007812 14.753907 36.375 4.042969 10.511718-10.867188-4.789063-33.289062-30.417969-37.808594-25.628907-4.519531-47.679688 11.316406-41.515625 25.125 6.074218 13.609375 20.882812 6.054688 35.558594 8.640625zm0 0" fill="#4e5660"/><path d="m172.394531 265.429688c0 12.992187-10.535156 23.527343-23.527343 23.527343-12.992188 0-23.527344-10.535156-23.527344-23.527343 0-12.992188 10.535156-23.527344 23.527344-23.527344 12.992187 0 23.527343 10.535156 23.527343 23.527344zm0 0" fill="#fff"/><path d="m162.121094 265.429688c0 7.320312-5.933594 13.253906-13.253906 13.253906-7.320313 0-13.253907-5.933594-13.253907-13.253906 0-7.320313 5.933594-13.253907 13.253907-13.253907 7.320312 0 13.253906 5.933594 13.253906 13.253907zm0 0" fill="#8ee2cf"/><path d="m303.171875 288.488281c0 12.996094-10.53125 23.527344-23.527344 23.527344-12.992187 0-23.523437-10.53125-23.523437-23.527344 0-12.992187 10.53125-23.523437 23.523437-23.523437 12.996094 0 23.527344 10.53125 23.527344 23.523437zm0 0" fill="#fff"/><path d="m287.710938 288.488281c0 4.457031-3.609376 8.066407-8.066407 8.066407-4.453125 0-8.0625-3.609376-8.0625-8.066407 0-4.453125 3.609375-8.0625 8.0625-8.0625 4.457031 0 8.066407 3.609375 8.066407 8.0625zm0 0" fill="#8ee2cf"/><path d="m231.449219 401.238281c-5.882813 0-11.628907-2.960937-14.941407-8.335937-5.078124-8.242188-2.511718-19.042969 5.730469-24.117188 29.859375-18.394531 65.339844-29.980468 108.472657-35.410156 9.597656-1.210938 18.371093 5.59375 19.578124 15.203125 1.210938 9.601563-5.59375 18.371094-15.199218 19.582031-38.058594 4.792969-68.957032 14.757813-94.464844 30.472656-2.863281 1.765626-6.039062 2.605469-9.175781 2.605469zm0 0" fill="#efd176"/></svg>