<svg height="512pt" viewBox="-10 0 512 512" width="512pt" xmlns="http://www.w3.org/2000/svg"><path d="m143.109375 503.824219c-4.140625 0-7.5-3.355469-7.5-7.5 0-14.792969 1.1875-33.660157 2.589844-41.195313.757812-4.074218 4.675781-6.765625 8.746093-6 4.070313.757813 6.757813 4.671875 6 8.742188-1.101562 5.925781-2.335937 23.625-2.335937 38.453125 0 4.144531-3.355469 7.5-7.5 7.5zm0 0" fill="#4e5660"/><path d="m145.394531 473.785156c-.246093 0-.492187-.003906-.738281-.015625-9.402344-.402343-16.699219-8.347656-16.300781-17.753906 1.566406-36.675781 11.871093-59.566406 16.824219-70.566406 3.863281-8.582031 13.953124-12.410157 22.53125-8.546875 8.582031 3.863281 12.40625 13.953125 8.546874 22.535156-4.390624 9.753906-12.566406 27.910156-13.851562 58.03125-.390625 9.15625-7.933594 16.316406-17.011719 16.316406zm0 0" fill="#efd176"/><path d="m260.097656 512c-1.15625 0-2.324218-.117188-3.5-.363281-9.214844-1.925781-15.121094-10.953125-13.195312-20.167969 5.960937-28.527344-1.488282-83.929688-3.929688-95.511719-1.9375-9.207031 3.953125-18.246093 13.160156-20.1875 9.207032-1.9375 18.25 3.949219 20.191407 13.160157 2.09375 9.929687 11.710937 72.316406 3.9375 109.511718-1.679688 8.035156-8.765625 13.558594-16.664063 13.558594zm0 0" fill="#efd176"/><path d="m341.792969 336.15625c-18.128907 0-34.9375-5.679688-48.589844-16.640625-7.339844-5.890625-8.511719-16.617187-2.621094-23.957031 5.890625-7.335938 16.617188-8.507813 23.957031-2.621094 22.519532 18.085938 58.816407 9.074219 90.308594-22.421875 6.65625-6.652344 17.445313-6.652344 24.097656 0 6.65625 6.65625 6.65625 17.445313 0 24.101563-21 21-44.667968 34.6875-68.449218 39.589843-6.335938 1.304688-12.597656 1.949219-18.703125 1.949219zm0 0" fill="#efd176"/><path d="m17.054688 406.058594c-1.480469 0-2.980469-.195313-4.476563-.601563-9.082031-2.464843-14.445313-11.828125-11.976563-20.910156 12.835938-47.261719 49.925782-81.820313 107.253907-99.945313 8.976562-2.832031 18.546875 2.136719 21.386719 11.109376 2.835937 8.976562-2.140626 18.550781-11.113282 21.386718-31.882812 10.078125-72.449218 31.511719-84.640625 76.382813-2.058593 7.585937-8.933593 12.578125-16.433593 12.578125zm0 0" fill="#efd176"/><path d="m161.585938 68.65625c23.972656 23.976562 28.082031 61.304688 28.492187 80.460938.148437 6.960937-5.542969 12.652343-12.503906 12.503906-19.15625-.410156-56.480469-4.519532-80.457031-28.496094-23.976563-23.972656-28.085938-61.300781-28.496094-80.457031-.148438-6.960938 5.542968-12.652344 12.503906-12.503907 19.15625.410157 56.484375 4.519532 80.460938 28.492188zm0 0" fill="#8ee2cf"/><path d="m143.726562 122.769531c-1.917968 0-3.839843-.730469-5.300781-2.195312l-28.753906-28.753907c-2.929687-2.929687-2.929687-7.679687 0-10.605468 2.925781-2.929688 7.675781-2.929688 10.605469 0l28.753906 28.753906c2.929688 2.929688 2.929688 7.675781 0 10.605469-1.464844 1.460937-3.386719 2.195312-5.304688 2.195312zm0 0" fill="#6fce91"/><path d="m255.28125 68.65625c-23.976562 23.976562-28.085938 61.304688-28.496094 80.460938-.148437 6.960937 5.542969 12.652343 12.503906 12.503906 19.15625-.410156 56.484376-4.519532 80.460938-28.496094 23.972656-23.976562 28.082031-61.300781 28.492188-80.457031.148437-6.960938-5.542969-12.652344-12.503907-12.503907-19.15625.410157-56.480469 4.519532-80.457031 28.492188zm0 0" fill="#8ee2cf"/><path d="m273.136719 122.769531c-1.921875 0-3.839844-.730469-5.304688-2.195312-2.929687-2.929688-2.929687-7.679688 0-10.605469l28.757813-28.753906c2.925781-2.929688 7.675781-2.929688 10.605468 0 2.929688 2.929687 2.929688 7.675781-.003906 10.605468l-28.753906 28.753907c-1.460938 1.460937-3.382812 2.195312-5.300781 2.195312zm0 0" fill="#6fce91"/><path d="m254.019531 80.8125c0 33.90625-23.492187 63.207031-36.746093 77.039062-4.816407 5.027344-12.867188 5.027344-17.683594 0-13.253906-13.832031-36.742188-43.132812-36.742188-77.039062s23.488282-63.207031 36.742188-77.042969c4.816406-5.027343 12.867187-5.027343 17.683594 0 13.257812 13.835938 36.746093 43.136719 36.746093 77.042969zm0 0" fill="#8ee2cf"/><path d="m208.433594 108.644531c-4.144532 0-7.5-3.355469-7.5-7.5v-40.664062c0-4.144531 3.355468-7.5 7.5-7.5 4.140625 0 7.5 3.355469 7.5 7.5v40.664062c0 4.140625-3.359375 7.5-7.5 7.5zm0 0" fill="#6fce91"/><path d="m208.433594 130.140625c70.335937 0 120.613281 55.394531 127.355468 139.28125 7.011719 87.261719-25.8125 152.351563-127.355468 152.351563-101.542969 0-134.367188-65.089844-127.359375-152.351563 6.742187-83.886719 57.019531-139.28125 127.359375-139.28125zm0 0" fill="#f7ef87"/><g fill="#efd176"><path d="m166.386719 137.453125c-47.757813 17.628906-80.007813 65.980469-85.308594 131.96875-6.992187 87.019531 25.636719 151.980469 126.515625 152.34375-122.445312-74.914063-89.609375-210.078125-41.207031-284.3125zm0 0"/><path d="m220.796875 237.476562c-1.917969 0-3.835937-.730468-5.300781-2.195312l-7.0625-7.0625-7.066406 7.0625c-2.925782 2.929688-7.675782 2.929688-10.605469 0-2.925781-2.929688-2.925781-7.679688 0-10.605469l12.367187-12.367187c2.929688-2.925782 7.679688-2.925782 10.605469 0l12.367187 12.367187c2.929688 2.925781 2.929688 7.675781 0 10.605469-1.464843 1.464844-3.382812 2.195312-5.304687 2.195312zm0 0"/><path d="m266.761719 237.476562c-1.917969 0-3.835938-.730468-5.300781-2.195312-2.929688-2.929688-2.929688-7.679688 0-10.605469l12.363281-12.367187c2.929687-2.929688 7.679687-2.925782 10.609375 0l12.363281 12.367187c2.929687 2.929688 2.929687 7.675781 0 10.605469s-7.679687 2.929688-10.605469 0l-7.0625-7.0625-7.0625 7.0625c-1.464844 1.464844-3.382812 2.195312-5.304687 2.195312zm0 0"/><path d="m150.101562 237.476562c-1.921874 0-3.839843-.730468-5.304687-2.195312l-7.0625-7.0625-7.0625 7.0625c-2.929687 2.929688-7.679687 2.929688-10.605469 0-2.929687-2.929688-2.929687-7.679688 0-10.605469l12.363282-12.367187c2.929687-2.925782 7.679687-2.925782 10.609374 0l12.363282 12.367187c2.929687 2.925781 2.929687 7.675781 0 10.605469-1.464844 1.464844-3.382813 2.195312-5.300782 2.195312zm0 0"/><path d="m256.144531 382.410156c-1.917969 0-3.835937-.730468-5.300781-2.195312l-7.0625-7.0625-7.0625 7.0625c-2.929688 2.925781-7.679688 2.925781-10.609375 0-2.925781-2.929688-2.925781-7.679688 0-10.609375l12.367187-12.363281c1.40625-1.40625 3.316407-2.195313 5.304688-2.195313s3.894531.789063 5.304688 2.195313l12.363281 12.367187c2.929687 2.925781 2.929687 7.675781 0 10.605469-1.464844 1.464844-3.382813 2.195312-5.304688 2.195312zm0 0"/><path d="m185.449219 382.410156c-1.917969 0-3.839844-.730468-5.304688-2.195312l-7.0625-7.0625-7.0625 7.0625c-2.929687 2.929687-7.675781 2.929687-10.605469 0-2.929687-2.929688-2.929687-7.679688 0-10.605469l12.367188-12.367187c1.40625-1.40625 3.3125-2.195313 5.300781-2.195313s3.898438.789063 5.304688 2.195313l12.367187 12.367187c2.925782 2.929687 2.925782 7.675781 0 10.605469-1.464844 1.464844-3.386718 2.195312-5.304687 2.195312zm0 0"/></g><path d="m156.714844 317.367188c0-13.300782-13.539063-24.082032-30.242188-24.082032-16.699218 0-30.238281 10.78125-30.238281 24.082032 0 13.300781 13.539063 24.082031 30.238281 24.082031 16.703125 0 30.242188-10.78125 30.242188-24.082031zm0 0" fill="#eda1ab"/><path d="m320.632812 317.367188c0-13.300782-13.542968-24.082032-30.242187-24.082032-16.703125 0-30.242187 10.78125-30.242187 24.082032 0 13.300781 13.539062 24.082031 30.242187 24.082031 16.699219 0 30.242187-10.78125 30.242187-24.082031zm0 0" fill="#eda1ab"/><path d="m144.097656 300.84375c-4.140625 0-7.5-3.355469-7.5-7.5v-10.679688c0-4.140624 3.359375-7.5 7.5-7.5s7.5 3.359376 7.5 7.5v10.679688c0 4.144531-3.359375 7.5-7.5 7.5zm0 0" fill="#4e5660"/><path d="m272.765625 300.84375c-4.144531 0-7.5-3.355469-7.5-7.5v-10.679688c0-4.140624 3.355469-7.5 7.5-7.5 4.140625 0 7.5 3.359376 7.5 7.5v10.679688c0 4.144531-3.359375 7.5-7.5 7.5zm0 0" fill="#4e5660"/><path d="m115.410156 298.835938c-10.839844 0-19.777344-.980469-26.410156-1.703126-3.679688-.402343-6.855469-.75-8.828125-.75-4.140625-.007812-7.496094-3.371093-7.488281-7.511718.003906-4.140625 3.363281-7.488282 7.5-7.488282h.011718c2.777344.003907 6.15625.371094 10.433594.839844 15.707032 1.714844 41.996094 4.589844 75.535156-6.609375 41.308594-13.792969 81.25-45.089843 118.714844-93.019531 2.550782-3.265625 7.265625-3.839844 10.527344-1.289062 3.261719 2.550781 3.839844 7.261718 1.289062 10.523437-72.816406 93.167969-140.496093 107.007813-181.285156 107.007813zm0 0" fill="#4e5660"/><path d="m159.292969 262.023438h-30.390625c-5.933594 0-10.746094 4.808593-10.746094 10.746093v15.195313c0 14.324218 11.617188 25.941406 25.941406 25.941406 14.328125 0 25.945313-11.613281 25.945313-25.941406v-15.195313c-.003907-5.9375-4.8125-10.746093-10.75-10.746093zm0 0" fill="#4e5660"/><path d="m208.433594 249.457031c11.621094 0 66.105468-.835937 120.835937-7.613281 5.109375-.632812 8.480469-5.664062 7.125-10.628906-7.0625-25.863282-18.882812-48.226563-34.984375-65.875-24.226562-26.550782-56.378906-40.582032-92.976562-40.582032-36.601563 0-68.753906 14.03125-92.980469 40.582032-16.101563 17.648437-27.917969 40.011718-34.980469 65.875-1.359375 4.964844 2.011719 9.996094 7.121094 10.628906 54.730469 6.777344 109.214844 7.613281 120.839844 7.613281zm0 0" fill="#c6c6c6"/><path d="m189.449219 126.074219c-28.742188 4.046875-54.054688 17.410156-73.996094 39.265625-16.101563 17.648437-27.917969 40.007812-34.980469 65.875-1.359375 4.964844 2.011719 9.996094 7.121094 10.628906 54.730469 6.777344 109.214844 7.609375 120.839844 7.609375 1.84375 0 4.773437-.019531 8.605468-.082031-40.125-25.492188-44.984374-99.101563-27.589843-123.296875zm0 0" fill="#9aa3b1"/><path d="m229.132812 314.996094c-3.949218 0-7.253906-3.082032-7.484374-7.070313-.058594-1.027343-1.179688-4.414062-4.09375-5.667969-4.996094-2.144531-14.332032 1.957032-24.984376 10.964844-3.164062 2.675782-7.898437 2.28125-10.570312-.882812-2.675781-3.164063-2.28125-7.894532.882812-10.570313 15.988282-13.519531 29.640626-17.996093 40.589844-13.292969 8.511719 3.65625 12.785156 12.199219 13.152344 18.589844.234375 4.136719-2.921875 7.679688-7.058594 7.917969-.144531.007813-.289062.011719-.433594.011719zm0 0" fill="#4e5660"/><path d="m232.445312 221.921875c-1.921874 0-3.839843-.730469-5.304687-2.195313l-48.023437-48.023437c-2.929688-2.929687-2.929688-7.679687 0-10.605469 2.929687-2.929687 7.679687-2.929687 10.605468 0l48.027344 48.019532c2.925781 2.933593 2.925781 7.679687 0 10.609374-1.46875 1.464844-3.386719 2.195313-5.304688 2.195313zm0 0" fill="#fff"/><path d="m184.421875 221.921875c-1.921875 0-3.839844-.730469-5.304687-2.195313-2.929688-2.929687-2.929688-7.679687 0-10.609374l48.023437-48.019532c2.929687-2.929687 7.679687-2.929687 10.605469 0 2.929687 2.929688 2.929687 7.675782 0 10.605469l-48.023438 48.023437c-1.464844 1.464844-3.382812 2.195313-5.300781 2.195313zm0 0" fill="#fff"/><path d="m433.597656 273.363281c-1.917968 0-3.835937-.730469-5.300781-2.195312-2.929687-2.929688-2.929687-7.679688 0-10.605469l12.828125-12.832031c4.273438-4.273438 11.050781-4.992188 16.109375-1.710938 5.527344 3.585938 12.828125 2.378907 16.988281-2.808593 3.710938-4.632813 3.683594-11.34375-.070312-15.953126-2.46875-3.03125-6.101563-4.769531-9.96875-4.769531-4.140625 0-7.5-3.355469-7.5-7.5 0-4.140625 3.359375-7.5 7.5-7.5 8.398437 0 16.273437 3.753907 21.597656 10.296875 8.1875 10.054688 8.25 24.691406.148438 34.804688-8.628907 10.769531-23.5625 13.585937-35.367188 6.917968l-11.660156 11.660157c-1.464844 1.464843-3.382813 2.195312-5.304688 2.195312zm0 0" fill="#4e5660"/><path d="m387.589844 271.296875c-3.164063-3.164063-2.488282-8.429687 1.328125-10.761719 14.007812-8.570312 32.558593-6.792968 44.683593 5.328125 12.121094 12.125 13.898438 30.675781 5.328126 44.683594-2.335938 3.816406-7.597657 4.488281-10.757813 1.328125zm0 0" fill="#8eafe2"/></svg>