<svg height="512pt" viewBox="-74 0 511 512" width="512pt" xmlns="http://www.w3.org/2000/svg"><path d="m169.933594 511.996094c-3.785156 0-7.597656-1.253906-10.757813-3.832032-7.296875-5.945312-8.386719-16.679687-2.441406-23.976562 14.4375-17.710938 7.738281-48.160156 3.304687-68.308594-2.621093-11.902344-4.351562-19.765625-2.839843-26.949218 1.945312-9.210938 10.984375-15.101563 20.191406-13.160157 8.875 1.871094 14.667969 10.335938 13.339844 19.191407.121093 2.367187 1.542969 8.824218 2.59375 13.59375 5.488281 24.941406 14.675781 66.6875-10.175781 97.171874-3.367188 4.128907-8.273438 6.269532-13.214844 6.269532zm20.621094-116.054688c0 .007813-.003907.011719-.003907.015625 0-.003906.003907-.007812.003907-.015625zm0 0" fill="#efd176"/><path d="m273.257812 512c-1.15625 0-2.328124-.117188-3.503906-.363281-9.214844-1.925781-15.117187-10.953125-13.195312-20.167969 5.960937-28.527344-1.484375-83.929688-3.925782-95.511719-1.941406-9.207031 3.949219-18.246093 13.160157-20.1875 9.203125-1.9375 18.246093 3.949219 20.1875 13.160157 2.09375 9.929687 11.710937 72.316406 3.941406 109.511718-1.679687 8.035156-8.765625 13.558594-16.664063 13.558594zm0 0" fill="#efd176"/><path d="m102.71875 332.78125c-9.351562 0-17.9375-2.894531-25.988281-5.609375-13.839844-4.667969-29.535157-9.957031-56.898438-6.246094-9.335937 1.285157-17.910156-5.269531-19.175781-14.59375s5.269531-17.910156 14.59375-19.175781c35.28125-4.789062 56.71875 2.441406 72.371094 7.722656 14.847656 5.007813 17.027344 5.417969 24.453125-.542968 7.34375-5.890626 18.066406-4.71875 23.957031 2.617187 5.890625 7.339844 4.71875 18.066406-2.621094 23.957031-11.152344 8.953125-21.304687 11.871094-30.691406 11.871094zm0 0" fill="#efd176"/><path d="m174.742188 68.65625c23.976562 23.976562 28.085937 61.304688 28.496093 80.460938.148438 6.960937-5.542969 12.652343-12.503906 12.503906-19.15625-.410156-56.484375-4.519532-80.460937-28.496094-23.972657-23.976562-28.082032-61.300781-28.492188-80.457031-.148438-6.960938 5.542969-12.652344 12.503906-12.503907 19.15625.410157 56.480469 4.519532 80.457032 28.492188zm0 0" fill="#8ee2cf"/><path d="m156.886719 122.769531c-1.917969 0-3.839844-.730469-5.304688-2.195312l-28.753906-28.753907c-2.929687-2.929687-2.929687-7.679687 0-10.605468 2.929687-2.929688 7.679687-2.929688 10.605469 0l28.753906 28.753906c2.929688 2.925781 2.929688 7.675781.003906 10.605469-1.464844 1.460937-3.386718 2.195312-5.304687 2.195312zm0 0" fill="#6fce91"/><path d="m268.4375 68.65625c-23.972656 23.976562-28.082031 61.304688-28.492188 80.460938-.148437 6.960937 5.542969 12.652343 12.503907 12.503906 19.15625-.410156 56.480469-4.519532 80.457031-28.496094s28.085938-61.300781 28.492188-80.457031c.152343-6.960938-5.539063-12.652344-12.5-12.503907-19.15625.410157-56.484376 4.519532-80.460938 28.492188zm0 0" fill="#8ee2cf"/><path d="m286.296875 122.769531c-1.921875 0-3.839844-.730469-5.304687-2.195312-2.929688-2.929688-2.929688-7.679688 0-10.605469l28.753906-28.753906c2.929687-2.929688 7.679687-2.929688 10.609375 0 2.925781 2.929687 2.925781 7.675781-.003907 10.605468l-28.753906 28.753907c-1.460937 1.460937-3.382812 2.195312-5.300781 2.195312zm0 0" fill="#6fce91"/><path d="m267.179688 80.8125c0 33.90625-23.492188 63.207031-36.746094 77.039062-4.816406 5.027344-12.867188 5.027344-17.683594 0-13.253906-13.832031-36.742188-43.132812-36.742188-77.039062s23.488282-63.207031 36.742188-77.042969c4.816406-5.027343 12.867188-5.027343 17.683594 0 13.253906 13.835938 36.742187 43.136719 36.746094 77.042969zm0 0" fill="#8ee2cf"/><path d="m221.59375 108.644531c-4.144531 0-7.5-3.355469-7.5-7.5v-40.664062c0-4.144531 3.355469-7.5 7.5-7.5 4.140625 0 7.5 3.355469 7.5 7.5v40.664062c0 4.140625-3.359375 7.5-7.5 7.5zm0 0" fill="#6fce91"/><path d="m221.589844 130.140625c70.339844 0 120.617187 55.394531 127.355468 139.28125 7.011719 87.261719-25.8125 152.351563-127.355468 152.351563-101.542969 0-134.363282-65.089844-127.355469-152.351563 6.742187-83.886719 57.019531-139.28125 127.355469-139.28125zm0 0" fill="#f7ef87"/><g fill="#efd176"><path d="m179.542969 137.453125c-47.757813 17.628906-80.003907 65.980469-85.308594 131.96875-6.988281 87.019531 25.640625 151.980469 126.519531 152.34375-122.445312-74.914063-89.609375-210.078125-41.210937-284.3125zm0 0"/><path d="m220.710938 237.476562c-1.921876 0-3.839844-.730468-5.304688-2.195312-2.929688-2.929688-2.929688-7.679688 0-10.605469l12.367188-12.367187c2.929687-2.929688 7.679687-2.925782 10.609374 0l12.363282 12.367187c2.929687 2.929688 2.929687 7.675781 0 10.605469-2.929688 2.929688-7.679688 2.929688-10.605469 0l-7.0625-7.0625-7.0625 7.0625c-1.464844 1.464844-3.386719 2.195312-5.304687 2.195312zm0 0"/><path d="m316.140625 237.476562c-1.917969 0-3.839844-.730468-5.304687-2.195312l-7.0625-7.0625-7.058594 7.0625c-2.933594 2.929688-7.679688 2.929688-10.609375 0-2.929688-2.929688-2.929688-7.675781 0-10.605469l12.367187-12.367187c2.929688-2.925782 7.675782-2.925782 10.605469 0l12.363281 12.367187c2.929688 2.929688 2.929688 7.675781 0 10.605469-1.464844 1.464844-3.382812 2.195312-5.300781 2.195312zm0 0"/><path d="m150.015625 237.476562c-1.921875 0-3.839844-.730468-5.304687-2.195312-2.929688-2.929688-2.929688-7.679688 0-10.605469l12.367187-12.367187c2.929687-2.929688 7.675781-2.925782 10.605469 0l12.363281 12.367187c2.929687 2.929688 2.929687 7.675781 0 10.605469s-7.675781 2.929688-10.605469 0l-7.0625-7.0625-7.0625 7.0625c-1.464844 1.464844-3.382812 2.195312-5.300781 2.195312zm0 0"/><path d="m280.664062 382.410156c-1.917968 0-3.835937-.730468-5.300781-2.195312l-7.0625-7.0625-7.0625 7.0625c-2.929687 2.925781-7.679687 2.925781-10.609375 0-2.929687-2.929688-2.929687-7.679688 0-10.609375l12.367188-12.363281c1.40625-1.40625 3.3125-2.195313 5.304687-2.195313 1.988281 0 3.898438.789063 5.304688 2.195313l12.363281 12.367187c2.929688 2.925781 2.929688 7.675781 0 10.605469-1.464844 1.464844-3.382812 2.195312-5.304688 2.195312zm0 0"/><path d="m209.96875 382.410156c-1.917969 0-3.839844-.730468-5.304688-2.195312l-7.0625-7.0625-7.0625 7.0625c-2.929687 2.925781-7.675781 2.925781-10.605468 0-2.929688-2.929688-2.929688-7.679688 0-10.609375l12.367187-12.363281c1.40625-1.40625 3.3125-2.195313 5.300781-2.195313 1.992188 0 3.898438.789063 5.304688 2.195313l12.367188 12.367187c2.925781 2.925781 2.925781 7.675781-.003907 10.605469-1.460937 1.464844-3.382812 2.195312-5.300781 2.195312zm0 0"/></g><path d="m181.234375 317.367188c0-13.300782-13.539063-24.082032-30.242187-24.082032-16.699219 0-30.238282 10.78125-30.238282 24.082032 0 13.300781 13.539063 24.082031 30.238282 24.082031 16.703124 0 30.242187-10.78125 30.242187-24.082031zm0 0" fill="#eda1ab"/><path d="m345.152344 317.367188c0-13.300782-13.539063-24.082032-30.242188-24.082032s-30.242187 10.78125-30.242187 24.082032c0 13.300781 13.539062 24.082031 30.242187 24.082031s30.242188-10.78125 30.242188-24.082031zm0 0" fill="#eda1ab"/><path d="m168.617188 300.023438c-7.28125 0-14.207032-3.15625-19-8.65625-2.722657-3.121094-2.394532-7.859376.726562-10.582032 3.121094-2.71875 7.859375-2.394531 10.582031.730469 1.941407 2.226563 4.746094 3.507813 7.691407 3.507813 2.945312 0 5.75-1.28125 7.691406-3.507813 2.722656-3.125 7.457031-3.449219 10.582031-.730469 3.125 2.722656 3.449219 7.460938.726563 10.582032-4.792969 5.5-11.71875 8.65625-19 8.65625zm0 0" fill="#4e5660"/><path d="m297.285156 300.023438c-7.28125 0-14.207031-3.15625-19-8.65625-2.722656-3.121094-2.398437-7.859376.726563-10.582032 3.121093-2.71875 7.859375-2.394531 10.582031.730469 1.941406 2.226563 4.746094 3.507813 7.691406 3.507813 2.945313 0 5.75-1.28125 7.691406-3.507813 2.722657-3.125 7.457032-3.449219 10.582032-.730469 3.121094 2.722656 3.449218 7.460938.726562 10.582032-4.792968 5.5-11.71875 8.65625-19 8.65625zm0 0" fill="#4e5660"/><path d="m232.953125 291.78125c-12 0-22.683594-8.0625-29.402344 1.878906-6.816406 10.085938 8.449219 25.722656 29.402344 25.722656 20.949219 0 36.214844-15.636718 29.398437-25.722656-6.71875-9.941406-17.402343-1.878906-29.398437-1.878906zm0 0" fill="#4e5660"/><path d="m295.75 379.339844c-1.582031 0-3.109375-.054688-4.574219-.152344-22.308593-1.492188-43.03125-14.039062-55.4375-33.5625-5.050781-7.941406-2.703125-18.476562 5.242188-23.523438 7.945312-5.046874 18.472656-2.699218 23.519531 5.246094 6.511719 10.242188 17.601562 17.074219 28.949219 17.832032 13.433593.898437 27.074219-6.410157 39.464843-21.132813 6.0625-7.199219 16.8125-8.125 24.011719-2.066406 7.199219 6.058593 8.125 16.808593 2.0625 24.007812-22.730469 27.015625-46.214843 33.351563-63.238281 33.351563zm0 0" fill="#efd176"/><path d="m47.765625 270.972656c-1.128906 0-2.273437-.253906-3.351563-.792968-3.703124-1.855469-5.207031-6.359376-3.351562-10.0625 3.511719-7.027344 10.113281-16.289063 16.425781-23.042969 2.824219-3.027344 7.570313-3.1875 10.601563-.359375 3.023437 2.824218 3.1875 7.570312.359375 10.597656-5.253907 5.625-11.128907 13.832031-13.972657 19.511719-1.3125 2.628906-3.960937 4.148437-6.710937 4.148437zm0 0" fill="#c6c6c6"/><path d="m22.15625 256.257812c-1.105469 0-2.230469-.246093-3.289062-.765624-3.722657-1.820313-5.261719-6.3125-3.441407-10.03125 1.941407-3.972657 12.21875-24.222657 23.71875-32.917969 3.304688-2.5 8.011719-1.84375 10.507813 1.457031 2.496094 3.304688 1.84375 8.007812-1.460938 10.507812-6.339844 4.796876-14.445312 17.640626-19.292968 27.546876-1.300782 2.660156-3.96875 4.203124-6.742188 4.203124zm0 0" fill="#c6c6c6"/></svg>