<svg height="512pt" viewBox="-36 0 512 512.00025" width="512pt" xmlns="http://www.w3.org/2000/svg"><path d="m320.125 498.253906c-2.359375 0-4.761719-.488281-7.058594-1.511718-8.726562-3.90625-12.632812-14.144532-8.730468-22.871094 6.109374-13.652344 9.023437-43.699219-23.671876-59.710938-8.585937-4.203125-12.136718-14.574218-7.933593-23.15625 4.203125-8.585937 14.574219-12.136718 23.15625-7.933594 17.523437 8.582032 32.164062 23.265626 40.164062 40.292969 9.652344 20.546875 9.613281 42.902344-.113281 64.648438-2.878906 6.425781-9.195312 10.242187-15.8125 10.242187zm0 0" fill="#4e5660"/><path d="m159.464844 512c-8.4375 0-15.824219-6.171875-17.101563-14.769531-7.898437-53.175781 8.339844-97.988281 41.367188-114.164063 8.585937-4.199218 18.953125-.648437 23.160156 7.933594 4.203125 8.585938.652344 18.953125-7.933594 23.160156-18.625 9.117188-27.816406 41.1875-22.351562 77.984375 1.402343 9.457031-5.121094 18.261719-14.578125 19.664063-.863282.128906-1.71875.191406-2.5625.191406zm0 0" fill="#4e5660"/><path d="m422.355469 427.703125c-.761719 0-1.535157-.050781-2.308594-.152344-9.476563-1.265625-16.132813-9.96875-14.871094-19.445312 4.289063-32.175781-1.351562-56.089844-17.242187-73.113281-12.058594-12.917969-30.097656-22.066407-55.152344-27.96875-9.304688-2.191407-15.070312-11.511719-12.878906-20.816407 2.191406-9.304687 11.507812-15.074219 20.816406-12.878906 31.925781 7.519531 55.648438 19.964844 72.519531 38.042969 23.085938 24.726562 31.914063 58.8125 26.25 101.308594-1.160156 8.699218-8.589843 15.023437-17.132812 15.023437zm0 0" fill="#efd176"/><path d="m83.734375 328.71875c-6.832031 0-13.722656-.628906-20.546875-2.011719-26.714844-5.40625-47.84375-21.253906-61.109375-45.835937-4.539063-8.410156-1.398437-18.910156 7.015625-23.453125 8.414062-4.539063 18.914062-1.398438 23.449219 7.015625 8.34375 15.460937 20.964843 24.996094 37.511719 28.347656 24.402343 4.941406 51.972656-4.363281 66.59375-16.101562 7.453124-5.984376 18.347656-4.796876 24.332031 2.660156 5.988281 7.453125 4.792969 18.347656-2.660157 24.332031-16.46875 13.222656-44.933593 25.046875-74.585937 25.046875zm0 0" fill="#efd176"/><path d="m192.226562 69.738281c24.351563 24.351563 28.523438 62.265625 28.941407 81.722657.148437 7.070312-5.632813 12.851562-12.699219 12.703124-19.460938-.417968-57.371094-4.589843-81.726562-28.945312-24.351563-24.351562-28.523438-62.265625-28.941407-81.722656-.148437-7.070313 5.628907-12.851563 12.699219-12.699219 19.457031.414063 57.371094 4.589844 81.726562 28.941406zm0 0" fill="#8ee2cf"/><path d="m174.089844 124.582031c-1.921875 0-3.839844-.730469-5.304688-2.195312l-29.207031-29.207031c-2.929687-2.929688-2.929687-7.675782 0-10.605469 2.929687-2.929688 7.675781-2.929688 10.605469 0l29.207031 29.203125c2.929687 2.929687 2.929687 7.679687 0 10.609375-1.464844 1.464843-3.382813 2.195312-5.300781 2.195312zm0 0" fill="#6fce91"/><path d="m287.394531 69.738281c-24.355469 24.351563-28.527343 62.265625-28.941406 81.722657-.152344 7.070312 5.628906 12.851562 12.699219 12.703124 19.457031-.417968 57.371094-4.589843 81.722656-28.945312 24.355469-24.351562 28.527344-62.265625 28.941406-81.722656.152344-7.070313-5.628906-12.851563-12.699218-12.699219-19.457032.414063-57.371094 4.589844-81.722657 28.941406zm0 0" fill="#8ee2cf"/><path d="m305.53125 124.582031c-1.917969 0-3.839844-.730469-5.300781-2.195312-2.929688-2.929688-2.929688-7.679688 0-10.609375l29.207031-29.203125c2.925781-2.929688 7.675781-2.929688 10.605469 0 2.929687 2.929687 2.929687 7.675781 0 10.605469l-29.207031 29.207031c-1.464844 1.464843-3.386719 2.195312-5.304688 2.195312zm0 0" fill="#6fce91"/><path d="m286.113281 82.082031c0 34.441407-23.859375 64.199219-37.324219 78.253907-4.890624 5.105468-13.066406 5.105468-17.960937 0-13.464844-14.054688-37.320313-43.8125-37.320313-78.253907 0-34.441406 23.855469-64.199219 37.320313-78.25 4.894531-5.109375 13.070313-5.109375 17.960937 0 13.464844 14.050781 37.324219 43.808594 37.324219 78.25zm0 0" fill="#8ee2cf"/><path d="m239.808594 110.234375c-4.140625 0-7.5-3.355469-7.5-7.5v-41.304687c0-4.140626 3.359375-7.5 7.5-7.5 4.144531 0 7.5 3.359374 7.5 7.5v41.304687c0 4.144531-3.355469 7.5-7.5 7.5zm0 0" fill="#6fce91"/><path d="m239.808594 132.1875c71.441406 0 122.511718 56.265625 129.359375 141.472656 7.121093 88.632813-26.21875 154.742188-129.359375 154.742188-103.136719 0-136.476563-66.109375-129.355469-154.742188 6.84375-85.207031 57.914063-141.472656 129.355469-141.472656zm0 0" fill="#a3defe"/><path d="m197.101562 139.613281c-48.507812 17.910157-81.265624 67.019531-86.648437 134.046875-7.101563 88.386719 26.039063 154.371094 128.503906 154.734375-124.367187-76.089843-91.019531-213.378906-41.855469-288.78125zm0 0" fill="#7acefa"/><path d="m365.351562 340.308594c-46.148437 12.78125-104.183593 15.332031-126.394531 15.332031-21.917969 0-78.726562-2.484375-124.570312-14.839844-.003907 0-.003907 0-.003907 0 3.914063 16.449219 10.296876 31.144531 19.488282 43.582031 41.800781 8.058594 86.050781 9.863282 105.054687 9.863282 19.3125 0 64.714844-1.863282 107.113281-10.261719 9.125-12.476563 15.449219-27.203125 19.316407-43.675781zm0 0" fill="#e1b89a"/><path d="m194.855469 392.328125c-11.769531-13.050781-20.710938-26.996094-27.257813-41.476563-17.6875-2.246093-36.203125-5.464843-53.210937-10.050781-.003907 0-.003907 0-.003907 0 3.914063 16.449219 10.296876 31.144531 19.488282 43.582031 20.867187 4.023438 42.339844 6.484376 60.984375 7.945313zm0 0" fill="#d2996f"/><path d="m239.808594 132.1875c-71.441406 0-122.511719 56.265625-129.355469 141.472656-1.960937 24.390625-.847656 47.070313 3.933594 67.140625 45.84375 12.355469 102.652343 14.839844 124.570312 14.839844 22.210938 0 80.246094-2.550781 126.394531-15.332031 4.679688-19.953125 5.761719-42.457032 3.816407-66.648438-6.847657-85.207031-57.917969-141.472656-129.359375-141.472656zm0 0" fill="#8eafe2"/><path d="m197.101562 139.613281c-48.507812 17.90625-81.265624 67.019531-86.648437 134.046875-1.960937 24.390625-.847656 47.070313 3.933594 67.140625 17.007812 4.582031 35.523437 7.804688 53.210937 10.050781-32.589844-72.109374-5.578125-157.429687 29.503906-211.238281zm0 0" fill="#6a96d7"/><path d="m319.976562 162.296875c-22.976562 11.371094-31.324218 28.546875-33.390624 43.246094-.746094 5.304687 4.460937 9.457031 9.464843 7.546875 15.257813-5.816406 41.484375-10.257813 57.742188-3-8.402344-19.101563-19.859375-35.246094-33.816407-47.792969zm0 0" fill="#a3defe"/><path d="m159.640625 162.296875c22.976563 11.371094 31.328125 28.546875 33.390625 43.246094.746094 5.304687-4.460938 9.457031-9.464844 7.546875-15.257812-5.816406-41.484375-10.257813-57.742187-3 8.40625-19.101563 19.859375-35.246094 33.816406-47.792969zm0 0" fill="#a3defe"/><path d="m159.640625 162.296875c-13.957031 12.546875-25.410156 28.691406-33.816406 47.792969 10.648437-4.753906 25.578125-4.488282 38.902343-2.105469 3.671876-11.503906 8.050782-22.597656 12.910157-33.09375-4.65625-4.621094-10.554688-8.914063-17.996094-12.59375zm0 0" fill="#7acefa"/><g fill="#6a96d7"><path d="m239.808594 251.84375c-4.140625 0-7.5-3.359375-7.5-7.5v-7.402344c0-4.144531 3.359375-7.5 7.5-7.5 4.144531 0 7.5 3.355469 7.5 7.5v7.402344c0 4.140625-3.355469 7.5-7.5 7.5zm0 0"/><path d="m239.808594 220.46875c-4.140625 0-7.5-3.355469-7.5-7.5v-7.402344c0-4.140625 3.359375-7.5 7.5-7.5 4.144531 0 7.5 3.359375 7.5 7.5v7.402344c0 4.140625-3.355469 7.5-7.5 7.5zm0 0"/><path d="m239.808594 189.09375c-4.140625 0-7.5-3.355469-7.5-7.5v-7.402344c0-4.140625 3.359375-7.5 7.5-7.5 4.144531 0 7.5 3.359375 7.5 7.5v7.402344c0 4.144531-3.355469 7.5-7.5 7.5zm0 0"/><path d="m239.808594 157.71875c-4.140625 0-7.5-3.355469-7.5-7.5v-7.398438c0-4.144531 3.359375-7.5 7.5-7.5 4.144531 0 7.5 3.355469 7.5 7.5v7.398438c0 4.144531-3.355469 7.5-7.5 7.5zm0 0"/></g><path d="m187.277344 307.355469c0-13.507813-13.75-24.460938-30.714844-24.460938s-30.714844 10.953125-30.714844 24.460938c0 13.511719 13.75 24.460937 30.714844 24.460937s30.714844-10.949218 30.714844-24.460937zm0 0" fill="#fff"/><path d="m353.773438 307.355469c0-13.507813-13.753907-24.460938-30.71875-24.460938-16.960938 0-30.714844 10.953125-30.714844 24.460938 0 13.511719 13.753906 24.460937 30.714844 24.460937 16.964843 0 30.71875-10.949218 30.71875-24.460937zm0 0" fill="#fff"/><path d="m174.464844 290.457031c-4.140625 0-7.5-3.359375-7.5-7.5v-10.847656c0-4.144531 3.359375-7.5 7.5-7.5s7.5 3.355469 7.5 7.5v10.847656c0 4.140625-3.359375 7.5-7.5 7.5zm0 0" fill="#4e5660"/><path d="m305.15625 290.457031c-4.144531 0-7.5-3.359375-7.5-7.5v-10.847656c0-4.144531 3.355469-7.5 7.5-7.5 4.140625 0 7.5 3.355469 7.5 7.5v10.847656c0 4.140625-3.359375 7.5-7.5 7.5zm0 0" fill="#4e5660"/><path d="m275.714844 291.765625c0-15.527344-16.074219-16.988281-35.90625-16.988281-19.828125 0-35.90625 1.460937-35.90625 16.988281s16.078125 28.117187 35.90625 28.117187c19.832031 0 35.90625-12.589843 35.90625-28.117187zm0 0" fill="#4e5660"/><path d="m239.808594 327.382812c-23.933594 0-43.402344-15.980468-43.402344-35.617187 0-7.242187 2.6875-16.835937 15.507812-21.382813 7.253907-2.574218 16.398438-3.101562 27.894532-3.101562s20.640625.527344 27.898437 3.101562c12.816407 4.546876 15.507813 14.140626 15.507813 21.382813 0 19.636719-19.472656 35.617187-43.40625 35.617187zm0-45.101562c-26.367188 0-28.402344 3.929688-28.402344 9.484375 0 11.175781 13.007812 20.613281 28.402344 20.613281 15.398437 0 28.40625-9.4375 28.40625-20.613281 0-5.554687-2.039063-9.484375-28.40625-9.484375zm0 0" fill="#fff"/><path d="m186.570312 263.273438c-.433593 0-.871093-.035157-1.308593-.113282l-21.765625-3.839844c-4.078125-.71875-6.800782-4.605468-6.082032-8.6875.71875-4.078124 4.605469-6.808593 8.6875-6.082031l21.761719 3.835938c4.078125.71875 6.804688 4.609375 6.085938 8.6875-.644531 3.640625-3.808594 6.199219-7.378907 6.199219zm0 0" fill="#fff"/><path d="m293.050781 263.273438c-3.574219 0-6.738281-2.558594-7.378906-6.195313-.71875-4.082031 2.003906-7.972656 6.085937-8.691406l21.761719-3.835938c4.082031-.726562 7.96875 2.003907 8.6875 6.082031.71875 4.082032-2.007812 7.96875-6.085937 8.6875l-21.761719 3.839844c-.441406.078125-.878906.113282-1.308594.113282zm0 0" fill="#fff"/><path d="m290.972656 380.804688c0-21.03125-22.90625-38.078126-51.164062-38.078126-28.253906 0-51.160156 17.046876-51.160156 38.078126s22.90625 38.082031 51.160156 38.082031c28.257812 0 51.164062-17.050781 51.164062-38.082031zm0 0" fill="#f7ef87"/><path d="m192.441406 366.417969 52.289063 52.289062c12.386719-.878906 23.476562-5.046875 31.695312-11.316406l-60.324219-60.328125c-10.648437 4.15625-19.082031 11.015625-23.660156 19.355469zm0 0" fill="#efd176"/><path d="m265.09375 380.804688c0-8.59375-11.320312-15.558594-25.285156-15.558594s-25.285156 6.964844-25.285156 15.558594 11.320312 15.5625 25.285156 15.5625 25.285156-6.96875 25.285156-15.5625zm0 0" fill="#e26e7e"/><path d="m314.789062 377.46875c-3.859374 0-7.140624-2.964844-7.464843-6.882812-.339844-4.128907 2.730469-7.75 6.855469-8.09375 2.210937-.183594 8.867187-1.027344 11.089843-1.472657 4.0625-.808593 8.011719 1.820313 8.828125 5.882813.8125 4.0625-1.820312 8.011718-5.882812 8.824218-3.050782.613282-10.355469 1.511719-12.796875 1.714844-.210938.019532-.421875.027344-.628907.027344zm0 0" fill="#d2996f"/><path d="m164.828125 377.46875c-.207031 0-.414063-.007812-.625-.027344-2.441406-.199218-9.746094-1.101562-12.796875-1.710937-4.0625-.816407-6.695312-4.765625-5.882812-8.828125s4.761718-6.691406 8.828124-5.882813c2.222657.445313 8.875 1.289063 11.085938 1.472657 4.128906.34375 7.199219 3.964843 6.855469 8.09375-.320313 3.917968-3.601563 6.882812-7.464844 6.882812zm0 0" fill="#e1b89a"/><path d="m234.609375 365.578125c-11.46875 1.472656-20.085937 7.730469-20.085937 15.226563 0 8.59375 11.320312 15.5625 25.285156 15.5625 7.992187 0 15.113281-2.285157 19.746094-5.847657zm0 0" fill="#d9495d"/><path d="m17.832031 370.960938c-3.191406 0-6.152343-2.054688-7.15625-5.261719-3.835937-12.261719-4.835937-26.628907-2.738281-39.414063.671875-4.089844 4.53125-6.855468 8.617188-6.1875 4.085937.667969 6.855468 4.527344 6.183593 8.613282-1.730469 10.558593-.910156 22.40625 2.253907 32.507812 1.238281 3.953125-.964844 8.160156-4.917969 9.398438-.746094.234374-1.5.34375-2.242188.34375zm0 0" fill="#c6c6c6"/><path d="m49.867188 382.015625c-2.601563 0-5.128907-1.351563-6.511719-3.765625-4.066407-7.089844-6.496094-14.464844-8.121094-24.667969-.648437-4.089843 2.136719-7.933593 6.230469-8.582031 4.09375-.65625 7.933594 2.136719 8.585937 6.226562 1.335938 8.402344 3.167969 14.070313 6.3125 19.558594 2.0625 3.589844.820313 8.175782-2.769531 10.234375-1.179688.675781-2.460938.996094-3.726562.996094zm0 0" fill="#c6c6c6"/></svg>