<svg height="512pt" viewBox="-30 0 512 512" width="512pt" xmlns="http://www.w3.org/2000/svg"><path d="m366.960938 464.628906c-1.921876 0-3.839844-.730468-5.304688-2.195312l-12.367188-12.367188c-2.929687-2.929687-2.929687-7.675781 0-10.605468l7.0625-7.0625-7.0625-7.0625c-2.929687-2.929688-2.929687-7.675782 0-10.605469l7.0625-7.0625-7.0625-7.0625c-2.929687-2.929688-2.929687-7.679688.003907-10.609375 2.925781-2.925782 7.675781-2.925782 10.605469.003906l12.363281 12.363281c2.929687 2.929688 2.929687 7.679688 0 10.609375l-7.0625 7.058594 7.0625 7.066406c2.929687 2.925782 2.929687 7.675782 0 10.605469l-7.0625 7.0625 7.0625 7.0625c2.929687 2.929687 2.929687 7.675781 0 10.605469-1.464844 1.464844-3.382813 2.195312-5.300781 2.195312zm0 0" fill="#c6c6c6"/><path d="m12.207031 306.28125c-4.144531 0-7.5-3.359375-7.5-7.5v-17.488281c0-4.140625 3.355469-7.5 7.5-7.5h9.988281v-9.988281c0-4.140626 3.355469-7.5 7.5-7.5h9.988282v-9.984376c0-4.144531 3.355468-7.5 7.5-7.5 4.140625 0 7.5 3.355469 7.5 7.5v17.484376c0 4.144531-3.359375 7.5-7.5 7.5h-9.988282v9.988281c0 4.144531-3.359374 7.5-7.5 7.5h-9.988281v9.988281c0 4.144531-3.359375 7.5-7.5 7.5zm0 0" fill="#c6c6c6"/><path d="m167.023438 512c-3.171876 0-6.382813-.886719-9.242188-2.738281-7.898438-5.113281-10.160156-15.664063-5.046875-23.566407 17.921875-27.679687 7.863281-65.796874 1.851563-88.574218l-.085938-.328125c-2.402344-9.101563 3.027344-18.425781 12.128906-20.824219 9.101563-2.398438 18.421875 3.027344 20.824219 12.128906l.085937.328125c6.960938 26.371094 19.917969 75.457031-6.191406 115.789063-3.261718 5.042968-8.734375 7.785156-14.324218 7.785156zm0 0" fill="#efd176"/><path d="m292.914062 484.980469c-2.542968 0-5.121093-.570313-7.554687-1.773438-8.433594-4.179687-11.878906-14.40625-7.699219-22.835937 8.371094-16.890625 11.589844-34.835938-21.273437-51.613282-8.382813-4.28125-11.710938-14.542968-7.429688-22.925781 4.28125-8.382812 14.546875-11.710937 22.925781-7.429687 18.640626 9.519531 31.257813 20.816406 38.578126 34.542968 12.308593 23.09375 5.5625 46.769532-2.265626 62.5625-2.972656 6-9.007812 9.472657-15.28125 9.472657zm0 0" fill="#efd176"/><path d="m434.820312 350.910156c-3.761718 0-7.542968-1.238281-10.699218-3.789062-19.484375-15.738282-41.921875-20.832032-63.625-25.757813-19.976563-4.535156-40.632813-9.222656-57.03125-22.390625-7.339844-5.890625-8.511719-16.617187-2.621094-23.957031 5.890625-7.335937 16.617188-8.511719 23.957031-2.617187 10.269531 8.246093 25.550781 11.710937 43.242188 15.726562 24.304687 5.519531 51.855469 11.773438 77.5 32.488281 7.320312 5.914063 8.460937 16.640625 2.546875 23.964844-3.371094 4.164063-8.296875 6.332031-13.269532 6.332031zm0 0" fill="#efd176"/><path d="m17.027344 385.773438c-2.816406 0-5.675782-.699219-8.308594-2.175782-8.210938-4.601562-11.140625-14.984375-6.542969-23.195312 34.605469-61.804688 71.460938-77.242188 116.050781-91.003906 8.992188-2.769532 18.53125 2.265624 21.308594 11.257812 2.773438 8.992188-2.265625 18.53125-11.257812 21.308594-39.667969 12.242187-67.804688 24.082031-96.363282 75.089844-3.125 5.578124-8.917968 8.71875-14.886718 8.71875zm0 0" fill="#efd176"/><path d="m171.84375 68.65625c23.972656 23.976562 28.082031 61.304688 28.492188 80.460938.148437 6.960937-5.542969 12.652343-12.503907 12.503906-19.15625-.410156-56.480469-4.519532-80.457031-28.496094s-28.085938-61.300781-28.492188-80.457031c-.152343-6.960938 5.539063-12.652344 12.5-12.503907 19.15625.410157 56.484376 4.519532 80.460938 28.492188zm0 0" fill="#8ee2cf"/><path d="m153.984375 122.769531c-1.917969 0-3.839844-.730469-5.300781-2.195312l-28.757813-28.753907c-2.925781-2.929687-2.925781-7.679687 0-10.605468 2.929688-2.929688 7.679688-2.929688 10.605469 0l28.757812 28.753906c2.929688 2.929688 2.929688 7.675781 0 10.605469-1.464843 1.464843-3.382812 2.195312-5.304687 2.195312zm0 0" fill="#6fce91"/><path d="m265.539062 68.65625c-23.976562 23.976562-28.085937 61.304688-28.496093 80.460938-.148438 6.960937 5.542969 12.652343 12.503906 12.503906 19.15625-.410156 56.484375-4.519532 80.460937-28.496094 23.972657-23.976562 28.082032-61.300781 28.492188-80.457031.148438-6.960938-5.542969-12.652344-12.503906-12.503907-19.15625.410157-56.480469 4.519532-80.457032 28.492188zm0 0" fill="#8ee2cf"/><path d="m283.394531 122.769531c-1.917969 0-3.835937-.730469-5.300781-2.195312-2.929688-2.929688-2.929688-7.675781 0-10.605469l28.753906-28.753906c2.929688-2.929688 7.675782-2.929688 10.605469 0 2.929687 2.929687 2.929687 7.675781 0 10.605468l-28.753906 28.753907c-1.464844 1.464843-3.382813 2.195312-5.304688 2.195312zm0 0" fill="#6fce91"/><path d="m264.277344 80.8125c0 33.90625-23.488282 63.207031-36.746094 77.039062-4.816406 5.027344-12.863281 5.027344-17.679688 0-13.257812-13.835937-36.746093-43.132812-36.746093-77.039062s23.488281-63.207031 36.746093-77.042969c4.816407-5.027343 12.863282-5.027343 17.679688 0 13.257812 13.835938 36.746094 43.136719 36.746094 77.042969zm0 0" fill="#8ee2cf"/><path d="m218.691406 108.644531c-4.144531 0-7.5-3.355469-7.5-7.5v-40.664062c0-4.144531 3.355469-7.5 7.5-7.5 4.140625 0 7.5 3.355469 7.5 7.5v40.664062c0 4.140625-3.359375 7.5-7.5 7.5zm0 0" fill="#6fce91"/><path d="m218.691406 130.140625c70.335938 0 120.613282 55.394531 127.355469 139.285156 7.011719 87.257813-25.8125 152.347657-127.355469 152.347657-101.542968 0-134.367187-65.089844-127.355468-152.347657 6.738281-83.890625 57.019531-139.285156 127.355468-139.285156zm0 0" fill="#f7ef87"/><g fill="#efd176"><path d="m176.644531 137.453125c-47.757812 17.632813-80.007812 65.980469-85.308593 131.972656-6.992188 87.015625 25.636718 151.980469 126.515624 152.339844-122.445312-74.914063-89.609374-210.078125-41.207031-284.3125zm0 0"/><path d="m224.675781 237.480469c-1.917969 0-3.835937-.734375-5.300781-2.199219-2.929688-2.925781-2.929688-7.675781-.003906-10.605469l12.367187-12.363281c1.40625-1.410156 3.3125-2.199219 5.304688-2.199219 1.988281 0 3.894531.789063 5.300781 2.195313l12.367188 12.367187c2.929687 2.929688 2.929687 7.679688 0 10.605469-2.929688 2.929688-7.679688 2.929688-10.605469 0l-7.0625-7.0625-7.0625 7.0625c-1.464844 1.464844-3.382813 2.199219-5.304688 2.199219zm0 0"/><path d="m320.105469 237.480469c-1.921875 0-3.839844-.734375-5.304688-2.199219l-7.0625-7.0625-7.0625 7.0625c-2.929687 2.929688-7.675781 2.929688-10.605469 0-2.929687-2.929688-2.929687-7.675781 0-10.605469l12.367188-12.367187c1.40625-1.40625 3.3125-2.195313 5.300781-2.195313 1.992188 0 3.898438.789063 5.304688 2.195313l12.367187 12.367187c2.929688 2.929688 2.929688 7.679688-.003906 10.605469-1.460938 1.464844-3.382812 2.199219-5.300781 2.199219zm0 0"/><path d="m178.710938 237.480469c-1.917969 0-3.839844-.734375-5.304688-2.199219l-7.0625-7.0625-7.0625 7.0625c-2.929688 2.929688-7.679688 2.929688-10.605469 0-2.929687-2.925781-2.929687-7.675781 0-10.605469l12.367188-12.363281c1.402343-1.410156 3.3125-2.199219 5.300781-2.199219s3.898438.789063 5.304688 2.199219l12.363281 12.363281c2.929687 2.929688 2.929687 7.679688 0 10.605469-1.460938 1.464844-3.382813 2.199219-5.300781 2.199219zm0 0"/><path d="m284.582031 382.410156c-1.917969 0-3.839843-.730468-5.304687-2.195312l-7.0625-7.0625-7.0625 7.0625c-2.929688 2.929687-7.675782 2.929687-10.605469 0-2.929687-2.929688-2.929687-7.675782 0-10.605469l12.367187-12.367187c1.40625-1.40625 3.3125-2.195313 5.300782-2.195313 1.992187 0 3.898437.789063 5.304687 2.195313l12.367188 12.367187c2.925781 2.929687 2.925781 7.679687-.003907 10.605469-1.460937 1.464844-3.382812 2.195312-5.300781 2.195312zm0 0"/><path d="m213.882812 382.410156c-1.917968 0-3.835937-.730468-5.300781-2.195312l-7.0625-7.0625-7.0625 7.0625c-2.929687 2.929687-7.679687 2.929687-10.605469 0-2.929687-2.929688-2.929687-7.675782 0-10.605469l12.363282-12.367187c1.40625-1.40625 3.316406-2.195313 5.304687-2.195313s3.898438.789063 5.300781 2.195313l12.367188 12.367187c2.929688 2.929687 2.929688 7.679687 0 10.605469-1.464844 1.464844-3.382812 2.195312-5.304688 2.195312zm0 0"/></g><path d="m187.414062 291.996094h-32.03125v118.148437c0 8.847657 7.167969 16.015625 16.015626 16.015625 8.84375 0 16.015624-7.167968 16.015624-16.015625zm0 0" fill="#8eafe2"/><path d="m196.390625 281.53125c0 13.800781-11.1875 24.992188-24.992187 24.992188-13.804688 0-24.996094-11.191407-24.996094-24.992188 0-13.804688 11.191406-24.996094 24.996094-24.996094 13.804687 0 24.992187 11.191406 24.992187 24.996094zm0 0" fill="#4e5660"/><path d="m286.320312 291.996094h32.03125v118.148437c0 8.847657-7.167968 16.015625-16.011718 16.015625-8.847656 0-16.015625-7.167968-16.015625-16.015625v-118.148437zm0 0" fill="#8eafe2"/><path d="m327.332031 281.53125c0 13.800781-11.191406 24.992188-24.996093 24.992188-13.800782 0-24.992188-11.191407-24.992188-24.992188 0-13.804688 11.191406-24.996094 24.992188-24.996094 13.804687 0 24.996093 11.191406 24.996093 24.996094zm0 0" fill="#4e5660"/><path d="m236.867188 309.847656c11.601562 0 12.691406 20.03125 25.183593 12.574219 13.902344-8.300781-2.011719-45.734375-25.183593-45.734375-23.171876 0-39.085938 37.433594-25.183594 45.734375 12.492187 7.457031 13.582031-12.574219 25.183594-12.574219zm0 0" fill="#4e5660"/><path d="m53.054688 190.273438c-4.140626 0-7.5-3.355469-7.5-7.5v-29.117188c0-4.144531 3.359374-7.5 7.5-7.5 4.144531 0 7.5 3.355469 7.5 7.5v29.117188c0 4.144531-3.355469 7.5-7.5 7.5zm0 0" fill="#8eafe2"/><path d="m76.679688 190.273438c-4.144532 0-7.5-3.355469-7.5-7.5v-29.117188c0-4.144531 3.355468-7.5 7.5-7.5 4.140624 0 7.5 3.355469 7.5 7.5v29.117188c0 4.144531-3.359376 7.5-7.5 7.5zm0 0" fill="#8eafe2"/><path d="m100.300781 190.273438c-4.144531 0-7.5-3.355469-7.5-7.5v-29.117188c0-4.144531 3.355469-7.5 7.5-7.5 4.140625 0 7.5 3.355469 7.5 7.5v29.117188c0 4.144531-3.359375 7.5-7.5 7.5zm0 0" fill="#8eafe2"/></svg>