<svg height="512pt" viewBox="0 -9 512.00023 512" width="512pt" xmlns="http://www.w3.org/2000/svg"><path d="m415.816406 45.46875c-4.144531 0-7.5-3.355469-7.5-7.5v-30.46875c0-4.144531 3.355469-7.5 7.5-7.5 4.140625 0 7.5 3.355469 7.5 7.5v30.472656c0 4.140625-3.359375 7.496094-7.5 7.496094zm0 0" fill="#4e5660"/><path d="m512 134.152344c0 53.121094-43.0625 96.1875-96.183594 96.1875s-96.183594-43.066406-96.183594-96.1875 43.0625-96.183594 96.183594-96.183594 96.183594 43.0625 96.183594 96.183594zm0 0" fill="#a3defe"/><path d="m415.816406 37.96875c-40.011718 0-74.308594 24.4375-88.804687 59.199219h56.921875c5.222656-19.128907 15.015625-39.898438 31.882812-59.199219zm0 0" fill="#6fce91"/><path d="m504.621094 97.167969c-14.496094-34.761719-48.792969-59.199219-88.804688-59.199219 16.867188 19.300781 26.660156 40.070312 31.882813 59.199219zm0 0" fill="#f7ef87"/><path d="m378.828125 134.152344c0 10.777344 1.414063 23.472656 5.105469 36.988281h63.765625c3.691406-13.515625 5.105469-26.210937 5.105469-36.988281 0-10.773438-1.414063-23.46875-5.105469-36.984375h-63.765625c-3.691406 13.515625-5.105469 26.210937-5.105469 36.984375zm0 0" fill="#fff"/><path d="m378.828125 134.152344c0-10.773438 1.414063-23.46875 5.105469-36.984375h-56.921875c-4.746094 11.386719-7.378907 23.878906-7.378907 36.984375 0 13.109375 2.632813 25.601562 7.378907 36.988281h56.921875c-3.691406-13.515625-5.105469-26.210937-5.105469-36.988281zm0 0" fill="#e26e7e"/><path d="m327.011719 171.140625c14.496093 34.761719 48.792969 59.199219 88.804687 59.199219-16.867187-19.300782-26.660156-40.070313-31.882812-59.199219zm0 0" fill="#f7ef87"/><path d="m504.621094 97.167969h-56.921875c3.691406 13.515625 5.105469 26.210937 5.105469 36.984375 0 10.777344-1.414063 23.472656-5.105469 36.988281h56.921875c4.75-11.386719 7.378906-23.878906 7.378906-36.988281 0-13.105469-2.632812-25.597656-7.378906-36.984375zm0 0" fill="#8eafe2"/><path d="m383.933594 171.140625c5.222656 19.128906 15.015625 39.898437 31.882812 59.199219 16.867188-19.300782 26.660156-40.070313 31.882813-59.199219zm0 0" fill="#6fce91"/><path d="m363.550781 401.1875c-.785156 0-1.578125-.058594-2.378906-.183594-8.507813-1.300781-14.351563-9.253906-13.046875-17.765625 4.597656-30.054687-3.597656-38.644531-43.085938-74.269531l-1.769531-1.59375c-6.390625-5.769531-6.894531-15.625-1.125-22.015625 5.765625-6.390625 15.621094-6.898437 22.015625-1.128906l1.765625 1.59375c40.160157 36.234375 60.316407 54.421875 53.011719 102.132812-1.179688 7.710938-7.820312 13.230469-15.386719 13.230469zm0 0" fill="#efd176"/><path d="m111.382812 312.847656c-2.714843 0-5.460937-.707031-7.960937-2.195312-42.621094-25.382813-69.535156-49.636719-98.351563-111.769532-3.625-7.8125-.226562-17.078124 7.578126-20.699218 7.8125-3.621094 17.078124-.226563 20.699218 7.582031 25.542969 55.070313 48.089844 75.511719 86.023438 98.101563 7.398437 4.402343 9.824218 13.96875 5.417968 21.363281-2.914062 4.898437-8.09375 7.617187-13.40625 7.617187zm0 0" fill="#efd176"/><path d="m163.859375 494.953125c-5.117187 0-10.128906-2.515625-13.109375-7.132813-14.597656-22.605468-24.238281-37.539062-23.582031-55.027343.613281-16.417969 9.832031-30.507813 27.441406-56.042969 4.890625-7.085938 14.597656-8.871094 21.683594-3.984375 7.085937 4.886719 8.871093 14.59375 3.980469 21.679687-13.421876 19.46875-21.664063 31.789063-21.953126 39.511719-.273437 7.316407 6.542969 18.253907 18.617188 36.953125 4.671875 7.230469 2.59375 16.882813-4.636719 21.550782-2.617187 1.6875-5.546875 2.492187-8.441406 2.492187zm0 0" fill="#efd176"/><path d="m305.167969 494.953125c-5.082031 0-10.0625-2.480469-13.054688-7.046875-20.480469-31.257812-42.015625-69.839844-53.585937-96.003906-3.480469-7.875.082031-17.078125 7.953125-20.558594 7.875-3.484375 17.078125.074219 20.558593 7.949219 10.78125 24.382812 31.816407 62.019531 51.152344 91.53125 4.71875 7.199219 2.703125 16.863281-4.496094 21.578125-2.632812 1.726562-5.597656 2.550781-8.527343 2.550781zm0 0" fill="#efd176"/><path d="m168.234375 89.433594c21.933594 21.929687 25.691406 56.074218 26.066406 73.59375.132813 6.367187-5.070312 11.574218-11.4375 11.4375-17.523437-.371094-51.667969-4.128906-73.597656-26.0625-21.929687-21.929688-25.6875-56.070313-26.0625-73.59375-.136719-6.367188 5.070313-11.574219 11.4375-11.4375 17.523437.375 51.664063 4.132812 73.59375 26.0625zm0 0" fill="#8ee2cf"/><path d="m151.902344 139.570312c-1.917969 0-3.839844-.730468-5.304688-2.195312l-26.300781-26.304688c-2.929687-2.929687-2.929687-7.675781 0-10.605468 2.929687-2.925782 7.675781-2.925782 10.605469 0l26.304687 26.300781c2.925781 2.929687 2.925781 7.679687 0 10.609375-1.464843 1.460938-3.386719 2.195312-5.304687 2.195312zm0 0" fill="#6fce91"/><path d="m253.9375 89.433594c-21.929688 21.929687-25.6875 56.074218-26.0625 73.59375-.136719 6.367187 5.070312 11.574218 11.4375 11.4375 17.523438-.371094 51.664062-4.128906 73.59375-26.0625 21.933594-21.929688 25.6875-56.070313 26.0625-73.59375.136719-6.367188-5.066406-11.574219-11.433594-11.4375-17.523437.375-51.664062 4.132812-73.597656 26.0625zm0 0" fill="#8ee2cf"/><path d="m270.273438 139.570312c-1.921876 0-3.839844-.730468-5.304688-2.195312-2.929688-2.929688-2.929688-7.679688 0-10.609375l26.300781-26.300781c2.929688-2.925782 7.679688-2.925782 10.609375 0 2.929688 2.929687 2.929688 7.679687 0 10.605468l-26.300781 26.304688c-1.46875 1.460938-3.386719 2.195312-5.304687 2.195312zm0 0" fill="#6fce91"/><path d="m252.785156 100.550781c0 31.015625-21.484375 57.8125-33.609375 70.46875-4.40625 4.597657-11.769531 4.597657-16.175781 0-12.125-12.65625-33.609375-39.453125-33.609375-70.46875s21.484375-57.8125 33.609375-70.46875c4.40625-4.597656 11.769531-4.597656 16.175781 0 12.125 12.65625 33.609375 39.457031 33.609375 70.46875zm0 0" fill="#8ee2cf"/><path d="m211.085938 126.648438c-4.140626 0-7.5-3.355469-7.5-7.5v-37.195313c0-4.144531 3.359374-7.5 7.5-7.5 4.144531 0 7.5 3.355469 7.5 7.5v37.195313c0 4.144531-3.355469 7.5-7.5 7.5zm0 0" fill="#6fce91"/><path d="m211.085938 145.671875c64.335937 0 110.328124 50.671875 116.492187 127.398437 6.414063 79.816407-23.609375 139.355469-116.492187 139.355469-92.878907 0-122.902344-59.535156-116.488282-139.355469 6.164063-76.726562 52.152344-127.398437 116.488282-127.398437zm0 0" fill="#f7ef87"/><g fill="#efd176"><path d="m172.628906 152.359375c-43.6875 16.125-73.183594 60.351563-78.03125 120.710937-6.394531 79.597657 23.449219 139.019532 115.722656 139.347657-112-68.523438-81.964843-192.15625-37.691406-260.058594zm0 0"/><path d="m222.398438 250.898438c-1.921876 0-3.839844-.730469-5.304688-2.199219l-6.007812-6.003907-6.003907 6.003907c-2.933593 2.933593-7.679687 2.929687-10.609375.003906-2.929687-2.929687-2.929687-7.679687 0-10.605469l11.3125-11.3125c1.40625-1.40625 3.3125-2.199218 5.304688-2.199218 1.988281 0 3.894531.792968 5.300781 2.199218l11.3125 11.3125c2.929687 2.925782 2.929687 7.675782 0 10.605469-1.46875 1.464844-3.386719 2.195313-5.304687 2.195313zm0 0"/><path d="m264.441406 250.898438c-1.917968 0-3.839844-.730469-5.300781-2.195313-2.929687-2.929687-2.929687-7.679687-.003906-10.605469l11.3125-11.3125c1.40625-1.40625 3.3125-2.199218 5.304687-2.199218 1.988282 0 3.894532.792968 5.304688 2.195312l11.3125 11.3125c2.925781 2.929688 2.925781 7.679688 0 10.605469-2.933594 2.929687-7.679688 2.929687-10.609375 0l-6.007813-6.007813-6.007812 6.007813c-1.464844 1.46875-3.386719 2.199219-5.304688 2.199219zm0 0"/><path d="m135.109375 250.898438c-1.917969 0-3.839844-.730469-5.304687-2.195313-2.929688-2.929687-2.929688-7.679687 0-10.605469l11.3125-11.3125c1.40625-1.40625 3.3125-2.199218 5.304687-2.199218 1.988281 0 3.894531.792968 5.300781 2.195312l11.3125 11.3125c2.929688 2.929688 2.929688 7.679688 0 10.605469-2.929687 2.929687-7.675781 2.929687-10.605468 0l-6.007813-6.007813-6.007813 6.007813c-1.464843 1.46875-3.386718 2.199219-5.304687 2.199219zm0 0"/><path d="m254.730469 377.0625c-1.917969 0-3.839844-.734375-5.304688-2.199219l-6.003906-6.007812-6.007813 6.007812c-2.929687 2.929688-7.679687 2.929688-10.609374 0-2.925782-2.929687-2.925782-7.675781 0-10.605469l11.3125-11.3125c2.929687-2.925781 7.679687-2.925781 10.605468 0l11.3125 11.3125c2.929688 2.929688 2.929688 7.679688 0 10.605469-1.464844 1.464844-3.386718 2.199219-5.304687 2.199219zm0 0"/><path d="m190.066406 377.0625c-1.921875 0-3.839844-.734375-5.304687-2.199219l-6.007813-6.007812-6.007812 6.007812c-2.929688 2.929688-7.675782 2.929688-10.605469 0-2.929687-2.929687-2.929687-7.675781 0-10.605469l11.3125-11.3125c2.929687-2.925781 7.675781-2.925781 10.605469 0l11.3125 11.3125c2.925781 2.929688 2.925781 7.679688 0 10.605469-1.46875 1.464844-3.386719 2.199219-5.304688 2.199219zm0 0"/></g><path d="m163.78125 313.808594c0-12.164063-12.382812-22.027344-27.660156-22.027344s-27.660156 9.863281-27.660156 22.027344c0 12.167968 12.382812 22.03125 27.660156 22.03125s27.660156-9.863282 27.660156-22.03125zm0 0" fill="#eda1ab"/><path d="m313.714844 313.808594c0-12.164063-12.386719-22.027344-27.660156-22.027344-15.277344 0-27.664063 9.863281-27.664063 22.027344 0 12.167968 12.386719 22.03125 27.664063 22.03125 15.273437 0 27.660156-9.863282 27.660156-22.03125zm0 0" fill="#eda1ab"/><path d="m140.746094 295.300781c-4.144532 0-7.5-3.359375-7.5-7.5v-11.875c0-4.140625 3.355468-7.5 7.5-7.5 4.140625 0 7.5 3.359375 7.5 7.5v11.875c0 4.140625-3.359375 7.5-7.5 7.5zm0 0" fill="#4e5660"/><path d="m233.390625 296.886719c0-13.785157-9.988281-15.078125-22.304687-15.078125-12.316407 0-22.300782 1.292968-22.300782 15.078125 0 13.78125 9.984375 24.953125 22.300782 24.953125 12.316406 0 22.304687-11.171875 22.304687-24.953125zm0 0" fill="#4e5660"/><path d="m281.429688 295.300781c-4.144532 0-7.5-3.359375-7.5-7.5v-11.875c0-4.140625 3.355468-7.5 7.5-7.5 4.140624 0 7.5 3.359375 7.5 7.5v11.875c0 4.140625-3.359376 7.5-7.5 7.5zm0 0" fill="#4e5660"/><path d="m160.152344 180.136719h-25.214844c-10.59375 0-18.492188 9.765625-16.269531 20.125l1.394531 6.511719c2.347656 10.945312 12.023438 18.765624 23.21875 18.765624h8.523438c11.195312 0 20.871093-7.820312 23.21875-18.765624l1.394531-6.511719c2.222656-10.359375-5.671875-20.125-16.265625-20.125zm0 0" fill="#4e5660"/><path d="m249.65625 193.242188c-.335938 0-.679688-.019532-1.019531-.066407-9.09375-1.242187-21.578125-2.664062-37.550781-2.664062-15.96875 0-28.453126 1.421875-37.546876 2.664062-4.097656.5625-7.886718-2.316406-8.445312-6.421875-.558594-4.101562 2.316406-7.882812 6.421875-8.441406 9.5625-1.304688 22.699219-2.800781 39.570313-2.800781 16.871093 0 30.011718 1.496093 39.574218 2.800781 4.105469.558594 6.976563 4.339844 6.417969 8.441406-.511719 3.761719-3.726563 6.488282-7.421875 6.488282zm0 0" fill="#e26e7e"/><path d="m151.808594 233.039062h-8.527344c-14.632812 0-27.480469-10.382812-30.550781-24.691406l-1.394531-6.511718c-1.535157-7.164063.226562-14.539063 4.828124-20.234376 4.605469-5.699218 11.445313-8.964843 18.773438-8.964843h25.214844c7.324218 0 14.167968 3.265625 18.769531 8.964843 4.605469 5.695313 6.367187 13.070313 4.832031 20.234376l-1.398437 6.511718c-3.066407 14.308594-15.914063 24.691406-30.546875 24.691406zm-16.871094-45.402343c-2.773438 0-5.363281 1.234375-7.105469 3.390625-1.746093 2.15625-2.410156 4.949218-1.828125 7.660156l1.394532 6.515625c1.59375 7.4375 8.273437 12.835937 15.882812 12.835937h8.527344c7.605468 0 14.285156-5.398437 15.882812-12.835937l1.394532-6.515625c.582031-2.710938-.085938-5.503906-1.828126-7.660156-1.742187-2.15625-4.332031-3.390625-7.105468-3.390625zm0 0" fill="#e26e7e"/><path d="m262.023438 180.136719h25.214843c10.59375 0 18.488281 9.765625 16.269531 20.125l-1.398437 6.511719c-2.347656 10.945312-12.019531 18.765624-23.214844 18.765624h-8.527343c-11.195313 0-20.867188-7.820312-23.214844-18.765624l-1.398438-6.511719c-2.21875-10.359375 5.675782-20.125 16.269532-20.125zm0 0" fill="#4e5660"/><path d="m278.894531 233.039062h-8.527343c-14.632813 0-27.480469-10.382812-30.546876-24.691406l-1.398437-6.511718c-1.535156-7.164063.226563-14.539063 4.832031-20.234376 4.601563-5.699218 11.445313-8.964843 18.769532-8.964843h25.214843c7.328125 0 14.167969 3.265625 18.773438 8.964843 4.605469 5.695313 6.363281 13.070313 4.828125 20.234376l-1.394532 6.511718c-3.070312 14.308594-15.917968 24.691406-30.550781 24.691406zm-16.871093-45.402343c-2.773438 0-5.363282 1.234375-7.105469 3.390625-1.746094 2.15625-2.410157 4.949218-1.828125 7.660156l1.394531 6.515625c1.59375 7.4375 8.273437 12.835937 15.882813 12.835937h8.527343c7.605469 0 14.285157-5.398437 15.882813-12.835937l1.394531-6.515625c.582031-2.710938-.082031-5.503906-1.828125-7.660156-1.742188-2.15625-4.332031-3.390625-7.105469-3.390625zm0 0" fill="#e26e7e"/><path d="m43.390625 370.644531 13.632813-4.84375c5.835937-2.078125 11.9375 2.355469 11.769531 8.550781l-.398438 14.460938c-.058593 2.027344.585938 4.011719 1.824219 5.617188l8.824219 11.464843c3.777343 4.910157 1.445312 12.085938-4.496094 13.835938l-13.875 4.089843c-1.945313.574219-3.636719 1.800782-4.78125 3.476563l-8.179687 11.929687c-3.5 5.113282-11.042969 5.113282-14.546876 0l-8.179687-11.929687c-1.144531-1.675781-2.832031-2.902344-4.777344-3.476563l-13.875-4.089843c-5.945312-1.75-8.277343-8.921875-4.496093-13.835938l8.820312-11.464843c1.238281-1.605469 1.882812-3.589844 1.828125-5.617188l-.398437-14.460938c-.171876-6.195312 5.929687-10.628906 11.769531-8.550781l13.628906 4.84375c1.910156.679688 3.996094.679688 5.90625 0zm0 0" fill="#a3defe"/><path d="m476.035156 300.515625 5.339844 15.015625c2.289062 6.433594-2.597656 13.15625-9.421875 12.96875l-15.933594-.4375c-2.234375-.058594-4.421875.648438-6.191406 2.011719l-12.632813 9.722656c-5.410156 4.160156-13.316406 1.59375-15.246093-4.953125l-4.507813-15.289062c-.632812-2.144532-1.980468-4.003907-3.828125-5.269532l-13.144531-9.011718c-5.632812-3.859376-5.632812-12.167969 0-16.03125l13.144531-9.007813c1.847657-1.265625 3.195313-3.125 3.828125-5.269531l4.507813-15.289063c1.929687-6.546875 9.835937-9.117187 15.246093-4.953125l12.632813 9.71875c1.769531 1.363282 3.957031 2.074219 6.191406 2.015625l15.933594-.441406c6.824219-.1875 11.710937 6.539063 9.421875 12.96875l-5.339844 15.019531c-.75 2.105469-.75 4.402344 0 6.511719zm0 0" fill="#8eafe2"/><path d="m437.191406 339.796875 12.636719-9.722656c1.769531-1.363281 3.957031-2.070313 6.191406-2.011719l9.34375.257812c-17.761719-11.828124-28.710937-45.742187-25.890625-71.84375l-2.28125-1.753906c-5.410156-4.164062-13.3125-1.59375-15.246094 4.953125l-4.503906 15.289063c-.632812 2.144531-1.984375 4.003906-3.828125 5.265625l-13.148437 9.011719c-5.628906 3.859374-5.628906 12.171874 0 16.03125l13.148437 9.011718c1.84375 1.261719 3.195313 3.121094 3.828125 5.265625l4.503906 15.289063c1.933594 6.550781 9.839844 9.117187 15.246094 4.957031zm0 0" fill="#6a96d7"/><path d="m32.328125 368.8125-8.476563-3.011719c-5.835937-2.078125-11.9375 2.355469-11.765624 8.550781l.394531 14.460938c.058593 2.027344-.585938 4.011719-1.824219 5.617188l-8.820312 11.464843c-3.78125 4.910157-1.449219 12.085938 4.492187 13.835938l13.878906 4.089843c1.941407.574219 3.632813 1.800782 4.777344 3.476563l8.179687 11.929687c3.503907 5.113282 11.042969 5.113282 14.546876 0l8.175781-11.929687c.785156-1.148437 1.828125-2.078125 3.03125-2.738281-18.21875-12.328125-26.484375-37.976563-26.589844-55.746094zm0 0" fill="#7acefa"/></svg>