<svg height="512pt" viewBox="0 0 512.00102 512" width="512pt" xmlns="http://www.w3.org/2000/svg"><path d="m409.71875 177.664062c-11.585938 0-22.019531-4.53125-29.886719-13.269531-14.113281-15.683593-17.15625-41.636719-7.398437-63.109375 1.714844-3.769531 6.160156-5.4375 9.929687-3.726562 3.773438 1.714844 5.4375 6.160156 3.726563 9.933594-7.25 15.953124-5.191406 35.664062 4.890625 46.867187 7.410156 8.226563 17.800781 10.425781 30.046875 6.34375 29.953125-9.976563 51.945312-10.59375 67.238281-1.898437 3.601563 2.046874 4.859375 6.628906 2.8125 10.230468-2.046875 3.597656-6.625 4.855469-10.226563 2.808594-11.226562-6.382812-29.757812-5.34375-55.082031 3.089844-5.496093 1.828125-10.886719 2.730468-16.050781 2.730468zm0 0" fill="#4e5660"/><path d="m54.339844 222.332031c-12.691406.375-19.410156 11.714844-31.886719 15.578125-3.78125 1.171875-5.15625 5.84375-2.589844 8.855469 13.664063 16.035156 24.820313 19.640625 35.125 19.640625 13.0625 0 23.46875-11.367188 21.878907-24.746094-1.335938-11.210937-11.246094-19.660156-22.527344-19.328125zm0 0" fill="#6fce91"/><path d="m85.207031 190.753906c-9.238281-8.707031-22.003906-5.4375-33.5625-11.535156-3.5-1.84375-7.777343.488281-8.089843 4.433594-1.679688 21 3.660156 31.4375 10.949218 38.722656 9.234375 9.238281 24.632813 8.5625 32.96875-2.027344 6.984375-8.871094 5.949219-21.851562-2.265625-29.59375zm0 0" fill="#6fce91"/><path d="m144.621094 512c-2.144532 0-4.324219-.40625-6.433594-1.269531-8.714844-3.558594-12.894531-13.503907-9.335938-22.21875 17.082032-41.820313 13.886719-77.574219 7.460938-84.222657-6.542969-6.765624-6.359375-17.554687.40625-24.097656 6.765625-6.539062 17.554688-6.355468 24.097656.40625 12.96875 13.417969 15.164063 35.992188 14.71875 52.570313-.574218 21.515625-5.949218 45.75-15.128906 68.230469-2.699219 6.601562-9.066406 10.601562-15.785156 10.601562zm0 0" fill="#efd176"/><path d="m381.277344 347.957031c-1.328125 0-2.675782-.15625-4.023438-.484375-37.347656-9.039062-63.421875-22.183594-96.207031-48.503906-7.335937-5.890625-8.511719-16.617188-2.617187-23.957031 5.890624-7.335938 16.617187-8.507813 23.953124-2.617188 28.824219 23.140625 50.515626 34.121094 82.886719 41.953125 9.144531 2.210938 14.769531 11.421875 12.554688 20.570313-1.886719 7.800781-8.863281 13.039062-16.546875 13.039062zm0 0" fill="#efd176"/><path d="m287.015625 426.804688-19.441406-19.4375c-7.863281-7.863282-7.863281-20.613282 0-28.476563l172.585937-172.582031c4.65625-4.660156 10.332032-8.175782 16.578125-10.277344l38.589844-12.96875c9.890625-3.324219 19.316406 6.101562 15.992187 15.992188l-12.972656 38.585937c-2.097656 6.246094-5.617187 11.921875-10.273437 16.582031l-172.582031 172.582032c-7.863282 7.863281-20.613282 7.863281-28.476563 0zm0 0" fill="#8eafe2"/><path d="m354 292.464844-86.425781 86.425781c-7.863281 7.863281-7.863281 20.613281 0 28.476563l19.441406 19.4375c7.863281 7.863281 20.613281 7.863281 28.476563 0l48.441406-48.441407c-11.257813-22.128906-14.929688-53.429687-9.933594-85.898437zm0 0" fill="#6a96d7"/><path d="m498.347656 237.640625 12.972656-38.585937c3.324219-9.890626-6.101562-19.316407-15.992187-15.992188l-38.589844 12.96875c-4.828125 1.625-9.3125 4.105469-13.25 7.296875 4.507813 11.117187 10.984375 19.4375 19.558594 28.007813 8.570313 8.574218 16.890625 15.050781 28.007813 19.558593 3.191406-3.941406 5.671874-8.421875 7.292968-13.253906zm0 0" fill="#fcf2d0"/><path d="m495.328125 183.0625-19.96875 6.710938c3.679687 5.679687 8.097656 10.777343 13.28125 15.964843 5.191406 5.1875 10.289063 9.601563 15.96875 13.285157l6.710937-19.96875c3.324219-9.890626-6.101562-19.316407-15.992187-15.992188zm0 0" fill="#4e5660"/><path d="m282.550781 363.917969-14.972656 14.972656c-7.863281 7.863281-7.863281 20.613281 0 28.476563l19.4375 19.4375c7.863281 7.863281 20.613281 7.863281 28.476563 0l14.972656-14.972657zm0 0" fill="#e26e7e"/><path d="m308.269531 338.195312 47.914063 47.914063-25.71875 25.714844-47.914063-47.914063zm0 0" fill="#efd176"/><path d="m384.101562 317.78125c-1.917968 0-3.839843-.734375-5.304687-2.199219-2.925781-2.925781-2.925781-7.675781 0-10.605469l18.683594-18.683593c2.929687-2.925781 7.679687-2.925781 10.605469 0 2.929687 2.929687 2.929687 7.679687 0 10.609375l-18.679688 18.683594c-1.464844 1.460937-3.386719 2.195312-5.304688 2.195312zm0 0" fill="#f7ef87"/><path d="m258.714844 500.460938c-2.570313 0-5.183594-.585938-7.636719-1.820313-8.410156-4.222656-11.800781-14.46875-7.574219-22.875 12.804688-25.480469 8.90625-58.800781-8.023437-68.558594-8.152344-4.699219-10.953125-15.117187-6.253907-23.273437 4.703126-8.152344 15.121094-10.957032 23.273438-6.253906 32.964844 19.003906 42.792969 70.929687 21.453125 113.390624-2.988281 5.953126-9 9.390626-15.238281 9.390626zm0 0" fill="#efd176"/><path d="m18.984375 401.78125c-7.871094 0-14.945313-5.484375-16.652344-13.488281-6.679687-31.335938 1.101563-61.5625 21.914063-85.117188 20.5625-23.273437 51.199218-36.800781 78.066406-34.46875 9.375.816407 16.316406 9.074219 15.503906 18.453125-.816406 9.375-9.070312 16.335938-18.453125 15.5-18.613281-1.609375-38.75 10.832032-49.578125 23.082032-9.53125 10.789062-19.722656 29.167968-14.121094 55.441406 1.964844 9.203125-3.90625 18.257812-13.109374 20.21875-1.199219.253906-2.394532.378906-3.570313.378906zm0 0" fill="#efd176"/><path d="m149.429688 68.660156c23.976562 23.972656 28.082031 61.300782 28.492187 80.457032.152344 6.960937-5.539063 12.652343-12.5 12.503906-19.160156-.410156-56.484375-4.519532-80.460937-28.496094-23.976563-23.972656-28.082032-61.300781-28.492188-80.457031-.148438-6.960938 5.542969-12.652344 12.503906-12.503907 19.15625.410157 56.480469 4.519532 80.457032 28.496094zm0 0" fill="#8ee2cf"/><path d="m131.574219 122.769531c-1.921875 0-3.839844-.730469-5.304688-2.195312l-28.753906-28.753907c-2.929687-2.933593-2.929687-7.679687 0-10.609374 2.929687-2.929688 7.675781-2.929688 10.605469 0l28.753906 28.753906c2.929688 2.929687 2.929688 7.679687 0 10.609375-1.464844 1.464843-3.382812 2.195312-5.300781 2.195312zm0 0" fill="#6fce91"/><path d="m243.125 68.660156c-23.976562 23.972656-28.085938 61.300782-28.496094 80.457032-.148437 6.960937 5.542969 12.652343 12.503906 12.503906 19.15625-.410156 56.484376-4.519532 80.460938-28.496094 23.976562-23.972656 28.082031-61.300781 28.492188-80.457031.148437-6.960938-5.542969-12.652344-12.503907-12.503907-19.15625.410157-56.480469 4.519532-80.457031 28.496094zm0 0" fill="#8ee2cf"/><path d="m260.980469 122.769531c-1.917969 0-3.839844-.730469-5.300781-2.195312-2.929688-2.929688-2.929688-7.675781 0-10.605469l28.753906-28.757812c2.929687-2.925782 7.675781-2.925782 10.605468 0 2.929688 2.929687 2.929688 7.679687 0 10.609374l-28.753906 28.753907c-1.464844 1.464843-3.382812 2.195312-5.304687 2.195312zm0 0" fill="#6fce91"/><path d="m241.863281 80.8125c0 33.90625-23.488281 63.207031-36.746093 77.039062-4.816407 5.027344-12.863282 5.027344-17.679688 0-13.257812-13.832031-36.746094-43.132812-36.746094-77.039062s23.488282-63.207031 36.746094-77.039062c4.816406-5.03125 12.863281-5.03125 17.679688 0 13.257812 13.832031 36.746093 43.132812 36.746093 77.039062zm0 0" fill="#8ee2cf"/><path d="m196.277344 108.644531c-4.144532 0-7.5-3.355469-7.5-7.5v-40.664062c0-4.144531 3.355468-7.5 7.5-7.5 4.140625 0 7.5 3.355469 7.5 7.5v40.664062c0 4.144531-3.359375 7.5-7.5 7.5zm0 0" fill="#6fce91"/><path d="m196.277344 130.140625c70.335937 0 120.617187 55.398437 127.355468 139.28125 7.011719 87.261719-25.8125 152.351563-127.355468 152.351563-101.542969 0-134.367188-65.089844-127.355469-152.351563 6.738281-83.886719 57.019531-139.28125 127.355469-139.28125zm0 0" fill="#f7ef87"/><path d="m154.230469 137.453125c-47.757813 17.628906-80.007813 65.980469-85.308594 131.96875-6.992187 87.019531 25.640625 151.980469 126.519531 152.34375-122.445312-74.917969-89.613281-210.078125-41.210937-284.3125zm0 0" fill="#efd176"/><path d="m183.910156 244.480469c-1.917968 0-3.835937-.730469-5.300781-2.195313-2.929687-2.929687-2.929687-7.675781 0-10.605468l12.363281-12.367188c1.40625-1.40625 3.3125-2.195312 5.304688-2.195312 1.988281 0 3.894531.789062 5.300781 2.195312l12.367187 12.367188c2.929688 2.929687 2.929688 7.679687 0 10.605468-2.929687 2.929688-7.679687 2.929688-10.605468 0l-7.0625-7.0625-7.0625 7.0625c-1.464844 1.464844-3.382813 2.195313-5.304688 2.195313zm0 0" fill="#efd176"/><path d="m279.339844 244.480469c-1.917969 0-3.839844-.730469-5.300782-2.195313l-7.066406-7.0625-7.0625 7.0625c-2.925781 2.929688-7.675781 2.929688-10.605468 0-2.929688-2.929687-2.929688-7.675781 0-10.605468l12.367187-12.367188c1.40625-1.40625 3.3125-2.195312 5.300781-2.195312 1.992188 0 3.898438.789062 5.304688 2.195312l12.367187 12.367188c2.929688 2.929687 2.929688 7.679687 0 10.605468-1.464843 1.464844-3.386719 2.195313-5.304687 2.195313zm0 0" fill="#efd176"/><path d="m137.945312 244.480469c-1.917968 0-3.839843-.730469-5.304687-2.195313l-7.058594-7.0625-7.066406 7.0625c-2.925781 2.929688-7.675781 2.929688-10.605469 0-2.925781-2.929687-2.925781-7.675781 0-10.605468l12.367188-12.367188c1.40625-1.40625 3.3125-2.195312 5.304687-2.195312 1.988281 0 3.894531.789062 5.300781 2.195312l12.367188 12.367188c2.929688 2.929687 2.929688 7.679687 0 10.605468-1.464844 1.464844-3.386719 2.195313-5.304688 2.195313zm0 0" fill="#efd176"/><path d="m74.632812 255.578125h243.289063c5.257813 0 9.226563-4.78125 8.261719-9.953125-1.847656-9.914062-4.347656-19.394531-7.476563-28.375-1.601562-4.589844-5.890625-7.695312-10.75-7.695312h-223.359375c-4.859375 0-9.148437 3.105468-10.75 7.695312-3.128906 8.980469-5.628906 18.460938-7.476562 28.375-.964844 5.167969 3.003906 9.953125 8.261718 9.953125zm0 0" fill="#8ee2cf"/><path d="m275.730469 255.578125h42.1875c5.261719 0 9.230469-4.78125 8.265625-9.953125-1.0625-5.699219-2.367188-11.234375-3.855469-16.632812-20.238281-2.800782-38.6875 7.707031-46.597656 26.585937zm0 0" fill="#6fce91"/><path d="m162.46875 255.578125c-.402344-13.585937-4.308594-22.347656-27.195312-23.011719-22.15625-.640625-28.851563 12.484375-34.289063 23.011719zm0 0" fill="#6fce91"/><path d="m226.671875 236.980469c14.582031.375 38.335937-9.984375 46.449219-27.425781h-68.214844c-.84375 17.855468 8.390625 27.082031 21.765625 27.425781zm0 0" fill="#6fce91"/><path d="m219.257812 382.410156c-1.917968 0-3.835937-.734375-5.300781-2.195312-2.929687-2.929688-2.929687-7.679688 0-10.609375l12.367188-12.363281c2.925781-2.929688 7.675781-2.925782 10.605469 0l12.363281 12.363281c2.929687 2.929687 2.929687 7.679687 0 10.609375-2.925781 2.929687-7.675781 2.925781-10.605469 0l-7.0625-7.0625-7.0625 7.0625c-1.464844 1.464844-3.382812 2.195312-5.304688 2.195312zm0 0" fill="#efd176"/><path d="m148.5625 382.410156c-1.917969 0-3.839844-.734375-5.304688-2.195312-2.929687-2.929688-2.925781-7.679688 0-10.609375l12.367188-12.363281c2.929688-2.929688 7.675781-2.925782 10.605469 0l12.363281 12.363281c2.929688 2.929687 2.929688 7.679687 0 10.609375-2.925781 2.925781-7.675781 2.925781-10.605469 0l-7.0625-7.0625-7.0625 7.0625c-1.460937 1.464844-3.382812 2.195312-5.300781 2.195312zm0 0" fill="#efd176"/><path d="m144.5625 317.367188c0-13.296876-13.542969-24.082032-30.242188-24.082032-16.703124 0-30.242187 10.785156-30.242187 24.082032 0 13.300781 13.539063 24.082031 30.242187 24.082031 16.699219 0 30.242188-10.78125 30.242188-24.082031zm0 0" fill="#eda1ab"/><path d="m308.476562 317.367188c0-13.296876-13.539062-24.082032-30.242187-24.082032s-30.242187 10.785156-30.242187 24.082032c0 13.300781 13.539062 24.082031 30.242187 24.082031s30.242187-10.78125 30.242187-24.082031zm0 0" fill="#eda1ab"/><g fill="#4e5660"><path d="m220.660156 298.863281c0-15.066406-10.917968-16.484375-24.382812-16.484375s-24.382813 1.417969-24.382813 16.484375c0 15.070313 10.917969 27.285157 24.382813 27.285157s24.382812-12.214844 24.382812-27.285157zm0 0"/><path d="m146.335938 298.664062c-4.140626 0-7.5-3.359374-7.5-7.5 0-3.804687-3.089844-6.898437-6.890626-6.898437-3.804687 0-6.894531 3.09375-6.894531 6.898437 0 4.140626-3.359375 7.5-7.5 7.5-4.144531 0-7.5-3.359374-7.5-7.5 0-12.074218 9.820313-21.898437 21.894531-21.898437 12.070313 0 21.890626 9.824219 21.890626 21.898437 0 4.140626-3.355469 7.5-7.5 7.5zm0 0"/><path d="m275.003906 298.664062c-4.140625 0-7.5-3.359374-7.5-7.5 0-3.804687-3.09375-6.898437-6.894531-6.898437s-6.894531 3.09375-6.894531 6.898437c0 4.140626-3.355469 7.5-7.5 7.5-4.140625 0-7.5-3.359374-7.5-7.5 0-12.074218 9.824218-21.898437 21.894531-21.898437 12.074219 0 21.894531 9.824219 21.894531 21.898437 0 4.140626-3.355468 7.5-7.5 7.5zm0 0"/><path d="m140.589844 167.820312h-27.566406c-11.582032 0-20.210938 10.675782-17.785157 22l1.527344 7.121094c2.566406 11.96875 13.140625 20.515625 25.382813 20.515625h9.320312c12.238281 0 22.8125-8.546875 25.378906-20.515625l1.527344-7.121094c2.429688-11.324218-6.203125-22-17.785156-22zm0 0"/></g><path d="m238.445312 181.449219c-.339843 0-.679687-.023438-1.023437-.070313-9.964844-1.355468-23.644531-2.917968-41.144531-2.917968s-31.183594 1.5625-41.144532 2.917968c-4.109374.5625-7.886718-2.3125-8.445312-6.417968-.558594-4.105469 2.316406-7.886719 6.417969-8.445313 10.433593-1.421875 24.769531-3.054687 43.171875-3.054687s32.734375 1.632812 43.167968 3.054687c4.105469.5625 6.980469 4.339844 6.417969 8.445313-.507812 3.761718-3.726562 6.488281-7.417969 6.488281zm0 0" fill="#e26e7e"/><path d="m131.46875 224.957031h-9.320312c-15.671876 0-29.429688-11.121093-32.71875-26.445312l-1.523438-7.117188c-1.636719-7.621093.238281-15.472656 5.136719-21.535156 4.902343-6.0625 12.183593-9.539063 19.980469-9.539063h27.566406c7.796875 0 15.078125 3.476563 19.980468 9.539063 4.898438 6.0625 6.773438 13.910156 5.140626 21.535156l-1.527344 7.117188c-3.285156 15.324219-17.046875 26.445312-32.714844 26.445312zm-18.445312-49.640625c-3.242188 0-6.273438 1.449219-8.3125 3.972656-2.039063 2.519532-2.820313 5.789063-2.136719 8.960938l1.523437 7.117188c1.816406 8.453124 9.402344 14.589843 18.050782 14.589843h9.320312c8.644531 0 16.234375-6.136719 18.046875-14.589843l1.527344-7.117188c.679687-3.171875-.097657-6.441406-2.136719-8.960938-2.039062-2.523437-5.070312-3.972656-8.316406-3.972656zm0 0" fill="#e26e7e"/><path d="m251.964844 167.820312h27.566406c11.582031 0 20.210938 10.675782 17.785156 22l-1.527344 7.121094c-2.566406 11.96875-13.140624 20.515625-25.382812 20.515625h-9.320312c-12.238282 0-22.8125-8.546875-25.378907-20.515625l-1.527343-7.121094c-2.429688-11.324218 6.203124-22 17.785156-22zm0 0" fill="#4e5660"/><path d="m270.40625 224.957031h-9.320312c-15.671876 0-29.429688-11.121093-32.714844-26.445312l-1.527344-7.117188c-1.632812-7.625.238281-15.472656 5.140625-21.535156s12.183594-9.539063 19.980469-9.539063h27.566406c7.796875 0 15.078125 3.476563 19.976562 9.539063 4.902344 6.0625 6.773438 13.910156 5.140626 21.535156l-1.527344 7.117188c-3.285156 15.324219-17.042969 26.445312-32.714844 26.445312zm-18.441406-49.640625c-3.246094 0-6.273438 1.449219-8.3125 3.972656-2.039063 2.519532-2.820313 5.789063-2.140625 8.960938l1.527343 7.117188c1.8125 8.453124 9.402344 14.589843 18.046876 14.589843h9.320312c8.648438 0 16.234375-6.136719 18.050781-14.589843l1.527344-7.117188c.679687-3.171875-.101563-6.441406-2.140625-8.960938-2.039062-2.523437-5.070312-3.972656-8.3125-3.972656zm0 0" fill="#e26e7e"/><path d="m398.222656 361.421875c-6.808594 0-13.242187-4.109375-15.871094-10.835937-.46875-1.195313-.855468-2.261719-1.222656-3.273438-.53125-1.457031-.878906-2.421875-1.367187-3.429688-4.082031-8.480468-.519531-18.664062 7.957031-22.75 8.480469-4.082031 18.664062-.519531 22.75 7.960938 1.234375 2.5625 2.011719 4.707031 2.695312 6.597656.277344.765625.570313 1.574219.925782 2.480469 3.429687 8.761719-.898438 18.648437-9.660156 22.074219-2.042969.800781-4.140626 1.175781-6.207032 1.175781zm0 0" fill="#efd176"/></svg>