<svg height="512pt" viewBox="-28 0 512 512.0005" width="512pt" xmlns="http://www.w3.org/2000/svg"><path d="m431.800781 129.613281 18.25-12.035156c8.835938-5.828125 8.835938-18.796875 0-24.625l-18.25-12.035156c-5.035156-3.320313-7.539062-9.371094-6.328125-15.277344l4.394532-21.417969c2.125-10.371094-7.042969-19.539062-17.414063-17.410156l-21.414063 4.394531c-5.910156 1.210938-11.957031-1.292969-15.277343-6.328125l-12.035157-18.25c-5.832031-8.839844-18.796874-8.839844-24.625 0l-12.039062 18.25c-3.316406 5.035156-9.367188 7.539063-15.273438 6.328125l-21.417968-4.394531c-10.371094-2.128906-19.539063 7.039062-17.410156 17.410156l4.394531 21.417969c1.210937 5.90625-1.296875 11.957031-6.328125 15.277344l-18.25 12.035156c-8.839844 5.828125-8.839844 18.796875 0 24.625l18.25 12.035156c5.03125 3.320313 7.539062 9.371094 6.328125 15.277344l-4.394531 21.414063c-2.128907 10.371093 7.039062 19.542968 17.410156 17.414062l21.417968-4.394531c5.90625-1.210938 11.957032 1.292969 15.273438 6.328125l12.039062 18.25c5.828126 8.839844 18.792969 8.839844 24.625 0l12.035157-18.25c3.320312-5.035156 9.367187-7.539063 15.277343-6.328125l21.414063 4.394531c10.371094 2.128906 19.539063-7.042969 17.414063-17.414062l-4.394532-21.414063c-1.210937-5.90625 1.292969-11.957031 6.328125-15.277344zm0 0" fill="#e26e7e"/><path d="m413.957031 105.265625c0 34.542969-28.003906 62.542969-62.542969 62.542969-34.542968 0-62.542968-28-62.542968-62.542969 0-34.539063 28-62.542969 62.542968-62.542969 34.539063 0 62.542969 28.003906 62.542969 62.542969zm0 0" fill="#f7ef87"/><path d="m102.558594 512c-3.601563 0-7.21875-1.234375-10.167969-3.761719-6.5625-5.617187-7.332031-15.496093-1.710937-22.058593 21.832031-25.507813 26.027343-50.058594 13.191406-77.269532-3.6875-7.816406-.339844-17.136718 7.476562-20.824218s17.136719-.339844 20.824219 7.476562c9.246094 19.597656 12.222656 39.21875 8.855469 58.308594-3.1875 18.0625-12.128906 35.78125-26.578125 52.65625-3.09375 3.617187-7.480469 5.472656-11.890625 5.472656zm0 0" fill="#efd176"/><path d="m189.605469 507.75c-1.976563 0-3.980469-.375-5.921875-1.171875-8-3.273437-11.824219-12.410156-8.550782-20.40625 13.519532-33.007813 8.746094-61.496094-2.957031-72.574219-6.277343-5.941406-6.546875-15.84375-.605469-22.121094 5.9375-6.273437 15.84375-6.542968 22.117188-.605468 27.023438 25.585937 24.699219 72.253906 10.402344 107.160156-2.480469 6.054688-8.320313 9.71875-14.484375 9.71875zm0 0" fill="#efd176"/><path d="m256.734375 460.203125c-1.386719.210937-2.828125.238281-4.289063.054687-8.574218-1.074218-14.652343-8.898437-13.578124-17.46875.742187-5.941406 1.554687-12.011718 2.339843-17.882812 5.9375-44.398438 12.078125-90.304688-6.535156-109.058594-6.085937-6.132812-6.050781-16.039062.082031-22.125 6.132813-6.085937 16.039063-6.050781 22.125.082032 29.460938 29.683593 22.285156 83.351562 15.34375 135.246093-.777344 5.808594-1.578125 11.8125-2.308594 17.625-.890624 7.113281-6.425781 12.507813-13.179687 13.527344zm0 0" fill="#efd176"/><path d="m123.578125 104.957031c22.011719 22.011719 25.78125 56.285157 26.160156 73.871094.136719 6.390625-5.089843 11.617187-11.480469 11.480469-17.589843-.375-51.859374-4.148438-73.871093-26.160156-22.015625-22.011719-25.785157-56.285157-26.164063-73.871094-.136718-6.390625 5.089844-11.617188 11.480469-11.480469 17.589844.375 51.859375 4.148437 73.875 26.160156zm0 0" fill="#8ee2cf"/><path d="m107.179688 155.253906c-1.917969 0-3.835938-.730468-5.300782-2.195312l-26.402344-26.402344c-2.929687-2.929688-2.929687-7.675781 0-10.605469 2.929688-2.929687 7.679688-2.929687 10.605469 0l26.402344 26.398438c2.929687 2.929687 2.929687 7.679687 0 10.609375-1.464844 1.460937-3.382813 2.195312-5.304687 2.195312zm0 0" fill="#6fce91"/><path d="m209.601562 104.957031c-22.011718 22.011719-25.785156 56.285157-26.160156 73.871094-.136718 6.390625 5.085938 11.617187 11.480469 11.480469 17.585937-.375 51.855469-4.148438 73.871094-26.160156 22.011719-22.011719 25.785156-56.285157 26.160156-73.871094.136719-6.390625-5.085937-11.617188-11.480469-11.480469-17.585937.375-51.859375 4.148437-73.871094 26.160156zm0 0" fill="#8ee2cf"/><path d="m225.996094 155.253906c-1.917969 0-3.839844-.730468-5.304688-2.195312-2.925781-2.929688-2.925781-7.679688 0-10.609375l26.402344-26.398438c2.929688-2.929687 7.675781-2.929687 10.605469 0 2.929687 2.929688 2.929687 7.675781 0 10.605469l-26.398438 26.402344c-1.464843 1.460937-3.382812 2.195312-5.304687 2.195312zm0 0" fill="#6fce91"/><path d="m208.441406 116.117188c0 31.128906-21.5625 58.03125-33.734375 70.734374-4.421875 4.613282-11.8125 4.613282-16.234375 0-12.171875-12.703124-33.738281-39.605468-33.738281-70.734374 0-31.132813 21.566406-58.03125 33.738281-70.734376 4.421875-4.617187 11.8125-4.617187 16.234375 0 12.171875 12.703126 33.734375 39.601563 33.734375 70.734376zm0 0" fill="#8ee2cf"/><path d="m166.589844 142.285156c-4.144532 0-7.5-3.359375-7.5-7.5v-37.335937c0-4.144531 3.355468-7.5 7.5-7.5 4.140625 0 7.5 3.355469 7.5 7.5v37.335937c0 4.140625-3.359375 7.5-7.5 7.5zm0 0" fill="#6fce91"/><path d="m166.589844 161.40625c64.578125 0 110.738281 50.859375 116.925781 127.878906 6.4375 80.117188-23.699219 139.878906-116.925781 139.878906-93.230469 0-123.367188-59.761718-116.929688-139.878906 6.1875-77.019531 52.351563-127.878906 116.929688-127.878906zm0 0" fill="#f7ef87"/><g fill="#efd176"><path d="m127.984375 168.121094c-43.847656 16.1875-73.457031 60.578125-78.324219 121.164062-6.417968 79.894532 23.539063 139.539063 116.160156 139.871094-112.421874-68.78125-82.273437-192.878906-37.835937-261.035156zm0 0"/><path d="m190.457031 260.570312c-1.917969 0-3.835937-.730468-5.300781-2.195312l-6.050781-6.050781-6.050781 6.050781c-2.929688 2.929688-7.675782 2.925781-10.605469 0-2.929688-2.929688-2.929688-7.679688 0-10.605469l11.351562-11.355469c1.40625-1.40625 3.316407-2.195312 5.304688-2.195312s3.898437.789062 5.304687 2.195312l11.351563 11.351563c2.929687 2.933594 2.929687 7.679687 0 10.609375-1.464844 1.464844-3.382813 2.195312-5.304688 2.195312zm0 0"/><path d="m255.367188 260.570312c-1.917969 0-3.839844-.730468-5.300782-2.195312l-6.050781-6.050781-6.050781 6.050781c-2.929688 2.929688-7.675782 2.925781-10.605469 0-2.929687-2.929688-2.929687-7.679688 0-10.605469l11.351563-11.355469c1.40625-1.40625 3.316406-2.195312 5.304687-2.195312s3.898437.789062 5.300781 2.195312l11.355469 11.351563c2.929687 2.933594 2.929687 7.679687 0 10.609375-1.464844 1.464844-3.382813 2.195312-5.304687 2.195312zm0 0"/><path d="m102.84375 260.570312c-1.921875 0-3.839844-.730468-5.304688-2.195312-2.929687-2.929688-2.929687-7.679688 0-10.609375l11.355469-11.351563c1.40625-1.40625 3.3125-2.195312 5.300781-2.195312 1.988282 0 3.898438.789062 5.304688 2.195312l11.351562 11.355469c2.929688 2.929688 2.929688 7.675781 0 10.605469-2.929687 2.925781-7.675781 2.929688-10.605468 0l-6.050782-6.050781-6.050781 6.050781c-1.464843 1.464844-3.382812 2.195312-5.300781 2.195312zm0 0"/><path d="m222.914062 393.636719c-1.917968 0-3.839843-.730469-5.304687-2.195313l-6.050781-6.050781-6.046875 6.050781c-2.929688 2.929688-7.679688 2.929688-10.609375 0-2.925782-2.929687-2.925782-7.675781 0-10.605468l11.355468-11.355469c2.929688-2.925781 7.675782-2.925781 10.605469 0l11.355469 11.355469c2.925781 2.929687 2.925781 7.675781 0 10.605468-1.464844 1.464844-3.386719 2.195313-5.304688 2.195313zm0 0"/><path d="m158.003906 393.636719c-1.917968 0-3.839844-.730469-5.300781-2.195313l-6.050781-6.050781-6.050782 6.050781c-2.929687 2.929688-7.679687 2.929688-10.605468 0-2.929688-2.929687-2.929688-7.675781 0-10.605468l11.351562-11.355469c2.929688-2.925781 7.679688-2.925781 10.609375 0l11.351563 11.355469c2.929687 2.929687 2.929687 7.675781 0 10.605468-1.464844 1.464844-3.386719 2.195313-5.304688 2.195313zm0 0"/></g><path d="m131.621094 327.628906c0-12.210937-12.429688-22.113281-27.765625-22.113281-15.332031 0-27.761719 9.902344-27.761719 22.113281 0 12.210938 12.429688 22.109375 27.761719 22.109375 15.335937 0 27.765625-9.898437 27.765625-22.109375zm0 0" fill="#eda1ab"/><path d="m282.117188 327.628906c0-12.210937-12.429688-22.113281-27.765626-22.113281-15.332031 0-27.761718 9.902344-27.761718 22.113281 0 12.210938 12.429687 22.109375 27.761718 22.109375 15.335938 0 27.765626-9.898437 27.765626-22.109375zm0 0" fill="#eda1ab"/><path d="m120.039062 313.070312c-4.144531 0-7.5-3.355468-7.5-7.5v-9.804687c0-4.140625 3.355469-7.5 7.5-7.5 4.140626 0 7.5 3.359375 7.5 7.5v9.804687c0 4.144532-3.359374 7.5-7.5 7.5zm0 0" fill="#4e5660"/><path d="m238.171875 313.070312c-4.144531 0-7.5-3.355468-7.5-7.5v-9.804687c0-4.140625 3.355469-7.5 7.5-7.5 4.140625 0 7.5 3.359375 7.5 7.5v9.804687c0 4.144532-3.359375 7.5-7.5 7.5zm0 0" fill="#4e5660"/><path d="m179.105469 341.410156c9.625 0 18.195312 6.53125 23.585937-4.613281 5.46875-11.304687-6.777344-28.078125-23.585937-28.078125-16.808594 0-29.054688 16.773438-23.585938 28.078125 5.390625 11.144531 13.960938 4.613281 23.585938 4.613281zm0 0" fill="#4e5660"/><path d="m186.777344 336.621094c-4.917969-2.007813-10.425782-2.007813-15.34375 0-3.257813 1.332031-5.382813 4.5-5.382813 8.015625v13.996093c0 7.210938 5.84375 13.058594 13.054688 13.058594 7.210937 0 13.054687-5.847656 13.054687-13.058594v-13.996093c0-3.515625-2.125-6.683594-5.382812-8.015625zm0 0" fill="#eda1ab"/><path d="m127.976562 278.996094h-25.308593c-10.632813 0-18.558594 9.804687-16.328125 20.199218l1.402344 6.539063c2.355468 10.984375 12.0625 18.835937 23.300781 18.835937h8.558593c11.238282 0 20.949219-7.851562 23.300782-18.835937l1.402344-6.539063c2.230468-10.398437-5.695313-20.199218-16.328126-20.199218zm0 0" fill="#4e5660"/><path d="m217.820312 292.125c-.335937 0-.679687-.023438-1.023437-.070312-9.125-1.246094-21.660156-2.671876-37.691406-2.671876-16.035157 0-28.566407 1.425782-37.691407 2.671876-4.113281.5625-7.886718-2.3125-8.445312-6.417969s2.3125-7.886719 6.417969-8.445313c9.597656-1.308594 22.785156-2.808594 39.71875-2.808594 16.933593 0 30.121093 1.5 39.71875 2.808594 4.105469.558594 6.976562 4.339844 6.417969 8.445313-.511719 3.757812-3.730469 6.488281-7.421876 6.488281zm0 0" fill="#e26e7e"/><path d="m119.601562 332.070312h-8.558593c-14.675781 0-27.558594-10.417968-30.636719-24.765624l-1.402344-6.539063c-1.539062-7.179687.226563-14.574219 4.84375-20.285156 4.617188-5.710938 11.476563-8.988281 18.820313-8.988281h25.308593c7.34375 0 14.207032 3.277343 18.824219 8.988281 4.617188 5.710937 6.378907 13.105469 4.839844 20.285156l-1.398437 6.539063c-3.082032 14.347656-15.964844 24.765624-30.640626 24.765624zm-16.933593-45.578124c-2.792969 0-5.398438 1.246093-7.15625 3.417968-1.753907 2.171875-2.425781 4.980469-1.839844 7.714844l1.402344 6.535156c1.605469 7.480469 8.320312 12.910156 15.96875 12.910156h8.558593c7.652344 0 14.367188-5.429687 15.96875-12.910156l1.402344-6.535156c.585938-2.730469-.085937-5.542969-1.839844-7.714844-1.753906-2.171875-4.363281-3.417968-7.15625-3.417968zm0 0" fill="#e26e7e"/><path d="m230.230469 278.996094h25.3125c10.632812 0 18.558593 9.804687 16.328125 20.199218l-1.402344 6.539063c-2.355469 10.984375-12.066406 18.835937-23.300781 18.835937h-8.558594c-11.238281 0-20.949219-7.851562-23.304687-18.835937l-1.402344-6.539063c-2.226563-10.398437 5.695312-20.199218 16.328125-20.199218zm0 0" fill="#4e5660"/><path d="m247.167969 332.070312h-8.558594c-14.675781 0-27.5625-10.417968-30.636719-24.765624l-1.402344-6.539063c-1.539062-7.179687.226563-14.574219 4.84375-20.285156 4.613282-5.710938 11.476563-8.988281 18.820313-8.988281h25.308594c7.34375 0 14.203125 3.277343 18.820312 8.988281 4.617188 5.710937 6.382813 13.105469 4.84375 20.285156l-1.402343 6.539063c-3.078126 14.347656-15.964844 24.765624-30.636719 24.765624zm-16.933594-45.578124c-2.792969 0-5.402344 1.246093-7.15625 3.417968s-2.425781 4.980469-1.839844 7.714844l1.402344 6.535156c1.601563 7.480469 8.320313 12.910156 15.96875 12.910156h8.558594c7.648437 0 14.367187-5.429687 15.96875-12.910156l1.402343-6.535156c.585938-2.730469-.085937-5.542969-1.839843-7.714844-1.757813-2.171875-4.363281-3.417968-7.15625-3.417968zm0 0" fill="#e26e7e"/><path d="m20.117188 447.417969c-2.625 0-5.285157-.660157-7.726563-2.050781-7.507813-4.273438-10.132813-13.828126-5.855469-21.335938 22.191406-38.988281 30.472656-74.027344 39.246094-111.125l.699219-2.964844c1.988281-8.410156 10.421875-13.621094 18.828125-11.621094 8.410156 1.988282 13.613281 10.417969 11.621094 18.828126l-.699219 2.957031c-8.890625 37.617187-18.085938 76.507812-42.503907 119.40625-2.882812 5.0625-8.171874 7.90625-13.609374 7.90625zm0 0" fill="#f7ef87"/><path d="m58.121094 186.261719c4.304687-5.84375 13.035156-5.84375 17.339844 0 9.285156 12.621093 22.710937 33.671875 22.710937 49.964843 0 17.328126-14.050781 31.378907-31.378906 31.378907-17.332031 0-31.378907-14.050781-31.378907-31.378907-.003906-16.292968 13.421876-37.34375 22.707032-49.964843zm0 0" fill="#a3defe"/><path d="m19.796875 277.210938c3.75-5.09375 11.367187-5.09375 15.117187 0 8.09375 11 19.796876 29.351562 19.796876 43.554687 0 15.109375-12.246094 27.355469-27.355469 27.355469s-27.355469-12.246094-27.355469-27.355469c0-14.203125 11.703125-32.554687 19.796875-43.554687zm0 0" fill="#7acefa"/></svg>