<svg height="512pt" viewBox="0 0 512.00001 512" width="512pt" xmlns="http://www.w3.org/2000/svg"><path d="m155.695312 31.96875c0 17.65625-14.316406 31.972656-31.972656 31.972656s-31.96875-14.316406-31.96875-31.972656 14.3125-31.96875 31.96875-31.96875 31.972656 14.3125 31.972656 31.96875zm0 0" fill="#a3defe"/><path d="m147.589844 53.234375c-32.375 3.0625-50.207032-27.828125-41.128906-48.167969-8.84375 5.6875-14.707032 15.609375-14.707032 26.902344 0 17.65625 14.3125 31.972656 31.972656 31.972656 9.488282-.003906 18.007813-4.140625 23.863282-10.707031zm0 0" fill="#7acefa"/><path d="m275.492188 512c-6.9375 0-13.304688-4.601562-15.246094-11.617188-10.929688-39.542968-.488282-82.191406 14.707031-106.914062 4.578125-7.445312 14.324219-9.777344 21.773437-5.199219 7.449219 4.578125 9.777344 14.328125 5.199219 21.777344-11.589843 18.851563-19.144531 53.039063-11.164062 81.902344 2.328125 8.425781-2.613281 17.144531-11.042969 19.476562-1.410156.386719-2.828125.574219-4.226562.574219zm0 0" fill="#efd176"/><path d="m150.441406 467.398438c-8.511718 0-15.542968-6.761719-15.8125-15.332032-1.15625-36.710937 22.40625-67.640625 61.492188-80.714844 8.289062-2.769531 17.261718 1.703126 20.03125 9.992188 2.773437 8.289062-1.699219 17.257812-9.988282 20.035156-25.6875 8.589844-40.601562 27.167969-39.894531 49.691406.277344 8.738282-6.585937 16.046876-15.324219 16.320313-.167968.003906-.335937.007813-.503906.007813zm0 0" fill="#efd176"/><path d="m122.492188 314.964844c-19.570313 0-41.183594-8.4375-63.753907-34.429688-5.730469-6.601562-5.023437-16.597656 1.574219-22.328125 6.601562-5.734375 16.597656-5.03125 22.332031 1.574219 29.722657 34.234375 49.277344 25.964844 81.277344 8.402344 7.667969-4.207032 17.289063-1.402344 21.492187 6.261718 4.207032 7.664063 1.402344 17.285157-6.261718 21.492188-15.269532 8.378906-34.675782 19.027344-56.660156 19.027344zm0 0" fill="#efd176"/><path d="m455.65625 398.96875c-.46875 0-.9375-.019531-1.410156-.0625-27.050782-2.382812-50.820313-10.03125-70.652344-22.734375-21.644531-13.867187-38.058594-33.402344-48.792969-58.066406-3.488281-8.011719.183594-17.339844 8.199219-20.828125 8.015625-3.492188 17.34375.183594 20.828125 8.199218 20.082031 46.136719 61.765625 59.125 93.199219 61.894532 8.707031.769531 15.144531 8.449218 14.375 17.160156-.722656 8.234375-7.632813 14.4375-15.746094 14.4375zm0 0" fill="#efd176"/><path d="m254.160156 90.3125c18.066406 25.796875 15.804688 60.605469 13.089844 78.195312-.988281 6.394532-7.113281 10.679688-13.457031 9.421876-17.457031-3.464844-50.941407-13.242188-69.003907-39.042969-18.066406-25.800781-15.804687-60.609375-13.089843-78.199219.988281-6.390625 7.113281-10.679688 13.457031-9.417969 17.457031 3.460938 50.941406 13.242188 69.003906 39.042969zm0 0" fill="#8ee2cf"/><path d="m230.3125 137.570312c-2.363281 0-4.691406-1.113281-6.148438-3.199218l-21.667968-30.941406c-2.375-3.394532-1.550782-8.070313 1.84375-10.445313 3.390625-2.375 8.070312-1.550781 10.445312 1.84375l21.664063 30.941406c2.378906 3.390625 1.554687 8.070313-1.839844 10.445313-1.308594.917968-2.808594 1.355468-4.296875 1.355468zm0 0" fill="#6fce91"/><path d="m339.871094 105.425781c-25.800782 18.0625-35.578125 51.546875-39.042969 69.003907-1.257813 6.34375 3.03125 12.46875 9.421875 13.457031 17.589844 2.714843 52.398438 4.976562 78.199219-13.085938 25.796875-18.066406 35.578125-51.550781 39.042969-69.007812 1.257812-6.34375-3.03125-12.46875-9.421876-13.453125-17.589843-2.71875-52.398437-4.980469-78.199218 13.085937zm0 0" fill="#8ee2cf"/><path d="m348.695312 158.445312c-2.363281 0-4.691406-1.117187-6.148437-3.199218-2.375-3.394532-1.554687-8.070313 1.839844-10.445313l30.941406-21.664062c3.398437-2.378907 8.070313-1.554688 10.445313 1.839843 2.378906 3.390626 1.554687 8.070313-1.839844 10.445313l-30.941406 21.667969c-1.308594.914062-2.808594 1.355468-4.296876 1.355468zm0 0" fill="#6fce91"/><path d="m336.757812 116.339844c-5.46875 31.015625-31.683593 54.03125-46.039062 64.546875-5.21875 3.824219-12.582031 2.523437-16.175781-2.851563-9.894531-14.792968-26.65625-45.382812-21.1875-76.402344 5.46875-31.019531 31.683593-54.03125 46.042969-64.546874 5.214843-3.824219 12.578124-2.523438 16.171874 2.851562 9.894532 14.792969 26.65625 45.382812 21.1875 76.402344zm0 0" fill="#8ee2cf"/><path d="m291.785156 135.085938c-.433594 0-.871094-.035157-1.308594-.113282-4.082031-.71875-6.804687-4.609375-6.085937-8.6875l6.5625-37.199218c.71875-4.078126 4.601563-6.808594 8.6875-6.085938 4.078125.71875 6.800781 4.609375 6.082031 8.6875l-6.558594 37.203125c-.640624 3.636719-3.808593 6.195313-7.378906 6.195313zm0 0" fill="#6fce91"/><path d="m287.101562 154.113281c64.339844 11.34375 101.402344 70.128907 94.035157 147.953125-7.664063 80.953125-48.1875 135.203125-141.078125 118.824219-92.886719-16.378906-112.414063-81.214844-91.925782-159.910156 19.695313-75.648438 74.625-118.214844 138.96875-106.867188zm0 0" fill="#f7ef87"/><g fill="#efd176"><path d="m247.457031 154.019531c-46.53125 8.421875-83.832031 47.449219-99.324219 106.960938-20.433593 78.472656-1.0625 143.164062 91.160157 159.765625-99.925781-88.28125-48.085938-206.628906 8.164062-266.726563zm0 0"/><path d="m282.316406 254.9375c-2.367187 0-4.691406-1.117188-6.152344-3.199219l-5.015624-7.164062-7.164063 5.015625c-3.390625 2.378906-8.070313 1.550781-10.445313-1.84375-2.375-3.390625-1.550781-8.066406 1.84375-10.441406l13.308594-9.320313c3.394532-2.375 8.066406-1.550781 10.445313 1.84375l9.316406 13.308594c2.375 3.390625 1.550781 8.066406-1.84375 10.441406-1.308594.917969-2.808594 1.359375-4.292969 1.359375zm0 0"/><path d="m346.988281 266.339844c-2.367187 0-4.691406-1.117188-6.152343-3.199219l-5.015626-7.164063-7.164062 5.015626c-3.394531 2.378906-8.066406 1.554687-10.441406-1.839844-2.378906-3.394532-1.554688-8.070313 1.839844-10.445313l13.308593-9.316406c3.394531-2.378906 8.070313-1.554687 10.445313 1.839844l9.316406 13.308593c2.375 3.390626 1.550781 8.066407-1.84375 10.445313-1.308594.914063-2.808594 1.355469-4.292969 1.355469zm0 0"/><path d="m217.640625 243.53125c-2.363281 0-4.691406-1.113281-6.148437-3.199219l-5.015626-7.160156-7.164062 5.015625c-3.390625 2.375-8.070312 1.550781-10.445312-1.84375s-1.550782-8.070312 1.84375-10.445312l13.304687-9.316407c1.628906-1.140625 3.644531-1.59375 5.605469-1.242187 1.957031.34375 3.699218 1.453125 4.839844 3.085937l9.316406 13.304688c2.375 3.394531 1.550781 8.070312-1.839844 10.445312-1.308594.917969-2.808594 1.355469-4.296875 1.355469zm0 0"/><path d="m292.1875 388.023438c-2.363281 0-4.691406-1.117188-6.148438-3.199219l-5.015624-7.164063-7.164063 5.015625c-3.394531 2.375-8.070313 1.550781-10.445313-1.839843-2.375-3.394532-1.550781-8.070313 1.84375-10.445313l13.304688-9.320313c3.398438-2.375 8.070312-1.550781 10.445312 1.84375l9.316407 13.308594c2.378906 3.390625 1.554687 8.066406-1.839844 10.441406-1.308594.917969-2.808594 1.359376-4.296875 1.359376zm0 0"/><path d="m227.515625 376.617188c-2.363281 0-4.691406-1.113282-6.148437-3.195313l-5.015626-7.164063-7.164062 5.015626c-3.390625 2.375-8.070312 1.550781-10.445312-1.84375-2.375-3.390626-1.550782-8.066407 1.84375-10.445313l13.304687-9.316406c1.628906-1.140625 3.644531-1.589844 5.605469-1.242188 1.957031.347657 3.699218 1.457031 4.839844 3.085938l9.316406 13.304687c2.375 3.394532 1.550781 8.070313-1.839844 10.445313-1.308594.917969-2.808594 1.355469-4.296875 1.355469zm0 0"/></g><path d="m294.59375 322.0625c-2.144531 12.167969 8.5 24.214844 23.78125 26.90625 15.277344 2.695312 29.398438-4.984375 31.542969-17.152344 2.144531-12.167968-8.5-24.214844-23.777344-26.90625-15.277344-2.695312-29.402344 4.984375-31.546875 17.152344zm0 0" fill="#eda1ab"/><path d="m200 305.347656c2.144531-12.167968-8.503906-24.214844-23.78125-26.90625s-29.402344 4.988282-31.546875 17.152344c-2.144531 12.167969 8.503906 24.214844 23.78125 26.90625 15.277344 2.695312 29.402344-4.984375 31.546875-17.152344zm0 0" fill="#eda1ab"/><path d="m322.238281 307.59375c-.429687 0-.867187-.035156-1.308593-.113281-4.078126-.71875-6.804688-4.609375-6.082032-8.691407l2.09375-11.871093c.71875-4.078125 4.601563-6.804688 8.6875-6.082031 4.078125.71875 6.800782 4.605468 6.082032 8.6875l-2.09375 11.871093c-.640626 3.640625-3.804688 6.199219-7.378907 6.199219zm0 0" fill="#4e5660"/><path d="m227.976562 292.84375c2.429688-13.785156 12.644532-13.320312 24.964844-11.148438 12.316406 2.171876 22.074219 5.230469 19.644532 19.011719-2.429688 13.785157-14.386719 23.199219-26.703126 21.027344-12.320312-2.171875-20.335937-15.109375-17.90625-28.890625zm0 0" fill="#4e5660"/><path d="m181.542969 282.785156c-.433594 0-.871094-.035156-1.3125-.113281-4.078125-.71875-6.800781-4.609375-6.082031-8.691406l2.09375-11.871094c.71875-4.078125 4.613281-6.804687 8.6875-6.085937 4.078124.71875 6.804687 4.609374 6.085937 8.691406l-2.09375 11.875c-.644531 3.636718-3.808594 6.195312-7.378906 6.195312zm0 0" fill="#4e5660"/><path d="m512 78.578125c0 29.53125-23.9375 53.46875-53.46875 53.46875s-53.46875-23.9375-53.46875-53.46875c0-29.527344 23.9375-53.46875 53.46875-53.46875s53.46875 23.941406 53.46875 53.46875zm0 0" fill="#a3defe"/><path d="m498.445312 114.140625c-54.148437 5.125-83.972656-46.539063-68.789062-80.554687-14.789062 9.511718-24.59375 26.101562-24.59375 44.992187 0 29.53125 23.9375 53.46875 53.46875 53.46875 15.871094 0 30.121094-6.921875 39.914062-17.90625zm0 0" fill="#7acefa"/><path d="m121.886719 378.90625c0 20.542969-16.65625 37.199219-37.203125 37.199219s-37.203125-16.65625-37.203125-37.199219c0-20.546875 16.65625-37.203125 37.203125-37.203125s37.203125 16.65625 37.203125 37.203125zm0 0" fill="#a3defe"/><path d="m112.453125 403.648438c-37.671875 3.5625-58.421875-32.382813-47.859375-56.046876-10.289062 6.617188-17.113281 18.160157-17.113281 31.304688 0 20.542969 16.65625 37.199219 37.203125 37.199219 11.042968 0 20.957031-4.816407 27.769531-12.457031zm0 0" fill="#7acefa"/><path d="m411.132812 441.640625c0 16.054687-13.015624 29.074219-29.070312 29.074219s-29.074219-13.019532-29.074219-29.074219 13.019531-29.070313 29.074219-29.070313 29.070312 13.015626 29.070312 29.070313zm0 0" fill="#a3defe"/><path d="m403.765625 460.976562c-29.441406 2.785157-45.660156-25.304687-37.402344-43.800781-8.042969 5.171875-13.375 14.191407-13.375 24.464844 0 16.054687 13.019531 29.074219 29.074219 29.074219 8.628906 0 16.378906-3.765625 21.703125-9.738282zm0 0" fill="#7acefa"/><path d="m487.324219 247.3125c0 17.222656-13.960938 31.183594-31.179688 31.183594-17.222656 0-31.183593-13.960938-31.183593-31.183594s13.960937-31.183594 31.183593-31.183594c17.21875 0 31.179688 13.960938 31.179688 31.183594zm0 0" fill="#8eafe2"/><path d="m479.421875 268.050781c-31.578125 2.988281-48.972656-27.140625-40.117187-46.980469-8.625 5.546876-14.34375 15.226563-14.34375 26.242188 0 17.222656 13.960937 31.183594 31.179687 31.183594 9.257813 0 17.570313-4.039063 23.28125-10.445313zm0 0" fill="#6a96d7"/><path d="m92.207031 92.308594c0 25.464844-20.640625 46.105468-46.105469 46.105468-25.460937 0-46.101562-20.640624-46.101562-46.105468 0-25.460938 20.640625-46.101563 46.101562-46.101563 25.464844 0 46.105469 20.640625 46.105469 46.101563zm0 0" fill="#8eafe2"/><path d="m80.519531 122.972656c-46.691406 4.417969-72.40625-40.128906-59.3125-69.457031-12.753906 8.203125-21.207031 22.507813-21.207031 38.792969 0 25.464844 20.640625 46.105468 46.101562 46.105468 13.6875 0 25.972657-5.96875 34.417969-15.441406zm0 0" fill="#6a96d7"/><path d="m96.515625 217.0625-32.863281-5.796875-10.335938 58.613281c-1.601562 9.074219 4.457032 17.726563 13.535156 19.328125 9.074219 1.597657 17.726563-4.460937 19.328126-13.535156zm0 0" fill="#8ee2cf"/><path d="m118.503906 197.015625c0 19.546875-15.847656 35.394531-35.398437 35.394531-19.546875 0-35.394531-15.847656-35.394531-35.394531s15.847656-35.394531 35.394531-35.394531c19.550781 0 35.398437 15.847656 35.398437 35.394531zm0 0" fill="#a3defe"/><path d="m83.125 239.914062c-2.464844 0-4.957031-.214843-7.46875-.65625-11.28125-1.988281-21.117188-8.253906-27.6875-17.640624-6.570312-9.382813-9.09375-20.765626-7.105469-32.050782s8.253907-21.117187 17.640625-27.6875c9.382813-6.574218 20.769532-9.097656 32.050782-7.105468 11.285156 1.988281 21.117187 8.253906 27.6875 17.636718 6.574218 9.386719 9.097656 20.769532 7.109374 32.054688-3.667968 20.78125-21.8125 35.449218-42.226562 35.449218zm-.078125-70.800781c-5.667969 0-11.195313 1.730469-15.9375 5.050781-6.105469 4.277344-10.179687 10.671876-11.472656 18.007813-1.292969 7.339844.347656 14.738281 4.621093 20.84375 4.273438 6.105469 10.667969 10.179687 18.007813 11.472656 15.144531 2.660157 29.640625-7.480469 32.3125-22.628906 1.292969-7.335937-.347656-14.738281-4.621094-20.84375-4.273437-6.105469-10.667969-10.175781-18.007812-11.472656-1.632813-.285157-3.273438-.429688-4.902344-.429688zm0 0" fill="#6a96d7"/></svg>