<svg height="512pt" viewBox="-17 0 512 512.00045" width="512pt" xmlns="http://www.w3.org/2000/svg"><path d="m80.601562 512c-6.785156 0-11.871093-6.308594-10.3125-12.910156 2.34375-9.894532 9.269532-22.441406 28.980469-26.007813 26.089844-4.722656 29.988281-22.621093 49.285157-18.972656 16.773437 3.175781 50.878906 15.800781 59.859374 44.050781 2.175782 6.84375-2.875 13.839844-10.054687 13.839844zm0 0" fill="#c6c6c6"/><path d="m146.554688 453.808594c-17.597657-2.082032-22.125 14.71875-47.285157 19.273437-19.710937 3.566407-26.636719 16.113281-28.976562 26.007813-1.5625 6.601562 3.523437 12.910156 10.308593 12.910156h89.035157c-17.363281-12.726562-28.179688-36.9375-23.082031-58.191406zm0 0" fill="#9aa3b1"/><path d="m145.09375 483.570312c-7.945312 0-15.070312-5.554687-16.761719-13.640624-4.308593-20.617188-1.828125-40.269532 7.164063-56.832032 9.789062-18.023437 26.714844-31.085937 48.945312-37.773437 9.066406-2.734375 18.628906 2.40625 21.355469 11.472656 2.730469 9.066406-2.40625 18.625-11.472656 21.355469-37.257813 11.210937-35.09375 42.035156-32.433594 54.765625 1.9375 9.265625-4.003906 18.347656-13.273437 20.285156-1.179688.25-2.363282.367187-3.523438.367187zm0 0" fill="#efd176"/><path d="m289.355469 512c-1.164063 0-2.34375-.117188-3.523438-.367188-9.269531-1.933593-15.210937-11.015624-13.273437-20.285156 5.996094-28.695312-1.496094-84.425781-3.953125-96.078125-1.949219-9.261719 3.976562-18.355469 13.238281-20.308593 9.257812-1.949219 18.355469 3.972656 20.308594 13.238281 2.105468 9.988281 11.785156 72.746093 3.964844 110.164062-1.691407 8.082031-8.820313 13.636719-16.761719 13.636719zm0 0" fill="#efd176"/><path d="m368.96875 296.148438c-18.917969 0-38.5625-4.976563-56.082031-14.59375-8.300781-4.554688-11.335938-14.972657-6.78125-23.273438 4.554687-8.300781 14.972656-11.332031 23.273437-6.78125 7.085938 3.886719 32.253906 15.921875 58.742188 7.574219 17.324218-5.460938 31.316406-18.789063 41.582031-39.605469 4.1875-8.488281 14.464844-11.980469 22.957031-7.792969 8.488282 4.1875 11.976563 14.464844 7.792969 22.953125-14.359375 29.117188-35.808594 48.875-62.027344 57.140625-9.308593 2.9375-19.28125 4.378907-29.457031 4.378907zm0 0" fill="#efd176"/><path d="m63.230469 344.242188c-17.492188 0-33.480469-4.945313-45.058594-14.152344-20.375-16.203125-23.886719-41.921875-9.167969-67.117188 4.777344-8.175781 15.277344-10.929687 23.449219-6.15625 8.175781 4.773438 10.929687 15.273438 6.15625 23.449219-2.433594 4.15625-8.886719 15.207031.902344 22.992187 13.15625 10.460938 47.863281 10.835938 76.199219-15.863281 6.890624-6.492187 17.738281-6.167969 24.230468.71875 6.496094 6.890625 6.171875 17.738281-.71875 24.230469-18.246094 17.195312-40.972656 28.253906-63.996094 31.140625-4.050781.507813-8.0625.757813-11.996093.757813zm0 0" fill="#efd176"/><path d="m142.269531 76.386719c27.9375 19.566406 38.527344 55.824219 42.277344 74.730469 1.363281 6.871093-3.277344 13.503906-10.199219 14.570312-19.050781 2.941406-56.746094 5.390625-84.683594-14.171875-27.941406-19.566406-38.53125-55.824219-42.28125-74.730469-1.363281-6.871094 3.277344-13.5 10.199219-14.570312 19.050781-2.941406 56.746094-5.390625 84.6875 14.171875zm0 0" fill="#8ee2cf"/><path d="m132.710938 133.183594c-1.484376 0-2.984376-.4375-4.292969-1.355469l-33.507813-23.464844c-3.394531-2.375-4.21875-7.050781-1.84375-10.445312 2.375-3.390625 7.054688-4.214844 10.445313-1.839844l33.507812 23.460937c3.394531 2.378907 4.21875 7.054688 1.84375 10.445313-1.457031 2.085937-3.785156 3.199219-6.152343 3.199219zm0 0" fill="#6fce91"/><path d="m235.085938 60.019531c-19.5625 27.941407-17.113282 65.636719-14.171876 84.683594 1.070313 6.921875 7.699219 11.566406 14.570313 10.203125 18.90625-3.75 55.164063-14.34375 74.726563-42.28125 19.566406-27.941406 17.113281-65.632812 14.175781-84.683594-1.070313-6.921875-7.703125-11.566406-14.570313-10.199218-18.90625 3.75-55.164062 14.339843-74.730468 42.277343zm0 0" fill="#8ee2cf"/><path d="m260.914062 110.578125c-1.488281 0-2.988281-.441406-4.296874-1.355469-3.394532-2.378906-4.21875-7.054687-1.839844-10.445312l23.460937-33.507813c2.375-3.394531 7.054688-4.21875 10.445313-1.84375 3.394531 2.375 4.21875 7.054688 1.84375 10.445313l-23.464844 33.507812c-1.457031 2.085938-3.785156 3.199219-6.148438 3.199219zm0 0" fill="#6fce91"/><path d="m235.960938 72.28125c5.921874 33.589844-12.226563 66.71875-22.945313 82.738281-3.894531 5.824219-11.867187 7.230469-17.515625 3.089844-15.550781-11.390625-43.9375-36.3125-49.859375-69.902344-5.921875-33.589843 12.226563-66.714843 22.945313-82.738281 3.894531-5.824219 11.867187-7.226562 17.515624-3.089844 15.550782 11.390625 43.9375 36.3125 49.859376 69.902344zm0 0" fill="#8ee2cf"/><path d="m194.34375 107.886719c-3.570312 0-6.734375-2.558594-7.378906-6.199219l-7.101563-40.28125c-.71875-4.082031 2.003907-7.972656 6.085938-8.691406 4.078125-.722656 7.96875 2.003906 8.6875 6.085937l7.101562 40.285157c.71875 4.078124-2.003906 7.96875-6.082031 8.6875-.445312.078124-.878906.113281-1.3125.113281zm0 0" fill="#6fce91"/><path d="m199.417969 129.113281c69.675781-12.285156 129.164062 33.808594 150.492187 115.730469 22.1875 85.21875 1.039063 155.4375-99.550781 173.171875-100.59375 17.738281-144.480469-41.007813-152.777344-128.675781-7.976562-84.28125 32.15625-147.941406 101.835938-160.226563zm0 0" fill="#f7ef87"/><g fill="#efd176"><path d="m159.042969 143.699219c-44.230469 25.808593-67.734375 79.339843-61.460938 145.636719 8.273438 87.425781 51.945313 146.082031 151.945313 128.816406-134.382813-52.824219-125.46875-192.457032-90.484375-274.453125zm0 0"/><path d="m215.855469 235.691406c-1.488281 0-2.988281-.441406-4.296875-1.355468-3.394532-2.378907-4.21875-7.054688-1.84375-10.445313l10.089844-14.410156c2.378906-3.394531 7.054687-4.21875 10.445312-1.84375l14.410156 10.089843c3.394532 2.375 4.21875 7.054688 1.84375 10.445313-2.375 3.394531-7.050781 4.21875-10.445312 1.84375l-8.265625-5.789063-5.789063 8.265626c-1.460937 2.085937-3.785156 3.199218-6.148437 3.199218zm0 0"/><path d="m285.890625 223.34375c-1.484375 0-2.984375-.441406-4.296875-1.359375-3.394531-2.375-4.21875-7.050781-1.839844-10.445313l10.089844-14.410156c1.140625-1.628906 2.882812-2.738281 4.839844-3.082031 1.964844-.347656 3.976562.101563 5.605468 1.242187l14.410157 10.089844c3.390625 2.375 4.214843 7.054688 1.839843 10.445313-2.375 3.394531-7.050781 4.21875-10.445312 1.84375l-8.265625-5.789063-5.789063 8.265625c-1.457031 2.082031-3.785156 3.199219-6.148437 3.199219zm0 0"/><path d="m145.816406 248.039062c-1.484375 0-2.984375-.4375-4.292968-1.355468-3.394532-2.375-4.21875-7.054688-1.84375-10.445313l10.089843-14.410156c2.378907-3.390625 7.054688-4.214844 10.445313-1.839844l14.410156 10.089844c3.394531 2.375 4.21875 7.050781 1.84375 10.445313-2.375 3.394531-7.050781 4.21875-10.445312 1.839843l-8.269532-5.785156-5.785156 8.265625c-1.460938 2.082031-3.789062 3.195312-6.152344 3.195312zm0 0"/><path d="m276.1875 373.09375c-1.484375 0-2.984375-.4375-4.292969-1.355469-3.394531-2.375-4.21875-7.054687-1.84375-10.445312l10.089844-14.410157c2.378906-3.394531 7.054687-4.21875 10.445313-1.84375l14.410156 10.089844c3.394531 2.378906 4.21875 7.054688 1.84375 10.445313-2.378906 3.394531-7.050782 4.222656-10.445313 1.84375l-8.269531-5.789063-5.785156 8.265625c-1.460938 2.082031-3.789063 3.199219-6.152344 3.199219zm0 0"/><path d="m206.152344 385.445312c-1.484375 0-2.984375-.441406-4.292969-1.359374-3.394531-2.375-4.21875-7.050782-1.84375-10.445313l10.089844-14.410156c2.375-3.394531 7.050781-4.21875 10.445312-1.84375l14.410157 10.089843c3.394531 2.378907 4.21875 7.054688 1.839843 10.445313-2.375 3.394531-7.050781 4.21875-10.441406 1.84375l-8.269531-5.789063-5.789063 8.269532c-1.457031 2.082031-3.785156 3.199218-6.148437 3.199218zm0 0"/></g><path d="m192.457031 316.945312c-2.320312-13.175781-17.617187-21.492187-34.164062-18.578124-16.542969 2.917968-28.074219 15.964843-25.75 29.140624 2.320312 13.175782 17.617187 21.492188 34.164062 18.574219 16.542969-2.917969 28.074219-15.960937 25.75-29.136719zm0 0" fill="#eda1ab"/><path d="m294.957031 298.855469c2.324219 13.175781 17.617188 21.492187 34.164063 18.574219 16.542968-2.917969 28.074218-15.960938 25.75-29.136719-2.320313-13.175781-17.617188-21.492188-34.160156-18.578125-16.546876 2.917968-28.078126 15.964844-25.753907 29.140625zm0 0" fill="#eda1ab"/><path d="m303.234375 280.367188c-3.570313 0-6.734375-2.558594-7.378906-6.199219l-1.863281-10.578125c-.71875-4.078125 2.003906-7.96875 6.082031-8.6875s7.96875 2.003906 8.6875 6.082031l1.867187 10.578125c.71875 4.082031-2.003906 7.972656-6.085937 8.691406-.4375.078125-.878907.113282-1.308594.113282zm0 0" fill="#4e5660"/><path d="m246.996094 319.898438c-.539063 0-1.078125-.023438-1.625-.074219l-12.097656-1.132813c-4.121094-.386718-7.152344-4.039062-6.769532-8.164062.386719-4.125 4.058594-7.132813 8.167969-6.769532l12.09375 1.128907c.359375.03125 1.109375.105469 1.472656-.949219.359375-1.054688-.273437-1.457031-.578125-1.652344-3.542968-2.253906-5.992187-5.921875-6.722656-10.058594-.726562-4.132812.320312-8.417968 2.878906-11.746093.21875-.285157.675782-.886719-.023437-1.753907-.699219-.863281-1.382813-.542968-1.707031-.386718l-10.980469 5.199218c-3.742188 1.769532-8.214844.171876-9.988281-3.570312-1.773438-3.742188-.175782-8.214844 3.570312-9.988281l10.976562-5.199219c6.988282-3.308594 14.945313-1.488281 19.800782 4.523438 4.855468 6.015624 4.953125 14.175781.246094 20.308593 6.523437 4.171875 9.222656 11.875 6.714843 19.1875-2.324219 6.792969-8.40625 11.097657-15.429687 11.097657zm0 0" fill="#4e5660"/><path d="m161.492188 305.289062c-3.570313 0-6.734376-2.558593-7.378907-6.199218-2.105469-11.9375 5.894531-23.363282 17.835938-25.46875 5.789062-1.023438 11.621093.273437 16.429687 3.640625 4.8125 3.367187 8.023438 8.410156 9.042969 14.191406.71875 4.082031-2.003906 7.972656-6.085937 8.6875-4.074219.726563-7.96875-2-8.6875-6.082031-.667969-3.792969-4.304688-6.335938-8.09375-5.667969-3.796876.667969-6.339844 4.300781-5.667969 8.09375.71875 4.078125-2.003907 7.972656-6.085938 8.6875-.4375.082031-.878906.117187-1.308593.117187zm0 0" fill="#4e5660"/><path d="m463.234375 238.558594-31.359375 5.53125c-9.964844 1.753906-19.464844-4.894532-21.21875-14.859375l-10.722656-60.800781c-1.757813-9.960938 4.894531-19.460938 14.859375-21.214844l31.359375-5.53125c9.960937-1.757813 19.460937 4.894531 21.21875 14.855468l10.71875 60.800782c1.757812 9.960937-4.894532 19.460937-14.855469 21.21875zm0 0" fill="#a3defe"/><path d="m410.65625 229.230469c1.753906 9.964843 11.253906 16.613281 21.21875 14.859375l31.359375-5.53125c1.601563-.28125 3.109375-.785156 4.519531-1.4375-29.632812-15.761719-37.933594-63.230469-37.222656-92.683594l-15.738281 2.773438c-9.964844 1.757812-16.617188 11.257812-14.859375 21.21875zm0 0" fill="#7acefa"/><path d="m427.832031 166.597656c0 4-3.242187 7.242188-7.242187 7.242188s-7.238282-3.242188-7.238282-7.242188c0-3.996094 3.238282-7.238281 7.238282-7.238281s7.242187 3.242187 7.242187 7.238281zm0 0" fill="#4e5660"/><path d="m474.894531 199.222656 2.605469 14.773438-67.4375 11.894531-2.605469-14.773437zm0 0" fill="#f7ef87"/><path d="m376.628906 164.667969h-16.015625c-4.144531 0-7.5-3.359375-7.5-7.5 0-4.144531 3.355469-7.5 7.5-7.5h16.015625c4.144532 0 7.5 3.355469 7.5 7.5 0 4.140625-3.355468 7.5-7.5 7.5zm0 0" fill="#8eafe2"/><path d="m393.359375 134.644531c-1.917969 0-3.839844-.730469-5.304687-2.195312l-11.152344-11.152344c-2.929688-2.929687-2.929688-7.675781 0-10.605469 2.929687-2.929687 7.675781-2.929687 10.605468 0l11.15625 11.152344c2.925782 2.929688 2.925782 7.675781 0 10.605469-1.464843 1.464843-3.386718 2.195312-5.304687 2.195312zm0 0" fill="#8eafe2"/></svg>