<svg height="512pt" viewBox="-45 0 512 512.00035" width="512pt" xmlns="http://www.w3.org/2000/svg"><path d="m343.070312 291.402344c0 17.863281-14.480468 32.34375-32.34375 32.34375-17.863281 0-32.34375-14.480469-32.34375-32.34375 0-17.863282 14.480469-32.34375 32.34375-32.34375 17.863282 0 32.34375 14.480468 32.34375 32.34375zm0 0" fill="#8ee2cf"/><path d="m323.464844 291.402344c0 7.035156-5.703125 12.738281-12.738282 12.738281-7.035156 0-12.742187-5.703125-12.742187-12.738281s5.707031-12.738282 12.742187-12.738282c7.035157 0 12.738282 5.703126 12.738282 12.738282zm0 0" fill="#6fce91"/><g fill="#efd176"><path d="m175.925781 512c-8.050781 0-15.277343-5.628906-16.992187-13.824219-7.925782-37.929687 1.882812-101.542969 4.019531-111.667969 1.980469-9.390624 11.199219-15.394531 20.585937-13.421874 9.390626 1.980468 15.398438 11.199218 13.417969 20.589843-2.488281 11.8125-10.082031 68.300781-4.003906 97.390625 1.960937 9.394532-4.0625 18.601563-13.453125 20.5625-1.199219.25-2.398438.371094-3.574219.371094zm0 0"/><path d="m281.292969 512c-1.179688 0-2.371094-.121094-3.570313-.371094-9.394531-1.960937-15.417968-11.167968-13.457031-20.5625 6.078125-29.089844-1.515625-85.582031-4.003906-97.394531-1.980469-9.390625 4.027343-18.605469 13.417969-20.585937 9.386718-1.976563 18.605468 4.027343 20.585937 13.417968 2.136719 10.128906 11.945313 73.742188 4.019531 111.671875-1.710937 8.195313-8.9375 13.824219-16.992187 13.824219zm0 0"/><path d="m373.808594 452.578125c-1.402344 0-2.828125-.171875-4.25-.53125-9.304688-2.339844-14.953125-11.78125-12.613282-21.089844 14.546876-57.847656-17.546874-102.496093-32.023437-119.003906-6.324219-7.214844-5.605469-18.195313 1.609375-24.519531 7.21875-6.328125 18.195312-5.605469 24.523438 1.609375 18.085937 20.632812 58.152343 76.585937 39.59375 150.390625-1.984376 7.882812-9.0625 13.144531-16.839844 13.144531zm0 0"/><path d="m94.632812 305.789062c-6.371093 0-12.71875-.714843-18.980468-2.171874-20.839844-4.835938-50.398438-20.175782-72.886719-65.773438-4.246094-8.609375-.707031-19.027344 7.898437-23.269531 8.609376-4.246094 19.027344-.707031 23.269532 7.898437 13.039062 26.4375 30.179687 42.789063 49.582031 47.292969 16.121094 3.746094 33.832031-1 49.871094-13.355469 7.601562-5.859375 18.511719-4.441406 24.371093 3.160156 5.855469 7.601563 4.4375 18.511719-3.164062 24.371094-18.660156 14.375-39.414062 21.847656-59.960938 21.847656zm0 0"/></g><path d="m231.214844 60.84375c19.828125 28.320312 17.34375 66.53125 14.367187 85.839844-1.085937 7.019531-7.808593 11.726562-14.773437 10.34375-19.164063-3.804688-55.917969-14.539063-75.75-42.859375-19.832032-28.324219-17.347656-66.535157-14.367188-85.84375 1.082032-7.015625 7.808594-11.722657 14.769532-10.34375 19.164062 3.804687 55.921874 14.539062 75.753906 42.863281zm0 0" fill="#8ee2cf"/><path d="m205.035156 111.988281c-2.363281 0-4.691406-1.113281-6.148437-3.199219l-23.785157-33.964843c-2.375-3.394531-1.550781-8.070313 1.839844-10.445313 3.394532-2.378906 8.070313-1.550781 10.445313 1.839844l23.785156 33.96875c2.375 3.394531 1.550781 8.070312-1.839844 10.445312-1.3125.917969-2.8125 1.355469-4.296875 1.355469zm0 0" fill="#6fce91"/><path d="m325.300781 77.433594c-28.320312 19.832031-39.054687 56.585937-42.859375 75.75-1.382812 6.964844 3.324219 13.6875 10.34375 14.769531 19.308594 2.980469 57.519532 5.464844 85.839844-14.367187 28.324219-19.828126 39.058594-56.585938 42.859375-75.75 1.382813-6.964844-3.324219-13.6875-10.339844-14.769532-19.308593-2.980468-57.519531-5.464844-85.84375 14.367188zm0 0" fill="#8ee2cf"/><path d="m334.988281 134.902344c-2.363281 0-4.691406-1.113282-6.148437-3.199219-2.378906-3.390625-1.554688-8.066406 1.839844-10.445313l33.96875-23.78125c3.394531-2.378906 8.066406-1.554687 10.445312 1.839844 2.375 3.394532 1.550781 8.070313-1.84375 10.445313l-33.96875 23.785156c-1.308594.917969-2.808594 1.355469-4.292969 1.355469zm0 0" fill="#6fce91"/><path d="m321.882812 89.414062c-6.003906 34.050782-34.777343 59.3125-50.539062 70.859376-5.730469 4.195312-13.8125 2.769531-17.757812-3.132813-10.863282-16.242187-29.261719-49.820313-23.257813-83.871094 6.003906-34.046875 34.777344-59.3125 50.539063-70.855469 5.726562-4.199218 13.8125-2.773437 17.757812 3.128907 10.863281 16.242187 29.261719 49.824219 23.257812 83.871093zm0 0" fill="#8ee2cf"/><path d="m272.515625 109.261719c-.433594 0-.871094-.039063-1.3125-.117188-4.078125-.71875-6.804687-4.605469-6.082031-8.6875l7.199218-40.835937c.71875-4.078125 4.609376-6.808594 8.6875-6.082032 4.082032.71875 6.804688 4.609376 6.085938 8.6875l-7.203125 40.835938c-.640625 3.636719-3.804687 6.199219-7.375 6.199219zm0 0" fill="#6fce91"/><path d="m267.371094 130.878906c70.632812 12.453125 111.3125 76.984375 103.226562 162.417969-8.410156 88.867187-52.898437 148.417969-154.863281 130.4375-101.96875-17.980469-123.40625-89.152344-100.914063-175.539063 21.621094-83.046874 81.917969-129.769531 152.550782-117.316406zm0 0" fill="#f7ef87"/><path d="m223.855469 130.777344c-51.082031 9.246094-92.027344 52.089844-109.035157 117.417968-22.429687 86.144532-1.167968 157.160157 100.074219 175.382813-109.695312-96.910156-52.789062-226.828125 8.960938-292.800781zm0 0" fill="#efd176"/><path d="m365.808594 324.695312-16.238282-18.9375c-11.710937-13.664062-11.417968-33.910156.6875-47.226562l18.4375-20.285156c-1.257812-7.046875-2.917968-13.839844-4.964843-20.351563l-46.515625 5.703125c-19.332032 2.371094-38.800782-3.1875-53.964844-15.414062-5.183594-4.179688-12.144531-5.410156-18.445312-3.253906-18.425782 6.304687-38.625 4.871093-55.980469-3.96875l-41.761719-21.273438c-4.148438 5.421875-8.035156 11.238281-11.628906 17.425781l10.390625 25.371094c6.820312 16.652344.171875 35.777344-15.507813 44.609375l-21.734375 12.246094c-3.578125 26.402344-2.136719 50.746094 5.535157 71.765625l67.414062-18.949219c12.730469-3.578125 26.363281.75 34.699219 11.011719 6.464843 7.953125 17.792969 9.953125 26.585937 4.6875 11.34375-6.792969 25.636719-6.195313 36.371094 1.519531l56.871094 40.867188c14.398437-17.128907 24.082031-39.511719 29.75-65.546876zm0 0" fill="#e1b89a"/><path d="m130.316406 267.097656-21.734375 12.242188c-3.578125 26.40625-2.132812 50.746094 5.535157 71.769531l44.832031-12.601563c-14.007813-49.375-2.339844-100.101562 19.460937-142.851562l-31.347656-15.96875c-4.148438 5.421875-8.035156 11.238281-11.628906 17.425781l10.390625 25.371094c6.820312 16.65625.171875 35.78125-15.507813 44.613281zm0 0" fill="#d2996f"/><path d="m262.117188 240.824219c-2.363282 0-4.691407-1.113281-6.148438-3.199219l-5.925781-8.460938-8.464844 5.925782c-3.390625 2.375-8.070313 1.550781-10.445313-1.84375-2.375-3.390625-1.550781-8.066406 1.84375-10.445313l14.605469-10.226562c1.628907-1.140625 3.644531-1.59375 5.601563-1.242188 1.960937.34375 3.703125 1.453125 4.84375 3.082031l10.226562 14.609376c2.378906 3.390624 1.554688 8.066406-1.839844 10.445312-1.3125.917969-2.8125 1.355469-4.296874 1.355469zm0 0" fill="#d2996f"/><path d="m333.113281 253.34375c-2.367187 0-4.691406-1.113281-6.152343-3.199219l-5.925782-8.464843-8.464844 5.925781c-3.394531 2.378906-8.066406 1.554687-10.441406-1.839844-2.378906-3.394531-1.554687-8.070313 1.839844-10.445313l14.605469-10.226562c3.398437-2.378906 8.070312-1.550781 10.445312 1.839844l10.230469 14.609375c2.375 3.394531 1.550781 8.070312-1.84375 10.445312-1.308594.914063-2.808594 1.355469-4.292969 1.355469zm0 0" fill="#d2996f"/><path d="m191.125 228.308594c-2.363281 0-4.691406-1.117188-6.152344-3.199219l-5.925781-8.464844-8.460937 5.925781c-3.394532 2.378907-8.070313 1.554688-10.445313-1.839843-2.378906-3.394531-1.554687-8.070313 1.839844-10.445313l14.609375-10.230468c3.390625-2.375 8.066406-1.550782 10.441406 1.84375l10.230469 14.605468c2.375 3.394532 1.550781 8.070313-1.839844 10.445313-1.3125.917969-2.8125 1.359375-4.296875 1.359375zm0 0" fill="#d2996f"/><path d="m271.953125 392.625c-2.367187 0-4.691406-1.113281-6.152344-3.199219l-5.925781-8.460937-8.460938 5.925781c-3.394531 2.375-8.070312 1.550781-10.445312-1.84375-2.378906-3.390625-1.554688-8.066406 1.839844-10.445313l14.609375-10.226562c1.628906-1.140625 3.644531-1.585938 5.601562-1.242188 1.960938.34375 3.703125 1.457032 4.84375 3.085938l10.226563 14.605469c2.375 3.394531 1.550781 8.070312-1.839844 10.445312-1.3125.917969-2.8125 1.355469-4.296875 1.355469zm0 0" fill="#efd176"/><path d="m200.957031 380.105469c-2.363281 0-4.691406-1.113281-6.148437-3.195313l-5.925782-8.464844-8.464843 5.925782c-3.390625 2.378906-8.070313 1.550781-10.445313-1.839844-2.375-3.394531-1.550781-8.070312 1.84375-10.445312l14.605469-10.230469c1.628906-1.140625 3.644531-1.59375 5.605469-1.242188 1.957031.34375 3.699218 1.453125 4.839844 3.085938l10.230468 14.605469c2.375 3.394531 1.550782 8.070312-1.84375 10.445312-1.3125.917969-2.8125 1.355469-4.296875 1.355469zm0 0" fill="#efd176"/><path d="m182.296875 309.722656c2.355469-13.355468-9.332031-26.582031-26.105469-29.535156-16.769531-2.957031-32.273437 5.472656-34.628906 18.828125s9.332031 26.578125 26.105469 29.535156c16.769531 2.957031 32.273437-5.472656 34.628906-18.828125zm0 0" fill="#fff"/><path d="m286.140625 328.070312c-2.355469 13.355469 9.332031 26.578126 26.105469 29.535157 16.769531 2.957031 32.273437-5.472657 34.628906-18.828125 2.355469-13.355469-9.332031-26.578125-26.105469-29.535156-16.769531-2.957032-32.273437 5.472656-34.628906 18.828124zm0 0" fill="#fff"/><path d="m303.085938 313.660156c-.433594 0-.871094-.039062-1.3125-.117187-4.078126-.71875-6.800782-4.605469-6.082032-8.6875l1.890625-10.722657c.71875-4.078124 4.617188-6.808593 8.6875-6.085937 4.082031.71875 6.804688 4.609375 6.085938 8.691406l-1.890625 10.722657c-.644532 3.636718-3.808594 6.199218-7.378906 6.199218zm0 0" fill="#4e5660"/><path d="m173.878906 290.878906c-.433594 0-.871094-.039062-1.3125-.117187-4.078125-.71875-6.800781-4.605469-6.082031-8.6875l1.890625-10.726563c.71875-4.078125 4.613281-6.808594 8.6875-6.082031 4.078125.71875 6.804688 4.609375 6.085938 8.6875l-1.890626 10.726563c-.644531 3.636718-3.808593 6.199218-7.378906 6.199218zm0 0" fill="#4e5660"/><path d="m241 310.851562c-1.757812 0-3.523438-.152343-5.28125-.464843-8.660156-1.523438-16.238281-6.730469-20.785156-14.273438-2.136719-3.550781-.996094-8.160156 2.554687-10.296875 3.546875-2.136718 8.15625-.996094 10.292969 2.554688 2.308594 3.828125 6.152344 6.472656 10.542969 7.246094 4.390625.769531 8.90625-.394532 12.386719-3.203126 3.222656-2.605468 7.941406-2.101562 10.546874 1.121094 2.601563 3.222656 2.101563 7.945313-1.121093 10.546875-5.464844 4.414063-12.230469 6.769531-19.136719 6.769531zm0 0" fill="#4e5660"/><path d="m343.070312 291.402344c0 17.863281-14.480468 32.34375-32.34375 32.34375-17.863281 0-32.34375-14.480469-32.34375-32.34375 0-17.863282 14.480469-32.34375 32.34375-32.34375 17.863282 0 32.34375 14.480468 32.34375 32.34375zm0 0" fill="#8ee2cf"/><path d="m323.464844 291.402344c0 7.035156-5.703125 12.738281-12.738282 12.738281-7.035156 0-12.742187-5.703125-12.742187-12.738281s5.707031-12.738282 12.742187-12.738282c7.035157 0 12.738282 5.703126 12.738282 12.738282zm0 0" fill="#6fce91"/><path d="m275.632812 84.015625c107 18.867187 101.023438 64.804687 98.058594 81.890625-44.652344 5.835938-55.636718 11.339844-112.71875 1.273438-57.085937-10.066407-65.527344-18.992188-105.488281-39.75 3.058594-17.070313 13.152344-62.28125 120.148437-43.414063zm0 0" fill="#f6e3a3"/><path d="m268.378906 125.175781c66.261719 11.683594 98.484375 28.914063 113.664063 46.074219 16.179687 18.292969 5.8125 47.25-18.292969 51.167969-34.566406 5.621093-54.914062 8.28125-112.199219-1.820313-57.28125-10.097656-75.492187-19.558594-106.050781-36.664062-21.3125-11.925782-21.152344-42.683594.308594-54.339844 20.128906-10.929688 56.304687-16.101562 122.570312-4.417969zm0 0" fill="#fcf2d0"/><path d="m233.90625 110.492188c-2.363281 0-4.691406-1.117188-6.148438-3.199219l-2.101562-2.996094c-2.375-3.390625-1.550781-8.070313 1.84375-10.445313s8.066406-1.550781 10.441406 1.839844l2.101563 2.996094c2.375 3.394531 1.550781 8.070312-1.839844 10.445312-1.3125.917969-2.8125 1.359376-4.296875 1.359376zm0 0" fill="#fcf2d0"/><path d="m304.390625 171.636719c-2.363281 0-4.691406-1.117188-6.148437-3.199219l-4.386719-6.265625c-2.375-3.394531-1.550781-8.070313 1.839843-10.445313 3.398438-2.378906 8.070313-1.550781 10.445313 1.839844l4.386719 6.269532c2.378906 3.390624 1.554687 8.070312-1.839844 10.445312-1.308594.914062-2.808594 1.355469-4.296875 1.355469zm0 0" fill="#f6e3a3"/><path d="m210.332031 153.375c-2.367187 0-4.691406-1.117188-6.152343-3.199219l-2.921876-4.179687c-2.378906-3.394532-1.550781-8.070313 1.839844-10.445313 3.394532-2.375 8.070313-1.550781 10.445313 1.84375l2.925781 4.179688c2.375 3.390625 1.550781 8.066406-1.84375 10.441406-1.308594.917969-2.808594 1.359375-4.292969 1.359375zm0 0" fill="#f6e3a3"/><path d="m329.207031 128.753906c-2.363281 0-4.691406-1.117187-6.148437-3.199218l-2.210938-3.160157c-2.378906-3.394531-1.550781-8.070312 1.839844-10.445312 3.394531-2.375 8.070312-1.550781 10.445312 1.84375l2.210938 3.15625c2.378906 3.394531 1.550781 8.070312-1.839844 10.445312-1.3125.917969-2.8125 1.359375-4.296875 1.359375zm0 0" fill="#fcf2d0"/><path d="m249.425781 189.6875c-2.363281 0-4.691406-1.113281-6.148437-3.195312-2.375-3.394532-1.550782-8.070313 1.84375-10.445313l7.132812-4.996094c3.390625-2.378906 8.070313-1.554687 10.445313 1.839844s1.550781 8.070313-1.84375 10.445313l-7.132813 4.996093c-1.308594.917969-2.808594 1.355469-4.296875 1.355469zm0 0" fill="#f6e3a3"/><path d="m337.625 204.371094c-2.363281 0-4.691406-1.113282-6.148438-3.199219l-4.460937-6.367187c-2.375-3.394532-1.550781-8.070313 1.839844-10.445313 3.394531-2.378906 8.070312-1.550781 10.445312 1.839844l4.460938 6.371093c2.375 3.390626 1.550781 8.066407-1.839844 10.445313-1.3125.914063-2.8125 1.355469-4.296875 1.355469zm0 0" fill="#f6e3a3"/><path d="m168.429688 171.285156c-2.367188 0-4.691407-1.117187-6.152344-3.199218-2.375-3.394532-1.550782-8.070313 1.84375-10.445313l4.175781-2.925781c3.390625-2.375 8.070313-1.550782 10.445313 1.84375 2.375 3.390625 1.550781 8.066406-1.84375 10.445312l-4.175782 2.921875c-1.308594.917969-2.808594 1.359375-4.292968 1.359375zm0 0" fill="#f6e3a3"/><path d="m64.6875 210.929688c0 17.863281-14.480469 32.34375-32.34375 32.34375s-32.34375-14.480469-32.34375-32.34375c0-17.863282 14.480469-32.34375 32.34375-32.34375s32.34375 14.480468 32.34375 32.34375zm0 0" fill="#8ee2cf"/><path d="m45.082031 210.929688c0 7.035156-5.703125 12.742187-12.738281 12.742187s-12.742188-5.707031-12.742188-12.742187c0-7.035157 5.707032-12.738282 12.742188-12.738282s12.738281 5.703125 12.738281 12.738282zm0 0" fill="#6fce91"/></svg>